<svg width="24" height="24" viewBox="0 0 24 24" fill="none" xmlns="http://www.w3.org/2000/svg">
<path fill-rule="evenodd" clip-rule="evenodd" d="M11.6988 17.0462V22.4243C11.6982 22.7283 11.7927 22.9836 11.9823 23.1901C12.172 23.3966 12.4068 23.4999 12.6866 23.4999C12.9658 23.5006 13.2003 23.3977 13.3899 23.1912C13.5796 22.9847 13.6744 22.729 13.6744 22.4243V15.8899C13.6744 15.7472 13.6497 15.6084 13.6003 15.4736C13.5509 15.3388 13.4769 15.2176 13.3781 15.11L11.6001 13.2815L12.1927 10.0546C12.736 10.7351 13.3945 11.3041 14.1683 11.7616C14.9421 12.2191 15.7735 12.5196 16.6625 12.663C16.9252 12.6989 17.1514 12.6182 17.3411 12.421C17.5307 12.2238 17.6256 11.9728 17.6256 11.668C17.6262 11.3633 17.5317 11.1033 17.3421 10.8882C17.1524 10.6731 16.9177 10.5386 16.6378 10.4849C15.9141 10.3414 15.2763 10.0457 14.7244 9.59748C14.1726 9.1493 13.7238 8.62045 13.3781 8.01094L12.3903 6.28994C12.2092 5.96726 11.9705 5.70731 11.6742 5.51012C11.3778 5.31292 11.0568 5.21432 10.7111 5.21432C10.4812 5.21504 10.2303 5.25555 9.95836 5.33587C9.68639 5.41618 9.2623 5.59079 8.68609 5.85969L5.377 7.41934C5.19656 7.5097 5.05268 7.63985 4.94534 7.80979C4.838 7.97974 4.78433 8.17228 4.78433 8.3874V11.668C4.78367 11.9721 4.87817 12.2274 5.06782 12.4339C5.25748 12.6404 5.49224 12.7437 5.77212 12.7437C6.05133 12.7444 6.28577 12.6415 6.47542 12.435C6.66508 12.2284 6.7599 11.9728 6.7599 11.668V9.08656L8.53792 8.33362L6.95746 17.0462L3.20387 16.1857C2.92399 16.1147 2.66881 16.1641 2.43833 16.3341C2.20785 16.504 2.06791 16.7414 2.01852 17.0462C1.96913 17.3509 2.01852 17.6288 2.16669 17.8798C2.31486 18.1307 2.52888 18.2831 2.80875 18.3369L7.6983 19.4125C7.96105 19.467 8.20372 19.4179 8.4263 19.2652C8.64888 19.1124 8.7931 18.8926 8.85895 18.6058L9.62449 14.8949L11.6988 17.0462ZM10.797 4.04405C11.1842 4.46569 11.6495 4.67651 12.1927 4.67651C12.7354 4.67723 13.2003 4.46676 13.5875 4.04512C13.9747 3.62348 14.1683 3.11686 14.1683 2.52527C14.169 1.93439 13.9757 1.42814 13.5885 1.00649C13.2013 0.584849 12.736 0.374025 12.1927 0.374025C11.6501 0.37331 11.1852 0.583773 10.798 1.00542C10.4108 1.42706 10.2172 1.93368 10.2172 2.52527C10.2165 3.11614 10.4098 3.6224 10.797 4.04405ZM18.002 6.62427C17.4497 6.62427 17.002 7.07198 17.002 7.62427V9.37441C17.002 9.92669 17.4497 10.3744 18.002 10.3744H21.0021C21.5544 10.3744 22.0021 9.92669 22.0021 9.37441V7.62427C22.0021 7.07198 21.5544 6.62427 21.0021 6.62427H18.002Z" fill="black"/>
</svg>
