<svg width="16" height="16" viewBox="0 0 16 16" fill="none" xmlns="http://www.w3.org/2000/svg">
<path d="M8.04422 4.88867C6.31088 4.88867 4.93311 6.26645 4.93311 7.99978C4.93311 9.73312 6.31088 11.1109 8.04422 11.1109C9.77755 11.1109 11.1553 9.73312 11.1553 7.99978C11.1553 6.26645 9.77755 4.88867 8.04422 4.88867ZM8.04422 10.222C6.79977 10.222 5.82199 9.24423 5.82199 7.99978C5.82199 6.75534 6.79977 5.77756 8.04422 5.77756C9.28866 5.77756 10.2664 6.75534 10.2664 7.99978C10.2664 9.24423 9.28866 10.222 8.04422 10.222Z" fill="#121212"/>
<path d="M14.5776 6.53312L13.3331 6.13312L13.0664 5.46645L13.6887 4.31089C13.822 4.04423 13.7776 3.68867 13.5553 3.46645L12.4887 2.39978C12.2664 2.17756 11.9109 2.13312 11.6442 2.26645L10.4887 2.88867L9.82201 2.62201L9.422 1.37756C9.33312 1.11089 9.06645 0.888672 8.75534 0.888672H7.24423C6.93312 0.888672 6.66645 1.11089 6.622 1.42201L6.222 2.66645C5.95534 2.71089 5.73312 2.79978 5.51089 2.93312L4.35534 2.31089C4.08867 2.17756 3.73312 2.22201 3.51089 2.44423L2.44423 3.51089C2.22201 3.73312 2.17756 4.08867 2.31089 4.35534L2.88867 5.46645C2.79978 5.68867 2.71089 5.95534 2.62201 6.17756L1.37756 6.57756C1.11089 6.66645 0.888672 6.93312 0.888672 7.24423V8.75534C0.888672 9.06645 1.11089 9.33312 1.42201 9.422L2.66645 9.82201L2.93312 10.4887L2.31089 11.6442C2.17756 11.9109 2.22201 12.2664 2.44423 12.4887L3.51089 13.5553C3.73312 13.7776 4.08867 13.822 4.35534 13.6887L5.51089 13.0664L6.17756 13.3331L6.57756 14.622C6.66645 14.8887 6.93312 15.1109 7.24423 15.1109H8.75534C9.06645 15.1109 9.33312 14.8887 9.422 14.622L9.82201 13.3331L10.4887 13.0664L11.6442 13.6887C11.9109 13.822 12.2664 13.7776 12.4887 13.5553L13.5553 12.4887C13.7776 12.2664 13.822 11.9109 13.6887 11.6442L13.0664 10.4887L13.3331 9.82201L14.622 9.422C14.8887 9.33312 15.1109 9.06645 15.1109 8.75534V7.24423C15.1109 6.93312 14.8887 6.622 14.5776 6.53312ZM14.222 8.622L12.622 9.11089L12.5776 9.33312L12.1776 10.2664L12.0442 10.4887L12.8442 11.9553L11.9553 12.8442L10.4887 12.0442L10.2664 12.1776C9.95534 12.3553 9.64423 12.4887 9.33312 12.5776L9.11089 12.622L8.622 14.222H7.37756L6.88867 12.622L6.66645 12.5776L5.73312 12.1776L5.51089 12.0442L4.04423 12.8442L3.15534 11.9553L3.95534 10.4887L3.82201 10.2664C3.64423 9.95534 3.51089 9.64423 3.422 9.33312L3.37756 9.11089L1.77756 8.622V7.37756L3.28867 6.93312L3.37756 6.71089C3.46645 6.35534 3.59978 6.04423 3.77756 5.73312L3.91089 5.51089L3.15534 4.04423L4.04423 3.15534L5.46645 3.95534L5.68867 3.82201C5.99978 3.64423 6.31089 3.51089 6.66645 3.422L6.88867 3.33312L7.37756 1.77756H8.622L9.11089 3.33312L9.33312 3.422C9.64423 3.51089 9.95534 3.64423 10.2664 3.82201L10.4887 3.95534L11.9553 3.15534L12.8442 4.04423L12.0442 5.51089L12.1776 5.73312C12.3553 6.04423 12.4887 6.35534 12.5776 6.66645L12.622 6.88867L14.222 7.37756V8.622Z" fill="#121212"/>
</svg>
