<svg width="90" height="90" viewBox="0 0 90 90" fill="none" xmlns="http://www.w3.org/2000/svg">
<rect x="0.25" y="0.25" width="89.5" height="89.5" rx="8.75" stroke="#7B46AC" stroke-width="0.5"/>
<rect x="2" y="2" width="86" height="86" rx="7" fill="#7B46AC"/>
<path d="M20.5965 55.5073V48.6253L16 36.2948H18.3128L21.6913 45.8123L25.5917 34.3047H27.716L22.7117 48.7014V55.5091L20.5965 55.5073ZM34.2192 55.5073H32.4448C32.3559 55.1532 32.2953 54.7926 32.2636 54.4289H32.1331C31.5386 55.1847 30.7719 55.6958 29.5829 55.6958C27.6562 55.6958 26.3349 54.2404 26.3349 51.5796C26.3349 48.6796 27.8193 46.8508 31.6129 46.8508H31.9047V46.0479C31.9047 44.2716 31.3102 43.5176 30.1302 43.5176C29.0518 43.5176 28.1365 44.0831 27.4387 44.6976L27.0327 42.847C27.6562 42.3377 28.8941 41.7722 30.2607 41.7722C32.6605 41.7722 33.9728 42.7926 33.9728 46.0769V52.4406C33.9728 53.7329 34.1033 54.8675 34.2066 55.5091L34.2192 55.5073ZM31.9156 48.4458H31.6691C29.0536 48.4458 28.499 49.5968 28.499 51.344C28.499 52.9028 29.0083 53.9196 30.0741 53.9196C30.8009 53.9196 31.5295 53.4392 31.9065 52.8447L31.9156 48.4458ZM38.6852 55.5073H36.59V41.9226H38.6852V43.1116H38.8158C39.1946 42.6023 40.215 41.7704 41.4783 41.7704C43.2528 41.7704 44.188 42.7618 44.188 44.8299V55.5073H42.0637V45.0184C42.0637 43.9979 41.6124 43.6409 40.8004 43.6409C39.9214 43.6409 39.1764 44.3206 38.6852 44.9894V55.5073ZM46.2633 49.2488C46.2633 44.2173 48.1429 41.7722 50.8526 41.7722C51.5033 41.7722 52.1739 41.9897 52.5799 42.2815V36.2948H54.6751V55.5073H53.1164L52.9478 54.4289H52.8155C52.2301 55.1847 51.4761 55.6958 50.3722 55.6958C47.7097 55.6958 46.2633 53.4393 46.2633 49.2488ZM52.5817 44.1321C52.1558 43.7061 51.6954 43.4886 50.9939 43.4886C49.3047 43.4886 48.4927 46.0479 48.4927 48.8119C48.4927 51.9856 49.0872 53.9178 50.626 53.9178C51.6754 53.9178 52.2301 53.4084 52.5817 52.8719V44.1321ZM61.2926 55.6958C58.4995 55.6958 56.7704 53.4683 56.7704 49.3031C56.7704 44.9441 57.9793 41.7704 60.8576 41.7704C63.1141 41.7704 64.5859 43.4596 64.5859 48.0688V49.2197H58.9508C58.9508 52.2883 59.8118 53.8942 61.4811 53.8942C62.6628 53.8942 63.531 53.3649 64.0603 52.9879L64.5514 54.592C63.6247 55.323 62.4728 55.7127 61.2926 55.6958ZM58.9798 47.4924H62.4453C62.4453 45.1797 62.0665 43.4904 60.8576 43.4904C59.5743 43.4904 59.123 45.0764 58.9707 47.4924H58.9798ZM73.7082 41.9607L71.187 48.3044L74 55.5091H71.8304L69.7225 49.9194L67.6853 55.5091H65.6172L68.4392 48.4929L65.8818 41.9607H68.0623L69.8186 46.878L71.6673 41.9607H73.7082Z" fill="white"/>
<path d="M72 2H81C84.866 2 88 5.13401 88 9V18H79C75.134 18 72 14.866 72 11V2Z" fill="white" fill-opacity="0.4"/>
<path d="M78.125 8.875H80.125V14.25" stroke="white" stroke-linecap="round" stroke-linejoin="round"/>
<path d="M77.8438 14.375H82.1562" stroke="white" stroke-miterlimit="10" stroke-linecap="round"/>
<path d="M80 7C79.8022 7 79.6089 6.94135 79.4444 6.83147C79.28 6.72159 79.1518 6.56541 79.0761 6.38268C79.0004 6.19996 78.9806 5.99889 79.0192 5.80491C79.0578 5.61093 79.153 5.43275 79.2929 5.29289C79.4327 5.15304 79.6109 5.0578 79.8049 5.01922C79.9989 4.98063 80.2 5.00043 80.3827 5.07612C80.5654 5.15181 80.7216 5.27998 80.8315 5.44443C80.9414 5.60888 81 5.80222 81 6C81 6.26522 80.8946 6.51957 80.7071 6.70711C80.5196 6.89464 80.2652 7 80 7Z" fill="white"/>
</svg>
