
<svg width="23" height="26" viewBox="0 0 23 26" fill="none" xmlns="http://www.w3.org/2000/svg">
<path d="M22.0638 9.89383C22.0638 9.02083 21.3562 8.31079 20.4861 8.31079C19.6161 8.31079 18.9085 9.02083 18.9085 9.89383V16.4898C18.9085 17.3628 19.6161 18.0729 20.4861 18.0729C21.3562 18.0729 22.0638 17.3628 22.0638 16.4898V9.89383Z" fill="white"/>
<path d="M3.65795 9.89383C3.65795 9.02083 2.95033 8.31079 2.08031 8.31079C1.21029 8.31079 0.50267 9.02083 0.50267 9.89383V16.4898C0.50267 17.3628 1.21029 18.0729 2.08031 18.0729C2.95033 18.0729 3.65795 17.3628 3.65795 16.4898V9.89383Z" fill="white"/>
<path d="M14.734 2.34952L15.8468 0.33424C15.9064 0.2256 15.8677 0.0882474 15.7594 0.0284953C15.7254 0.00909522 15.6875 0.000559197 15.6512 0.000559197C15.5723 0.000559197 15.4957 0.0424633 15.4547 0.116184L14.3295 2.15319C13.4076 1.74268 12.3745 1.51299 11.284 1.51299C10.1928 1.51299 9.15962 1.74268 8.23855 2.15319L7.11178 0.116184C7.05146 0.00754322 6.91534 -0.0320329 6.80708 0.0284953C6.69881 0.0890234 6.65936 0.2256 6.71969 0.33424L7.83254 2.34952C5.69422 3.46618 4.24882 5.58855 4.24573 8.02364H18.3208C18.3177 5.58855 16.8723 3.46618 14.734 2.34952ZM8.03516 5.43956C7.71113 5.43956 7.44741 5.17494 7.44741 4.8498C7.44741 4.52465 7.71113 4.26004 8.03516 4.26004C8.3592 4.26004 8.62291 4.52465 8.62291 4.8498C8.62291 5.17494 8.3592 5.43956 8.03516 5.43956ZM14.5313 5.43956C14.2073 5.43956 13.9436 5.17494 13.9436 4.8498C13.9436 4.52465 14.2073 4.26004 14.5313 4.26004C14.8554 4.26004 15.1191 4.52465 15.1191 4.8498C15.1191 5.17494 14.8554 5.43956 14.5313 5.43956Z" fill="white"/>
<path d="M4.24573 8.58252V18.818C4.24573 19.7608 5.00748 20.5252 5.94711 20.5252H7.0762V24.0172C7.0762 24.8902 7.78382 25.6002 8.65384 25.6002C9.52387 25.6002 10.2315 24.8902 10.2315 24.0172V20.5252H12.335V24.0172C12.335 24.8902 13.0426 25.6002 13.9126 25.6002C14.7827 25.6002 15.4903 24.8902 15.4903 24.0172V20.5252H16.6194C17.559 20.5252 18.3208 19.7608 18.3208 18.818V8.58252H4.24573Z" fill="white"/>
</svg>
