<svg width="22" height="27" viewBox="0 0 22 27" fill="none" xmlns="http://www.w3.org/2000/svg">
<path d="M14.8708 4.2176C15.7893 3.0848 16.4102 1.5616 16.2485 0C14.9096 0.064 13.2666 0.8768 12.3222 2.0096C11.4684 2.9824 10.718 4.5696 10.9121 6.0608C12.4192 6.1888 13.9199 5.3184 14.8708 4.2176Z" fill="white"/>
<path d="M16.2291 6.3552C14.0428 6.2272 12.1799 7.584 11.1385 7.584C10.0906 7.584 8.49288 6.4192 6.76581 6.4512C4.51478 6.4832 2.42548 7.744 1.28056 9.7472C-1.06749 13.7536 0.659588 19.6992 2.94295 22.9696C4.05552 24.5824 5.38802 26.3616 7.15391 26.2976C8.8163 26.2336 9.46962 25.2288 11.4942 25.2288C13.5189 25.2288 14.1075 26.2976 15.8669 26.2656C17.6975 26.2336 18.8359 24.6464 19.9485 23.0336C21.2228 21.1904 21.7403 19.4176 21.7791 19.3152C21.7467 19.2832 18.2538 17.9584 18.2214 13.984C18.1891 10.656 20.9641 9.0752 21.0934 8.9728C19.5281 6.6752 17.0765 6.4192 16.2291 6.3552Z" fill="white"/>
</svg>