<svg width="20" height="24" viewBox="0 0 20 24" fill="none" xmlns="http://www.w3.org/2000/svg">
<path d="M14.7022 6.51643L14.7022 6.51538C14.6977 5.43272 13.9028 4.50475 12.8712 4.50475H3.57367C2.53843 4.50475 1.74268 5.43237 1.74268 6.51643V21.3812C1.74268 22.4652 2.53843 23.3929 3.57367 23.3929H12.8712C13.9065 23.3929 14.7022 22.4652 14.7022 21.3812L14.7022 6.51643ZM13.0923 21.3766C13.0923 21.5568 12.9664 21.656 12.8671 21.656H3.56957C3.47027 21.656 3.34446 21.5568 3.34446 21.3766V6.51643C3.34446 6.33628 3.47027 6.23701 3.56957 6.23701H12.8671C12.9664 6.23701 13.0923 6.33628 13.0923 6.51643V21.3766Z" fill="white" stroke="white" stroke-width="0.5"/>
<path d="M16.4264 0.607128H7.12885C6.0936 0.607128 5.29785 1.53475 5.29785 2.61881C5.29785 3.07304 5.63077 3.48494 6.10079 3.48494C6.57081 3.48494 6.90373 3.07304 6.90373 2.61881C6.90373 2.43866 7.02954 2.33939 7.12885 2.33939H16.4264C16.5257 2.33939 16.6515 2.43866 16.6515 2.61881V17.4836C16.6515 17.6637 16.5257 17.763 16.4264 17.763C15.9564 17.763 15.6235 18.1749 15.6235 18.6291C15.6235 19.0833 15.9564 19.4952 16.4264 19.4952C17.4617 19.4952 18.2574 18.5676 18.2574 17.4836V2.61881C18.2574 1.53475 17.4617 0.607128 16.4264 0.607128Z" fill="white" stroke="white" stroke-width="0.5" stroke-linejoin="round"/>
</svg>
