<svg width="45" height="44" viewBox="0 0 45 44" fill="none" xmlns="http://www.w3.org/2000/svg">
    <path fill-rule="evenodd" clip-rule="evenodd"
        d="M41.9208 24.8488C41.565 22.9396 40.823 21.6179 40.2588 20.7339C39.9448 20.2425 39.5585 19.7934 39.1555 19.367C40.4283 19.2088 40.7285 18.1921 40.8008 17.3618C40.873 16.5512 39.6752 16.4891 38.8025 16.5484C38.0855 16.5964 37.5102 16.8478 37.0017 17.3251C36.5264 15.3227 35.5926 13.0351 33.1609 11.5213C32.0659 10.8407 30.7402 10.338 29.0949 9.99625C28.3251 9.83528 27.4914 9.70819 26.5715 9.61781C25.282 9.4879 23.8423 9.42859 22.2193 9.42859C20.688 9.42859 19.3207 9.49072 18.0923 9.61781C17.1974 9.71383 16.3803 9.84092 15.6299 10.0076C14.157 10.3323 12.9481 10.7899 11.9642 11.3971C9.96511 12.6396 8.92972 14.883 7.98663 16.9263L7.90945 17.0935C7.46756 16.7631 6.97287 16.588 6.38091 16.5484C5.51103 16.4891 4.40215 16.5484 4.38548 17.3618L4.38448 17.4055C4.36504 18.2544 4.3462 19.0773 5.45823 19.3105C5.05525 19.737 4.6884 20.1945 4.3549 20.6774C3.38776 22.0839 2.82915 23.5864 2.73466 25.021C2.62905 26.628 3.1293 28.0599 4.14925 29.15C4.17732 29.9517 4.19911 30.87 4.21795 31.6642C4.23455 32.364 4.24888 32.9675 4.26319 33.3101C4.31502 34.5963 4.99334 34.5874 7.30194 34.5573L7.43421 34.5556C7.66371 34.5522 7.89755 34.5575 8.12944 34.5628C9.44756 34.593 10.7023 34.6216 10.7331 33.039C10.747 32.4515 10.7358 32.0336 10.7192 31.6664C17.2363 32.83 27.6053 33.0107 34.1808 31.7568C34.1669 32.1013 34.1586 32.4967 34.1697 33.039C34.2004 34.6228 35.451 34.5937 36.7708 34.5631C37.0043 34.5577 37.2399 34.5522 37.4713 34.5556L37.5985 34.5574C39.9058 34.5903 40.5877 34.6 40.6396 33.3101C40.6539 32.9756 40.6676 32.3912 40.6835 31.7111C40.7016 30.9384 40.7226 30.042 40.7507 29.2489C41.8513 27.8707 42.1848 26.2552 41.9208 24.8488ZM29.8064 28.766C28.9918 29.6259 28.1747 29.6473 26.6104 29.6882L26.3491 29.6951C25.5154 29.7149 18.7732 29.6782 17.9366 29.6499L17.6827 29.6404C16.1612 29.584 15.2974 29.5519 14.496 28.684C13.6456 27.7662 14.3265 27.0517 15.5493 27.0404C16.1747 27.0347 28.1473 27.1025 28.7754 27.1138C29.9926 27.1364 30.668 27.8594 29.8064 28.766ZM13.4511 13.2808C15.2075 12.2359 17.8588 11.8405 22.2221 11.8405C26.8522 11.8405 29.8676 12.3771 31.7157 13.5265C33.2776 14.498 34.5393 16.7122 34.6672 18.7852C32.6606 19.4912 13.804 19.5477 9.94379 18.7852C10.6441 16.4496 11.5362 14.419 13.4511 13.2808ZM8.07678 26.0886C9.87767 27.0375 12.0037 26.8342 12.3845 25.8542C12.6563 25.1418 11.8874 24.4276 11.041 23.6414C10.8404 23.4551 10.6355 23.2648 10.4391 23.0695C9.45524 22.0895 7.9267 21.5529 6.8067 22.4792C5.86457 23.2559 5.78675 24.8826 8.07678 26.0886ZM36.9302 26.0886C35.132 27.0375 33.0088 26.8342 32.628 25.8542C32.3542 25.1425 33.121 24.429 33.9649 23.6436C34.1659 23.4566 34.3712 23.2656 34.5679 23.0695C35.5517 22.0895 37.0802 21.5529 38.203 22.4792C39.1452 23.2531 39.223 24.8798 36.9302 26.0886Z"
        fill="#3CB268" />
</svg>
