<svg width="130" height="20" viewBox="0 0 130 20" fill="none" xmlns="http://www.w3.org/2000/svg">
    <path
        d="M7.60889 16.1745C5.13123 16.1745 3.24001 15.4735 1.93521 14.0716C0.645069 12.6696 0 10.6786 0 8.09843C0 6.81581 0.197919 5.67487 0.593757 4.67562C0.989595 3.66145 1.53204 2.81133 2.22109 2.12528C2.91014 1.42431 3.73114 0.894855 4.68408 0.536912C5.63703 0.178971 6.6706 0 7.78481 0C8.42988 0 9.01631 0.0522 9.54409 0.1566C10.0719 0.246085 10.5337 0.357942 10.9295 0.49217C11.3254 0.611484 11.6552 0.738256 11.9191 0.872484C12.183 1.00671 12.3736 1.11111 12.4909 1.18568L11.5013 4.00447C11.0322 3.75093 10.4824 3.53467 9.85197 3.3557C9.23622 3.17673 8.53251 3.08725 7.74083 3.08725C7.21305 3.08725 6.69259 3.17673 6.17947 3.3557C5.68101 3.53467 5.23386 3.8255 4.83802 4.22819C4.45684 4.61596 4.14897 5.12304 3.9144 5.74944C3.67983 6.37584 3.56254 7.13646 3.56254 8.03132C3.56254 8.7472 3.63585 9.41834 3.78245 10.0447C3.94372 10.6562 4.19295 11.1857 4.53015 11.6331C4.882 12.0805 5.33648 12.4385 5.89359 12.7069C6.45069 12.9605 7.12508 13.0872 7.91676 13.0872C8.41522 13.0872 8.86237 13.0574 9.25821 12.9978C9.65405 12.9381 10.0059 12.871 10.3138 12.7964C10.6217 12.7069 10.8929 12.61 11.1274 12.5056C11.362 12.4012 11.5746 12.3042 11.7652 12.2148L12.7108 15.0112C12.227 15.3095 11.5453 15.5779 10.6656 15.8166C9.786 16.0552 8.76708 16.1745 7.60889 16.1745Z"
        fill="#3CB268" />
    <path
        d="M18.7848 13.5347C19.1073 13.5347 19.4152 13.5272 19.7084 13.5123C20.0016 13.4974 20.2362 13.475 20.4121 13.4452V10.9172C20.2802 10.8874 20.0823 10.8576 19.8184 10.8277C19.5545 10.7979 19.3126 10.783 19.0927 10.783C18.7848 10.783 18.4916 10.8054 18.213 10.8501C17.9491 10.8799 17.7146 10.9471 17.5093 11.0515C17.3041 11.1559 17.1428 11.2975 17.0255 11.4765C16.9082 11.6555 16.8496 11.8792 16.8496 12.1476C16.8496 12.6696 17.0182 13.035 17.3554 13.2438C17.7072 13.4377 18.1837 13.5347 18.7848 13.5347ZM18.5209 3.78076C19.4885 3.78076 20.2948 3.89262 20.9399 4.11633C21.585 4.34004 22.0981 4.6607 22.4793 5.0783C22.8751 5.4959 23.1537 6.00298 23.3149 6.59955C23.4762 7.19612 23.5568 7.8598 23.5568 8.5906V15.5257C23.0877 15.6301 22.4353 15.7494 21.5996 15.8837C20.764 16.0328 19.7524 16.1074 18.5649 16.1074C17.8172 16.1074 17.1355 16.0403 16.5197 15.906C15.9186 15.7718 15.3982 15.5556 14.9583 15.2573C14.5185 14.9441 14.1813 14.5414 13.9468 14.0492C13.7122 13.557 13.5949 12.953 13.5949 12.2371C13.5949 11.5511 13.7268 10.9694 13.9907 10.4922C14.2693 10.0149 14.6358 9.6346 15.0903 9.35123C15.5448 9.06786 16.0652 8.86652 16.6517 8.7472C17.2381 8.61297 17.8465 8.54586 18.4769 8.54586C18.9021 8.54586 19.2759 8.56823 19.5984 8.61297C19.9356 8.6428 20.2069 8.68755 20.4121 8.7472V8.434C20.4121 7.86726 20.2435 7.41238 19.9063 7.06935C19.5691 6.72632 18.9827 6.55481 18.147 6.55481C17.5899 6.55481 17.0402 6.59955 16.4977 6.68904C15.9553 6.76361 15.4861 6.87546 15.0903 7.02461L14.6725 4.34004C14.8631 4.28039 15.0976 4.22073 15.3762 4.16107C15.6694 4.0865 15.9846 4.02685 16.3218 3.9821C16.659 3.92245 17.0108 3.8777 17.3774 3.84788C17.7585 3.80313 18.1397 3.78076 18.5209 3.78076Z"
        fill="#3CB268" />
    <path
        d="M32.9411 7.04698C32.6479 6.97241 32.3034 6.89784 31.9076 6.82327C31.5117 6.73378 31.0866 6.68904 30.6321 6.68904C30.4268 6.68904 30.1776 6.71141 29.8844 6.75615C29.6058 6.78598 29.3933 6.82327 29.2467 6.86801V15.8613H25.97V4.72036C26.5564 4.51156 27.2455 4.31767 28.0371 4.1387C28.8435 3.94482 29.7378 3.84788 30.7201 3.84788C30.896 3.84788 31.1086 3.86279 31.3578 3.89262C31.607 3.90753 31.8563 3.93736 32.1055 3.9821C32.3547 4.01193 32.6039 4.05667 32.8532 4.11633C33.1024 4.16107 33.315 4.22073 33.4909 4.2953L32.9411 7.04698Z"
        fill="#3CB268" />
    <path d="M36.7064 0.357945H40.137V15.8613H36.7064V0.357945Z" fill="#19191A" />
    <path
        d="M42.8949 4.49665C43.452 4.33259 44.1703 4.18345 45.05 4.04922C45.9296 3.90008 46.8532 3.82551 47.8208 3.82551C48.8031 3.82551 49.6168 3.95973 50.2618 4.22819C50.9216 4.48173 51.442 4.84713 51.8232 5.32439C52.2044 5.80164 52.4756 6.36838 52.6369 7.02461C52.7981 7.68084 52.8788 8.41164 52.8788 9.217V15.8613H49.6021V9.61969C49.6021 8.54586 49.4628 7.78524 49.1843 7.33781C48.9057 6.89038 48.3853 6.66667 47.6229 6.66667C47.3883 6.66667 47.1391 6.68158 46.8752 6.71141C46.6113 6.72633 46.3768 6.7487 46.1715 6.77853V15.8613H42.8949V4.49665Z"
        fill="#19191A" />
    <path
        d="M58.6155 13.4676C59.2166 13.4676 59.6417 13.4079 59.891 13.2886C60.1402 13.1693 60.2648 12.9381 60.2648 12.5951C60.2648 12.3266 60.1035 12.0955 59.781 11.9016C59.4585 11.6928 58.9674 11.4616 58.3076 11.2081C57.7945 11.0142 57.3254 10.8128 56.9002 10.604C56.4897 10.3952 56.1378 10.1491 55.8446 9.86577C55.5514 9.56749 55.3242 9.217 55.1629 8.81432C55.0016 8.41163 54.921 7.92692 54.921 7.36018C54.921 6.25653 55.3242 5.38404 56.1305 4.74273C56.9368 4.10142 58.0437 3.78076 59.4512 3.78076C60.1549 3.78076 60.8293 3.84788 61.4743 3.98211C62.1194 4.10142 62.6325 4.23565 63.0137 4.38479L62.4419 6.97987C62.0608 6.84564 61.6429 6.72633 61.1884 6.62193C60.7486 6.51753 60.2502 6.46533 59.6931 6.46533C58.6668 6.46533 58.1537 6.75615 58.1537 7.33781C58.1537 7.47204 58.1757 7.59135 58.2197 7.69575C58.2636 7.80015 58.3516 7.90455 58.4836 8.00895C58.6155 8.09844 58.7914 8.20284 59.0113 8.32215C59.2459 8.42655 59.5391 8.54586 59.891 8.68009C60.6093 8.94855 61.2031 9.217 61.6722 9.48546C62.1414 9.739 62.5079 10.0224 62.7718 10.3356C63.0503 10.6339 63.2409 10.9694 63.3436 11.3423C63.4608 11.7151 63.5195 12.1477 63.5195 12.6398C63.5195 13.8031 63.087 14.6831 62.222 15.2796C61.3717 15.8762 60.1622 16.1745 58.5935 16.1745C57.5673 16.1745 56.7096 16.085 56.0206 15.906C55.3462 15.7271 54.877 15.5779 54.6131 15.4586L55.1629 12.7517C55.72 12.9754 56.2918 13.1544 56.8782 13.2886C57.4646 13.4079 58.0437 13.4676 58.6155 13.4676Z"
        fill="#19191A" />
    <path
        d="M72.8294 10.0671C72.8294 9.03803 72.6022 8.21775 72.1477 7.60627C71.6932 6.97987 71.0188 6.66667 70.1245 6.66667C69.8313 6.66667 69.5601 6.68158 69.3109 6.71141C69.0616 6.72633 68.8564 6.7487 68.6951 6.77853V12.7964C68.9004 12.9306 69.1642 13.0425 69.4868 13.132C69.824 13.2215 70.1612 13.2662 70.4984 13.2662C72.0524 13.2662 72.8294 12.1999 72.8294 10.0671ZM76.172 9.97763C76.172 10.8874 76.0621 11.7151 75.8422 12.4609C75.6223 13.2066 75.2997 13.8479 74.8746 14.3848C74.4494 14.9217 73.9216 15.3393 73.2912 15.6376C72.6608 15.9359 71.9351 16.085 71.1141 16.085C70.6596 16.085 70.2345 16.0403 69.8386 15.9508C69.4428 15.8613 69.0616 15.7345 68.6951 15.5705V20H65.4184V4.49665C65.7117 4.40716 66.0489 4.32513 66.43 4.25056C66.8112 4.16108 67.207 4.0865 67.6175 4.02685C68.0427 3.96719 68.4679 3.92245 68.893 3.89262C69.3328 3.84788 69.7507 3.82551 70.1465 3.82551C71.0995 3.82551 71.9498 3.97465 72.6975 4.27293C73.4452 4.5563 74.0756 4.96645 74.5887 5.50336C75.1018 6.02536 75.4903 6.66667 75.7542 7.42729C76.0328 8.18792 76.172 9.03803 76.172 9.97763Z"
        fill="#19191A" />
    <path
        d="M77.5908 10.0671C77.5908 9.02312 77.7447 8.11335 78.0526 7.33781C78.3752 6.54736 78.793 5.89113 79.3061 5.36913C79.8192 4.84713 80.4057 4.4519 81.0654 4.18345C81.7398 3.91499 82.4288 3.78076 83.1325 3.78076C84.7745 3.78076 86.072 4.2953 87.0249 5.32439C87.9779 6.33856 88.4544 7.83744 88.4544 9.82103C88.4544 10.0149 88.447 10.2312 88.4324 10.4698C88.4177 10.6935 88.4031 10.8949 88.3884 11.0738H80.9554C81.0287 11.7599 81.3439 12.3043 81.901 12.7069C82.4582 13.1096 83.2058 13.311 84.1441 13.311C84.7452 13.311 85.3316 13.2588 85.9034 13.1544C86.4898 13.035 86.9663 12.8934 87.3328 12.7293L87.7726 15.4362C87.5967 15.5257 87.3621 15.6152 87.0689 15.7047C86.7757 15.7942 86.4459 15.8688 86.0793 15.9284C85.7275 16.003 85.3463 16.0626 84.9358 16.1074C84.5253 16.1521 84.1148 16.1745 83.7043 16.1745C82.6634 16.1745 81.7544 16.0179 80.9774 15.7047C80.2151 15.3915 79.5773 14.9664 79.0642 14.4295C78.5657 13.8777 78.1919 13.2289 77.9427 12.4832C77.7081 11.7375 77.5908 10.9321 77.5908 10.0671ZM85.2877 8.79195C85.273 8.50858 85.2217 8.23266 85.1337 7.96421C85.0604 7.69575 84.9358 7.45712 84.7599 7.24832C84.5986 7.03952 84.386 6.86801 84.1221 6.73378C83.8729 6.59955 83.5577 6.53244 83.1765 6.53244C82.81 6.53244 82.4948 6.59955 82.2309 6.73378C81.967 6.8531 81.7471 7.01715 81.5712 7.22595C81.3952 7.43475 81.256 7.68084 81.1533 7.96421C81.0654 8.23266 80.9994 8.50858 80.9554 8.79195H85.2877Z"
        fill="#19191A" />
    <path
        d="M89.8834 9.97763C89.8834 9.12752 90.0154 8.32961 90.2793 7.58389C90.5578 6.82327 90.9537 6.16704 91.4668 5.61521C91.9799 5.04847 92.603 4.60105 93.336 4.27293C94.0691 3.94482 94.9047 3.78076 95.843 3.78076C96.4587 3.78076 97.0232 3.84042 97.5363 3.95973C98.0494 4.06413 98.5479 4.22073 99.0317 4.42953L98.35 7.09172C98.0421 6.97241 97.7049 6.86801 97.3384 6.77853C96.9719 6.68904 96.5614 6.6443 96.1069 6.6443C95.1393 6.6443 94.4136 6.95004 93.9298 7.56152C93.4606 8.17301 93.2261 8.97838 93.2261 9.97763C93.2261 11.0365 93.446 11.8568 93.8858 12.4385C94.3403 13.0201 95.1246 13.311 96.2388 13.311C96.6347 13.311 97.0598 13.2737 97.5143 13.1991C97.9688 13.1245 98.3866 13.0052 98.7678 12.8412L99.2296 15.5705C98.8484 15.7345 98.372 15.8762 97.8002 15.9955C97.2284 16.1148 96.598 16.1745 95.909 16.1745C94.8534 16.1745 93.9444 16.0179 93.1821 15.7047C92.4197 15.3766 91.7893 14.9366 91.2909 14.3848C90.8071 13.833 90.4479 13.1842 90.2133 12.4385C89.9934 11.6779 89.8834 10.8576 89.8834 9.97763Z"
        fill="#19191A" />
    <path
        d="M100.769 1.16331L104.046 0.626401V4.09396H107.982V6.86801H104.046V11.0067C104.046 11.7077 104.163 12.267 104.397 12.6846C104.647 13.1022 105.138 13.311 105.871 13.311C106.223 13.311 106.582 13.2811 106.948 13.2215C107.33 13.1469 107.674 13.05 107.982 12.9306L108.444 15.5257C108.048 15.6898 107.608 15.8315 107.124 15.9508C106.641 16.0701 106.047 16.1298 105.343 16.1298C104.449 16.1298 103.708 16.0104 103.122 15.7718C102.536 15.5183 102.066 15.1752 101.715 14.7427C101.363 14.2953 101.113 13.7584 100.967 13.132C100.835 12.5056 100.769 11.8121 100.769 11.0515V1.16331Z"
        fill="#19191A" />
    <path
        d="M120.491 9.95526C120.491 10.8799 120.359 11.7301 120.095 12.5056C119.831 13.2662 119.45 13.9224 118.951 14.4743C118.453 15.0112 117.852 15.4288 117.148 15.7271C116.459 16.0254 115.682 16.1745 114.817 16.1745C113.967 16.1745 113.19 16.0254 112.486 15.7271C111.797 15.4288 111.203 15.0112 110.705 14.4743C110.206 13.9224 109.818 13.2662 109.539 12.5056C109.261 11.7301 109.121 10.8799 109.121 9.95526C109.121 9.03058 109.261 8.18792 109.539 7.42729C109.832 6.66667 110.228 6.0179 110.727 5.48099C111.24 4.94407 111.841 4.52648 112.53 4.22819C113.234 3.92991 113.996 3.78076 114.817 3.78076C115.653 3.78076 116.415 3.92991 117.104 4.22819C117.808 4.52648 118.409 4.94407 118.907 5.48099C119.406 6.0179 119.794 6.66667 120.073 7.42729C120.351 8.18792 120.491 9.03058 120.491 9.95526ZM117.148 9.95526C117.148 8.92618 116.943 8.12081 116.532 7.53915C116.136 6.94258 115.565 6.6443 114.817 6.6443C114.069 6.6443 113.49 6.94258 113.08 7.53915C112.669 8.12081 112.464 8.92618 112.464 9.95526C112.464 10.9843 112.669 11.8046 113.08 12.4161C113.49 13.0127 114.069 13.311 114.817 13.311C115.565 13.311 116.136 13.0127 116.532 12.4161C116.943 11.8046 117.148 10.9843 117.148 9.95526Z"
        fill="#19191A" />
    <path
        d="M129.45 7.04698C129.157 6.97241 128.812 6.89784 128.417 6.82327C128.021 6.73378 127.596 6.68904 127.141 6.68904C126.936 6.68904 126.687 6.71141 126.393 6.75615C126.115 6.78598 125.902 6.82327 125.756 6.86801V15.8613H122.479V4.72036C123.065 4.51156 123.755 4.31768 124.546 4.1387C125.353 3.94482 126.247 3.84788 127.229 3.84788C127.405 3.84788 127.618 3.86279 127.867 3.89262C128.116 3.90753 128.365 3.93736 128.615 3.98211C128.864 4.01193 129.113 4.05668 129.362 4.11633C129.611 4.16108 129.824 4.22073 130 4.2953L129.45 7.04698Z"
        fill="#19191A" />
</svg>
