<svg width="24" height="24" viewBox="0 0 24 24" fill="none" xmlns="http://www.w3.org/2000/svg">
    <path
        d="M8 16.85H16V16.375C16 15.675 15.6458 15.1333 14.9375 14.75C14.2292 14.3667 13.25 14.175 12 14.175C10.75 14.175 9.77083 14.3667 9.0625 14.75C8.35417 15.1333 8 15.675 8 16.375V16.85ZM12 12.5C12.5 12.5 12.9292 12.3208 13.2875 11.9625C13.6458 11.6042 13.825 11.175 13.825 10.675C13.825 10.175 13.6458 9.74583 13.2875 9.3875C12.9292 9.02917 12.5 8.85 12 8.85C11.5 8.85 11.0708 9.02917 10.7125 9.3875C10.3542 9.74583 10.175 10.175 10.175 10.675C10.175 11.175 10.3542 11.6042 10.7125 11.9625C11.0708 12.3208 11.5 12.5 12 12.5ZM3.5 21C3.1 21 2.75 20.85 2.45 20.55C2.15 20.25 2 19.9 2 19.5V6.675C2 6.29167 2.15 5.94583 2.45 5.6375C2.75 5.32917 3.1 5.175 3.5 5.175H7.175L9 3H15L16.825 5.175H20.5C20.8833 5.175 21.2292 5.32917 21.5375 5.6375C21.8458 5.94583 22 6.29167 22 6.675V19.5C22 19.9 21.8458 20.25 21.5375 20.55C21.2292 20.85 20.8833 21 20.5 21H3.5ZM20.5 19.5V6.675H16.125L14.3 4.5H9.7L7.875 6.675H3.5V19.5H20.5Z"
        fill="black" />
</svg>
