<svg width="24" height="24" viewBox="0 0 24 24" fill="none" xmlns="http://www.w3.org/2000/svg">
    <path
        d="M4.77562 18.8119V19.6194C4.77562 20.0188 4.63727 20.3488 4.36057 20.6093C4.08387 20.8698 3.74665 21 3.3489 21H3.42672C3.02897 21 2.69174 20.8611 2.41505 20.5832C2.13835 20.3054 2 19.9667 2 19.5673V10.9971L4.23087 4.25036C4.35192 3.86831 4.57242 3.5644 4.89235 3.33864C5.21228 3.11288 5.57112 3 5.96887 3H18.0052C18.4029 3 18.7618 3.11288 19.0817 3.33864C19.4016 3.5644 19.6221 3.86831 19.7432 4.25036L22 10.9971V19.5673C22 19.9667 21.853 20.3054 21.559 20.5832C21.265 20.8611 20.9278 21 20.5473 21H20.5992C20.2015 21 19.8642 20.8698 19.5875 20.6093C19.3109 20.3488 19.1725 20.0188 19.1725 19.6194V18.8119H4.77562ZM5.0869 9.5644H18.9131L17.5642 5.47467H6.40986L5.0869 9.5644ZM7.08431 15.165C7.46476 15.165 7.79334 15.026 8.07004 14.7482C8.34674 14.4703 8.48508 14.1404 8.48508 13.7583C8.48508 13.3589 8.34674 13.0159 8.07004 12.7294C7.79334 12.4428 7.46476 12.2996 7.08431 12.2996C6.66926 12.2996 6.32339 12.4428 6.04669 12.7294C5.77 13.0159 5.63165 13.3589 5.63165 13.7583C5.63165 14.1577 5.77 14.492 6.04669 14.7612C6.32339 15.0304 6.66926 15.165 7.08431 15.165ZM16.9416 15.165C17.3394 15.165 17.6809 15.026 17.9663 14.7482C18.2516 14.4703 18.3943 14.1404 18.3943 13.7583C18.3943 13.3589 18.2516 13.0159 17.9663 12.7294C17.6809 12.4428 17.3394 12.2996 16.9416 12.2996C16.5439 12.2996 16.211 12.4428 15.9429 12.7294C15.6749 13.0159 15.5409 13.3589 15.5409 13.7583C15.5409 14.1577 15.6792 14.492 15.9559 14.7612C16.2326 15.0304 16.5612 15.165 16.9416 15.165Z"
        fill="black" />
</svg>
