<svg width="24" height="24" viewBox="0 0 24 24" fill="none" xmlns="http://www.w3.org/2000/svg">
    <path
        d="M5 17.9V19.25C5 19.4667 4.92917 19.6458 4.7875 19.7875C4.64583 19.9292 4.46667 20 4.25 20H3.75C3.53333 20 3.35417 19.9292 3.2125 19.7875C3.07083 19.6458 3 19.4667 3 19.25V11.15L5.125 4.75C5.20833 4.51667 5.34583 4.33333 5.5375 4.2C5.72917 4.06667 5.95 4 6.2 4H17.8C18.05 4 18.2708 4.06667 18.4625 4.2C18.6542 4.33333 18.7917 4.51667 18.875 4.75L21 11.15V19.25C21 19.4667 20.9292 19.6458 20.7875 19.7875C20.6458 19.9292 20.4667 20 20.25 20H19.725C19.5083 20 19.3333 19.9292 19.2 19.7875C19.0667 19.6458 19 19.4667 19 19.25V17.9H5ZM5.075 9.65H18.925L17.55 5.5H6.45L5.075 9.65ZM4.5 11.15V16.4V11.15ZM7.15 15.15C7.53333 15.15 7.85417 15.0167 8.1125 14.75C8.37083 14.4833 8.5 14.1667 8.5 13.8C8.5 13.4167 8.37083 13.0875 8.1125 12.8125C7.85417 12.5375 7.53333 12.4 7.15 12.4C6.76667 12.4 6.4375 12.5375 6.1625 12.8125C5.8875 13.0875 5.75 13.4167 5.75 13.8C5.75 14.1833 5.8875 14.5042 6.1625 14.7625C6.4375 15.0208 6.76667 15.15 7.15 15.15ZM16.875 15.15C17.2583 15.15 17.5875 15.0167 17.8625 14.75C18.1375 14.4833 18.275 14.1667 18.275 13.8C18.275 13.4167 18.1375 13.0875 17.8625 12.8125C17.5875 12.5375 17.2583 12.4 16.875 12.4C16.4917 12.4 16.1708 12.5375 15.9125 12.8125C15.6542 13.0875 15.525 13.4167 15.525 13.8C15.525 14.1833 15.6583 14.5042 15.925 14.7625C16.1917 15.0208 16.5083 15.15 16.875 15.15ZM4.5 16.4H19.5V11.15H4.5V16.4Z"
        fill="black" />
</svg>
