<svg width="24" height="24" viewBox="0 0 24 24" fill="none" xmlns="http://www.w3.org/2000/svg">
    <path
        d="M10.475 16.925L17.825 9.57498L16.175 7.92498L10.475 13.625L7.7 10.85L6.075 12.5L10.475 16.925ZM12 22.625C10.5333 22.625 9.15417 22.35 7.8625 21.8C6.57083 21.25 5.44167 20.4916 4.475 19.525C3.50833 18.5583 2.75 17.4291 2.2 16.1375C1.65 14.8458 1.375 13.4666 1.375 12C1.375 10.5166 1.65 9.12914 2.2 7.83748C2.75 6.54581 3.50833 5.42081 4.475 4.46248C5.44167 3.50414 6.57083 2.74581 7.8625 2.18748C9.15417 1.62914 10.5333 1.34998 12 1.34998C13.4833 1.34998 14.8708 1.62914 16.1625 2.18748C17.4542 2.74581 18.5792 3.50414 19.5375 4.46248C20.4958 5.42081 21.2542 6.54581 21.8125 7.83748C22.3708 9.12914 22.65 10.5166 22.65 12C22.65 13.4666 22.3708 14.8458 21.8125 16.1375C21.2542 17.4291 20.4958 18.5583 19.5375 19.525C18.5792 20.4916 17.4542 21.25 16.1625 21.8C14.8708 22.35 13.4833 22.625 12 22.625Z"
        fill="black" />
</svg>
