<svg width="24" height="24" viewBox="0 0 24 24" fill="none" xmlns="http://www.w3.org/2000/svg">
    <path
        d="M7.09719 19C5.7005 19 4.5018 18.5051 3.50108 17.5153C2.50036 16.5255 2 15.3173 2 13.8908C2 12.6681 2.36717 11.5728 3.10151 10.6048C3.83585 9.63683 4.79338 9.05095 5.97408 8.84716C6.29086 7.52256 6.9316 6.42358 7.89633 5.55022C8.86105 4.67686 9.97696 4.16012 11.2441 4V12.1223L9.58099 10.3974L8.47948 11.5109L12.0216 15.1135L15.5637 11.5109L14.4622 10.3974L12.7991 12.1223V4C14.2822 4.18923 15.5385 4.85517 16.568 5.99782C17.5976 7.14047 18.1627 8.5051 18.2635 10.0917V10.6157C19.3434 10.7176 20.2361 11.1579 20.9417 11.9367C21.6472 12.7154 22 13.6725 22 14.8079C22 15.9723 21.5968 16.9622 20.7905 17.7773C19.9842 18.5924 19.005 19 17.8531 19H7.09719Z"
        fill="black" />
</svg>
