<svg width="20" height="20" viewBox="0 0 20 20" fill="none" xmlns="http://www.w3.org/2000/svg">
    <path
        d="M9.21269 14.8531H10.9048V10.9518H14.8296V9.25969H10.9048V5.17039H9.21269V9.25969H5.14689V10.9518H9.21269V14.8531ZM9.98825 20C8.60948 20 7.31297 19.7415 6.09871 19.2244C4.88445 18.7074 3.82295 17.9945 2.91422 17.0858C2.00548 16.177 1.2926 15.1195 0.775558 13.913C0.258519 12.7066 0 11.4062 0 10.0118C0 8.61731 0.258519 7.31297 0.775558 6.09871C1.2926 4.88445 2.00548 3.82687 2.91422 2.92597C3.82295 2.02507 4.88053 1.31218 6.08696 0.787309C7.29338 0.262436 8.59381 0 9.98825 0C11.3827 0 12.687 0.262436 13.9013 0.787309C15.1156 1.31218 16.1731 2.02507 17.074 2.92597C17.9749 3.82687 18.6878 4.88445 19.2127 6.09871C19.7376 7.31297 20 8.61731 20 10.0118C20 11.4062 19.7376 12.7066 19.2127 13.913C18.6878 15.1195 17.9749 16.1731 17.074 17.074C16.1731 17.9749 15.1156 18.6878 13.9013 19.2127C12.687 19.7376 11.3827 20 9.98825 20Z"
        fill="#B5B8C0" />
</svg>
