<svg width="24" height="24" viewBox="0 0 24 24" fill="none" xmlns="http://www.w3.org/2000/svg">
    <path fill-rule="evenodd" clip-rule="evenodd"
        d="M17.7251 9.525L10.5001 16.75L6.2251 12.45L7.6251 11.025L10.5001 13.9L16.3001 8.1L17.7251 9.525ZM7.9876 21.5375C9.24593 22.0792 10.5834 22.35 12.0001 22.35C13.4501 22.35 14.8001 22.0792 16.0501 21.5375C17.3001 20.9958 18.3918 20.2583 19.3251 19.325C20.2584 18.3917 21.0001 17.2958 21.5501 16.0375C22.1001 14.7792 22.3751 13.4333 22.3751 12C22.3751 10.55 22.1001 9.19583 21.5501 7.9375C21.0001 6.67917 20.2626 5.5875 19.3376 4.6625C18.4126 3.7375 17.3168 3 16.0501 2.45C14.7834 1.9 13.4334 1.625 12.0001 1.625C10.5668 1.625 9.22093 1.9 7.9626 2.45C6.70427 3 5.60843 3.74167 4.6751 4.675C3.74177 5.60833 3.00427 6.70417 2.4626 7.9625C1.92093 9.22083 1.6501 10.5667 1.6501 12C1.6501 13.4333 1.92093 14.775 2.4626 16.025C3.00427 17.275 3.74593 18.3708 4.6876 19.3125C5.62927 20.2542 6.72927 20.9958 7.9876 21.5375Z"
        fill="#509469" />
</svg>
