<svg width="24" height="24" viewBox="0 0 24 24" fill="none" xmlns="http://www.w3.org/2000/svg">
    <path
        d="M8.26049 17.4642H15.7164V15.7955H8.26049V17.4642ZM8.26049 13.4689H15.7164V11.8002H8.26049V13.4689ZM6.17656 22C5.57453 22 5.06126 21.7846 4.63676 21.3537C4.21225 20.9228 4 20.4019 4 19.7908V4.23267C4 3.62162 4.21225 3.09675 4.63676 2.65805C5.06126 2.21935 5.57453 2 6.17656 2H14.5818L20 7.49941V19.7908C20 20.4019 19.7839 20.9228 19.3517 21.3537C18.9194 21.7846 18.4023 22 17.8003 22H6.17656ZM13.424 8.604H17.8003L13.424 4.23267V8.604Z"
        fill="black" />
</svg>
