<svg width="24" height="24" viewBox="0 0 24 24" fill="none" xmlns="http://www.w3.org/2000/svg">
    <path
        d="M3.5 20C3.11667 20 2.77083 19.8458 2.4625 19.5375C2.15417 19.2292 2 18.8833 2 18.5V5.5C2 5.11667 2.15417 4.77083 2.4625 4.4625C2.77083 4.15417 3.11667 4 3.5 4H10.525L12.025 5.5H20.5C20.8833 5.5 21.2292 5.65417 21.5375 5.9625C21.8458 6.27083 22 6.61667 22 7H11.375L9.875 5.5H3.5V18.5L6.05 8.5H23.5L20.825 18.85C20.725 19.25 20.5417 19.5417 20.275 19.725C20.0083 19.9083 19.6667 20 19.25 20H3.5ZM5.075 18.5H19.375L21.475 10H7.175L5.075 18.5ZM5.075 18.5L7.175 10L5.075 18.5ZM3.5 7V5.5V7Z"
        fill="black" />
</svg>
