<svg width="18" height="18" viewBox="0 0 18 18" fill="none" xmlns="http://www.w3.org/2000/svg">
    <path
        d="M4.36576 13.5875H10.786V12.1868H4.36576V13.5875ZM4.36576 9.71206H13.6342V8.31128H4.36576V9.71206ZM4.36576 5.81323H13.6342V4.41245H4.36576V5.81323ZM2.19455 18C1.58755 18 1.07004 17.786 0.642023 17.358C0.214008 16.93 0 16.4125 0 15.8054V2.2179C0 1.61089 0.214008 1.08949 0.642023 0.653697C1.07004 0.217899 1.58755 0 2.19455 0H15.7821C16.3891 0 16.9105 0.217899 17.3463 0.653697C17.7821 1.08949 18 1.61089 18 2.2179V15.8054C18 16.4125 17.7821 16.93 17.3463 17.358C16.9105 17.786 16.3891 18 15.7821 18H2.19455Z"
        fill="#B5B8C0" />
</svg>
