<svg width="20" height="16" viewBox="0 0 20 16" fill="none" xmlns="http://www.w3.org/2000/svg">
    <path
        d="M2.20917 16C1.59812 16 1.07716 15.7877 0.646298 15.3632C0.215433 14.9387 0 14.4255 0 13.8234V2.19971C0 1.59768 0.215433 1.08056 0.646298 0.648336C1.07716 0.216112 1.59812 0 2.20917 0H17.7673C18.3784 0 18.9033 0.216112 19.342 0.648336C19.7807 1.08056 20 1.59768 20 2.19971V13.8234C20 14.4255 19.7807 14.9387 19.342 15.3632C18.9033 15.7877 18.3784 16 17.7673 16H2.20917ZM9.98825 9.16932L17.7673 4.00579V2.19971L9.98825 7.24747L2.20917 2.19971V4.00579L9.98825 9.16932Z"
        fill="#B5B8C0" />
</svg>
