<svg width="24" height="24" viewBox="0 0 24 24" fill="none" xmlns="http://www.w3.org/2000/svg">
    <path
        d="M6.17656 22C5.57453 22 5.06126 21.7924 4.63676 21.3771C4.21225 20.9619 4 20.4598 4 19.8709V10.4485C4 9.85957 4.21225 9.35372 4.63676 8.93092C5.06126 8.50812 5.57453 8.29672 6.17656 8.29672H7.3343V6.62061C7.3343 5.33711 7.78582 4.24613 8.68886 3.34768C9.5919 2.44923 10.6918 2 11.9884 2C13.2851 2 14.3849 2.44923 15.288 3.34768C16.191 4.24613 16.6425 5.33711 16.6425 6.62061V8.29672H17.8003C18.4023 8.29672 18.9194 8.50812 19.3517 8.93092C19.7839 9.35372 20 9.85957 20 10.4485V19.8709C20 20.4598 19.7839 20.9619 19.3517 21.3771C18.9194 21.7924 18.4023 22 17.8003 22H6.17656ZM11.9884 16.9037C12.4824 16.9037 12.903 16.7376 13.2504 16.4054C13.5977 16.0732 13.7713 15.6731 13.7713 15.205C13.7713 14.752 13.5977 14.3405 13.2504 13.9706C12.903 13.6006 12.4824 13.4156 11.9884 13.4156C11.4945 13.4156 11.0738 13.6006 10.7265 13.9706C10.3792 14.3405 10.2055 14.752 10.2055 15.205C10.2055 15.6731 10.3792 16.0732 10.7265 16.4054C11.0738 16.7376 11.4945 16.9037 11.9884 16.9037ZM9.51085 8.29672H14.466V6.62061C14.466 5.91091 14.2306 5.32201 13.7598 4.85391C13.289 4.38581 12.6985 4.15176 11.9884 4.15176C11.2938 4.15176 10.7072 4.38581 10.2287 4.85391C9.75012 5.32201 9.51085 5.91091 9.51085 6.62061V8.29672Z"
        fill="black" />
</svg>
