<svg width="24" height="24" viewBox="0 0 24 24" fill="none" xmlns="http://www.w3.org/2000/svg">
    <path
        d="M9.3672 22L8.88222 18.8508C8.68206 18.7881 8.45496 18.6823 8.20092 18.5335C7.94688 18.3846 7.73518 18.2397 7.56582 18.0987L4.67898 19.4618L2 14.6439L4.63279 12.6933C4.6174 12.5993 4.60585 12.4857 4.59815 12.3525C4.59045 12.2193 4.5866 12.1058 4.5866 12.0118C4.5866 11.9177 4.59045 11.8042 4.59815 11.671C4.60585 11.5378 4.6174 11.4242 4.63279 11.3302L2 9.35605L4.67898 4.58519L7.61201 5.92479C7.76597 5.79945 7.96613 5.66628 8.21247 5.52526C8.45881 5.38425 8.68206 5.28241 8.88222 5.21974L9.3672 2H14.6328L15.1178 5.19624C15.3179 5.27458 15.545 5.38034 15.7991 5.51351C16.0531 5.64669 16.2648 5.78378 16.4342 5.92479L19.3441 4.58519L22 9.35605L19.3441 11.2832C19.3595 11.3929 19.3749 11.5143 19.3903 11.6475C19.4057 11.7807 19.4134 11.9021 19.4134 12.0118C19.4134 12.1214 19.4057 12.2389 19.3903 12.3643C19.3749 12.4896 19.3595 12.6071 19.3441 12.7168L22 14.6439L19.321 19.4618L16.4111 18.0987C16.2417 18.2397 16.0377 18.3846 15.7991 18.5335C15.5604 18.6823 15.3333 18.7881 15.1178 18.8508L14.6328 22H9.3672ZM11.9538 15.067C12.7852 15.067 13.4935 14.7693 14.0785 14.1739C14.6636 13.5785 14.9561 12.8578 14.9561 12.0118C14.9561 11.1657 14.6636 10.445 14.0785 9.84959C13.4935 9.25421 12.7852 8.95652 11.9538 8.95652C11.1224 8.95652 10.4142 9.25421 9.8291 9.84959C9.24403 10.445 8.9515 11.1657 8.9515 12.0118C8.9515 12.8578 9.24403 13.5785 9.8291 14.1739C10.4142 14.7693 11.1224 15.067 11.9538 15.067Z"
        fill="black" />
</svg>
