<svg width="24" height="24" viewBox="0 0 24 24" fill="none" xmlns="http://www.w3.org/2000/svg">
    <path
        d="M5.625 23.15C5.15834 23.15 4.75834 22.9791 4.425 22.6375C4.09167 22.2958 3.925 21.8916 3.925 21.425V9.09998C3.925 8.63331 4.09167 8.23331 4.425 7.89998C4.75834 7.56664 5.15834 7.39998 5.625 7.39998H9.625V9.09998H5.625V21.425H18.375V9.09998H14.325V7.39998H18.375C18.8417 7.39998 19.2417 7.56664 19.575 7.89998C19.9083 8.23331 20.075 8.63331 20.075 9.09998V21.425C20.075 21.8916 19.9083 22.2958 19.575 22.6375C19.2417 22.9791 18.8417 23.15 18.375 23.15H5.625ZM11.125 15.475V4.14998L8.925 6.34998L7.7 5.14998L11.975 0.849976L16.25 5.14998L15.025 6.34998L12.825 4.14998V15.475H11.125Z"
        fill="black" />
</svg>
