<svg width="24" height="24" viewBox="0 0 24 24" fill="none" xmlns="http://www.w3.org/2000/svg">
    <path
        d="M4.20917 19.1796C3.59812 19.1796 3.07716 18.9641 2.6463 18.5333C2.21543 18.1024 2 17.5815 2 16.9704V7.05267C2 6.44162 2.21543 5.91675 2.6463 5.47805C3.07716 5.03935 3.59812 4.82 4.20917 4.82H19.7673C20.3784 4.82 20.9033 5.03935 21.342 5.47805C21.7807 5.91675 22 6.44162 22 7.05267V16.9704C22 17.5815 21.7807 18.1024 21.342 18.5333C20.9033 18.9641 20.3784 19.1796 19.7673 19.1796H4.20917ZM10.2726 15.5133L15.4665 12.0115L10.2726 8.53328V15.5133Z"
        fill="black" />
</svg>
