<svg width="24" height="24" viewBox="0 0 24 24" fill="none" xmlns="http://www.w3.org/2000/svg">
    <path
        d="M4.20917 22C3.59812 22 3.07716 21.7846 2.6463 21.3537C2.21543 20.9228 2 20.4019 2 19.7908V9.87309C2 9.26204 2.21543 8.73717 2.6463 8.29847C3.07716 7.85977 3.59812 7.64042 4.20917 7.64042H19.7673C20.3784 7.64042 20.9033 7.85977 21.342 8.29847C21.7807 8.73717 22 9.26204 22 9.87309V19.7908C22 20.4019 21.7807 20.9228 21.342 21.3537C20.9033 21.7846 20.3784 22 19.7673 22H4.20917ZM10.2726 18.3337L15.4665 14.832L10.2726 11.3537V18.3337ZM4.20917 6.23032V4.82021H19.7673V6.23032H4.20917ZM7.2879 3.41011V2H16.6886V3.41011H7.2879Z"
        fill="black" />
</svg>
