<svg width="24" height="24" viewBox="0 0 24 24" fill="none" xmlns="http://www.w3.org/2000/svg">
    <path
        d="M11.4983 22C10.1605 22 8.91193 21.7574 7.75251 21.2721C6.59309 20.7869 5.58603 20.115 4.73133 19.2564C3.87663 18.3979 3.20773 17.3901 2.72464 16.2329C2.24155 15.0758 2 13.8253 2 12.4815C2 11.1377 2.24155 9.88727 2.72464 8.73012C3.20773 7.57297 3.87291 6.56514 4.72018 5.70661C5.56745 4.84808 6.55964 4.17245 7.69677 3.67973C8.83389 3.18701 10.0416 2.94065 11.32 2.94065C11.9889 2.94065 12.6615 3.00037 13.3378 3.11982C14.0141 3.23927 14.5232 3.37365 14.8651 3.52296V5.91937C14.8651 6.41209 14.6682 6.84882 14.2742 7.22956C13.8803 7.6103 13.4381 7.80067 12.9476 7.80067H10.4727V9.54759C10.4727 9.81635 10.3724 10.0515 10.1717 10.2531C9.97101 10.4546 9.72947 10.5554 9.44705 10.5554H7.73021V12.4367H13.2375C13.505 12.4367 13.7428 12.5412 13.9509 12.7503C14.159 12.9593 14.2631 13.1982 14.2631 13.467V16.2441H15.1104C15.5266 16.2441 15.8982 16.3636 16.2252 16.6025C16.5522 16.8414 16.7752 17.1549 16.8941 17.5431C17.5333 16.8115 18.0238 16.0127 18.3657 15.1467C18.7075 14.2807 18.8785 13.4072 18.8785 12.5263C18.8785 12.3322 18.8748 12.0709 18.8673 11.7424C18.8599 11.414 18.8413 11.1601 18.8116 10.981H20.8852C20.9149 11.1153 20.9372 11.3281 20.9521 11.6193C20.9669 11.9104 20.9744 12.1904 20.9744 12.4591C20.9744 13.788 20.7328 15.0384 20.2497 16.2105C19.7666 17.3826 19.0977 18.3979 18.243 19.2564C17.3883 20.115 16.385 20.7869 15.233 21.2721C14.081 21.7574 12.8361 22 11.4983 22ZM10.4727 20.0067V17.991C9.98216 17.991 9.56968 17.8231 9.23523 17.4871C8.90078 17.1512 8.73356 16.7368 8.73356 16.2441V15.3707L4.25195 10.8914C4.19249 11.2497 4.15162 11.5259 4.12932 11.72C4.10702 11.9141 4.09588 12.1306 4.09588 12.3695C4.09588 14.3255 4.69788 16.0239 5.9019 17.4647C7.10591 18.9056 8.62951 19.7529 10.4727 20.0067ZM17.0056 9.88354C16.7083 9.88354 16.4593 9.78275 16.2586 9.58119C16.058 9.37962 15.9576 9.12953 15.9576 8.83091V6.03135C15.9576 5.74767 16.0134 5.51624 16.1249 5.33707C16.2363 5.15789 16.4036 5.03845 16.6265 4.97872H16.9833V4.08287C16.9833 3.51549 17.1728 3.0265 17.5518 2.6159C17.9309 2.2053 18.4028 2 18.9677 2C19.5177 2 19.9859 2.2053 20.3724 2.6159C20.7588 3.0265 20.9521 3.51549 20.9521 4.08287V4.97872H21.3311C21.5541 5.03845 21.7213 5.15789 21.8328 5.33707C21.9443 5.51624 22 5.74767 22 6.03135V8.83091C22 9.12953 21.8997 9.37962 21.699 9.58119C21.4983 9.78275 21.2493 9.88354 20.9521 9.88354H17.0056ZM18.1204 4.97872H19.8149V3.92609C19.8149 3.67227 19.7369 3.4483 19.5808 3.2542C19.4247 3.0601 19.2204 2.96305 18.9677 2.96305C18.7001 2.96305 18.492 3.0601 18.3434 3.2542C18.1947 3.4483 18.1204 3.67227 18.1204 3.92609V4.97872Z"
        fill="black" />
</svg>
