<svg width="24" height="24" viewBox="0 0 24 24" fill="none" xmlns="http://www.w3.org/2000/svg">
    <path
        d="M12.025 22C10.625 22 9.31667 21.7417 8.1 21.225C6.88333 20.7084 5.82083 20 4.9125 19.1C4.00417 18.2 3.29167 17.1417 2.775 15.925C2.25833 14.7084 2 13.4 2 12C2 10.6 2.25833 9.29169 2.775 8.07502C3.29167 6.85836 3.99583 5.80002 4.8875 4.90002C5.77917 4.00002 6.82083 3.29169 8.0125 2.77502C9.20417 2.25836 10.475 2.00002 11.825 2.00002C12.575 2.00002 13.3333 2.07086 14.1 2.21252C14.8667 2.35419 15.45 2.51669 15.85 2.70002V4.50002C15.85 5.06669 15.6292 5.57086 15.1875 6.01252C14.7458 6.45419 14.2417 6.67502 13.675 6.67502H10.825V8.67502C10.825 8.99169 10.7125 9.26252 10.4875 9.48752C10.2625 9.71253 9.99167 9.82502 9.675 9.82502H7.675V12H14C14.3333 12 14.6125 12.1125 14.8375 12.3375C15.0625 12.5625 15.175 12.8417 15.175 13.175V16.35H16.175C16.6583 16.35 17.0875 16.4834 17.4625 16.75C17.8375 17.0167 18.0917 17.3667 18.225 17.8C18.975 16.95 19.5417 16.0375 19.925 15.0625C20.3083 14.0875 20.5 13.1 20.5 12.1C20.5 11.85 20.4917 11.5459 20.475 11.1875C20.4583 10.8292 20.4333 10.5417 20.4 10.325H21.9C21.9333 10.4917 21.9583 10.7334 21.975 11.05C21.9917 11.3667 22 11.675 22 11.975C22 13.375 21.7417 14.6875 21.225 15.9125C20.7083 17.1375 20 18.2 19.1 19.1C18.2 20 17.1458 20.7084 15.9375 21.225C14.7292 21.7417 13.425 22 12.025 22ZM10.825 20.625V18.35C10.275 18.35 9.80417 18.1542 9.4125 17.7625C9.02083 17.3709 8.825 16.9 8.825 16.35V15.35L3.675 10.2C3.60833 10.5834 3.5625 10.8959 3.5375 11.1375C3.5125 11.3792 3.5 11.6417 3.5 11.925C3.5 14.1584 4.19167 16.0917 5.575 17.725C6.95833 19.3584 8.70833 20.325 10.825 20.625ZM18.1 8.82502C17.8833 8.82502 17.7042 8.75419 17.5625 8.61252C17.4208 8.47086 17.35 8.29169 17.35 8.07502V4.42502C17.35 4.20836 17.4208 4.02919 17.5625 3.88752C17.7042 3.74586 17.8833 3.67502 18.1 3.67502H18.5V2.67502C18.5 2.12502 18.6875 1.65002 19.0625 1.25002C19.4375 0.850024 19.8917 0.650024 20.425 0.650024C20.9583 0.650024 21.4125 0.850024 21.7875 1.25002C22.1625 1.65002 22.35 2.12502 22.35 2.67502V3.67502H22.775C22.9917 3.67502 23.1708 3.74586 23.3125 3.88752C23.4542 4.02919 23.525 4.20836 23.525 4.42502V8.07502C23.525 8.29169 23.4542 8.47086 23.3125 8.61252C23.1708 8.75419 22.9917 8.82502 22.775 8.82502H18.1ZM19.35 3.67502H21.5V2.67502C21.5 2.35836 21.4 2.08336 21.2 1.85002C21 1.61669 20.7417 1.50002 20.425 1.50002C20.1083 1.50002 19.85 1.61669 19.65 1.85002C19.45 2.08336 19.35 2.35836 19.35 2.67502V3.67502Z"
        fill="black" />
</svg>
