<svg width="32" height="32" viewBox="0 0 32 32" fill="none" xmlns="http://www.w3.org/2000/svg">
    <path
        d="M29.9 14.4666C27.9444 12.6 25.8056 11.1111 23.4833 9.99997C21.1611 8.88886 18.6667 8.33331 16 8.33331C15.1778 8.33331 14.3889 8.38331 13.6333 8.48331C12.8778 8.58331 12.2444 8.7222 11.7333 8.89997L9.3 6.46664C10.2778 6.11108 11.3389 5.83331 12.4833 5.63331C13.6278 5.43331 14.8 5.33331 16 5.33331C19.1111 5.33331 22.0389 5.97775 24.7833 7.26664C27.5278 8.55553 29.9333 10.2555 32 12.3666L29.9 14.4666ZM24.2667 20.1C23.5333 19.3889 22.8667 18.8166 22.2667 18.3833C21.6667 17.95 20.9 17.5222 19.9667 17.1L16.2 13.3333C18.3111 13.3778 20.1722 13.8111 21.7833 14.6333C23.3944 15.4555 24.9222 16.5778 26.3667 18L24.2667 20.1ZM26.8333 29.7L13.7 16.5666C12.5 16.8555 11.3944 17.3222 10.3833 17.9666C9.37222 18.6111 8.48889 19.3222 7.73333 20.1L5.63333 18C6.45556 17.1778 7.30556 16.4555 8.18333 15.8333C9.06111 15.2111 10.1111 14.6555 11.3333 14.1666L7.63333 10.4666C6.58889 10.9778 5.6 11.5833 4.66667 12.2833C3.73333 12.9833 2.87778 13.7111 2.1 14.4666L0 12.3666C0.8 11.5444 1.65556 10.7778 2.56667 10.0666C3.47778 9.35553 4.41111 8.74442 5.36667 8.23331L2.3 5.16664L3.73333 3.73331L28.2667 28.2666L26.8333 29.7ZM16 28.3666L11.0667 23.4C11.7111 22.7555 12.45 22.25 13.2833 21.8833C14.1167 21.5166 15.0222 21.3333 16 21.3333C16.9778 21.3333 17.8833 21.5166 18.7167 21.8833C19.55 22.25 20.2889 22.7555 20.9333 23.4L16 28.3666Z"
        fill="#19191A" />
</svg>
