<svg width="66" height="66" viewBox="0 0 66 66" fill="none" xmlns="http://www.w3.org/2000/svg">
<rect x="1" y="1" width="64" height="64" rx="5" stroke="#767676" stroke-width="2" stroke-linecap="round" stroke-linejoin="round" stroke-dasharray="6 6"/>
<path d="M34.4818 31.3983H41.1227C42.0564 31.3983 42.8133 32.1552 42.8133 33.0889C42.8133 34.0226 42.0564 34.7795 41.1227 34.7795H34.4818V41.7586C34.4818 42.8126 33.6273 43.667 32.5733 43.667C31.5193 43.667 30.6649 42.8126 30.6649 41.7586V34.7795H24.0239C23.0902 34.7795 22.3333 34.0226 22.3333 33.0889C22.3333 32.1552 23.0902 31.3983 24.0239 31.3983H30.6649V25.0955C30.6649 24.0415 31.5193 23.187 32.5733 23.187C33.6273 23.187 34.4818 24.0415 34.4818 25.0955V31.3983Z" fill="#7B46AC"/>
</svg>
