<svg width="24" height="24" viewBox="0 0 24 24" fill="none" xmlns="http://www.w3.org/2000/svg">
<path d="M4.5 6.55554H6V5H3.75C3.55109 5 3.36032 5.08194 3.21967 5.2278C3.07902 5.37366 3 5.57149 3 5.77777V8.11108H4.5V6.55554Z" fill="#121212"/>
<path d="M20.25 5H18V6.55554H19.5V8.11108H21V5.77777C21 5.57149 20.921 5.37366 20.7803 5.2278C20.6397 5.08194 20.4489 5 20.25 5Z" fill="#121212"/>
<path d="M4.5 15.8889H3V18.2222C3 18.4285 3.07902 18.6263 3.21967 18.7722C3.36032 18.9181 3.55109 19 3.75 19H6V17.4445H4.5V15.8889Z" fill="#121212"/>
<path d="M19.5 17.4445H18V19H20.25C20.4489 19 20.6397 18.9181 20.7803 18.7722C20.921 18.6263 21 18.4285 21 18.2222V15.8889H19.5V17.4445Z" fill="#121212"/>
<path d="M3 11.2223H21V12.7779H3V11.2223Z" fill="#121212"/>
<path d="M6.00006 7.33332H7.50006V10.4444H6.00006V7.33332Z" fill="#121212"/>
<path d="M8.25007 7.33332H9.75006V10.4444H8.25007V7.33332Z" fill="#121212"/>
<path d="M6.00006 13.5556H7.50006V16.6667H6.00006V13.5556Z" fill="#121212"/>
<path d="M8.25007 13.5556H9.75006V16.6667H8.25007V13.5556Z" fill="#121212"/>
<path d="M12 7.33332H13.5V10.4444H12V7.33332Z" fill="#121212"/>
<path d="M12 13.5556H13.5V16.6667H12V13.5556Z" fill="#121212"/>
<path d="M14.25 7.33332H15.75V10.4444H14.25V7.33332Z" fill="#121212"/>
<path d="M14.25 13.5556H15.75V16.6667H14.25V13.5556Z" fill="#121212"/>
<path d="M16.5 7.33332H18V10.4444H16.5V7.33332Z" fill="#121212"/>
<path d="M16.5 13.5556H18V16.6667H16.5V13.5556Z" fill="#121212"/>
</svg>
