<svg width="24" height="24" viewBox="0 0 24 24" fill="none" xmlns="http://www.w3.org/2000/svg">
<path d="M20.5528 7.69184L20.5525 7.69124C20.5071 7.58706 20.4308 7.49749 20.3326 7.43418C20.2343 7.37087 20.1187 7.33681 20 7.33669C20 7.33669 19.9999 7.33669 19.9999 7.33669M20.5528 7.69184L19.9999 7.33669M20.5528 7.69184L22.8026 12.7938C22.8027 12.7939 22.8027 12.794 22.8027 12.7941C22.8338 12.8651 22.8498 12.9413 22.85 13.0182V18.1201C22.85 18.2723 22.7879 18.4191 22.6758 18.528C22.5636 18.637 22.4105 18.699 22.25 18.699H20.645H20.5312L20.5005 18.8086C20.3369 19.3937 19.9796 19.911 19.4826 20.2802C18.9856 20.6495 18.3767 20.85 17.75 20.85C17.1233 20.85 16.5144 20.6495 16.0174 20.2802C15.5204 19.911 15.1631 19.3937 14.9995 18.8086L14.9688 18.699H14.855H10.145H10.0312L10.0005 18.8086C9.83694 19.3937 9.47957 19.911 8.98259 20.2802C8.48555 20.6495 7.87671 20.85 7.25 20.85C6.62329 20.85 6.01445 20.6495 5.51741 20.2802C5.02043 19.911 4.66306 19.3937 4.49946 18.8086L4.46881 18.699H4.355H2.75C2.58951 18.699 2.43643 18.637 2.32421 18.528C2.21214 18.4191 2.15 18.2723 2.15 18.1201V5.7289C2.15 5.57677 2.21214 5.42997 2.32421 5.32106C2.43643 5.212 2.58951 5.15 2.75 5.15H17C17.1605 5.15 17.3136 5.212 17.4258 5.32106C17.5379 5.42997 17.6 5.57677 17.6 5.7289V7.18669V7.33669H17.75L19.9999 7.33669M20.5528 7.69184L19.9999 7.33669M17.75 8.49448H17.6V8.64448V12.289V12.439H17.75H21.11H21.34L21.2473 12.2285L19.6423 8.58402L19.6028 8.49448H19.505H17.75ZM14.855 17.5412H14.9697L14.9998 17.4305C15.0951 17.079 15.261 16.7489 15.4881 16.4594C15.7152 16.1699 15.9991 15.9265 16.3237 15.7434L16.4 15.7003V15.6127V6.45779V6.30779H16.25H3.5H3.35V6.45779V17.3912V17.5412H3.5H4.355H4.46881L4.49946 17.4316C4.66306 16.8466 5.02043 16.3293 5.51741 15.96C6.01445 15.5907 6.62329 15.3903 7.25 15.3903C7.87671 15.3903 8.48555 15.5907 8.98259 15.96C9.47957 16.3293 9.83694 16.8466 10.0005 17.4316L10.0312 17.5412H10.145H14.855ZM21.5 17.5412H21.65V17.3912V13.7468V13.5968H21.5H17.75H17.6V13.7468V15.2045V15.3541L17.7495 15.3545C18.3808 15.3565 18.9932 15.5619 19.4908 15.9377C19.9884 16.3136 20.3429 16.8384 20.5 17.4297L20.5296 17.5412H20.645H21.5ZM6.33495 19.458C6.60617 19.6342 6.9246 19.7279 7.25 19.7279C7.68625 19.7279 8.10546 19.5595 8.4152 19.2585C8.72509 18.9573 8.9 18.5479 8.9 18.1201C8.9 17.8012 8.80266 17.4897 8.62081 17.2252C8.439 16.9608 8.18104 16.7553 7.88004 16.6342C7.57907 16.513 7.24813 16.4814 6.92889 16.5431C6.60964 16.6048 6.31582 16.7572 6.0848 16.9817C5.85373 17.2063 5.69587 17.4929 5.63187 17.8057C5.56786 18.1184 5.60075 18.4425 5.72619 18.7368C5.85161 19.0311 6.06369 19.2819 6.33495 19.458ZM16.835 19.458C17.1062 19.6342 17.4246 19.7279 17.75 19.7279C18.1862 19.7279 18.6055 19.5595 18.9152 19.2585C19.2251 18.9573 19.4 18.5479 19.4 18.1201C19.4 17.8012 19.3027 17.4897 19.1208 17.2252C18.939 16.9608 18.681 16.7553 18.38 16.6342C18.0791 16.513 17.7481 16.4814 17.4289 16.5431C17.1096 16.6048 16.8158 16.7572 16.5848 16.9817C16.3537 17.2063 16.1959 17.4929 16.1319 17.8057C16.0679 18.1184 16.1008 18.4425 16.2262 18.7368C16.3516 19.0311 16.5637 19.2819 16.835 19.458Z" fill="black" stroke="white" stroke-width="0.3"/>
</svg>
