<svg width="24" height="24" viewBox="0 0 24 24" fill="none" xmlns="http://www.w3.org/2000/svg">
<path d="M6.19202 5.4C6.19202 4.92261 6.37256 4.46477 6.69392 4.12721C7.01529 3.78964 7.45115 3.6 7.90563 3.6H15.9025C16.3569 3.6 16.7928 3.78964 17.1142 4.12721C17.4355 4.46477 17.6161 4.92261 17.6161 5.4V6H18.1873C18.9447 6 19.6712 6.31607 20.2068 6.87868C20.7424 7.44129 21.0433 8.20435 21.0433 9V15C21.0433 15.4774 20.8627 15.9352 20.5414 16.2728C20.22 16.6104 19.7841 16.8 19.3297 16.8H17.6161V18.6C17.6161 19.0774 17.4355 19.5352 17.1142 19.8728C16.7928 20.2104 16.3569 20.4 15.9025 20.4H7.90563C7.45115 20.4 7.01529 20.2104 6.69392 19.8728C6.37256 19.5352 6.19202 19.0774 6.19202 18.6V16.8H4.47841C4.02394 16.8 3.58808 16.6104 3.26671 16.2728C2.94535 15.9352 2.76481 15.4774 2.76481 15V9C2.76481 8.20435 3.06571 7.44129 3.60131 6.87868C4.13692 6.31607 4.86336 6 5.62082 6H6.19202V5.4ZM7.33442 6H16.4737V5.4C16.4737 5.24087 16.4135 5.08826 16.3064 4.97573C16.1992 4.86321 16.0539 4.8 15.9025 4.8H7.90563C7.75413 4.8 7.60885 4.86321 7.50173 4.97573C7.3946 5.08826 7.33442 5.24087 7.33442 5.4V6ZM6.19202 15.6V13.8C6.19202 13.3226 6.37256 12.8648 6.69392 12.5272C7.01529 12.1896 7.45115 12 7.90563 12H15.9025C16.3569 12 16.7928 12.1896 17.1142 12.5272C17.4355 12.8648 17.6161 13.3226 17.6161 13.8V15.6H19.3297C19.4812 15.6 19.6264 15.5368 19.7336 15.4243C19.8407 15.3117 19.9009 15.1591 19.9009 15V9C19.9009 8.52261 19.7203 8.06477 19.399 7.72721C19.0776 7.38964 18.6417 7.2 18.1873 7.2H5.62082C5.16634 7.2 4.73048 7.38964 4.40912 7.72721C4.08775 8.06477 3.90721 8.52261 3.90721 9V15C3.90721 15.1591 3.96739 15.3117 4.07451 15.4243C4.18164 15.5368 4.32692 15.6 4.47841 15.6H6.19202ZM7.90563 13.2C7.75413 13.2 7.60885 13.2632 7.50173 13.3757C7.3946 13.4883 7.33442 13.6409 7.33442 13.8V18.6C7.33442 18.7591 7.3946 18.9117 7.50173 19.0243C7.60885 19.1368 7.75413 19.2 7.90563 19.2H15.9025C16.0539 19.2 16.1992 19.1368 16.3064 19.0243C16.4135 18.9117 16.4737 18.7591 16.4737 18.6V13.8C16.4737 13.6409 16.4135 13.4883 16.3064 13.3757C16.1992 13.2632 16.0539 13.2 15.9025 13.2H7.90563Z" fill="white"/>
</svg>
