<svg width="80" height="80" viewBox="0 0 80 80" fill="none" xmlns="http://www.w3.org/2000/svg">
<g clip-path="url(#clip0_104_2)">
<path fill-rule="evenodd" clip-rule="evenodd" d="M66.4936 0C60.9896 0 56.3352 3.788 54.9904 8.8736L53.5096 8.1856C53.2455 8.06279 52.9577 7.99916 52.6664 7.99916C52.3751 7.99916 52.0873 8.06279 51.8232 8.1856L27.3328 19.5624L2.8424 8.1864C2.53766 8.04488 2.20219 7.98241 1.86694 8.00477C1.53169 8.02712 1.20747 8.13358 0.924223 8.3143C0.640975 8.49503 0.407823 8.74421 0.246291 9.03882C0.0847602 9.33344 5.64259e-05 9.66401 5.39404e-08 10V66.2296C-8.84904e-05 66.6109 0.108835 66.9843 0.313933 67.3058C0.519031 67.6273 0.811754 67.8834 1.1576 68.044L26.4904 79.8112C26.7545 79.934 27.0423 79.9976 27.3336 79.9976C27.6249 79.9976 27.9127 79.934 28.1768 79.8112L52.6672 68.4352L77.1576 79.8112C78.4832 80.4264 80 79.4592 80 77.9984V21.7688C80.0001 21.3875 79.8912 21.0141 79.6861 20.6926C79.481 20.3711 79.1882 20.115 78.8424 19.9544L76.2584 18.7528L77.0672 17.3752C77.2512 17.0416 77.3976 16.6864 77.5232 16.3232C78.1025 14.9113 78.4003 13.3998 78.4 11.8736C78.4 5.348 73.0384 0 66.4936 0ZM66.4936 5.5624C70.0176 5.5624 72.82 8.3592 72.82 11.8736C72.82 15.3872 70.0176 18.1816 66.4936 18.1816C62.9696 18.1816 60.1672 15.3872 60.1672 11.8736C60.1672 8.3592 62.9696 5.5624 66.4936 5.5624ZM53.5608 12.62L54.6624 13.1328C54.8773 15.1318 55.6002 17.0426 56.7624 18.6832L65.0408 32.9952C66.2008 34.5104 66.972 34.2224 67.936 32.9152L74.2216 22.2168L76 23.044V74.864L53.8576 64.5784L53.6768 32.8376C54.0032 32.908 54.3288 32.976 54.656 33.0536L55.392 29.9408C54.8161 29.8046 54.2379 29.6785 53.6576 29.5624L53.5616 12.62H53.5608ZM51.1624 12.9032L51.2544 29.172C50.4282 29.0586 49.5972 28.9836 48.764 28.9472L48.6456 32.144C49.516 32.176 50.3936 32.2704 51.2736 32.3984L51.4576 64.5856L28.5168 75.244L28.2216 23.5608L51.1624 12.904V12.9032ZM4 13.1344L25.82 23.2704L26.1168 75.228L4 64.9528V13.1344ZM45.2344 29.1656C44.1328 29.3632 43.0056 29.716 41.956 30.3264C40.7005 31.0534 39.6679 32.1103 38.9704 33.3824L41.772 34.928C42.1894 34.168 42.8048 33.5352 43.5528 33.0968L43.5576 33.0936L43.5624 33.0904C44.208 32.7144 44.9768 32.4616 45.8 32.3144L45.2344 29.1656V29.1656ZM58.5672 30.7904L57.6608 33.8576C59.6632 34.4496 61.6464 35.1296 63.6184 35.8656L64.7376 32.8672C62.712 32.112 60.6576 31.408 58.5672 30.7904V30.7904ZM37.7656 36.8672L37.7416 36.9936L37.7392 37.0048C37.34 39.2696 37.3824 41.4984 37.472 43.6168L40.6688 43.4808C40.5816 41.4256 40.5632 39.4368 40.8904 37.5704L40.9096 37.4704L37.7656 36.8672V36.8672ZM40.8592 46.6352L37.6672 46.8512C37.8112 48.9864 37.9648 51.0792 37.9592 53.1312L41.1592 53.1392C41.1656 50.9232 41.0032 48.7568 40.8592 46.6352ZM37.8 56.1472C37.712 56.9096 37.5808 57.6512 37.3888 58.3632L37.3872 58.3672L37.3856 58.3736C37.1056 59.4416 36.6344 60.4304 35.9768 61.2048L38.4144 63.2768C39.4448 62.0648 40.0984 60.6384 40.4784 59.1952L40.48 59.1904C40.72 58.2976 40.876 57.3984 40.9784 56.5104L37.8 56.1472V56.1472ZM10.7856 59.2656L9.3488 62.1248C11.3328 63.1224 13.3848 63.9472 15.4512 64.6608L16.4952 61.636C14.5312 60.9584 12.6136 60.184 10.7856 59.2656ZM19.4544 62.556L18.6032 65.6408C20.72 66.2256 22.896 66.6904 25.12 66.9408L25.4768 63.7608C23.46 63.5344 21.4488 63.1072 19.4544 62.556V62.556ZM33.9672 62.7816C32.3736 63.5976 30.4496 63.8992 28.4712 63.9232L28.5112 67.1232C30.7784 67.096 33.2024 66.768 35.4248 65.6296L33.9672 62.7816Z" fill="black"/>
</g>
<defs>
<clipPath id="clip0_104_2">
<rect width="80" height="80" fill="white"/>
</clipPath>
</defs>
</svg>
