<svg width="181" height="180" viewBox="0 0 181 180" fill="none" xmlns="http://www.w3.org/2000/svg">
<g filter="url(#filter0_i_22903_5216)">
<path d="M177.256 70.2382H126.01C125.129 70.2382 124.409 70.9589 124.409 71.8397V81.4482C124.409 82.329 125.129 83.0497 126.01 83.0497H177.256C178.137 83.0497 178.857 82.329 178.857 81.4482V71.8397C178.857 70.9589 178.137 70.2382 177.256 70.2382ZM150.432 97.4625H126.01C125.129 97.4625 124.409 98.1832 124.409 99.0639V108.673C124.409 109.553 125.129 110.274 126.01 110.274H150.432C151.313 110.274 152.033 109.553 152.033 108.673V99.0639C152.033 98.1832 151.313 97.4625 150.432 97.4625ZM83.6324 52.3223H74.9647C73.7236 52.3223 72.7227 53.3232 72.7227 54.5643V104.209C72.7227 104.929 73.063 105.59 73.6435 106.01L103.45 127.75C104.451 128.47 105.852 128.27 106.573 127.269L111.717 120.243V120.223C112.438 119.222 112.218 117.821 111.217 117.1L85.8544 98.7637V54.5643C85.8744 53.3232 84.8535 52.3223 83.6324 52.3223Z" fill="#E5DEEC"/>
<path d="M149.191 122.665H137.621C136.5 122.665 135.439 123.245 134.838 124.206C132.296 128.23 129.333 131.953 125.93 135.356C120.065 141.221 113.239 145.825 105.652 149.028C97.7851 152.351 89.4377 154.033 80.83 154.033C72.2023 154.033 63.8548 152.351 56.0079 149.028C48.4211 145.825 41.595 141.221 35.7298 135.356C29.8645 129.491 25.2604 122.665 22.0576 115.078C18.7346 107.231 17.0531 98.8836 17.0531 90.2559C17.0531 81.6282 18.7346 73.3008 22.0576 65.4337C25.2604 57.847 29.8645 51.0209 35.7298 45.1557C41.595 39.2904 48.4211 34.6863 56.0079 31.4835C63.8548 28.1605 72.2223 26.479 80.83 26.479C89.4577 26.479 97.8051 28.1605 105.652 31.4835C113.239 34.6863 120.065 39.2904 125.93 45.1557C129.333 48.5587 132.296 52.282 134.838 56.3056C135.439 57.2665 136.5 57.847 137.621 57.847H149.191C150.572 57.847 151.453 56.4057 150.832 55.1846C137.781 29.2215 111.317 12.3464 81.7708 12.0061C38.5122 11.4656 2.58021 46.8772 2.50014 90.0957C2.42007 133.394 37.5114 168.526 80.81 168.526C110.737 168.526 137.641 151.591 150.832 125.327C151.453 124.106 150.552 122.665 149.191 122.665Z" fill="#E5DEEC"/>
</g>
<defs>
<filter id="filter0_i_22903_5216" x="2.5" y="12" width="176.357" height="160.525" filterUnits="userSpaceOnUse" color-interpolation-filters="sRGB">
<feFlood flood-opacity="0" result="BackgroundImageFix"/>
<feBlend mode="normal" in="SourceGraphic" in2="BackgroundImageFix" result="shape"/>
<feColorMatrix in="SourceAlpha" type="matrix" values="0 0 0 0 0 0 0 0 0 0 0 0 0 0 0 0 0 0 127 0" result="hardAlpha"/>
<feOffset dy="4"/>
<feGaussianBlur stdDeviation="2"/>
<feComposite in2="hardAlpha" operator="arithmetic" k2="-1" k3="1"/>
<feColorMatrix type="matrix" values="0 0 0 0 0 0 0 0 0 0 0 0 0 0 0 0 0 0 0.05 0"/>
<feBlend mode="normal" in2="shape" result="effect1_innerShadow_22903_5216"/>
</filter>
</defs>
</svg>
