<svg xmlns="http://www.w3.org/2000/svg" width="22" height="22" fill="none" viewBox="0 0 22 22">
  <path stroke="#000" stroke-linecap="round" stroke-linejoin="round" stroke-width=".8" d="M11 21c5.523 0 10-4.477 10-10S16.523 1 11 1 1 5.477 1 11s4.477 10 10 10z"/>
  <path stroke="#000" stroke-linecap="round" stroke-linejoin="round" stroke-width=".8" d="M11 6.309c1.109.03 2.315.506 3 1.191l-3-1.191zm0 0C9.68 6.273 8.5 6.87 8.5 8.5c0 3 5.5 1.5 5.5 4.5 0 1.711-1.464 2.446-3 2.391m0-9.082v9.082m0-9.082V4.5m0 10.891C9.843 15.35 8.644 14.86 8 14l3 1.391zm0 0V17.5"/>
</svg>
