<svg width="14" height="15" viewBox="0 0 14 15" fill="none" xmlns="http://www.w3.org/2000/svg">
<path fill-rule="evenodd" clip-rule="evenodd" d="M4.76132 2.45035C4.70884 1.82024 4.43371 1.1191 3.67219 1.1191H1.3125V13.7667L5.64828 13.7629L5.64453 8.25981H3.79316V6.26279C4.64703 6.19176 5.9022 5.26356 6.09236 4.44737H8.63363V13.5851C8.63363 13.7245 8.67568 13.7667 8.81519 13.7667H12.6875V5.47619C12.6875 4.23014 12.2072 2.98203 11.6132 2.31458C10.6178 1.19618 9.73173 0.9375 8.14955 0.9375C7.46111 0.9375 6.66554 1.18709 6.21164 1.41996C5.98232 1.53755 5.67216 1.72605 5.4729 1.89127L4.76132 2.45035Z" fill="white"/>
</svg>
