<?xml version="1.0" encoding="UTF-8" ?>
<!DOCTYPE svg PUBLIC "-//W3C//DTD SVG 1.1//EN" "http://www.w3.org/Graphics/SVG/1.1/DTD/svg11.dtd">
<svg width="512pt" height="512pt" viewBox="0 0 512 512" version="1.1" xmlns="http://www.w3.org/2000/svg">
<g id="#000000ff">
<path fill="#000000" opacity="1.00" d=" M 16.36 64.41 C 26.67 53.95 41.28 48.00 55.96 48.11 C 188.62 48.06 321.29 48.11 453.96 48.08 C 462.54 47.93 471.21 49.37 479.05 52.96 C 498.14 61.30 511.43 81.05 512.00 101.88 L 512.00 409.89 C 511.53 431.07 497.86 451.17 478.33 459.36 C 471.00 462.57 462.97 463.97 454.98 463.91 C 321.97 463.90 188.96 463.93 55.94 463.89 C 41.27 463.99 26.66 458.04 16.35 447.57 C 6.37 437.77 0.54 424.06 0.00 410.11 L 0.00 102.13 C 0.46 88.09 6.32 74.28 16.36 64.41 M 54.27 63.26 C 42.73 63.61 31.46 69.17 24.26 78.20 C 18.01 85.61 15.03 95.35 15.05 104.97 C 15.01 203.97 15.05 302.97 15.02 401.98 C 14.97 408.79 15.12 415.80 17.63 422.24 C 21.81 433.74 31.50 443.12 43.19 446.78 C 49.85 449.06 57.01 448.90 63.96 448.87 C 193.99 448.88 324.02 448.87 454.05 448.88 C 461.03 448.84 468.15 447.77 474.41 444.50 C 484.05 439.74 491.65 430.95 494.88 420.69 C 496.97 414.70 496.98 408.27 496.98 402.01 C 496.95 302.97 497.00 203.93 496.95 104.89 C 497.10 92.68 491.83 80.42 482.29 72.68 C 474.82 66.21 464.90 63.12 455.10 63.14 C 370.40 63.11 285.69 63.14 200.99 63.13 C 152.08 63.21 103.17 62.95 54.27 63.26 Z" />
<path fill="#000000" opacity="1.00" d=" M 86.33 120.36 C 97.52 120.13 108.73 120.25 119.93 120.30 C 128.07 120.35 136.01 124.90 140.03 132.00 C 142.61 136.18 143.36 141.16 143.29 146.00 C 143.24 155.97 143.35 165.94 143.24 175.90 C 143.28 184.94 137.62 193.66 129.33 197.26 C 123.92 199.83 117.79 199.35 111.97 199.38 C 103.34 199.28 94.69 199.56 86.06 199.24 C 74.51 198.75 64.53 188.50 64.22 176.97 C 64.04 165.64 64.07 154.30 64.21 142.97 C 64.36 131.21 74.55 120.73 86.33 120.36 M 87.29 135.36 C 82.79 135.49 79.08 139.57 79.21 144.05 C 79.06 153.38 79.23 162.72 79.14 172.05 C 79.16 175.11 78.97 178.56 81.06 181.07 C 82.90 183.52 86.03 184.43 88.98 184.37 C 99.00 184.36 109.01 184.41 119.02 184.34 C 123.70 184.61 128.20 180.78 128.16 175.99 C 128.39 167.34 128.17 158.67 128.25 150.01 C 128.22 147.04 128.48 144.00 127.73 141.10 C 126.59 137.44 122.80 135.19 119.07 135.28 C 108.48 135.27 97.88 135.13 87.29 135.36 Z" />
<path fill="#000000" opacity="1.00" d=" M 183.37 152.42 C 262.22 152.16 341.08 152.38 419.93 152.31 C 424.40 152.42 428.89 152.07 433.35 152.48 C 437.74 152.88 440.81 157.73 439.48 161.90 C 438.52 165.57 434.66 167.64 431.02 167.31 C 349.00 167.31 266.97 167.33 184.94 167.30 C 181.42 167.56 177.71 165.53 176.77 161.99 C 175.24 157.62 178.73 152.52 183.37 152.42 Z" />
<path fill="#000000" opacity="1.00" d=" M 86.46 216.54 C 97.82 216.34 109.18 216.40 120.54 216.51 C 132.45 216.66 143.01 227.11 143.19 239.04 C 143.38 250.01 143.28 260.99 143.24 271.96 C 143.30 280.50 138.33 288.84 130.74 292.75 C 126.26 295.26 121.02 295.68 116.00 295.58 C 106.14 295.48 96.27 295.72 86.41 295.45 C 76.71 295.10 67.82 288.04 65.16 278.73 C 63.27 271.34 64.45 263.60 64.12 256.06 C 64.40 248.78 63.43 241.37 64.91 234.18 C 67.26 224.43 76.42 216.87 86.46 216.54 M 86.45 231.66 C 82.36 232.13 79.20 235.97 79.22 240.04 C 79.11 250.67 79.11 261.32 79.22 271.96 C 79.14 276.66 83.34 280.66 88.01 280.51 C 98.59 280.58 109.19 280.63 119.78 280.48 C 124.28 280.46 128.27 276.55 128.18 272.00 C 128.30 261.34 128.30 250.66 128.18 240.00 C 128.30 235.14 123.79 231.23 119.05 231.47 C 108.19 231.54 97.30 231.17 86.45 231.66 Z" />
<path fill="#000000" opacity="1.00" d=" M 183.49 248.60 C 265.31 248.35 347.15 248.59 428.98 248.48 C 431.87 248.50 435.23 248.33 437.43 250.57 C 440.50 253.32 440.52 258.60 437.48 261.38 C 435.82 263.11 433.34 263.48 431.06 263.50 C 349.05 263.50 267.04 263.51 185.03 263.50 C 181.41 263.75 177.55 261.66 176.70 257.95 C 175.33 253.58 178.89 248.63 183.49 248.60 Z" />
<path fill="#000000" opacity="1.00" d=" M 81.35 313.55 C 89.45 311.79 97.83 312.96 106.05 312.62 C 114.02 312.98 122.54 311.36 129.97 315.04 C 137.92 318.78 143.26 327.28 143.24 336.06 C 143.32 346.69 143.30 357.33 143.25 367.96 C 143.39 377.03 137.82 385.86 129.52 389.54 C 123.77 392.34 117.21 391.69 111.02 391.75 C 102.56 391.65 94.09 391.97 85.64 391.58 C 74.08 390.88 64.31 380.45 64.20 368.91 C 64.05 357.96 64.11 347.00 64.17 336.05 C 64.11 325.84 71.44 316.13 81.35 313.55 M 84.34 328.40 C 81.00 329.79 79.06 333.38 79.18 336.92 C 79.15 347.27 79.10 357.63 79.21 367.98 C 79.09 372.45 82.81 376.51 87.31 376.65 C 97.20 376.91 107.11 376.65 117.02 376.77 C 120.16 376.84 123.73 376.47 125.92 373.93 C 128.29 371.58 128.27 368.05 128.27 364.96 C 128.15 355.31 128.39 345.64 128.16 336.00 C 128.17 331.59 124.29 327.78 119.92 327.72 C 110.94 327.47 101.95 327.72 92.96 327.61 C 90.09 327.65 87.09 327.38 84.34 328.40 Z" />
<path fill="#000000" opacity="1.00" d=" M 181.16 345.25 C 183.71 344.46 186.43 344.71 189.06 344.67 C 270.04 344.74 351.02 344.61 431.99 344.73 C 436.74 344.40 440.85 349.27 439.56 353.89 C 438.82 357.78 434.75 360.00 431.00 359.69 C 348.99 359.69 266.98 359.70 184.96 359.68 C 181.94 359.80 178.67 358.53 177.30 355.68 C 175.17 351.94 177.12 346.69 181.16 345.25 Z" />
</g>
</svg>
