<svg width="24" height="24" viewBox="0 0 24 24" fill="none" xmlns="http://www.w3.org/2000/svg">
<path d="M3.00098 21V3C3.00098 1.89543 3.89641 1 5.00098 1H15.5003L20 5.5V21C20 22.1046 19.1046 23 18 23H5.00098C3.89641 23 3.00098 22.1046 3.00098 21Z" stroke="black" stroke-width="0.75"/>
<path d="M15 1V4C15 5.10457 15.8954 6 17 6H19.9997" stroke="black" stroke-width="0.75"/>
<g clip-path="url(#clip0_92_5275)">
<path d="M6.8279 4.00215C7.02822 4.00352 7.18892 4.17191 7.1875 4.37897L7.18465 4.7966C7.20274 4.79906 7.2197 4.80152 7.23779 4.80515C7.24231 4.80635 7.2457 4.80638 7.25022 4.80758L7.79276 4.91423C7.98943 4.95301 8.11824 5.14926 8.08065 5.3514C8.04305 5.55353 7.85312 5.68794 7.65758 5.64917L7.1207 5.54372C6.76683 5.48749 6.45422 5.52163 6.23404 5.6102C6.01387 5.69878 5.92475 5.82218 5.90359 5.93669C5.8801 6.06171 5.8966 6.13201 5.91554 6.17543C5.9356 6.22119 5.97713 6.27295 6.05935 6.33083C6.24298 6.45726 6.52535 6.54108 6.89135 6.64419L6.92411 6.65378C7.24718 6.74489 7.64256 6.85522 7.93546 7.0561C8.09542 7.16599 8.24607 7.31443 8.3386 7.52096C8.43337 7.73102 8.45214 7.96512 8.4063 8.214C8.32518 8.658 8.02663 8.95311 7.65775 9.10619C7.50226 9.17064 7.33334 9.21161 7.15438 9.23144L7.15173 9.61983C7.15031 9.82689 6.98733 9.99307 6.78701 9.9917C6.58669 9.99034 6.426 9.82194 6.42741 9.61488L6.4302 9.20661C6.42568 9.20541 6.42002 9.20537 6.4155 9.20417L6.41324 9.20416C6.13739 9.15782 5.6844 9.03189 5.37979 8.88942C5.19815 8.80395 5.11704 8.58229 5.19981 8.3945C5.28258 8.20671 5.49707 8.12277 5.6787 8.20825C5.9145 8.31866 6.30308 8.42894 6.52805 8.46674C6.88871 8.52419 7.18657 8.49463 7.38861 8.41061C7.58042 8.3312 7.66836 8.21481 7.69422 8.0746C7.71657 7.95074 7.70008 7.87927 7.68114 7.83585C7.65995 7.78891 7.61843 7.73715 7.53507 7.67926C7.35032 7.55282 7.06681 7.46899 6.69968 7.36588L6.66805 7.35747C6.3461 7.26636 5.95074 7.15486 5.65784 6.95398C5.49787 6.84409 5.34837 6.6945 5.25584 6.48796C5.1622 6.27791 5.14456 6.04382 5.19153 5.79495C5.27606 5.34863 5.60172 5.06072 5.97057 4.91232C6.12152 4.85135 6.28704 4.81036 6.46036 4.78698L6.46318 4.37403C6.4646 4.16697 6.62758 4.00078 6.8279 4.00215Z" fill="black"/>
</g>
<path d="M11 9L18 9" stroke="black" stroke-linecap="round"/>
<path d="M5.99109 20.75H13.0089" stroke="black" stroke-linecap="round"/>
<path d="M6 12H18" stroke="black" stroke-linecap="round"/>
<path d="M5.99481 14.75H18.0052" stroke="black" stroke-linecap="round"/>
<path d="M5.99481 17.75H18.0052" stroke="black" stroke-linecap="round"/>
<defs>
<clipPath id="clip0_92_5275">
<rect width="3.62168" height="5.98969" fill="white" transform="translate(5.01709 3.98981) rotate(0.3911)"/>
</clipPath>
</defs>
</svg>
