<svg width="42" height="42" viewBox="0 0 42 42" fill="none" xmlns="http://www.w3.org/2000/svg">
<path d="M28.6279 16.3012L25.1363 12.8096C25.0582 12.731 24.9652 12.6687 24.8628 12.6263C24.7604 12.5839 24.6506 12.5622 24.5398 12.5625H13.9688C13.7451 12.5628 13.5306 12.6517 13.3724 12.8099C13.2142 12.9681 13.1253 13.1826 13.125 13.4062V28.5937C13.1253 28.8174 13.2142 29.0319 13.3724 29.1901C13.5306 29.3483 13.7451 29.4372 13.9688 29.4375H28.0312C28.2549 29.4372 28.4694 29.3483 28.6276 29.1901C28.7858 29.0319 28.8747 28.8174 28.875 28.5937V16.8977C28.8753 16.7869 28.8536 16.6771 28.8112 16.5747C28.7688 16.4723 28.7065 16.3793 28.6279 16.3012V16.3012ZM23.25 13.6875V17.0625H18.1875V13.6875H23.25ZM27.75 28.3125H14.25V13.6875H17.0625V18.1875H24.375V13.6875H24.4233L27.75 17.0142V28.3125Z" fill="#7B46AC"/>
<path d="M20.8594 19.875C20.2197 19.875 19.5943 20.0647 19.0625 20.4201C18.5306 20.7755 18.116 21.2806 17.8712 21.8716C17.6264 22.4626 17.5624 23.113 17.6871 23.7404C17.8119 24.3678 18.12 24.9441 18.5723 25.3964C19.0247 25.8488 19.601 26.1568 20.2284 26.2816C20.8558 26.4064 21.5061 26.3424 22.0971 26.0975C22.6881 25.8527 23.1933 25.4382 23.5487 24.9063C23.9041 24.3744 24.0938 23.7491 24.0938 23.1094C24.0928 22.2519 23.7518 21.4297 23.1454 20.8234C22.539 20.217 21.7169 19.8759 20.8594 19.875V19.875ZM20.8594 25.2188C20.4422 25.2188 20.0344 25.095 19.6875 24.8633C19.3406 24.6315 19.0702 24.302 18.9106 23.9166C18.7509 23.5312 18.7091 23.107 18.7905 22.6979C18.8719 22.2887 19.0728 21.9128 19.3678 21.6178C19.6628 21.3228 20.0387 21.1219 20.4479 21.0405C20.857 20.9591 21.2812 21.0009 21.6666 21.1606C22.052 21.3202 22.3815 21.5906 22.6133 21.9375C22.845 22.2844 22.9688 22.6922 22.9688 23.1094C22.9681 23.6686 22.7457 24.2048 22.3502 24.6002C21.9548 24.9957 21.4186 25.2181 20.8594 25.2188V25.2188Z" fill="#7B46AC"/>
<rect x="1" y="1" width="40" height="40" rx="4" stroke="#7B46AC" stroke-linecap="round" stroke-linejoin="round"/>
</svg>
