<svg xmlns="http://www.w3.org/2000/svg" width="16" height="20" fill="none" viewBox="0 0 16 20">
  <path fill="#121212" d="M12.444 7.314h1.778c.472 0 .924.193 1.257.536.334.343.521.808.521 1.293v8.228c0 .485-.187.95-.52 1.293a1.753 1.753 0 01-1.258.536H1.778c-.472 0-.924-.193-1.257-.536A1.855 1.855 0 010 17.371V9.143c0-.485.187-.95.52-1.293a1.753 1.753 0 011.258-.536h1.778v1.829H1.778v8.228h12.444V9.143h-1.778V7.314zM3.111 5.03L4.368 6.32 7.111 3.5v9.3H8.89V3.5l2.743 2.821 1.257-1.292L8 0 3.111 5.029z"/>
</svg>
