<svg width="125" height="125" viewBox="0 0 125 125" fill="none" xmlns="http://www.w3.org/2000/svg">
<path d="M10.418 31.25H114.585V52.0833L110.944 54.2708C108.111 55.9707 104.869 56.8687 101.565 56.8687C98.2611 56.8687 95.0193 55.9707 92.1862 54.2708L88.543 52.0833L84.9023 54.2708C82.0692 55.9707 78.8274 56.8687 75.5234 56.8687C72.2195 56.8687 68.9776 55.9707 66.1445 54.2708L62.5013 52.0833L58.8607 54.2708C56.0273 55.9712 52.7849 56.8694 49.4805 56.8694C46.176 56.8694 42.9337 55.9712 40.1003 54.2708L36.4596 52.0833L32.8164 54.2708C29.9836 55.9702 26.7422 56.8679 23.4388 56.8679C20.1354 56.8679 16.894 55.9702 14.0612 54.2708L10.418 52.0833V31.25Z" stroke="#7B46AC" stroke-width="7" stroke-linecap="round" stroke-linejoin="round"/>
<path d="M20.8359 58.5652V114.583H104.169V57.2917M20.8359 30.7865V10.4167H104.169V31.2501" stroke="#7B46AC" stroke-width="7" stroke-linecap="round" stroke-linejoin="round"/>
<path d="M49.4805 83.3335H75.5221V114.583H49.4805V83.3335Z" stroke="#7B46AC" stroke-width="7" stroke-linecap="round" stroke-linejoin="round"/>
</svg>
