<svg width="90" height="90" viewBox="0 0 90 90" fill="none" xmlns="http://www.w3.org/2000/svg">
<rect x="0.25" y="0.25" width="89.5" height="89.5" rx="8.75" stroke="#7B46AC" stroke-width="0.5"/>
<rect x="2" y="2" width="86" height="86" rx="7" fill="#7B46AC"/>
<g clip-path="url(#clip0_21334_895)">
<path d="M24.0297 70.5427C28.4644 70.5427 32.0594 66.8395 32.0594 62.2714C32.0594 57.7032 28.4644 54 24.0297 54C19.595 54 16 57.7032 16 62.2714C16 66.8395 19.595 70.5427 24.0297 70.5427Z" fill="white"/>
<path d="M38.1139 57.4707C39.4052 57.4707 40.5703 58.0319 41.4053 58.9399C42.2403 58.0319 43.4054 57.4707 44.6967 57.4707C47.2307 57.4707 49.2793 59.6235 49.2793 62.2865V67.1226C49.2793 67.8673 48.6968 68.4795 47.9881 68.4795C47.2793 68.4795 46.6968 67.8673 46.6968 67.1226V66.6226V62.2865C46.6968 61.1233 45.8035 60.1847 44.6967 60.1847C43.5898 60.1847 42.6966 61.1233 42.6966 62.2865V66.6226V67.1226C42.6966 67.8673 42.1141 68.4795 41.4053 68.4795C40.6966 68.4795 40.114 67.8673 40.114 67.1226V66.6226V62.2865C40.114 61.1233 39.2208 60.1847 38.1139 60.1847C37.0071 60.1847 36.1139 61.1233 36.1139 62.2865V66.6226V67.1226C36.1139 67.8673 35.5314 68.4795 34.8226 68.4795C34.1138 68.4795 33.5312 67.8673 33.5312 67.1226V62.2865V58.8277C33.5312 58.0829 34.1138 57.4707 34.8226 57.4707C35.2692 57.4707 35.6575 57.7054 35.8905 58.0727C36.5508 57.6952 37.3081 57.4707 38.1139 57.4707Z" fill="white"/>
<path d="M59.9978 57.4707C59.4638 57.4707 59.0075 57.8074 58.8133 58.2972C58.0074 57.7768 57.0657 57.4707 56.056 57.4707C53.1626 57.4707 50.8228 59.9296 50.8228 62.97C50.8228 66.0104 53.1626 68.4693 56.056 68.4693C57.0657 68.4693 58.0172 68.1632 58.8133 67.6429C59.0075 68.1224 59.4735 68.4693 59.9978 68.4693C60.7066 68.4693 61.2891 67.8571 61.2891 67.1123V62.97V58.8277C61.2891 58.0829 60.7066 57.4707 59.9978 57.4707ZM56.056 65.7655C54.5899 65.7655 53.4054 64.5209 53.4054 62.9802C53.4054 61.4396 54.5899 60.1949 56.056 60.1949C57.522 60.1949 58.7065 61.4396 58.7065 62.9802C58.7065 64.5106 57.522 65.7655 56.056 65.7655Z" fill="white"/>
<path d="M72.4154 57.4707C71.8911 57.4707 71.4347 57.8074 71.2211 58.2768C69.2017 56.981 66.5317 57.2463 64.784 59.0828C62.7354 61.2356 62.7354 64.7147 64.784 66.8674C66.4929 68.6631 69.0949 68.959 71.1047 67.7449V68.4795C71.1047 69.9895 69.9202 71.2342 68.4832 71.2342C67.7356 71.2342 67.0171 70.8975 66.522 70.2956C66.5025 70.2752 66.4929 70.2548 66.4734 70.2446C65.9588 69.7039 65.1336 69.7039 64.619 70.2446C64.1336 70.7547 64.1044 71.571 64.551 72.1117C65.5413 73.3054 66.9783 73.989 68.4929 73.989C71.3668 73.989 73.7261 71.5097 73.7261 68.4897C73.7261 68.4897 73.7261 67.9082 73.7261 67.1123V62.97V58.8481C73.7261 58.0931 73.1338 57.4707 72.4154 57.4707ZM70.3376 64.9188C69.3182 65.99 67.6579 65.99 66.6385 64.9188C65.619 63.8474 65.619 62.1028 66.6385 61.0315C67.6579 59.9602 69.3182 59.9602 70.3376 61.0315C70.8425 61.562 71.1047 62.266 71.1047 62.9598V62.9904C71.1047 63.6842 70.8425 64.3882 70.3376 64.9188Z" fill="white"/>
<path d="M28.5452 58.8481C28.5452 58.0931 27.953 57.4707 27.2345 57.4707C26.5161 57.4707 25.9238 58.0931 25.9238 58.8481V63.7046C25.8849 64.8065 25.0306 65.684 23.9625 65.684C22.8945 65.684 22.0402 64.8065 22.0013 63.6944V58.8379C22.0013 58.0829 21.4091 57.4605 20.6906 57.4605C19.9721 57.4605 19.3799 58.0829 19.3799 58.8379V63.623V63.6332V63.6434C19.3799 66.3063 21.4285 68.4591 23.9625 68.4591C26.3898 68.4591 28.3704 66.4798 28.5355 63.9699C28.5452 63.9087 28.5452 63.8577 28.5452 63.7964V58.8481Z" fill="#7B46AC" fill-opacity="0.5"/>
</g>
<g clip-path="url(#clip1_21334_895)">
<path fill-rule="evenodd" clip-rule="evenodd" d="M50.8128 22.4843C50.1998 22.4835 49.5927 22.6034 49.026 22.8372C48.4594 23.0711 47.9444 23.4142 47.5103 23.847C47.0763 24.2799 46.7318 24.794 46.4964 25.36C46.2611 25.926 46.1395 26.5328 46.1387 27.1458C46.1397 27.7588 46.2615 28.3656 46.497 28.9315C46.7326 29.4975 47.0773 30.0114 47.5114 30.4442C47.9456 30.8769 48.4608 31.2198 49.0275 31.4534C49.5942 31.6871 50.2014 31.8068 50.8144 31.8057C52.0521 31.8074 53.2398 31.3175 54.1163 30.4436C54.9929 29.5697 55.4864 28.3835 55.4885 27.1458C55.4877 26.5328 55.3662 25.926 55.1308 25.36C54.8955 24.794 54.5509 24.2799 54.1169 23.847C53.6829 23.4142 53.1678 23.0711 52.6012 22.8372C52.0345 22.6034 51.4258 22.4835 50.8128 22.4843ZM48.5121 27.1458C48.513 26.8444 48.5732 26.5461 48.6894 26.2679C48.8055 25.9898 48.9754 25.7373 49.1892 25.5248C49.403 25.3123 49.6566 25.144 49.9354 25.0296C50.2143 24.9151 50.513 24.8568 50.8144 24.8578C52.0897 24.8578 53.1151 25.8863 53.1151 27.1458C53.113 27.7541 52.8695 28.3366 52.438 28.7653C52.0066 29.1941 51.4226 29.434 50.8144 29.4323C50.2062 29.434 49.6222 29.1941 49.1907 28.7653C48.7593 28.3366 48.5158 27.7541 48.5137 27.1458H48.5121Z" fill="#F5F5F5"/>
<path fill-rule="evenodd" clip-rule="evenodd" d="M41.0817 47.0576C41.5396 46.4377 41.7799 45.684 41.7653 44.9135C42.3856 45.0971 42.9995 45.1192 43.5881 45.0085C44.8033 44.7775 45.7037 44.0085 46.1815 43.3755L46.1894 43.3645L46.1973 43.3534C46.53 42.8993 46.7586 42.3775 46.8669 41.8251C46.9752 41.2727 46.9606 40.7032 46.8239 40.1571C46.7084 39.6808 46.516 39.2265 46.2543 38.8122C46.1339 38.5898 45.9896 38.3813 45.8239 38.1903L45.8382 38.1745L46.5724 37.4435C47.1768 37.733 47.8319 37.915 48.4047 38.0337C49.1978 38.1964 50.0049 38.2822 50.8145 38.29C56.9871 38.29 61.9999 33.3057 61.9999 27.1442C61.9999 20.9859 56.9871 16 50.8129 16C44.6419 16 39.6276 20.9843 39.6276 27.1442C39.6344 28.5817 39.9416 30.0018 40.5295 31.3136L29.0483 42.7474C28.5123 43.2895 28.1546 43.9823 28.0229 44.7332C27.8663 45.6873 28.1226 46.749 29.0483 47.6699L30.4439 49.0592C30.9967 49.5466 31.6766 49.8671 32.4044 49.9833C32.9013 50.06 33.4094 50.0161 33.8858 49.8552C34.3622 49.6944 34.793 49.4214 35.1417 49.0592L36.0373 48.1668C36.809 48.618 37.7183 48.7732 38.5959 48.6035C39.5753 48.4093 40.4518 47.8682 41.0643 47.0797L41.0738 47.0687L41.0817 47.0576ZM42.0011 27.1442C42.0011 22.3055 45.9426 18.3735 50.8145 18.3735C55.6849 18.3735 59.6264 22.3055 59.6264 27.1442C59.6264 31.9861 55.6865 35.9165 50.8129 35.9165C50.3826 35.9165 49.6373 35.8643 48.8857 35.7108C48.0993 35.5463 47.4822 35.3042 47.1531 35.0304C46.9256 34.8422 46.6361 34.7455 46.3412 34.7593C46.0463 34.773 45.7671 34.8962 45.5581 35.1048L44.1625 36.4941C43.8445 36.8105 43.5375 37.1713 43.3745 37.5875C43.1688 38.1144 43.2353 38.6207 43.4694 39.0432C43.6087 39.2916 43.8334 39.5289 43.9267 39.6286L43.9584 39.6619C44.0691 39.7837 44.1277 39.8628 44.172 39.9514L44.2147 40.0353L44.2622 40.1017L44.2733 40.1176C44.383 40.3011 44.4646 40.5 44.5154 40.7078C44.6008 41.0701 44.6008 41.4989 44.278 41.9578C43.9947 42.3209 43.5944 42.5748 43.1451 42.6762C42.7384 42.7537 42.0738 42.7031 41.1878 41.8217C40.9653 41.6 40.664 41.4754 40.3499 41.4754C40.0358 41.4754 39.7345 41.6 39.5121 41.8217L39.0469 42.2837C38.8318 42.4975 38.7068 42.7855 38.6973 43.0886C38.6879 43.3916 38.7949 43.6868 38.9963 43.9135C39.132 44.0965 39.2387 44.2993 39.3127 44.5148C39.4314 44.8708 39.4504 45.2522 39.1608 45.6636C38.9709 45.9088 38.5864 46.1889 38.1497 46.2712C37.7795 46.3424 37.3048 46.2902 36.7699 45.7569C36.5475 45.5352 36.2462 45.4106 35.9321 45.4106C35.618 45.4106 35.3167 45.5352 35.0943 45.7569L33.4661 47.3788C33.205 47.6383 32.9756 47.6683 32.7509 47.6351C32.5066 47.5921 32.2764 47.4906 32.08 47.3392L30.7239 45.9879C30.3458 45.6129 30.3315 45.3234 30.3648 45.1177C30.4157 44.858 30.5404 44.6184 30.7239 44.4278L42.8191 32.3817C43.0086 32.1927 43.1283 31.9449 43.1585 31.6789C43.1887 31.413 43.1276 31.1447 42.9853 30.918L42.9821 30.9133C42.9355 30.836 42.8922 30.7568 42.8523 30.6759C42.2996 29.5803 42.0082 28.3714 42.0011 27.1442ZM38.9788 43.8898C38.9788 43.893 38.982 43.8945 38.9852 43.8977L38.9836 43.8961L38.9788 43.8898Z" fill="#F5F5F5"/>
</g>
<defs>
<clipPath id="clip0_21334_895">
<rect width="58" height="20" fill="white" transform="translate(16 54)"/>
</clipPath>
<clipPath id="clip1_21334_895">
<rect width="34" height="34" fill="white" transform="translate(28 16)"/>
</clipPath>
</defs>
</svg>
