<svg width="24" height="24" viewBox="0 0 24 24" fill="none" xmlns="http://www.w3.org/2000/svg">
<g clip-path="url(#clip0_21149_673)">
<path d="M12.018 23.4434C18.6554 23.4434 24.0361 18.1954 24.0361 11.7217C24.0361 5.24798 18.6554 0 12.018 0C5.38066 0 0 5.24798 0 11.7217C0 18.1954 5.38066 23.4434 12.018 23.4434Z" fill="black" fill-opacity="0.8"/>
<path d="M18.7764 6.87056C18.7764 5.80062 17.8899 4.91863 16.8146 4.91863C15.7393 4.91863 14.8529 5.80062 14.8529 6.87056V13.753C14.7947 15.3145 13.516 16.558 11.9175 16.558C10.319 16.558 9.04024 15.3145 8.98211 13.7385V6.8561C8.98211 5.78616 8.09569 4.90417 7.02035 4.90417C5.94502 4.90417 5.05859 5.78616 5.05859 6.8561V13.6373V13.6517V13.6662C5.05859 17.4399 8.12476 20.4907 11.9175 20.4907C15.5504 20.4907 18.5148 17.6857 18.7619 14.1289C18.7764 14.0421 18.7764 13.9698 18.7764 13.883V6.87056Z" fill="white"/>
</g>
<defs>
<clipPath id="clip0_21149_673">
<rect width="24" height="24" fill="white"/>
</clipPath>
</defs>
</svg>
