<svg width="71" height="71" viewBox="0 0 71 71" fill="none" xmlns="http://www.w3.org/2000/svg">
<g filter="url(#filter0_d)">
<rect x="10" y="10" width="39" height="39" rx="5" fill="#121212"/>
</g>
<path d="M39.3564 23.837L41.0682 26.3208C41.1545 26.4358 41.2012 26.5757 41.2012 26.7195V39.5054C41.2012 40.3308 40.5321 41 39.7066 41L33.9502 41H28.1938C27.3684 41 26.6992 40.3309 26.6992 39.5054H27.6901C28.2218 39.5054 28.7316 39.2937 29.1069 38.917L38.2067 29.7836C38.5212 29.4678 38.7213 29.056 38.7752 28.6135L39.3564 23.837Z" fill="white"/>
<path fill-rule="evenodd" clip-rule="evenodd" d="M36.8678 20.066L36.4516 20.4822C36.1605 20.7733 36.1661 21.2468 36.4639 21.531C36.7709 21.8239 36.7658 22.3156 36.4528 22.6022L36.3815 22.6674C36.0591 22.9625 35.5622 22.9543 35.2498 22.6487L33.0624 20.5091C32.7361 20.19 32.7404 19.6636 33.072 19.3498C33.3831 19.0554 33.8703 19.0564 34.1802 19.352L34.2106 19.381C34.5441 19.6992 35.0706 19.6931 35.3965 19.3671L35.7821 18.9816L34.9557 18.1632C34.5111 17.7229 33.886 17.5161 33.2664 17.6043L27.9149 18.3666C27.4862 18.4276 27.0889 18.6262 26.7827 18.9324L18.4142 27.3009C17.6332 28.0819 17.6332 29.3482 18.4142 30.1293L22.1272 33.8423L25.8402 37.5553C26.6213 38.3364 27.8876 38.3364 28.6687 37.5553L37.0372 29.1868C37.3434 28.8806 37.5419 28.4833 37.603 28.0546L38.3652 22.7031C38.4535 22.0836 38.2466 21.4584 37.8063 21.0138L36.8678 20.066Z" fill="white"/>
<path d="M36.7444 19.01C36.8469 19.1125 37.0132 19.1125 37.1157 19.01L38.5687 17.5569C38.6713 17.4544 38.6713 17.2882 38.5687 17.1856C38.4662 17.0831 38.3 17.0831 38.1975 17.1856L36.7444 18.6387C36.6419 18.7412 36.6419 18.9075 36.7444 19.01Z" fill="white"/>
<defs>
<filter id="filter0_d" x="0" y="0" width="71" height="71" filterUnits="userSpaceOnUse" color-interpolation-filters="sRGB">
<feFlood flood-opacity="0" result="BackgroundImageFix"/>
<feColorMatrix in="SourceAlpha" type="matrix" values="0 0 0 0 0 0 0 0 0 0 0 0 0 0 0 0 0 0 127 0"/>
<feOffset dx="6" dy="6"/>
<feGaussianBlur stdDeviation="8"/>
<feColorMatrix type="matrix" values="0 0 0 0 0 0 0 0 0 0 0 0 0 0 0 0 0 0 0.06 0"/>
<feBlend mode="normal" in2="BackgroundImageFix" result="effect1_dropShadow"/>
<feBlend mode="normal" in="SourceGraphic" in2="effect1_dropShadow" result="shape"/>
</filter>
</defs>
</svg>
