<svg xmlns="http://www.w3.org/2000/svg" width="46" height="38" fill="none" viewBox="0 0 46 38">
  <path fill="#7B46AC" fill-rule="evenodd" d="M8 6.543a6 6 0 00-6 6V29.97a6 6 0 006 6h30a6 6 0 006-6V12.543a6 6 0 00-6-6H8zm-8 6a8 8 0 018-8h30a8 8 0 018 8V29.97a8 8 0 01-8 8H8a8 8 0 01-8-8V12.543z" clip-rule="evenodd"/>
  <path fill="#7B46AC" fill-rule="evenodd" d="M23 30.257a9 9 0 100-18 9 9 0 000 18zm0 2c6.075 0 11-4.925 11-11s-4.925-11-11-11-11 4.925-11 11 4.925 11 11 11zM11 1a1 1 0 011-1h22a1 1 0 110 2H12a1 1 0 01-1-1z" clip-rule="evenodd"/>
</svg>
