<svg width="42" height="42" viewBox="0 0 42 42" fill="none" xmlns="http://www.w3.org/2000/svg">
<path d="M27.2648 13.6078C25.057 11.4 21.4617 11.4 19.2562 13.6078L13.1391 19.7203C13.0992 19.7602 13.0781 19.8141 13.0781 19.8703C13.0781 19.9266 13.0992 19.9805 13.1391 20.0203L14.0039 20.8852C14.0434 20.9245 14.0969 20.9466 14.1527 20.9466C14.2085 20.9466 14.262 20.9245 14.3016 20.8852L20.4187 14.7727C21.1781 14.0133 22.1883 13.5961 23.2617 13.5961C24.3352 13.5961 25.3453 14.0133 26.1023 14.7727C26.8617 15.532 27.2789 16.5422 27.2789 17.6133C27.2789 18.6867 26.8617 19.6945 26.1023 20.4539L19.868 26.6859L18.8578 27.6961C17.9133 28.6406 16.3781 28.6406 15.4336 27.6961C14.9766 27.2391 14.7258 26.632 14.7258 25.9852C14.7258 25.3383 14.9766 24.7313 15.4336 24.2742L21.6187 18.0914C21.7758 17.9367 21.982 17.85 22.2023 17.85H22.2047C22.425 17.85 22.6289 17.9367 22.7836 18.0914C22.9406 18.2484 23.025 18.4547 23.025 18.675C23.025 18.893 22.9383 19.0992 22.7836 19.2539L17.7281 24.3047C17.6883 24.3445 17.6672 24.3984 17.6672 24.4547C17.6672 24.5109 17.6883 24.5648 17.7281 24.6047L18.593 25.4695C18.6325 25.5089 18.686 25.531 18.7418 25.531C18.7976 25.531 18.8511 25.5089 18.8906 25.4695L23.9437 20.4164C24.4102 19.95 24.6656 19.3313 24.6656 18.6727C24.6656 18.0141 24.4078 17.393 23.9437 16.9289C22.9805 15.9656 21.4148 15.968 20.4516 16.9289L19.8516 17.5313L14.2687 23.1117C13.8898 23.4884 13.5895 23.9366 13.3851 24.4302C13.1807 24.9239 13.0764 25.4532 13.0781 25.9875C13.0781 27.0727 13.5023 28.0922 14.2687 28.8586C15.0633 29.6508 16.1039 30.0469 17.1445 30.0469C18.1852 30.0469 19.2258 29.6508 20.018 28.8586L27.2648 21.6164C28.3312 20.5477 28.9219 19.125 28.9219 17.6133C28.9242 16.0992 28.3336 14.6766 27.2648 13.6078Z" fill="#767676"/>
<rect x="1" y="1" width="40" height="40" rx="4" stroke="#767676" stroke-linecap="round" stroke-linejoin="round" stroke-dasharray="6 6"/>
</svg>
