<?xml version="1.0" encoding="UTF-8" ?>
<!DOCTYPE svg PUBLIC "-//W3C//DTD SVG 1.1//EN" "http://www.w3.org/Graphics/SVG/1.1/DTD/svg11.dtd">
<svg width="512pt" height="512pt" viewBox="0 0 512 512" version="1.1" xmlns="http://www.w3.org/2000/svg">
<g id="#000000ff">
<path fill="#000000" opacity="1.00" d=" M 111.42 16.70 C 117.23 15.79 123.14 16.03 129.00 16.00 C 198.99 15.99 268.98 16.02 338.97 15.99 C 342.83 15.93 347.38 15.52 350.14 18.83 C 381.83 50.50 413.51 82.18 445.18 113.86 C 447.14 115.65 448.15 118.25 448.00 120.89 C 448.01 225.27 447.99 329.64 448.00 434.01 C 448.06 440.16 447.99 446.38 446.55 452.40 C 443.19 467.52 433.16 480.98 419.69 488.62 C 410.72 493.81 400.30 496.18 389.97 496.00 C 299.97 495.98 209.96 496.04 119.96 495.97 C 97.40 496.20 75.73 481.32 67.82 460.20 C 64.00 450.98 63.79 440.87 64.00 431.04 C 64.00 311.69 63.99 192.34 64.01 72.99 C 63.84 60.10 68.15 47.20 76.24 37.14 C 84.88 26.27 97.68 18.79 111.42 16.70 M 91.76 43.73 C 84.04 51.34 79.76 62.17 80.00 72.99 C 80.00 165.99 80.00 258.99 80.00 352.00 C 197.33 352.00 314.67 352.00 432.00 352.00 C 432.00 277.33 432.00 202.67 432.00 128.00 C 418.99 127.99 405.99 128.02 392.98 127.99 C 384.76 128.02 376.50 126.44 369.02 122.99 C 349.97 114.62 336.60 94.88 336.09 74.05 C 335.88 60.04 336.06 46.02 336.00 32.00 C 264.31 32.00 192.63 32.00 120.94 32.00 C 110.16 31.79 99.35 36.04 91.76 43.73 M 352.01 43.33 C 352.02 53.22 351.94 63.12 352.05 73.01 C 352.24 83.65 357.00 94.07 364.81 101.27 C 372.10 108.10 382.02 111.97 392.01 111.98 C 401.56 112.03 411.11 112.00 420.66 111.99 C 397.80 89.08 374.91 66.20 352.01 43.33 M 80.00 368.00 C 80.01 392.01 79.98 416.03 80.02 440.04 C 79.99 450.99 84.73 461.82 92.78 469.24 C 100.30 476.32 110.63 480.17 120.94 480.00 C 211.30 479.99 301.67 480.02 392.03 479.98 C 405.15 480.05 418.00 473.15 425.21 462.20 C 429.82 455.41 432.10 447.18 432.00 439.00 C 432.00 415.33 432.00 391.67 432.00 368.00 C 314.67 368.00 197.33 368.00 80.00 368.00 Z" />
<path fill="#000000" opacity="1.00" d=" M 186.39 162.34 C 189.50 159.05 195.33 159.34 198.13 162.89 C 200.96 166.10 200.39 171.34 197.20 174.11 C 183.26 188.08 169.27 202.02 155.33 216.00 C 169.41 230.14 183.60 244.19 197.64 258.37 C 200.93 261.47 200.67 267.29 197.14 270.10 C 193.92 272.97 188.63 272.41 185.86 269.17 C 170.04 253.30 154.15 237.49 138.34 221.60 C 135.27 218.68 135.26 213.33 138.33 210.41 C 154.33 194.36 170.35 178.33 186.39 162.34 Z" />
<path fill="#000000" opacity="1.00" d=" M 314.37 162.34 C 317.31 159.26 322.68 159.27 325.62 162.35 C 341.37 177.96 356.98 193.72 372.70 209.36 C 374.81 211.29 376.40 214.05 375.92 217.00 C 375.69 219.54 373.90 221.47 372.18 223.17 C 356.61 238.63 341.18 254.23 325.59 269.67 C 322.65 272.73 317.29 272.72 314.36 269.65 C 311.29 266.73 311.24 261.36 314.32 258.42 C 328.41 244.25 342.59 230.15 356.70 216.00 C 342.58 201.84 328.39 187.74 314.30 173.56 C 311.25 170.60 311.28 165.25 314.37 162.34 Z" />
<path fill="#000000" opacity="1.00" d=" M 221.31 208.48 C 226.94 206.15 233.45 211.98 231.76 217.83 C 230.69 223.44 223.08 225.97 218.87 222.12 C 214.17 218.52 215.63 210.21 221.31 208.48 Z" />
<path fill="#000000" opacity="1.00" d=" M 253.29 208.49 C 258.96 206.12 265.50 212.02 263.75 217.89 C 262.64 223.48 255.03 225.96 250.84 222.09 C 246.18 218.49 247.64 210.22 253.29 208.49 Z" />
<path fill="#000000" opacity="1.00" d=" M 285.35 208.47 C 291.00 206.16 297.48 212.03 295.75 217.89 C 294.64 223.46 287.08 225.95 282.88 222.12 C 278.15 218.53 279.64 210.17 285.35 208.47 Z" />
<path fill="#000000" opacity="1.00" d=" M 162.95 385.90 C 166.49 382.78 172.62 383.82 174.86 388.00 C 178.06 393.95 180.91 400.08 184.00 406.09 C 187.09 400.09 189.94 393.97 193.12 388.02 C 194.99 384.47 199.77 382.98 203.35 384.75 C 207.23 386.45 209.15 391.47 207.24 395.29 C 202.60 404.92 197.68 414.41 192.96 424.00 C 197.68 433.58 202.57 443.07 207.23 452.67 C 209.05 456.27 207.53 461.01 204.03 462.96 C 200.37 465.19 195.09 463.79 193.11 459.97 C 189.94 454.01 187.08 447.90 184.00 441.89 C 180.92 447.92 178.04 454.05 174.86 460.02 C 172.75 464.03 167.02 465.28 163.40 462.60 C 160.04 460.36 159.02 455.55 161.03 452.08 C 165.68 442.70 170.40 433.37 175.05 424.00 C 170.40 414.63 165.68 405.31 161.04 395.94 C 159.20 392.67 159.99 388.23 162.95 385.90 Z" />
<path fill="#000000" opacity="1.00" d=" M 224.04 391.95 C 223.91 387.69 227.74 383.91 231.98 384.00 C 235.36 383.92 238.42 386.26 239.58 389.38 C 245.08 402.12 250.48 414.90 256.00 427.63 C 261.64 414.68 267.08 401.64 272.75 388.70 C 274.48 384.46 280.14 382.68 284.01 385.09 C 286.78 386.62 288.20 389.83 288.00 392.92 C 288.00 413.64 288.00 434.37 288.00 455.09 C 288.33 458.97 285.74 462.92 281.86 463.76 C 277.12 465.08 271.89 461.05 272.05 456.11 C 271.91 447.74 272.06 439.36 271.99 430.99 C 268.91 437.97 266.13 445.09 262.88 451.99 C 260.23 457.25 251.76 457.25 249.12 451.99 C 245.87 445.09 243.10 437.98 240.01 431.00 C 239.94 439.37 240.10 447.75 239.95 456.12 C 240.08 461.04 234.90 465.06 230.17 463.76 C 226.26 462.95 223.65 458.98 224.00 455.08 C 224.02 434.04 223.95 412.99 224.04 391.95 Z" />
<path fill="#000000" opacity="1.00" d=" M 304.05 391.89 C 303.91 387.28 308.45 383.36 312.99 384.08 C 316.85 384.48 320.03 388.04 319.95 391.93 C 320.07 410.62 319.96 429.31 320.00 448.00 C 328.03 448.05 336.05 447.92 344.08 448.04 C 349.05 447.87 353.11 453.14 351.74 457.91 C 350.89 461.76 346.97 464.32 343.12 464.00 C 332.71 463.97 322.30 464.07 311.90 463.95 C 307.71 464.03 303.95 460.31 304.05 456.12 C 303.97 434.71 303.97 413.29 304.05 391.89 Z" />
</g>
</svg>
