<svg width="24" height="24" fill="none" xmlns="http://www.w3.org/2000/svg"><path d="M12.001 22A10 10 0 1 1 22 12a10.011 10.011 0 0 1-9.999 10zm0-18.993A8.993 8.993 0 1 0 20.993 12a9.004 9.004 0 0 0-8.992-8.993z" fill="#000"/><path d="M8.841 10.847c-.366 0-.72-.115-1.003-.324A1.405 1.405 0 0 1 7.29 9.7a1.299 1.299 0 0 1 .157-.948c.173-.29.452-.518.79-.644a1.747 1.747 0 0 1 1.065-.047c.35.096.652.298.856.572.203.274.294.603.258.93a1.37 1.37 0 0 1-.456.867 1.604 1.604 0 0 1-.513.309 1.737 1.737 0 0 1-.606.108zm0-1.898a.565.565 0 0 0-.334.108.468.468 0 0 0-.183.274.433.433 0 0 0 .052.316c.058.097.15.173.264.215a.582.582 0 0 0 .355.015.526.526 0 0 0 .285-.19.438.438 0 0 0-.066-.6.56.56 0 0 0-.373-.138zM7.531 17a.57.57 0 0 1-.294-.078.49.49 0 0 1-.196-.213.43.43 0 0 1-.031-.274.461.461 0 0 1 .144-.244l8.952-8.056a.56.56 0 0 1 .371-.133c.139 0 .27.05.369.139a.452.452 0 0 1 .154.33.45.45 0 0 1-.148.335l-8.948 8.058A.56.56 0 0 1 7.53 17zm7.638-.001c-.366 0-.72-.115-1.003-.324-.283-.21-.476-.5-.547-.823a1.3 1.3 0 0 1 .157-.949c.173-.29.453-.517.791-.643a1.748 1.748 0 0 1 1.065-.046c.35.096.652.298.855.572.203.274.294.603.258.931a1.37 1.37 0 0 1-.457.866 1.598 1.598 0 0 1-.514.309 1.729 1.729 0 0 1-.605.107zm0-1.898a.577.577 0 0 0-.373.14.452.452 0 0 0-.154.334c0 .126.055.246.154.335a.559.559 0 0 0 .373.14c.14 0 .274-.05.373-.14a.452.452 0 0 0 .154-.335.452.452 0 0 0-.154-.336.558.558 0 0 0-.373-.138z" fill="#000"/></svg>