<svg width="24" height="24" viewBox="0 0 24 24" fill="none" xmlns="http://www.w3.org/2000/svg">
<path fill-rule="evenodd" clip-rule="evenodd" d="M21.3829 5.60072C21.3829 5.60072 21.0237 5.95998 21.0258 5.95825L18.0425 2.9754L18.4001 2.61787C19.2239 1.79448 20.5591 1.79361 21.3838 2.61787C22.2067 3.44126 22.2067 4.77689 21.3829 5.60072ZM5.46151 20.1887L5.48657 20.1819L19.4585 6.21042C19.6538 6.01516 19.9704 6.01516 20.1656 6.21043C20.3609 6.40569 20.3609 6.72228 20.1656 6.91753L6.09901 20.9837C6.037 21.0457 5.95977 21.0903 5.87507 21.113L2.6296 21.9841C2.45701 22.0304 2.27283 21.9811 2.14646 21.8548C2.0201 21.7284 1.97077 21.5442 2.01707 21.3717L2.8877 18.1262C2.91043 18.0415 2.95504 17.9642 3.01707 17.9022L17.0837 3.83558C17.2789 3.64032 17.5955 3.64032 17.7908 3.83558C17.986 4.03084 17.986 4.34743 17.7908 4.54269L3.81886 18.5146L3.81222 18.5394L5.46151 20.1887Z" fill="#121212"/>
</svg>
