<svg width="64" height="64" viewBox="0 0 64 64" fill="none" xmlns="http://www.w3.org/2000/svg">
<rect width="64" height="64" rx="5" fill="#EAEAEB"/>
<path d="M48.7375 19.9302C48.7074 19.697 48.5932 19.4828 48.4164 19.3276C48.2396 19.1724 48.0122 19.0869 47.7767 19.0869H41.5808C41.4788 16.6427 40.4346 14.3324 38.6665 12.639C36.8984 10.9455 34.5432 10 32.0931 10C29.6431 10 27.2879 10.9455 25.5198 12.639C23.7517 14.3324 22.7075 16.6427 22.6055 19.0869H16.2233C15.9878 19.0869 15.7604 19.1724 15.5836 19.3276C15.4068 19.4828 15.2926 19.697 15.2624 19.9302L11.0078 52.9094C10.9904 53.0457 11.0022 53.1841 11.0424 53.3155C11.0827 53.4469 11.1506 53.5683 11.2415 53.6714C11.3324 53.7746 11.4442 53.8573 11.5696 53.9139C11.695 53.9706 11.831 53.9999 11.9686 54H52.0313C52.169 53.9999 52.305 53.9706 52.4304 53.9139C52.5558 53.8573 52.6676 53.7746 52.7585 53.6714C52.8494 53.5683 52.9173 53.4469 52.9576 53.3155C52.9978 53.1841 53.0096 53.0457 52.9922 52.9094L48.7375 19.9302ZM40.6331 29.9384C41.0082 29.9383 41.3749 30.0492 41.6868 30.2572C41.9988 30.4653 42.2419 30.7609 42.3856 31.1069C42.5292 31.4529 42.5669 31.8337 42.4938 32.2011C42.4207 32.5684 42.2402 32.9059 41.975 33.1708C41.7098 33.4357 41.3719 33.6162 41.004 33.6893C40.6362 33.7625 40.2548 33.7251 39.9082 33.5818C39.5617 33.4386 39.2654 33.1959 39.0569 32.8846C38.8484 32.5732 38.7371 32.2071 38.737 31.8326C38.7374 31.3305 38.9373 30.8491 39.2927 30.4939C39.6482 30.1388 40.1302 29.939 40.6331 29.9384ZM32.0936 11.9351C34.029 11.9381 35.8899 12.6809 37.294 14.0109C38.6981 15.3409 39.539 17.1573 39.644 19.0869H24.5422C24.6475 17.1572 25.4886 15.3408 26.8929 14.0108C28.2972 12.6808 30.1581 11.9381 32.0936 11.9351ZM23.5533 29.9384C23.9284 29.9383 24.2951 30.0492 24.607 30.2572C24.919 30.4653 25.1621 30.7609 25.3058 31.1069C25.4494 31.4529 25.487 31.8337 25.414 32.2011C25.3409 32.5684 25.1603 32.9059 24.8952 33.1708C24.63 33.4357 24.2921 33.6162 23.9242 33.6893C23.5563 33.7625 23.175 33.7251 22.8284 33.5818C22.4818 33.4386 22.1856 33.1959 21.9771 32.8846C21.7686 32.5732 21.6573 32.2071 21.6572 31.8326C21.6576 31.3305 21.8574 30.8491 22.2129 30.4939C22.5684 30.1388 23.0504 29.939 23.5533 29.9384ZM13.0694 52.0662L17.0753 21.0208H22.5849V28.1436C21.6831 28.3787 20.8981 28.9339 20.3766 29.7051C19.8551 30.4764 19.6329 31.411 19.7516 32.334C19.8703 33.257 20.3218 34.1052 21.0215 34.7199C21.7212 35.3346 22.6213 35.6736 23.5533 35.6736C24.4852 35.6736 25.3853 35.3346 26.085 34.7199C26.7847 34.1052 27.2362 33.257 27.3549 32.334C27.4736 31.411 27.2514 30.4764 26.7299 29.7051C26.2084 28.9339 25.4234 28.3787 24.5216 28.1436V21.0208H39.6647V28.1436C38.763 28.3787 37.9779 28.9339 37.4564 29.7051C36.935 30.4764 36.7128 31.411 36.8315 32.334C36.9502 33.257 37.4016 34.1052 38.1013 34.7199C38.8011 35.3346 39.7011 35.6736 40.6331 35.6736C41.5651 35.6736 42.4651 35.3346 43.1648 34.7199C43.8646 34.1052 44.316 33.257 44.4347 32.334C44.5534 31.411 44.3312 30.4764 43.8097 29.7051C43.2883 28.9339 42.5032 28.3787 41.6015 28.1436V21.0208H46.9247L50.9306 52.0662H13.0694Z" fill="white"/>
</svg>
