<svg width="24" height="24" viewBox="0 0 24 24" fill="none" xmlns="http://www.w3.org/2000/svg">
<path d="M23.3999 21L0.599904 21" stroke="black" stroke-linecap="round"/>
<path d="M19.7998 21L4.19981 21L4.19981 7.26274C4.19981 7.01815 4.19981 6.89585 4.22744 6.78077C4.25193 6.67873 4.29234 6.58119 4.34717 6.49171C4.40901 6.3908 4.49548 6.30432 4.66844 6.13137L7.33118 3.46863C7.50413 3.29568 7.59061 3.2092 7.69152 3.14736C7.78099 3.09253 7.87854 3.05213 7.98058 3.02763C8.09566 3 8.21796 3 8.46255 3L17.3998 3C18.2399 3 18.6599 3 18.9808 3.16349C19.263 3.3073 19.4925 3.53677 19.6363 3.81901C19.7998 4.13988 19.7998 4.55992 19.7998 5.4L19.7998 21Z" stroke="black" stroke-linecap="round"/>
<path d="M12 16.7998L12 10.1998" stroke="black" stroke-linecap="round"/>
<path d="M15 14.9999L12.0937 17.325C12.0389 17.3688 11.9611 17.3688 11.9063 17.325L9 14.9999" stroke="black" stroke-linecap="round"/>
<path d="M4.2 7.80011L7.4 7.80011C7.96005 7.80011 8.24008 7.80011 8.45399 7.69112C8.64215 7.59524 8.79513 7.44226 8.89101 7.2541C9 7.04019 9 6.76016 9 6.20011L9 3.00011" stroke="black"/>
</svg>
