<svg width="24" height="24" viewBox="0 0 24 24" fill="none" xmlns="http://www.w3.org/2000/svg">
<g clip-path="url(#clip0_102_25)">
<path d="M7.24688 0.0750002C6.54844 0.24375 5.95781 0.698438 5.66719 1.29375C5.5125 1.60781 5.50781 1.62656 5.49375 2.325L5.475 3.0375L4.79063 3.06094C4.26563 3.075 4.02656 3.10313 3.79688 3.17813C3.05625 3.41719 2.46094 4.05 2.23125 4.82344C2.16563 5.05313 2.15625 5.97656 2.15625 14.0578V23.0344L2.25469 23.2406C2.475 23.6906 3.09375 23.8688 3.49688 23.5969C3.64219 23.4984 4.26563 22.95 5.2125 22.0875L5.33438 21.975L6.39844 22.9219C6.98438 23.4422 7.53281 23.8969 7.62188 23.9344C8.03906 24.1078 8.23125 24 9.44531 22.9031C10.35 22.0828 10.4719 21.9844 10.5422 22.0453C10.5844 22.0828 11.0672 22.5141 11.6156 23.0063C12.7172 24 12.8203 24.0609 13.2141 23.9578C13.4625 23.8922 13.4016 23.9391 14.5969 22.875C15.1359 22.3969 15.5906 22.0078 15.6094 22.0078C15.6328 22.0078 16.05 22.3781 16.5422 22.8281C17.0344 23.2781 17.4703 23.6625 17.5125 23.6859C17.55 23.7094 17.6766 23.7281 17.7891 23.7281C18.0563 23.7328 18.2953 23.5828 18.4172 23.325C18.5109 23.1328 18.5156 23.0531 18.5156 21.0375V18.9516L18.6891 18.8297C18.8344 18.7266 18.8719 18.7172 18.9375 18.7688C18.975 18.8016 19.3781 19.1625 19.8281 19.5703C20.2781 19.9781 20.7141 20.3391 20.7984 20.3719C21.1688 20.5313 21.5531 20.4 21.7453 20.0578C21.8438 19.8844 21.8438 19.8797 21.8438 10.7953C21.8438 2.57813 21.8344 1.67813 21.7688 1.44844C21.5719 0.782813 21.0094 0.248438 20.3203 0.0656252C19.9594 -0.0328123 7.64531 -0.0234373 7.24688 0.0750002ZM20.2547 1.21875C20.4891 1.34063 20.7047 1.64063 20.7422 1.88906C20.7563 1.99688 20.7609 5.8875 20.7563 10.5375L20.7422 18.9891L19.9453 18.2578C19.1063 17.4938 19.0172 17.4422 18.6797 17.5031L18.5156 17.5359V11.3016C18.5156 6.97969 18.5016 4.99219 18.4641 4.81875C18.2906 3.97969 17.6156 3.2625 16.8375 3.09844C16.6641 3.06094 15.1078 3.04688 11.5688 3.04688H6.55313L6.57188 2.47031C6.58594 2.06719 6.61406 1.85625 6.66563 1.75781C6.78281 1.5375 7.04063 1.31719 7.29375 1.21875C7.51406 1.13438 7.725 1.12969 13.7953 1.125C20.0063 1.125 20.0672 1.125 20.2547 1.21875ZM16.8188 4.26094C17.0484 4.37813 17.175 4.52344 17.3063 4.80469L17.4141 5.03906L17.4281 13.6313C17.4328 19.1063 17.4234 22.2234 17.3953 22.2094C17.3719 22.2047 17.0344 21.8953 16.65 21.5297C16.2609 21.1594 15.8906 20.8406 15.8203 20.8125C15.6516 20.7469 15.4453 20.7516 15.2625 20.8313C15.1453 20.8828 13.9125 21.9375 13.125 22.6688L13.0078 22.7766L12.0047 21.8625C10.9781 20.9297 10.875 20.85 10.5984 20.7891C10.2469 20.7141 10.0969 20.8078 8.97188 21.825L7.91719 22.7813L6.90938 21.8766C6.35625 21.3844 5.81719 20.9297 5.70938 20.8688C5.475 20.7422 5.19844 20.7375 4.94531 20.8547C4.84219 20.9016 4.44844 21.2109 4.07344 21.5438C3.69844 21.8766 3.35625 22.1766 3.31406 22.2141C3.23906 22.275 3.23438 21.7734 3.24375 13.7063L3.25781 5.13281L3.38438 4.89375C3.53438 4.60781 3.825 4.34531 4.09688 4.24688C4.26094 4.19063 5.17969 4.17656 10.4672 4.17656C16.4484 4.17188 16.65 4.17656 16.8188 4.26094Z" fill="black" stroke="white" stroke-width="0.3"/>
<path d="M6.84375 8.26406C6.66094 8.32969 6.46875 8.57813 6.46875 8.75156C6.46875 8.92969 6.59531 9.15938 6.74531 9.24844C6.86719 9.31875 7.07344 9.32813 8.79844 9.32813C10.2234 9.32813 10.7391 9.31406 10.8234 9.26719C11.1938 9.07969 11.2266 8.54531 10.8797 8.31094C10.7672 8.23594 10.5844 8.22656 8.88281 8.21719C7.50938 8.20781 6.96563 8.22188 6.84375 8.26406Z" fill="black" stroke="white" stroke-width="0.3"/>
<path d="M6.84375 11.8734C6.66094 11.9391 6.46875 12.1875 6.46875 12.3609C6.46875 12.5391 6.59531 12.7688 6.74531 12.8578C6.87187 12.9328 7.17187 12.9375 10.4906 12.9375H14.1L14.2453 12.8203C14.5406 12.5719 14.5359 12.1547 14.2359 11.9438L14.0859 11.8359L10.5469 11.8266C7.87969 11.8172 6.96562 11.8313 6.84375 11.8734Z" fill="black" stroke="white" stroke-width="0.3"/>
<path d="M6.90469 15.4688C6.71719 15.5109 6.62344 15.5859 6.53438 15.7547C6.45 15.9234 6.45 16.05 6.54375 16.2469C6.69375 16.5609 6.51094 16.5469 10.4953 16.5469H14.1L14.2453 16.4297C14.5406 16.1813 14.5359 15.7641 14.2359 15.5531L14.0859 15.4453L10.5703 15.4359C8.63906 15.4313 6.98438 15.4453 6.90469 15.4688Z" fill="black" stroke="white" stroke-width="0.3"/>
</g>
<defs>
<clipPath id="clip0_102_25">
<rect width="24" height="24" fill="white"/>
</clipPath>
</defs>
</svg>
