<svg xmlns="http://www.w3.org/2000/svg" width="24" height="24" fill="none" viewBox="0 0 24 24">
  <path fill="#fff" d="M16.688.75c-1.681 0-3.205.315-4.395.908-1.19.594-2.168 1.56-2.168 2.842v3.75c0 .12.04.238.06.352a11.42 11.42 0 00-2.873-.352c-1.68 0-3.204.315-4.394.908C1.728 9.752.75 10.718.75 12v7.5c0 1.282.978 2.248 2.168 2.842 1.19.593 2.714.908 4.394.908 1.681 0 3.205-.315 4.395-.908 1.19-.594 2.168-1.56 2.168-2.842v-.38c.917.247 1.863.375 2.813.38 1.68 0 3.204-.315 4.395-.908 1.188-.594 2.167-1.56 2.167-2.842V4.5c0-1.282-.978-2.248-2.168-2.842-1.19-.593-2.713-.908-4.395-.908zm0 1.875c1.427 0 2.699.308 3.544.732.847.425 1.143.872 1.143 1.143 0 .272-.296.718-1.143 1.143-.845.425-2.117.732-3.544.732-1.428 0-2.7-.308-3.545-.732C12.296 5.218 12 4.77 12 4.5c0-.272.296-.718 1.143-1.143.845-.425 2.117-.732 3.544-.732zM12 7.166c.098.055.19.125.293.176 1.19.593 2.714.908 4.395.908 1.68 0 3.204-.315 4.395-.908.102-.051.194-.121.292-.176V8.25c0 .272-.296.718-1.143 1.143-.845.425-2.117.732-3.544.732-1.428 0-2.7-.307-3.545-.732C12.296 8.968 12 8.52 12 8.25V7.166zm-4.688 2.959c1.428 0 2.7.307 3.545.732C11.704 11.282 12 11.73 12 12c0 .272-.296.718-1.143 1.143-.845.425-2.117.732-3.544.732-1.428 0-2.7-.307-3.545-.732-.847-.425-1.143-.872-1.143-1.143 0-.272.296-.718 1.143-1.143.845-.425 2.117-.732 3.545-.732zm14.063.791V12c0 .272-.296.718-1.143 1.143-.845.425-2.117.732-3.544.732a8.906 8.906 0 01-2.813-.44V12c0-.12-.04-.238-.06-.352.873.227 1.84.352 2.873.352 1.68 0 3.204-.315 4.395-.908.102-.051.194-.121.292-.176zm-18.75 3.75c.098.055.19.125.293.176 1.19.593 2.714.908 4.394.908 1.681 0 3.205-.315 4.395-.908.103-.051.195-.121.293-.176v1.084c0 .272-.296.718-1.143 1.143-.845.424-2.117.732-3.544.732-1.428 0-2.7-.308-3.545-.732-.847-.425-1.143-.872-1.143-1.143v-1.084zm18.75 0v1.084c0 .272-.296.718-1.143 1.143-.845.424-2.117.732-3.544.732-1.066 0-2.03-.15-2.813-.41v-1.817c.86.227 1.798.352 2.813.352 1.68 0 3.204-.315 4.395-.908.102-.051.194-.121.292-.176zm-18.75 3.75c.098.055.19.125.293.176 1.19.593 2.714.908 4.394.908 1.681 0 3.205-.315 4.395-.908.103-.051.195-.121.293-.176V19.5c0 .272-.296.718-1.143 1.143-.845.424-2.117.732-3.544.732-1.428 0-2.7-.308-3.545-.732-.847-.425-1.143-.872-1.143-1.143v-1.084z"/>
</svg>
