<svg width="180" height="180" viewBox="0 0 180 180" fill="none" xmlns="http://www.w3.org/2000/svg">
<g filter="url(#filter0_i_22672_3293)">
<path d="M96.3914 0.203461C74.1315 2.54126 55.2597 13.722 43.1641 31.7129C40.3181 35.9481 36.3202 44.1473 34.7277 48.9245C29.0357 66.2378 30.2554 85.1774 38.1497 101.644C40.6569 106.794 42.1477 109.301 45.3664 113.638L47.6026 116.653L24.1568 139.895C2.67616 161.207 0.711058 163.273 0.338365 164.663C-1.08464 170.05 3.42155 174.556 8.80865 173.133C10.1978 172.76 12.0612 171.032 28.6291 154.566C38.6918 144.571 49.2627 134.102 52.0749 131.29L57.2587 126.241L58.1735 126.987C63.6961 131.323 72.7763 136.202 79.7897 138.574C94.9684 143.758 112.316 143.419 127.494 137.659C132.001 135.965 136.71 133.627 138.099 132.408C141.928 129.053 141.182 123.328 136.71 121.261C134.271 120.143 132.848 120.38 127.765 122.785C119.227 126.817 110.96 128.749 102.49 128.749C76.9098 128.715 54.3788 111.91 47.0944 87.4135C45.4342 81.7215 44.926 78.0623 44.926 71.1506C44.926 64.2388 45.4342 60.5797 47.0944 54.8876C52.5153 36.7273 66.5083 22.3279 84.4314 16.4664C111.773 7.52179 141.352 20.0578 154.023 45.9091C158.936 56.0057 160.867 67.4575 159.41 78.2995C158.496 85.4145 156.768 90.9033 153.278 98.0183C151.143 102.355 151.008 103.473 152.397 106.082C153.142 107.539 153.684 108.081 155.175 108.86C156.768 109.707 157.31 109.809 158.868 109.673C162.324 109.301 164.188 107.234 167.339 100.017C176.859 78.3673 175.097 53.634 162.629 33.5086C151.99 16.3648 134.237 4.50636 114.01 0.982727C110.079 0.305099 99.7796 -0.135345 96.3914 0.203461Z" fill="#E6DFED"/>
<path d="M79.6884 44.4186C77.3845 45.0962 75.2161 48.1794 75.2161 50.8221C75.2161 53.4987 75.6904 54.1086 84.2962 62.7483L92.631 71.1508L84.2962 79.5194C76.9779 86.9055 75.9276 88.0914 75.5549 89.4466C74.098 94.8337 78.6381 99.3738 84.0252 97.9169C85.3804 97.5442 86.5662 96.4939 93.9523 89.1756L102.321 80.8408L110.724 89.1756C118.076 96.4939 119.262 97.5442 120.617 97.9169C126.004 99.3738 130.544 94.8337 129.087 89.4466C128.714 88.0914 127.664 86.9055 120.346 79.5194L112.011 71.1508L120.346 62.7483C127.664 55.3961 128.714 54.2102 129.087 52.855C130.544 47.4679 126.004 42.9278 120.617 44.3847C119.262 44.7574 118.076 45.8077 110.724 53.126L102.321 61.4608L93.9523 53.126C87.0406 46.2482 85.3126 44.7235 84.1946 44.4186C82.6022 43.9781 81.213 43.9781 79.6884 44.4186Z" fill="#E6DFED"/>
</g>
<defs>
<filter id="filter0_i_22672_3293" x="0" y="0" width="180" height="184" filterUnits="userSpaceOnUse" color-interpolation-filters="sRGB">
<feFlood flood-opacity="0" result="BackgroundImageFix"/>
<feBlend mode="normal" in="SourceGraphic" in2="BackgroundImageFix" result="shape"/>
<feColorMatrix in="SourceAlpha" type="matrix" values="0 0 0 0 0 0 0 0 0 0 0 0 0 0 0 0 0 0 127 0" result="hardAlpha"/>
<feOffset dy="4"/>
<feGaussianBlur stdDeviation="2"/>
<feComposite in2="hardAlpha" operator="arithmetic" k2="-1" k3="1"/>
<feColorMatrix type="matrix" values="0 0 0 0 0 0 0 0 0 0 0 0 0 0 0 0 0 0 0.05 0"/>
<feBlend mode="normal" in2="shape" result="effect1_innerShadow_22672_3293"/>
</filter>
</defs>
</svg>
