<svg width="20" height="16" viewBox="0 0 20 16" fill="none" xmlns="http://www.w3.org/2000/svg">
<path d="M18.4499 6.79999V6.74999H18.3999H1.5999H1.5499V6.79999V12.2C1.5499 12.6906 1.74481 13.1612 2.09175 13.5081C2.4387 13.8551 2.90925 14.05 3.3999 14.05H16.5999C17.0906 14.05 17.5611 13.8551 17.908 13.5081C18.255 13.1612 18.4499 12.6906 18.4499 12.2V6.79999ZM1.5499 5.59999V5.64999H1.5999H18.3999H18.4499V5.59999V3.79999C18.4499 3.30934 18.255 2.83878 17.908 2.49184C17.5611 2.1449 17.0906 1.94999 16.5999 1.94999H3.3999C2.90925 1.94999 2.4387 2.1449 2.09175 2.49184C1.74481 2.83878 1.5499 3.30934 1.5499 3.79999V5.59999ZM13.811 11.8111C13.9141 11.7079 14.054 11.65 14.1999 11.65H16.5999C16.7458 11.65 16.8857 11.7079 16.9888 11.8111C17.092 11.9142 17.1499 12.0541 17.1499 12.2C17.1499 12.3459 17.092 12.4858 16.9888 12.5889C16.8857 12.692 16.7458 12.75 16.5999 12.75H14.1999C14.054 12.75 13.9141 12.692 13.811 12.5889C13.7078 12.4858 13.6499 12.3459 13.6499 12.2C13.6499 12.0541 13.7078 11.9142 13.811 11.8111ZM0.449902 3.79999C0.449902 3.0176 0.760705 2.26726 1.31394 1.71402C1.86717 1.16079 2.61751 0.849988 3.3999 0.849988H16.5999C17.3823 0.849988 18.1326 1.16079 18.6859 1.71402C19.2391 2.26726 19.5499 3.0176 19.5499 3.79999V12.2C19.5499 12.9824 19.2391 13.7327 18.6859 14.286C18.1326 14.8392 17.3823 15.15 16.5999 15.15H3.3999C2.61751 15.15 1.86717 14.8392 1.31394 14.286C0.760705 13.7327 0.449902 12.9824 0.449902 12.2V3.79999Z" fill="black" stroke="white" stroke-width="0.1"/>
</svg>
