<?xml version="1.0" encoding="UTF-8" ?>
<!DOCTYPE svg PUBLIC "-//W3C//DTD SVG 1.1//EN" "http://www.w3.org/Graphics/SVG/1.1/DTD/svg11.dtd">
<svg width="512pt" height="512pt" viewBox="0 0 512 512" version="1.1" xmlns="http://www.w3.org/2000/svg">
<g id="#000000ff">
<path fill="#000000" opacity="1.00" d=" M 88.21 43.24 C 93.42 42.50 98.70 42.68 103.96 42.67 C 204.98 42.67 306.00 42.67 407.02 42.67 C 416.11 42.56 425.46 42.45 434.08 45.78 C 454.54 52.79 469.29 73.39 469.29 95.04 C 469.39 201.35 469.30 307.67 469.34 413.99 C 469.44 421.32 468.38 428.70 465.67 435.53 C 458.20 455.27 438.08 469.30 416.95 469.29 C 310.30 469.38 203.65 469.31 97.00 469.33 C 82.46 469.61 67.90 463.76 57.79 453.28 C 47.87 443.25 42.39 429.14 42.67 415.06 C 42.67 308.73 42.65 202.39 42.68 96.06 C 42.60 82.75 47.69 69.49 56.80 59.76 C 64.98 50.88 76.25 44.92 88.21 43.24 M 83.69 61.83 C 69.88 66.57 59.82 80.40 59.77 95.03 C 59.69 145.84 59.75 196.65 59.74 247.46 C 122.31 247.47 184.89 247.47 247.46 247.46 C 247.47 184.89 247.47 122.31 247.46 59.74 C 197.30 59.72 147.14 59.74 96.99 59.73 C 92.48 59.72 87.93 60.27 83.69 61.83 M 264.54 59.74 C 264.53 122.31 264.53 184.89 264.54 247.46 C 327.11 247.47 389.69 247.47 452.26 247.46 C 452.27 198.99 452.26 150.53 452.27 102.06 C 452.28 96.95 452.45 91.76 451.11 86.78 C 447.41 71.50 432.72 59.78 416.96 59.77 C 366.15 59.69 315.35 59.75 264.54 59.74 M 59.74 264.54 C 59.75 315.35 59.69 366.16 59.77 416.97 C 59.79 432.75 71.54 447.42 86.84 451.13 C 91.79 452.44 96.95 452.28 102.02 452.27 C 150.50 452.26 198.98 452.27 247.46 452.26 C 247.47 389.69 247.47 327.11 247.46 264.54 C 184.89 264.53 122.31 264.53 59.74 264.54 M 264.54 264.54 C 264.53 327.11 264.53 389.69 264.54 452.26 C 315.01 452.27 365.49 452.28 415.96 452.26 C 426.68 452.36 437.32 447.42 444.06 439.07 C 449.40 432.64 452.30 424.31 452.26 415.96 C 452.28 365.48 452.27 315.01 452.26 264.54 C 389.69 264.53 327.11 264.53 264.54 264.54 Z" />
<path fill="#000000" opacity="1.00" d=" M 355.39 92.59 C 358.68 91.60 362.71 92.22 365.00 94.95 C 366.33 96.71 367.18 98.77 368.19 100.73 C 382.28 128.97 396.42 157.18 410.50 185.41 C 414.26 191.28 408.85 199.38 402.02 198.40 C 372.68 198.38 343.34 198.44 313.99 198.37 C 309.72 198.60 305.65 195.25 305.17 190.99 C 304.66 187.70 306.65 184.82 307.99 181.98 C 322.11 153.77 336.22 125.55 350.32 97.32 C 351.29 95.14 353.04 93.25 355.39 92.59 M 358.40 119.35 C 348.09 140.01 337.73 160.66 327.43 181.33 C 348.08 181.33 368.73 181.34 389.37 181.32 C 379.07 160.66 368.72 140.01 358.40 119.35 Z" />
<path fill="#000000" opacity="1.00" d=" M 106.41 100.63 C 107.89 100.24 109.45 100.28 110.97 100.25 C 140.00 100.31 169.04 100.23 198.07 100.29 C 202.82 100.00 207.13 104.22 206.91 108.98 C 206.95 138.68 206.95 168.39 206.91 198.09 C 207.19 202.89 202.85 207.20 198.05 206.91 C 168.38 206.95 138.70 206.95 109.02 206.91 C 105.18 207.04 101.47 204.32 100.57 200.56 C 100.12 198.39 100.28 196.16 100.25 193.96 C 100.30 165.61 100.22 137.26 100.29 108.91 C 100.18 105.18 102.82 101.61 106.41 100.63 M 117.34 117.34 C 117.33 141.51 117.34 165.68 117.33 189.86 C 141.51 189.88 165.69 189.86 189.86 189.86 C 189.86 165.69 189.88 141.51 189.86 117.33 C 165.68 117.34 141.51 117.33 117.34 117.34 Z" />
<path fill="#000000" opacity="1.00" d=" M 103.17 307.22 C 106.46 304.14 112.07 304.49 115.07 307.82 C 127.96 320.61 140.76 333.50 153.64 346.31 C 166.41 333.51 179.20 320.73 191.99 307.94 C 194.96 304.56 200.57 304.09 203.93 307.13 C 207.61 310.11 207.90 316.17 204.53 319.48 C 191.64 332.50 178.62 345.40 165.68 358.38 C 178.50 371.23 191.38 384.02 204.16 396.90 C 207.49 399.90 207.85 405.49 204.80 408.81 C 201.81 412.41 195.80 412.70 192.53 409.33 C 179.50 396.43 166.62 383.38 153.62 370.47 C 140.73 383.28 127.92 396.19 115.03 409.01 C 112.38 411.86 107.78 412.59 104.46 410.52 C 99.92 408.01 98.84 401.18 102.53 397.47 C 115.46 384.38 128.54 371.44 141.53 358.40 C 128.62 345.38 115.58 332.49 102.67 319.47 C 99.31 316.21 99.57 310.20 103.17 307.22 Z" />
<path fill="#000000" opacity="1.00" d=" M 353.22 305.35 C 366.59 304.03 380.43 307.93 391.00 316.26 C 403.25 325.65 411.05 340.58 411.63 356.02 C 412.31 369.59 407.47 383.31 398.47 393.49 C 389.14 404.26 375.32 411.00 361.07 411.62 C 346.99 412.41 332.74 407.21 322.40 397.64 C 311.89 388.11 305.47 374.22 305.13 360.03 C 304.63 346.24 309.83 332.36 319.25 322.28 C 328.01 312.74 340.32 306.56 353.22 305.35 M 354.28 322.38 C 346.68 323.24 339.39 326.60 333.80 331.81 C 321.40 342.83 318.49 362.69 327.19 376.82 C 335.54 391.48 354.79 398.56 370.61 392.51 C 387.19 386.92 397.81 368.20 393.89 351.09 C 390.60 333.21 372.33 319.90 354.28 322.38 Z" />
</g>
</svg>
