<svg xmlns="http://www.w3.org/2000/svg" width="20" height="18" fill="none" viewBox="0 0 20 18">
  <circle cx="3.75" cy="2.45" r=".75" fill="#000"/>
  <circle cx="6.25" cy="2.45" r=".75" fill="#000"/>
  <rect width="19.2" height="17.2" x=".4" y=".4" stroke="#000" stroke-width=".8" rx="1.6"/>
  <path stroke="#000" stroke-width=".8" d="M0 4.6h20"/>
  <path fill="#000" d="M8.93 13.811l-.73-1.719H5.33l-.72 1.719c-.06.168-.175.252-.343.252a.353.353 0 01-.26-.099.361.361 0 01-.1-.252c0-.042.012-.096.036-.162l2.412-5.589c.09-.204.237-.306.441-.306.21 0 .354.102.432.306l2.403 5.562a.484.484 0 01.027.153.397.397 0 01-.108.279.337.337 0 01-.26.108c-.169 0-.289-.084-.36-.252zm-3.295-2.439h2.268L6.77 8.681l-1.134 2.691zm5.171 2.25V8.078c0-.102.036-.189.108-.261a.352.352 0 01.27-.117l1.341-.027c.612 0 1.15.084 1.611.252.462.162.831.39 1.107.684.276.288.48.615.612.981.138.36.207.753.207 1.179 0 .942-.312 1.719-.936 2.331-.63.612-1.52.918-2.673.918-.06 0-.144-.003-.252-.009-.108 0-.264-.003-.468-.009h-.549a.386.386 0 01-.27-.108.386.386 0 01-.108-.27zm.765-5.202v4.86c.156 0 .306.003.45.009.15 0 .261.003.333.009h.126c.876 0 1.557-.234 2.043-.702.486-.456.73-1.065.73-1.827 0-.708-.238-1.281-.712-1.719-.474-.438-1.152-.657-2.034-.657-.108 0-.273.006-.495.018-.216.006-.363.009-.44.009z"/>
</svg>
