<svg width="24" height="24" viewBox="0 0 24 24" fill="none" xmlns="http://www.w3.org/2000/svg">
<path d="M12.0001 1.09961C5.97986 1.09961 1.09961 5.97986 1.09961 12.0001C1.09961 18.0204 5.97986 22.9006 12.0001 22.9006C18.0204 22.9006 22.9006 18.0204 22.9006 12.0001C22.9006 5.97986 18.0204 1.09961 12.0001 1.09961ZM12.9961 18.2784H10.9651V16.3321H12.9961V18.2784ZM12.9961 14.2531V14.8966H10.9651V14.1046C10.9651 11.7121 13.6876 11.3326 13.6876 9.63236C13.6876 8.85761 12.9954 8.26361 12.0879 8.26361C11.1474 8.26361 10.3224 8.95661 10.3224 8.95661L9.16736 7.51961C9.16736 7.51961 10.3051 6.33011 12.2686 6.33011C14.1331 6.33011 15.8649 7.48511 15.8649 9.43211C15.8649 12.1561 12.9946 12.4696 12.9946 14.2524L12.9961 14.2531Z" fill="#7B46AC"/>
</svg>
