<svg xmlns="http://www.w3.org/2000/svg" width="16" height="16" fill="none" viewBox="0 0 16 16">
  <g clip-path="url(#clip0_13202:14109)">
    <path fill="red" d="M8.044 4.889a3.092 3.092 0 00-3.11 3.11 3.092 3.092 0 003.11 3.112A3.092 3.092 0 0011.156 8a3.092 3.092 0 00-3.112-3.111zm0 5.333A2.2 2.2 0 015.822 8a2.2 2.2 0 012.222-2.222A2.2 2.2 0 0110.267 8a2.2 2.2 0 01-2.223 2.222z"/>
    <path fill="red" d="M14.578 6.533l-1.245-.4-.266-.667.622-1.155a.747.747 0 00-.133-.845L12.489 2.4a.747.747 0 00-.845-.134l-1.155.623-.667-.267-.4-1.244a.722.722 0 00-.666-.49H7.244a.623.623 0 00-.622.534l-.4 1.244a1.963 1.963 0 00-.71.267l-1.156-.622a.747.747 0 00-.845.133L2.444 3.511a.747.747 0 00-.133.844l.578 1.111c-.089.223-.178.49-.267.712l-1.244.4a.722.722 0 00-.49.666v1.511c0 .311.223.578.534.667l1.245.4.266.667-.622 1.155a.747.747 0 00.133.845l1.067 1.066a.747.747 0 00.845.134l1.155-.623.667.267.4 1.289a.722.722 0 00.666.489h1.512a.722.722 0 00.666-.489l.4-1.289.667-.267 1.155.623a.747.747 0 00.845-.134l1.067-1.066a.748.748 0 00.133-.845l-.622-1.155.266-.667 1.29-.4a.722.722 0 00.488-.667v-1.51a.76.76 0 00-.533-.712zm-.356 2.089l-1.6.489-.044.222-.4.933-.134.223.8 1.466-.888.89-1.467-.8-.222.133a4.224 4.224 0 01-.934.4l-.222.044-.489 1.6H7.378l-.49-1.6-.221-.044-.934-.4-.222-.134-1.467.8-.888-.889.8-1.466-.134-.223a4.218 4.218 0 01-.4-.933l-.044-.222-1.6-.489V7.378l1.51-.445.09-.222c.089-.356.222-.667.4-.978l.133-.222-.755-1.467.888-.889 1.423.8.222-.133c.311-.178.622-.311.978-.4l.222-.089.489-1.555h1.244l.49 1.555.221.089c.311.089.623.222.934.4l.222.133 1.467-.8.889.89-.8 1.466.133.222c.178.311.31.622.4.933l.044.223 1.6.489v1.244z"/>
    <circle cx="12" cy="12" r="4.5" fill="red" stroke="#fff"/>
    <path fill="#fff" d="M12.492 12.92h-.937l-.133-3.941h1.203l-.133 3.941zm-.469.618c.19 0 .343.056.457.168a.568.568 0 01.176.43.563.563 0 01-.176.425.626.626 0 01-.457.168.634.634 0 01-.457-.168.57.57 0 01-.171-.426.57.57 0 01.171-.425.626.626 0 01.457-.172z"/>
  </g>
  <defs>
    <clipPath id="clip0_13202:14109">
      <path fill="#fff" d="M0 0h16v16H0z"/>
    </clipPath>
  </defs>
</svg>
