<?xml version="1.0" encoding="UTF-8" ?>
<!DOCTYPE svg PUBLIC "-//W3C//DTD SVG 1.1//EN" "http://www.w3.org/Graphics/SVG/1.1/DTD/svg11.dtd">
<svg width="650" height="650" viewBox="0 0 650 650" version="1.1" xmlns="http://www.w3.org/2000/svg">
<g id="#ffffffff">
</g>
<g id="#000000ff">
<path fill="#000000" opacity="1.00" d=" M 170.49 91.47 C 195.61 79.04 224.03 73.33 252.00 75.25 C 289.30 77.59 325.66 93.46 352.56 119.45 C 380.99 146.33 398.84 184.04 401.77 223.05 C 405.50 267.51 389.51 313.24 358.74 345.57 C 349.61 355.43 339.14 364.03 327.85 371.29 C 362.66 385.29 393.83 408.45 416.91 438.08 C 437.07 464.23 451.00 495.36 455.90 528.09 C 458.26 545.55 448.57 563.80 432.95 571.84 C 428.31 573.84 424.06 577.02 419.15 578.20 C 308.45 578.26 197.75 578.21 87.05 578.23 C 80.68 578.11 74.27 578.55 67.92 577.79 C 55.28 576.35 43.26 569.66 35.64 559.42 C 28.50 550.02 25.36 537.61 27.47 525.97 C 34.82 481.17 58.73 439.54 92.90 409.80 C 111.27 393.48 132.51 380.46 155.27 371.24 C 130.68 355.69 110.47 333.24 97.57 307.15 C 84.85 281.54 79.03 252.48 81.22 223.94 C 83.15 196.22 92.61 169.13 108.04 146.05 C 123.69 122.90 145.33 103.72 170.49 91.47 M 225.52 117.93 C 203.33 120.96 181.99 130.32 164.92 144.85 C 146.72 160.11 133.35 180.99 127.07 203.88 C 120.40 227.66 121.45 253.54 130.08 276.69 C 139.06 301.50 156.74 322.99 179.21 336.80 C 200.86 350.16 226.85 356.31 252.18 353.95 C 275.65 351.87 298.46 342.64 316.67 327.67 C 335.46 312.39 349.36 291.22 355.86 267.88 C 362.77 243.62 361.63 217.14 352.61 193.58 C 343.31 168.65 325.24 147.16 302.37 133.60 C 279.49 119.91 251.94 114.27 225.52 117.93 M 218.38 397.84 C 169.27 403.76 122.25 430.05 94.05 471.07 C 81.27 489.58 72.47 510.86 68.79 533.07 C 69.24 535.86 72.67 536.31 74.97 536.26 C 185.99 536.24 297.01 536.24 408.03 536.26 C 410.32 536.32 413.67 535.90 414.26 533.20 C 407.32 489.89 380.46 450.90 343.93 427.03 C 307.43 402.55 261.90 392.52 218.38 397.84 Z" />
<path fill="#000000" opacity="1.00" d=" M 353.32 84.97 C 382.45 74.06 414.78 71.94 445.09 78.93 C 483.25 87.52 517.87 110.64 540.39 142.62 C 566.62 179.19 576.23 227.07 566.13 270.93 C 557.07 311.97 531.10 348.87 495.56 371.29 C 531.13 385.56 562.91 409.40 586.12 439.94 C 605.43 465.66 618.86 496.02 623.63 527.90 C 626.03 545.18 616.72 563.05 601.57 571.49 C 597.38 573.62 593.52 576.54 589.12 578.17 C 564.14 578.31 539.15 578.18 514.17 578.23 C 514.10 564.25 514.58 550.21 512.89 536.30 C 534.28 536.16 555.68 536.33 577.07 536.22 C 579.26 536.31 582.62 534.96 581.86 532.23 C 576.26 498.83 558.82 467.79 534.14 444.74 C 506.83 419.03 471.06 402.91 433.96 398.09 C 430.50 398.03 428.09 395.36 425.38 393.61 C 412.39 384.61 398.32 377.18 383.67 371.26 C 391.57 366.36 398.94 360.60 405.83 354.36 C 426.69 355.04 447.69 350.01 466.01 340.02 C 498.49 322.72 521.66 289.41 526.84 253.00 C 530.01 231.26 527.12 208.67 518.35 188.51 C 509.59 168.01 494.78 150.20 476.42 137.60 C 455.85 123.43 430.73 116.18 405.80 116.86 C 390.54 103.02 372.68 92.03 353.32 84.97 Z" />
</g>
</svg>
