<svg width="24" height="24" viewBox="0 0 24 24" fill="none" xmlns="http://www.w3.org/2000/svg">
<g clip-path="url(#clip0_16238_19044)">
<path d="M10.2712 15.1705C11.4637 14.6305 12.4353 13.6983 13.024 12.5291C13.6128 11.3599 13.7833 10.0243 13.5071 8.74473C13.2308 7.46514 12.5246 6.31878 11.506 5.49657C10.4874 4.67436 9.2178 4.22591 7.90873 4.22591C6.59967 4.22591 5.33011 4.67436 4.31148 5.49657C3.29285 6.31878 2.58662 7.46514 2.31041 8.74473C2.03419 10.0243 2.20466 11.3599 2.79343 12.5291C3.3822 13.6983 4.35373 14.6305 5.54623 15.1705C3.38584 15.7306 1.49414 17.0388 0.207597 18.8625C0.147243 18.9527 0.124179 19.0627 0.14325 19.1695C0.162321 19.2763 0.222044 19.3716 0.30987 19.4353C0.378784 19.4833 0.461106 19.5084 0.545097 19.5069C0.610914 19.5057 0.675579 19.4894 0.734098 19.4592C0.792617 19.4291 0.843425 19.3859 0.882597 19.333C1.67542 18.2061 2.72764 17.2865 3.95048 16.6517C5.17333 16.0169 6.53093 15.6855 7.90873 15.6855C9.28654 15.6855 10.6441 16.0169 11.867 16.6517C13.0898 17.2865 14.142 18.2061 14.9349 19.333C14.9658 19.3773 15.0051 19.4151 15.0506 19.4442C15.0961 19.4734 15.1469 19.4932 15.2001 19.5027C15.2532 19.5122 15.3078 19.5112 15.3605 19.4996C15.4133 19.488 15.4633 19.4662 15.5076 19.4353C15.5519 19.4044 15.5897 19.3651 15.6188 19.3196C15.648 19.2741 15.6679 19.2233 15.6773 19.1701C15.6868 19.1169 15.6858 19.0624 15.6742 19.0096C15.6626 18.9568 15.6408 18.9069 15.6099 18.8625C14.3233 17.0388 12.4316 15.7306 10.2712 15.1705ZM2.99964 9.95458C2.99964 8.98365 3.28756 8.03453 3.82697 7.22723C4.36639 6.41994 5.13309 5.79073 6.03011 5.41917C6.92712 5.04761 7.91418 4.95039 8.86645 5.13981C9.81872 5.32923 10.6934 5.79678 11.38 6.48333C12.0665 7.16987 12.5341 8.04459 12.7235 8.99686C12.9129 9.94913 12.8157 10.9362 12.4441 11.8332C12.0726 12.7302 11.4434 13.4969 10.6361 14.0363C9.82878 14.5758 8.87966 14.8637 7.90873 14.8637C6.60676 14.8637 5.35812 14.3465 4.43748 13.4258C3.51685 12.5052 2.99964 11.2565 2.99964 9.95458ZM23.8428 19.4353C23.7543 19.495 23.6459 19.5178 23.5407 19.4987C23.4356 19.4796 23.3422 19.4201 23.2803 19.333C22.4851 18.2059 21.431 17.2861 20.2067 16.6508C18.9823 16.0154 17.6234 15.6832 16.244 15.6819C16.1355 15.6819 16.0314 15.6388 15.9547 15.562C15.878 15.4853 15.8349 15.3813 15.8349 15.2728C15.8349 15.1643 15.878 15.0602 15.9547 14.9835C16.0314 14.9068 16.1355 14.8637 16.244 14.8637C17.5459 14.8637 18.7946 14.3465 19.7152 13.4258C20.6358 12.5052 21.1531 11.2565 21.1531 9.95458C21.1531 8.65261 20.6358 7.40396 19.7152 6.48333C18.7946 5.56269 17.5459 5.04549 16.244 5.04549C15.7944 5.0449 15.3469 5.10686 14.9144 5.22958C14.81 5.25779 14.6986 5.24351 14.6047 5.18984C14.5108 5.13618 14.442 5.0475 14.4133 4.94321C14.3847 4.84016 14.3975 4.73001 14.4492 4.63634C14.5008 4.54267 14.587 4.47294 14.6894 4.44208C16.081 4.044 17.5716 4.18755 18.8616 4.84385C20.1516 5.50015 21.1453 6.62053 21.6429 7.97969C22.1404 9.33886 22.1049 10.836 21.5435 12.17C20.9821 13.5041 19.9364 14.5761 18.6167 15.1705C20.773 15.7336 22.6605 17.0415 23.9451 18.8625C23.9763 18.9067 23.9984 18.9567 24.0101 19.0095C24.0219 19.0624 24.023 19.117 24.0135 19.1702C24.004 19.2235 23.984 19.2744 23.9547 19.3199C23.9254 19.3653 23.8874 19.4046 23.8428 19.4353Z" fill="black"/>
</g>
<defs>
<clipPath id="clip0_16238_19044">
<rect width="24" height="24" fill="white"/>
</clipPath>
</defs>
</svg>
