<svg width="24" height="24" fill="none" xmlns="http://www.w3.org/2000/svg">
    <path d="M3.001 21V3a2 2 0 0 1 2-2h10.5l4.5 4.5V21a2 2 0 0 1-2 2h-13a2 2 0 0 1-2-2Z" stroke="#000" stroke-width=".75"/>
    <path d="M15.001 1v3a2 2 0 0 0 2 2h3M3 17.125h17.006" stroke="#000" stroke-width=".75"/>
    <path d="m15.001 12.44 1.837-1.58a.435.435 0 0 0 0-.68L15.001 8.6M8.001 12.44l-1.837-1.58a.435.435 0 0 1 0-.68L8 8.6" stroke="#000" stroke-width=".5" stroke-miterlimit="10" stroke-linecap="round" stroke-linejoin="round"/>
    <circle cx="9.251" cy="11.25" r=".25" fill="#000"/>
    <circle cx="11.251" cy="11.25" r=".25" fill="#000"/>
    <circle cx="13.251" cy="11.25" r=".25" fill="#000"/>
    <path d="M9.751 18.735a.237.237 0 0 1-.005.235l-.935 1.52c-.013.017-.02.045-.02.085v1.195a.226.226 0 0 1-.07.165.218.218 0 0 1-.16.065h-.14a.235.235 0 0 1-.165-.065.235.235 0 0 1-.065-.165v-1.2c0-.037-.008-.063-.025-.08l-.93-1.52c-.043-.083-.045-.16-.005-.23.043-.08.11-.12.2-.12h.16c.09 0 .157.037.2.11.037.057.092.147.165.27a34.642 34.642 0 0 0 .5.815c.007.013.017.02.03.02.017 0 .03-.007.04-.02l.265-.43a47.947 47.947 0 0 1 .4-.655.212.212 0 0 1 .195-.11h.16c.093 0 .162.038.205.115Zm3.079 3.035a.235.235 0 0 1-.066.165.224.224 0 0 1-.164.065h-.136a.235.235 0 0 1-.165-.065.235.235 0 0 1-.064-.165v-1.505c0-.013-.007-.022-.02-.025-.01-.003-.019 0-.025.01l-.48.99a.144.144 0 0 1-.066.07.874.874 0 0 1-.095.05l-.04.015c-.103 0-.171-.045-.204-.135l-.48-.99c-.004-.01-.012-.013-.025-.01-.014.003-.02.012-.02.025v1.505a.226.226 0 0 1-.07.165.218.218 0 0 1-.16.065h-.14a.235.235 0 0 1-.165-.065.235.235 0 0 1-.065-.165v-2.92c0-.067.021-.122.065-.165a.235.235 0 0 1 .165-.065h.145c.093 0 .161.043.204.13l.1.215a19.207 19.207 0 0 1 .4.825l.22.45c.007.013.016.02.026.02.013 0 .023-.007.03-.02l.714-1.49a.219.219 0 0 1 .21-.13h.14a.224.224 0 0 1 .23.23v2.92Zm2.576 0a.226.226 0 0 1-.07.165.212.212 0 0 1-.155.065h-1.72a.229.229 0 0 1-.16-.065.235.235 0 0 1-.065-.165v-2.92a.224.224 0 0 1 .225-.23h.14c.063 0 .117.022.16.065.047.043.07.098.07.165v2.495c0 .043.02.065.06.065h1.29c.06 0 .112.022.155.065.047.043.07.098.07.165v.13Z" fill="#000"/>
</svg>
