<svg id="Layer_10" data-name="Layer 10" xmlns="http://www.w3.org/2000/svg" viewBox="0 0 242.85 40"><defs><style>.cls-1{fill:#1d1d1b;}.cls-2{fill:#1e1e1c;}</style></defs><title>lgm</title><path class="cls-1" d="M58.83,4.7A1.66,1.66,0,0,0,58.69,4c0-.1-.09-.19-.14-.29A1.45,1.45,0,0,0,58,3.32l-.12-.07h0a1.52,1.52,0,0,0-.52-.12h-.33a6.17,6.17,0,0,0-.88-.89A1.86,1.86,0,0,0,57,.63a1.91,1.91,0,0,0-1.37.74A1.93,1.93,0,0,0,55.18,0a1.73,1.73,0,0,0-.56,1.3,1.79,1.79,0,0,0-.74-.24H53.5a1.41,1.41,0,0,0,.7,1.27,2.74,2.74,0,0,0-.09.7h0a1.93,1.93,0,0,0-2,1.84v0a2,2,0,0,0,.52,1.37,2.16,2.16,0,0,0,.33.27h0A4.41,4.41,0,0,1,51.37,7.7a7.93,7.93,0,0,0-2.16-.86,3.33,3.33,0,0,0-2,.07A.84.84,0,0,0,46.8,8h0a14.55,14.55,0,0,1-3.7-1.51c-.35-.21-.78-.91-.88-.8a6.65,6.65,0,0,0,.28,1.51A.72.72,0,0,0,42.26,7c-.14-.07,0,.56-.07.39a.3.3,0,0,0-.25-.18s-.31-.07.78,2.77,2.56,5.55,4.38,6.61c6.36,3.65,11.07-.32,12-3.87a11.78,11.78,0,0,0-.6-7.11A1.62,1.62,0,0,0,58.83,4.7Z" transform="translate(0.01 0)"/><path class="cls-1" d="M59.16,23.16,56.6,26.75H56V23.16H54.16v8.69H56V28.21h.33a1.13,1.13,0,0,0,.21.06.39.39,0,0,1,.22.11l.16.16a.82.82,0,0,1,.22.27,1.46,1.46,0,0,1,.22.33,3.48,3.48,0,0,0,.22.43c.1.16.21.33.27.44a6,6,0,0,0,1.14,1.46,1.66,1.66,0,0,0,1.19.38h.77V30.33h-.11a1,1,0,0,1-.71-.32,12.27,12.27,0,0,1-1-1.47,5.55,5.55,0,0,0-1-1.36l3-4Z" transform="translate(0.01 0)"/><path class="cls-1" d="M4.5,32.07a7.44,7.44,0,0,0,1.63-.22,4.61,4.61,0,0,0,1.14-.65L6.5,29.9a3.28,3.28,0,0,1-2,.65,2.33,2.33,0,0,1-1.84-.85A3.58,3.58,0,0,1,2,27.53a3.23,3.23,0,0,1,.65-2.07,2.29,2.29,0,0,1,1.84-.83,3.33,3.33,0,0,1,1.79.49l.82-1.36a4.48,4.48,0,0,0-2.61-.71,4.31,4.31,0,0,0-3.31,1.3A4.48,4.48,0,0,0,0,27.56a4.81,4.81,0,0,0,1.2,3.21A4.07,4.07,0,0,0,4.5,32.07Z" transform="translate(0.01 0)"/><polygon class="cls-1" points="26.42 24.73 30 24.73 30 31.91 31.85 31.91 31.85 23.21 24.57 23.21 24.57 31.91 26.42 31.91 26.42 24.73"/><path class="cls-1" d="M10,31.09A5.91,5.91,0,0,0,10.87,28l.22-3.3H13.5v7.12h1.85V23.16H9.5l-.33,4.35a8.43,8.43,0,0,1-.43,2.28,1.14,1.14,0,0,1-1,.81L8,32A2.26,2.26,0,0,0,10,31.09Z" transform="translate(0.01 0)"/><path class="cls-1" d="M35.5,30.28H39l.59,1.63h2l-3.42-8.7H36.41l-3.32,8.7h1.85Zm1.19-3.48a5,5,0,0,0,.22-.65l.16-.55c.06-.21.11-.27.11-.32s.06.22.17.54.21.65.32.93l.83,2.06H36Z" transform="translate(0.01 0)"/><path class="cls-1" d="M44.29,31.53a6.51,6.51,0,0,0,1.14-1.47,3.87,3.87,0,0,1,.27-.43c.11-.17.16-.28.22-.39s.16-.21.21-.32a1.18,1.18,0,0,1,.17-.22l.16-.17c0-.1,0-.16.16-.16s.17-.05.22-.05H47V32h1.85v-8.7H45.92a3.7,3.7,0,0,0-2.39.66,2.43,2.43,0,0,0-.22,3.42,2.26,2.26,0,0,0,1.41.71,2.31,2.31,0,0,0-.81.86,9.78,9.78,0,0,1-.82,1.2.77.77,0,0,1-.65.33h-.11V32h.76A1.76,1.76,0,0,0,44.29,31.53Zm.27-5.71c0-.81.49-1.19,1.52-1.19H47V27H46C45.05,27,44.56,26.58,44.56,25.82Z" transform="translate(0.01 0)"/><path class="cls-1" d="M63.83,30.22a1.16,1.16,0,0,1-.76.27,1.35,1.35,0,0,1-.49,0l-.27,1.36a3.64,3.64,0,0,0,.87.11,2.72,2.72,0,0,0,1.68-.49A5,5,0,0,0,66,29.7l2.94-6.52h-1.8l-1.73,4-1.74-4h-1.8l2.63,5.9-.11.33A2.4,2.4,0,0,1,63.83,30.22Z" transform="translate(0.01 0)"/><polygon class="cls-1" points="22.72 30.38 19.46 30.38 19.46 28.1 22.29 28.1 22.29 26.69 19.46 26.69 19.46 24.73 22.67 24.73 22.67 23.21 17.67 23.21 17.67 31.91 22.72 31.91 22.72 30.38"/><polygon class="cls-1" points="95.86 33.75 95.68 30.33 94.81 30.33 94.81 23.16 92.96 23.16 92.96 30.33 89.43 30.33 89.43 23.16 87.58 23.16 87.58 31.85 94.1 31.85 94.72 33.75 95.86 33.75"/><path class="cls-1" d="M100,23.16l-3.31,8.69H98.5l.59-1.63h3.48l.6,1.63h2l-3.42-8.69Zm-.38,5.6.71-2a3,3,0,0,0,.22-.66,3.4,3.4,0,0,1,.16-.54c0-.22.11-.27.11-.33a1.73,1.73,0,0,0,.16.55c.16.33.22.65.33.92l.76,2.07Z" transform="translate(0.01 0)"/><path class="cls-1" d="M75.4,23.87A3.65,3.65,0,0,0,73,23.16H70.19v8.69H72V28.76h.82a4.14,4.14,0,0,0,2.6-.71,2.61,2.61,0,0,0,.93-2.12A2.48,2.48,0,0,0,75.4,23.87Zm-1.3,3.2a1.91,1.91,0,0,1-1.25.33H72V24.63h.87c1.09,0,1.63.43,1.63,1.35A1.38,1.38,0,0,1,74.1,27.07Z" transform="translate(0.01 0)"/><path class="cls-1" d="M83.72,31.8H85.4V23.1H83.55l-3,4.6a14.22,14.22,0,0,0-1,1.44,7.74,7.74,0,0,0,.06-1.36V23.16H77.9v8.69h1.69L82.9,27a13.52,13.52,0,0,0,.82-1.3Z" transform="translate(0.01 0)"/><polygon class="cls-2" points="40.32 36.81 39.13 39.03 37.92 36.81 37.59 36.81 37.59 39.97 37.98 39.97 37.98 37.68 39.03 39.58 39.22 39.58 40.26 37.67 40.27 39.97 40.66 39.97 40.66 36.81 40.32 36.81"/><path class="cls-2" d="M44.14,36.78a1.61,1.61,0,1,0,1.54,1.68v-.07a1.54,1.54,0,0,0-1.47-1.61Zm0,2.82a1.21,1.21,0,1,1,1.12-1.3v.09a1.14,1.14,0,0,1-1.07,1.21Z" transform="translate(0.01 0)"/><path class="cls-2" d="M47.84,37.7c0-.27.21-.5.7-.5a1.34,1.34,0,0,1,.79.26l.14-.36a1.55,1.55,0,0,0-.93-.28c-.76,0-1.11.41-1.11.9,0,1.17,1.75.68,1.75,1.45,0,.28-.21.49-.71.49a1.44,1.44,0,0,1-.95-.36l-.16.35A1.67,1.67,0,0,0,48.5,40c.76,0,1.12-.41,1.12-.89C49.59,38,47.84,38.43,47.84,37.7Z" transform="translate(0.01 0)"/><path class="cls-2" d="M52.82,37.18a1.09,1.09,0,0,1,.82.37l.27-.28a1.4,1.4,0,0,0-1.1-.49,1.61,1.61,0,0,0,0,3.22,1.44,1.44,0,0,0,1.11-.49l-.27-.29a1,1,0,0,1-.82.38,1.21,1.21,0,0,1,0-2.42Z" transform="translate(0.01 0)"/><path class="cls-2" d="M57.06,36.78a1.61,1.61,0,1,0,1.53,1.69v-.08a1.54,1.54,0,0,0-1.45-1.61Zm0,2.82a1.21,1.21,0,1,1,1.12-1.3v.09a1.14,1.14,0,0,1-1.07,1.21Z" transform="translate(0.01 0)"/><polygon class="cls-2" points="64.15 36.81 63.35 39.39 62.56 36.81 62.18 36.81 61.36 39.38 60.58 36.81 60.16 36.81 61.12 39.97 61.57 39.97 62.35 37.45 63.14 39.97 63.58 39.97 64.54 36.81 64.15 36.81"/><path class="cls-1" d="M140.84,15.58l1.06,0h2l.93,0v.15a3.06,3.06,0,0,0-.57.1,1.63,1.63,0,0,0-.44.2.81.81,0,0,0-.3.31,1,1,0,0,0-.11.48,4.25,4.25,0,0,0,.06.6c0,.26.08.54.14.87s.12.67.19,1,.15.75.23,1.12.17.72.25,1.06.15.63.22.87a1.62,1.62,0,0,0,.16.44.83.83,0,0,0,.26.33,1.24,1.24,0,0,0,.46.23,4.06,4.06,0,0,0,.79.14v.14l-1.18,0h-2.29l-1.09,0v-.14l.59-.1a2.26,2.26,0,0,0,.5-.16.87.87,0,0,0,.33-.3,1,1,0,0,0,.12-.51,2.91,2.91,0,0,0,0-.38,2.74,2.74,0,0,0-.09-.58l-1-4.95h0c-.28.58-.58,1.17-.88,1.75s-.61,1.16-.91,1.74-.58,1.17-.86,1.77-.54,1.2-.77,1.81h0A33,33,0,0,0,137,20c-.61-1.19-1.25-2.37-1.93-3.54h0c-.07.46-.15,1-.23,1.51s-.15,1.08-.21,1.6-.11,1-.16,1.42-.06.75-.06,1a3.44,3.44,0,0,0,.07.7,1.16,1.16,0,0,0,.26.49,1.35,1.35,0,0,0,.53.31,3.27,3.27,0,0,0,.86.11v.14l-1.21,0h-2.13l-.91,0v-.14a3.2,3.2,0,0,0,.62-.09,3.93,3.93,0,0,0,.55-.21,1.9,1.9,0,0,0,.42-.31.73.73,0,0,0,.21-.43c.06-.28.12-.58.17-.9l.15-.94.71-4.37a3,3,0,0,0-.74-.35,7,7,0,0,0-.86-.19v-.15l1.26,0h2.18l.92,0v.15a1.71,1.71,0,0,0-.52.2.5.5,0,0,0-.24.46,1.14,1.14,0,0,0,.08.4c.06.12.12.26.18.4L139,21.45c.51-.88,1-1.75,1.44-2.62s.87-1.77,1.24-2.68a1.28,1.28,0,0,0-.38-.26,2.51,2.51,0,0,0-.46-.16v-.15Zm15,1-1.45,3.12h2.77l-1.32-3.12Zm-1.61,3.49-1,2.23a.87.87,0,0,1-.07.17.32.32,0,0,0,0,.16.49.49,0,0,0,.16.38,1,1,0,0,0,.38.26,2.29,2.29,0,0,0,.46.17,2.07,2.07,0,0,0,.39.09v.14l-.88,0h-1.78l-.89,0v-.14a2.41,2.41,0,0,0,.76-.27,1.91,1.91,0,0,0,.51-.42,2.54,2.54,0,0,0,.36-.54l.3-.61,2.56-5.23a.44.44,0,0,0,.1-.15.39.39,0,0,0,0-.14.62.62,0,0,0-.05-.18.86.86,0,0,0-.13-.23,4.5,4.5,0,0,0,.67-.15l.62-.21,3.08,7a1.74,1.74,0,0,0,.58.76,2.26,2.26,0,0,0,1.1.35v.14l-1.18,0h-2.86l-.47,0v-.14a2.92,2.92,0,0,0,1-.27c.29-.13.43-.31.43-.54a.39.39,0,0,0-.06-.2l-.08-.18-1-2.27Zm21.64-1.85c-.18-.31-.38-.62-.59-.91a4.22,4.22,0,0,0-.74-.78,3.61,3.61,0,0,0-1-.56,3.48,3.48,0,0,0-1.27-.21,3.1,3.1,0,0,0-1.5.35,3.65,3.65,0,0,0-1.12.9,4,4,0,0,0-.72,1.24,4.18,4.18,0,0,0-.25,1.37,4.43,4.43,0,0,0,.25,1.46,3.55,3.55,0,0,0,.72,1.22,3.44,3.44,0,0,0,2.62,1.13,9.2,9.2,0,0,0,1.39-.11,3.6,3.6,0,0,0,1.28-.48V21.25c0-.56-.51-.85-1.52-.88v-.15l.52,0,.51,0h2.16l1.09-.05v.15a5.4,5.4,0,0,0-.58.08,1.14,1.14,0,0,0-.45.16.92.92,0,0,0-.3.29,1,1,0,0,0-.11.48V23.1c-.68.19-1.35.37-2,.53a8.28,8.28,0,0,1-1.94.23,7,7,0,0,1-1.93-.27,5.65,5.65,0,0,1-1.69-.82,4.39,4.39,0,0,1-1.21-1.33,3.62,3.62,0,0,1-.46-1.82,3.25,3.25,0,0,1,.46-1.67,4.82,4.82,0,0,1,1.2-1.35,6.12,6.12,0,0,1,3.63-1.21c.41,0,.78,0,1.11,0s.62.06.88.11l.73.13.62.14a3.89,3.89,0,0,0,0,.53c0,.21.06.44.1.67s.07.46.11.68a3.27,3.27,0,0,0,.11.52Zm7.59,5.31a4.38,4.38,0,0,0,.84-.13.93.93,0,0,0,.45-.31,1.23,1.23,0,0,0,.19-.55,6.81,6.81,0,0,0,0-.85V17.57a6.81,6.81,0,0,0,0-.85,1.19,1.19,0,0,0-.19-.54.86.86,0,0,0-.47-.32,3.37,3.37,0,0,0-.84-.13v-.15l1.2,0h2.18l1,0v.15a3.12,3.12,0,0,0-.82.13.82.82,0,0,0-.44.32,1.19,1.19,0,0,0-.19.54,6.81,6.81,0,0,0,0,.85v4.11a6.81,6.81,0,0,0,0,.85,1.24,1.24,0,0,0,.2.55.92.92,0,0,0,.46.31,4.78,4.78,0,0,0,.86.13v.14l-1.12,0h-2.21l-1.07,0v-.14Zm17.25-5.62a4.86,4.86,0,0,0-.5-.78,3.58,3.58,0,0,0-.71-.69,3.28,3.28,0,0,0-.89-.47,3.06,3.06,0,0,0-1.06-.18,3.24,3.24,0,0,0-1.38.25.93.93,0,0,0-.54.92,1.06,1.06,0,0,0,.43.87,4.16,4.16,0,0,0,1.07.6q.63.27,1.38.51a7.8,7.8,0,0,1,1.38.56,4,4,0,0,1,1.06.82,1.79,1.79,0,0,1,.44,1.24,2,2,0,0,1-.27,1,2.25,2.25,0,0,1-.72.72,3.46,3.46,0,0,1-1.06.42,5.78,5.78,0,0,1-1.28.13,7.09,7.09,0,0,1-.77-.05l-.77-.13-.67-.12a3.67,3.67,0,0,0-.49,0,1,1,0,0,0-.3,0l-.32.09c-.08-.47-.19-.93-.31-1.38s-.24-.9-.36-1.36l.19-.08a8.62,8.62,0,0,0,.65.89,5.69,5.69,0,0,0,.85.85,4.44,4.44,0,0,0,1,.65,3,3,0,0,0,1.24.26,4.58,4.58,0,0,0,.83-.08,2.07,2.07,0,0,0,.7-.25,1.48,1.48,0,0,0,.48-.45,1.23,1.23,0,0,0,.18-.68,1.21,1.21,0,0,0-.43-1,4,4,0,0,0-1.07-.67q-.63-.29-1.38-.54a10.32,10.32,0,0,1-1.39-.55,4,4,0,0,1-1.06-.72,1.4,1.4,0,0,1-.43-1.06,1.68,1.68,0,0,1,.23-.88,2.1,2.1,0,0,1,.6-.66,2.87,2.87,0,0,1,.88-.42,3.58,3.58,0,0,1,1-.15,7.31,7.31,0,0,1,1,.06l.85.13.85.13a6.18,6.18,0,0,0,.89.07c0,.36,0,.72,0,1.07a9.3,9.3,0,0,0,.09,1Zm9,5.62a4.13,4.13,0,0,0,.83-.13.89.89,0,0,0,.45-.31,1.13,1.13,0,0,0,.2-.55c0-.23,0-.51,0-.86V16c-.52,0-.95,0-1.31,0a2.54,2.54,0,0,0-.93.25,1.87,1.87,0,0,0-.67.62,6,6,0,0,0-.56,1.14l-.2-.05.22-2.4,1.22,0h5.88l1.17,0,.22,2.4-.2.05a5,5,0,0,0-.57-1.14,2,2,0,0,0-.67-.62,2.54,2.54,0,0,0-.94-.25c-.36,0-.8,0-1.33,0v5.7a6.88,6.88,0,0,0,0,.86,1.13,1.13,0,0,0,.2.55.92.92,0,0,0,.46.31,4.63,4.63,0,0,0,.86.13v.14l-1.13,0h-2.2l-1.08,0v-.14Zm12.6,0a4.39,4.39,0,0,0,.83-.13.89.89,0,0,0,.45-.31,1.24,1.24,0,0,0,.2-.55c0-.23,0-.51,0-.85V17.57c0-.34,0-.62,0-.85a1.2,1.2,0,0,0-.2-.54.84.84,0,0,0-.46-.32,3.38,3.38,0,0,0-.85-.13v-.15l1.21,0h2.18l1,0v.15a3,3,0,0,0-.81.13.78.78,0,0,0-.44.32,1.19,1.19,0,0,0-.19.54,6.58,6.58,0,0,0-.05.85v4.11a6.58,6.58,0,0,0,.05.85,1.13,1.13,0,0,0,.2.55.88.88,0,0,0,.46.31,4.65,4.65,0,0,0,.85.13v.14l-1.12,0h-2.2l-1.07,0v-.14Zm19.21-5.14a5.07,5.07,0,0,0-.52-1,3.61,3.61,0,0,0-.75-.81,3.5,3.5,0,0,0-1-.54,4.19,4.19,0,0,0-1.29-.18,3.59,3.59,0,0,0-1.54.29,2.8,2.8,0,0,0-1,.79,3.15,3.15,0,0,0-.59,1.17,4.93,4.93,0,0,0-.19,1.4,4.08,4.08,0,0,0,.24,1.4,3.21,3.21,0,0,0,.71,1.18,3.42,3.42,0,0,0,1.17.8,4.11,4.11,0,0,0,1.62.3,4.78,4.78,0,0,0,2.37-.57A6.15,6.15,0,0,0,242.47,21l.37.24a10.9,10.9,0,0,1-1,1.1,6.17,6.17,0,0,1-1.1.82,5,5,0,0,1-1.29.5,6.3,6.3,0,0,1-1.57.17,5.58,5.58,0,0,1-1.88-.31,5,5,0,0,1-1.55-.87,4.17,4.17,0,0,1-1.06-1.34,3.88,3.88,0,0,1,0-3.43,4.07,4.07,0,0,1,1.06-1.34A5,5,0,0,1,236,15.7a5.84,5.84,0,0,1,1.88-.31,8.57,8.57,0,0,1,1,.06c.32,0,.62.07.91.12l.83.12a7.38,7.38,0,0,0,.81.07q0,.26,0,.6c0,.23,0,.46.07.7s0,.48.07.72.06.44.09.6Z" transform="translate(0.01 0)"/><path d="M120.41,22l-.88.88-2.06-2.07-2,2-.88-.88,2-2-2.07-2.06.88-.88,2.06,2.07,2-2,.87.87-2,2Z" transform="translate(0.01 0)"/></svg>