<svg id="Layer_10" data-name="Layer 10" xmlns="http://www.w3.org/2000/svg" viewBox="0 0 105.18 40"><defs><style>.cls-1{fill:#1d1d1b;}.cls-2{fill:#1e1e1c;}</style></defs><path class="cls-1" d="M61.33,7a1.63,1.63,0,0,0-.14-.66c0-.1-.09-.19-.14-.29a1.43,1.43,0,0,0-.52-.43l-.12-.07h0a1.47,1.47,0,0,0-.52-.12,1.24,1.24,0,0,0-.33,0,6.18,6.18,0,0,0-.88-.89,1.86,1.86,0,0,0,.79-1.61,1.89,1.89,0,0,0-1.37.74,1.9,1.9,0,0,0-.42-1.37,1.74,1.74,0,0,0-.56,1.3,1.75,1.75,0,0,0-.74-.24H56a1.42,1.42,0,0,0,.7,1.27,2.77,2.77,0,0,0-.09.7h-.05a1.92,1.92,0,0,0-2,1.86,2,2,0,0,0,.52,1.37,2.16,2.16,0,0,0,.33.27l0,0A4.54,4.54,0,0,1,53.87,10a7.68,7.68,0,0,0-2.16-.86,3.37,3.37,0,0,0-2,.07.85.85,0,0,0-.41,1.13A14.72,14.72,0,0,1,45.6,8.83c-.35-.21-.78-.91-.88-.8S45,9.54,45,9.54a.7.7,0,0,0-.24-.25c-.14-.07,0,.56-.07.39s-.25-.18-.25-.18-.31-.07.78,2.77,2.56,5.55,4.38,6.61c6.36,3.65,11.07-.32,12-3.87A11.76,11.76,0,0,0,61,7.9,1.62,1.62,0,0,0,61.33,7Z" transform="translate(-2.5 -2.3)"/><path class="cls-1" d="M61.66,25.46,59.1,29.05h-.6V25.46H56.66v8.69h1.79V30.51h.33s.16.06.21.06a.36.36,0,0,1,.22.11l.16.16a.89.89,0,0,1,.22.27,1.26,1.26,0,0,1,.22.33,2.94,2.94,0,0,0,.22.43c.1.16.21.33.27.44a6,6,0,0,0,1.14,1.46,1.67,1.67,0,0,0,1.19.38h.77V32.63h-.11a1,1,0,0,1-.71-.32,11.76,11.76,0,0,1-1-1.47,5.72,5.72,0,0,0-1-1.36l3-4Z" transform="translate(-2.5 -2.3)"/><path class="cls-1" d="M7,34.37a7.38,7.38,0,0,0,1.63-.22,4.85,4.85,0,0,0,1.14-.65L9,32.2a3.29,3.29,0,0,1-2,.65A2.35,2.35,0,0,1,5.16,32a3.58,3.58,0,0,1-.65-2.17,3.26,3.26,0,0,1,.65-2.07A2.3,2.3,0,0,1,7,26.93a3.37,3.37,0,0,1,1.79.49l.82-1.36A4.47,4.47,0,0,0,7,25.35a4.31,4.31,0,0,0-3.31,1.3,4.51,4.51,0,0,0-1.2,3.21,4.79,4.79,0,0,0,1.2,3.21A4.08,4.08,0,0,0,7,34.37Z" transform="translate(-2.5 -2.3)"/><polygon class="cls-1" points="26.41 24.73 29.99 24.73 29.99 31.91 31.84 31.91 31.84 23.21 24.56 23.21 24.56 31.91 26.41 31.91 26.41 24.73"/><path class="cls-1" d="M12.5,33.39a6,6,0,0,0,.87-3.09L13.59,27H16v7.12h1.85V25.46H12l-.33,4.35a8.43,8.43,0,0,1-.43,2.28,1.14,1.14,0,0,1-1,.81l.22,1.42A2.25,2.25,0,0,0,12.5,33.39Z" transform="translate(-2.5 -2.3)"/><path class="cls-1" d="M38,32.58h3.48l.59,1.63h2l-3.42-8.7H38.91l-3.32,8.7h1.85Zm1.19-3.48a4.15,4.15,0,0,0,.22-.65l.16-.55c.06-.21.11-.27.11-.32s.06.22.17.54.21.65.32.93L41,31.11H38.53Z" transform="translate(-2.5 -2.3)"/><path class="cls-1" d="M46.79,33.83a6.44,6.44,0,0,0,1.14-1.47,3.51,3.51,0,0,1,.27-.43c.11-.17.16-.28.22-.39s.16-.21.21-.32A1.05,1.05,0,0,1,48.8,31l.16-.17c0-.1,0-.16.16-.16s.17-.05.22-.05h.16v3.64h1.85v-8.7H48.42a3.74,3.74,0,0,0-2.39.66,2.43,2.43,0,0,0-.22,3.42,2.23,2.23,0,0,0,1.41.71,2.4,2.4,0,0,0-.81.86,9.1,9.1,0,0,1-.82,1.2.77.77,0,0,1-.65.33h-.11v1.52h.76A1.78,1.78,0,0,0,46.79,33.83Zm.27-5.71c0-.81.49-1.19,1.52-1.19h.92v2.39h-1C47.55,29.32,47.06,28.88,47.06,28.12Z" transform="translate(-2.5 -2.3)"/><path class="cls-1" d="M66.33,32.52a1.15,1.15,0,0,1-.76.27,1.31,1.31,0,0,1-.49,0l-.27,1.36a3.63,3.63,0,0,0,.87.11,2.73,2.73,0,0,0,1.68-.49A5,5,0,0,0,68.5,32l2.94-6.52h-1.8l-1.73,4-1.74-4h-1.8L67,31.38l-.11.33A2.29,2.29,0,0,1,66.33,32.52Z" transform="translate(-2.5 -2.3)"/><polygon class="cls-1" points="22.71 30.38 19.45 30.38 19.45 28.1 22.28 28.1 22.28 26.69 19.45 26.69 19.45 24.73 22.66 24.73 22.66 23.21 17.66 23.21 17.66 31.91 22.71 31.91 22.71 30.38"/><polygon class="cls-1" points="95.85 33.75 95.67 30.33 94.8 30.33 94.8 23.16 92.95 23.16 92.95 30.33 89.42 30.33 89.42 23.16 87.57 23.16 87.57 31.85 94.09 31.85 94.71 33.75 95.85 33.75"/><path class="cls-1" d="M102.46,25.46l-3.31,8.69H101l.59-1.63h3.48l.6,1.63h2l-3.42-8.69Zm-.38,5.6.71-2a3.41,3.41,0,0,0,.22-.66c0-.16.11-.32.16-.54s.11-.27.11-.33,0,.22.16.55.22.65.33.92l.76,2.07Z" transform="translate(-2.5 -2.3)"/><path class="cls-1" d="M77.9,26.17a3.66,3.66,0,0,0-2.39-.71H72.69v8.69h1.79V31.06h.82a4.1,4.1,0,0,0,2.6-.71,2.6,2.6,0,0,0,.93-2.12A2.47,2.47,0,0,0,77.9,26.17Zm-1.3,3.2a1.89,1.89,0,0,1-1.25.33h-.87V26.93h.87c1.09,0,1.63.43,1.63,1.35A1.34,1.34,0,0,1,76.6,29.37Z" transform="translate(-2.5 -2.3)"/><path class="cls-1" d="M86.22,34.1H87.9V25.4H86.05L83,30A14.53,14.53,0,0,0,82,31.44a7.79,7.79,0,0,0,.06-1.36V25.46H80.4v8.69h1.69l3.31-4.89a12.81,12.81,0,0,0,.82-1.3Z" transform="translate(-2.5 -2.3)"/><polygon class="cls-2" points="40.31 36.81 39.12 39.03 37.91 36.81 37.58 36.81 37.58 39.97 37.97 39.97 37.97 37.68 39.02 39.58 39.21 39.58 40.25 37.67 40.26 39.97 40.65 39.97 40.65 36.81 40.31 36.81"/><path class="cls-2" d="M46.64,39.08a1.61,1.61,0,1,0,1.54,1.61A1.54,1.54,0,0,0,46.64,39.08Zm0,2.82a1.21,1.21,0,1,1,1.12-1.21A1.14,1.14,0,0,1,46.64,41.9Z" transform="translate(-2.5 -2.3)"/><path class="cls-2" d="M50.34,40c0-.27.21-.5.7-.5a1.35,1.35,0,0,1,.79.26l.14-.36a1.6,1.6,0,0,0-.93-.28c-.76,0-1.11.41-1.11.9,0,1.17,1.75.68,1.75,1.45,0,.28-.21.49-.71.49a1.4,1.4,0,0,1-.95-.36l-.16.35A1.65,1.65,0,0,0,51,42.3c.76,0,1.12-.41,1.12-.89C52.09,40.25,50.34,40.73,50.34,40Z" transform="translate(-2.5 -2.3)"/><path class="cls-2" d="M55.32,39.48a1.07,1.07,0,0,1,.82.37l.27-.28a1.4,1.4,0,0,0-1.1-.49,1.61,1.61,0,0,0,0,3.22,1.41,1.41,0,0,0,1.11-.49l-.27-.29a1,1,0,0,1-.82.38,1.21,1.21,0,0,1,0-2.42Z" transform="translate(-2.5 -2.3)"/><path class="cls-2" d="M59.56,39.08a1.61,1.61,0,1,0,1.53,1.61A1.53,1.53,0,0,0,59.56,39.08Zm0,2.82a1.21,1.21,0,1,1,1.12-1.21A1.14,1.14,0,0,1,59.56,41.9Z" transform="translate(-2.5 -2.3)"/><polygon class="cls-2" points="64.14 36.81 63.34 39.39 62.55 36.81 62.17 36.81 61.35 39.38 60.57 36.81 60.15 36.81 61.11 39.97 61.56 39.97 62.34 37.45 63.13 39.97 63.57 39.97 64.53 36.81 64.14 36.81"/></svg>