
<svg width="19" height="22" viewBox="0 0 19 22" fill="none" xmlns="http://www.w3.org/2000/svg">
<path d="M17 19.9995H6V5.99951H17V19.9995ZM17 3.99951H6C5.46957 3.99951 4.96086 4.21023 4.58579 4.5853C4.21071 4.96037 4 5.46908 4 5.99951V19.9995C4 20.5299 4.21071 21.0387 4.58579 21.4137C4.96086 21.7888 5.46957 21.9995 6 21.9995H17C17.5304 21.9995 18.0391 21.7888 18.4142 21.4137C18.7893 21.0387 19 20.5299 19 19.9995V5.99951C19 5.46908 18.7893 4.96037 18.4142 4.5853C18.0391 4.21023 17.5304 3.99951 17 3.99951ZM14 -0.000488281H2C1.46957 -0.000488281 0.960859 0.210225 0.585786 0.585298C0.210714 0.960371 0 1.46908 0 1.99951V15.9995H2V1.99951H14V-0.000488281Z" fill="#434343"/>
</svg>
