<svg width="200" height="200" viewBox="0 0 200 200" fill="none" xmlns="http://www.w3.org/2000/svg">
<path d="M71.3727 43.8192L63.3647 30.134C64.5135 26.8043 68.6757 24.9064 67.6435 20.1448C67.1606 17.8973 70.1074 17.9472 72.0387 19.0127C72.9957 19.6785 73.8342 20.5002 74.5194 21.4434C77.2331 25.5223 80.3963 29.2516 83.443 34.1297C85.4075 31.7822 84.5085 29.1351 85.5574 27.1872C86.0302 26.0533 86.7597 25.0446 87.6884 24.2404C89.1035 23.3081 90.5186 22.3092 92.2168 23.7076C92.8278 24.8368 93.0557 26.1338 92.8661 27.4036C92.317 30.7592 92.1161 34.1625 92.2668 37.5593C91.1513 41.9545 95.1137 49.2134 85.7905 48.9803C80.5628 46.3664 78.515 41.3552 76.3673 36.4938C76.6004 35.3118 74.7025 36.7435 75.8512 36.4105C76.7835 40.323 74.3029 42.2043 71.3727 43.8192Z" fill="#AF8845"/>
<path d="M134.954 189.678L123.949 190.094C111.378 191.126 98.7441 191.126 86.1734 190.094L81.7115 189.844C78.9478 188.08 75.6347 189.844 72.8211 188.446L72.2384 188.629L71.7057 188.313C72.921 182.735 77.4994 185.116 80.7958 184.45C82.1488 184.504 83.493 184.694 84.8082 185.016C87.7027 185.918 90.7421 186.263 93.7651 186.032C107.633 185.832 121.518 187.297 134.787 180.571C141.396 177.347 147.112 172.551 151.436 166.603C154.766 161.042 155.565 154.949 156.131 148.572C156.381 145.909 154.999 141.48 160.46 141.913C163.373 149.754 162.674 157.646 160.709 165.537C156.097 175.451 147.873 183.229 137.717 187.28C136.702 187.946 134.071 186.748 134.954 189.678Z" fill="#8E672A"/>
<path d="M128.294 65.0795C147.773 72.7711 160.376 85.5406 160.077 107.9C160.35 108.226 160.5 108.639 160.5 109.065C160.5 109.491 160.35 109.904 160.077 110.231C153.983 108.133 156.747 101.573 153.817 97.8606C152.152 94.0814 151.253 89.9859 148.922 86.5063C147.54 84.4585 146.225 82.0944 143.145 84.1921C139.549 83.8092 137.368 81.1288 134.821 79.0976C133.356 77.0665 133.788 74.2695 131.99 72.4382C130.559 70.0408 127.212 68.6756 128.294 65.0795Z" fill="#967439"/>
<path d="M154.932 96.6619C158.895 100.291 156.947 106.018 159.677 110.097C162.391 116.224 163.007 122.767 163.24 129.36C163.373 134.171 162.973 139.016 163.523 143.828C164.357 147.466 164.403 151.241 163.656 154.899C163.09 157.879 163.656 160.16 166.436 161.658C168.501 165.887 169.067 169.983 165.071 173.445C164.358 173.235 163.694 172.881 163.122 172.406C162.549 171.931 162.08 171.344 161.741 170.682C160.876 169.017 159.161 168.135 158.245 166.553C161.575 158.428 159.161 149.904 159.91 141.58C155.981 130.875 156.58 119.387 154.183 108.416C153.267 104.537 151.436 100.391 154.932 96.6619Z" fill="#8B6B32"/>
<path d="M81.6782 186.565C78.3484 187.147 74.5526 185.183 71.689 188.229C66.4673 188.494 61.2761 187.288 56.7052 184.75C49.4964 179.905 41.0389 176.592 36.627 168.318C34.9621 165.204 32.4648 162.308 34.5459 158.428C36.2108 157.08 37.5926 158.029 38.991 158.945C44.2187 168.784 52.4765 175.044 62.7487 178.923C66.9681 180.624 71.3539 181.88 75.8345 182.669C78.2152 183.218 81.5783 182.502 81.6782 186.565Z" fill="#8F6C31"/>
<path d="M126.63 41.5217C123.699 45.4341 126.097 51.361 121.635 54.6575C117.24 53.8084 118.555 60.3513 114.593 60.1015C108.349 60.7342 102.123 61.4834 95.9794 59.5188C95.8628 54.4077 96.7119 53.4421 104.304 52.9926C110.697 52.6097 115.525 50.9615 116.058 43.5861C116.311 40.6517 117.137 37.7954 118.488 35.1785C119.537 33.5137 121.219 30.8499 122.567 31.9487C124.036 33.0374 125.188 34.499 125.902 36.1821C126.616 37.8653 126.867 39.7088 126.63 41.5217Z" fill="#8C642E"/>
<path d="M163.256 169.916L165.054 173.445C157.962 184.35 147.407 188.829 134.904 189.678C134.271 188.879 133.638 188.013 132.989 187.297L136.602 186.565C144.41 183.584 151.286 179.339 155.948 172.13C157.779 169.333 159.827 167.319 163.256 169.916Z" fill="#715226"/>
<path d="M35.062 158.312C36.1109 169.05 44.0522 174.478 51.8937 179.955C53.8416 181.304 56.6719 181.703 56.7552 184.85C48.5474 183.984 42.0711 179.855 36.3606 174.195C31.649 169.55 29.7011 164.322 32.8311 157.979C32.9915 157.835 33.1817 157.729 33.388 157.667C33.5943 157.605 33.8117 157.589 34.0248 157.621C34.2378 157.653 34.4412 157.731 34.6205 157.851C34.7998 157.97 34.9505 158.128 35.062 158.312Z" fill="#75552A"/>
<path d="M101.357 9.87264C106.801 7.20886 112.628 8.80712 118.289 8.35761C120.603 11.6873 118.855 14.6841 117.573 17.6142C116.008 21.2103 113.777 24.7066 109.248 24.4735C104.354 24.2238 103.521 20.045 102.855 16.1492C102.539 14.0515 101.923 11.9704 101.357 9.87264Z" fill="#D5C48D"/>
<path d="M71.3727 43.8192C73.0376 40.0067 76.2841 36.4938 74.0033 31.3161C78.7315 35.9277 80.1965 42.5705 84.9747 46.766C87.4054 50.412 90.9848 53.542 90.1691 58.6199C89.683 58.979 89.1179 59.2163 88.5211 59.3119C87.9244 59.4075 87.3134 59.3586 86.7394 59.1692C82.3442 56.1891 81.7448 51.0281 79.6304 46.6994C82.0445 51.694 73.9034 49.4797 74.9356 53.4921C73.0882 50.5506 71.8747 47.2562 71.3727 43.8192Z" fill="#92652C"/>
<path d="M126.629 41.5217C125.963 38.9245 122.9 37.9921 122.933 34.3794C122.933 31.5158 121.269 35.3284 120.02 35.0786C118.189 33.5636 118.122 31.4493 118.005 29.3182C117.961 28.0725 118.067 26.8259 118.322 25.6056C118.512 24.8119 118.815 24.0495 119.221 23.3414C119.698 22.714 120.258 22.154 120.886 21.6765C123.916 19.7785 127.545 18.0637 128.194 23.3414C128.694 26.9708 133.522 26.3048 133.189 29.9009C130.908 33.7468 130.192 38.4583 126.629 41.5217Z" fill="#A07D42"/>
<path d="M38.1921 106.202C37.343 87.4386 47.7983 76.2341 63.3648 68.3926C64.397 72.0886 61.1339 73.3872 59.4857 75.718C57.0725 77.8303 54.9257 80.2287 53.0925 82.8602C52.6756 83.4693 52.1896 84.0279 51.6441 84.5251C47.1789 87.7356 44.0502 92.4761 42.8536 97.844C41.5884 101.257 43.0868 105.452 39.8569 108.283C38.2586 108.433 37.3097 108.05 38.1921 106.202Z" fill="#987A50"/>
<path d="M128.294 65.0795L133.289 71.7389C130.292 76.2174 127.712 72.4049 124.965 71.3727C119.989 67.2229 113.595 65.1694 107.134 65.6456C102.689 65.5623 98.2103 66.1117 93.815 65.0962C92.9274 64.8029 92.1265 64.2938 91.4842 63.6144C91.118 61.9496 92.1668 61.0672 93.5153 60.4512C98.8429 59.7353 104.22 60.268 109.565 60.1016C112.328 59.9351 115.292 60.7176 117.639 58.4367C117.936 58.1961 118.306 58.0648 118.688 58.0648C119.07 58.0648 119.44 58.1961 119.737 58.4367C119.97 63.9141 125.914 62.2825 128.294 65.0795Z" fill="#8C6733"/>
<path d="M166.436 161.658C161.758 164.156 161.026 161.259 161.791 157.812C162.896 153.623 163.345 149.287 163.123 144.96C161.159 140.098 163.856 134.787 161.608 129.976C162.391 123.217 160.476 116.657 159.677 110.114C159.81 109.382 159.96 108.649 160.093 107.916C164.056 118.239 165.732 129.298 165.005 140.331C164.473 147.472 164.955 154.652 166.436 161.658Z" fill="#91774B"/>
<path d="M133.289 29.9342C130.442 28.4692 126.396 29.3182 126.38 23.5245C126.38 18.3301 123.333 23.974 121.685 23.358C120.22 14.4011 121.685 11.3877 128.045 10.1723C129.709 11.3044 129.826 13.1191 130.242 14.8173C130.646 15.4364 131.018 16.0754 131.358 16.7319C132.39 18.1637 130.242 20.4612 132.69 21.4767C133.241 21.2211 133.847 21.1012 134.454 21.1271C134.762 21.2134 135.049 21.3612 135.298 21.5615C135.547 21.7618 135.753 22.0105 135.903 22.2925C136.202 23.2082 135.903 24.2737 136.635 25.0729C136.588 26.1151 136.249 27.1231 135.658 27.9825C135.066 28.8418 134.245 29.518 133.289 29.9342Z" fill="#9D8055"/>
<path d="M65.0296 13.3855C70.2739 9.7561 76.0344 12.5198 81.5284 12.0869C82.9696 14.8637 83.932 17.8637 84.3753 20.9606C80.9124 27.1206 80.03 27.1706 74.253 21.4434C72.5881 19.3457 71.9721 16.1492 68.7423 15.4333C67.2945 15.2318 65.9723 14.5025 65.0296 13.3855Z" fill="#CFBD85"/>
<path d="M101.357 9.87264C105.819 10.5552 104.687 14.118 105.069 16.9816C105.402 19.4456 105.869 22.3258 108.666 22.9418C111.995 23.691 113.66 20.9606 114.826 18.48C116.274 15.2335 117.156 11.7373 118.288 8.3576H121.618C122.983 10.805 121.618 13.0858 121.185 15.4333C119.737 19.2958 118.755 23.4413 115.075 26.0218C109.798 28.6856 105.269 28.7022 102.456 22.5089C101.523 20.328 101.34 17.9139 100.491 15.6997C99.8918 13.885 99.1593 12.0869 100.058 10.1557C100.448 9.91956 100.905 9.81998 101.357 9.87264Z" fill="#D0BA80"/>
<path d="M58.3701 75.0187L63.3647 68.3593C66.1019 65.6735 69.5814 63.87 73.3539 63.1816C73.905 62.8523 74.5221 62.6487 75.161 62.5854C75.7999 62.5221 76.4448 62.6006 77.0499 62.8153C79.6637 64.9796 80.7126 67.3604 78.0155 70.224C72.4548 69.0752 70.124 74.9688 65.5457 75.9844C63.1483 75.7347 60.5677 76.7002 58.3701 75.0187Z" fill="#916E3C"/>
<path d="M75.0188 53.4921C74.1697 49.3799 81.1788 49.2633 79.8968 44.5351L86.6728 58.2536C84.6417 60.6344 82.0112 60.4346 79.3308 59.9185C78.4838 59.6455 77.7251 59.1512 77.1332 58.4867L75.0188 53.4921Z" fill="#805426"/>
<path d="M65.0295 13.3855L69.8743 13.4854C71.3727 15.4499 73.537 17.2646 71.5392 20.1448C70.1074 19.7786 67.4103 18.9961 68.6423 21.5267C71.7057 27.8865 68.1429 29.2516 63.2315 30.1673C61.1005 29.1517 60.5178 27.1539 59.9018 25.1727C64.8964 22.792 62.0162 16.9649 64.8964 13.6852L65.0295 13.3855Z" fill="#B4976D"/>
<path d="M65.1128 13.6019C64.9146 15.1859 64.9992 16.7924 65.3626 18.3468C67.9265 24.1571 65.3626 25.5723 60.0683 25.0895L58.4034 23.4246C57.4045 20.6942 54.1913 18.8462 55.0737 15.3167C58.3701 14.6341 62.0162 15.6664 65.1128 13.6019Z" fill="#BCA077"/>
<path d="M86.14 190.077H123.916C111.435 192.44 98.6211 192.44 86.14 190.077Z" fill="#906C38"/>
<path d="M99.9918 10.2223L101.79 15.2168C102.855 17.1148 102.306 19.1626 102.323 21.1604C101.49 22.459 100.525 22.2093 99.4923 21.4268C98.0272 18.8629 96.0127 20.3613 94.1481 20.7608C93.6129 20.7257 93.0918 20.5751 92.6205 20.3193C92.1491 20.0635 91.7388 19.7086 91.4177 19.2791C91.0643 18.6721 90.8749 17.9836 90.8683 17.2813C91.1221 15.9194 91.6924 14.6363 92.5331 13.5353C93.3348 12.9356 94.1685 12.3798 95.0304 11.8705L99.9918 10.2223Z" fill="#9D8154"/>
<path d="M119.97 15.1003C119.844 12.7637 120.424 10.4432 121.635 8.44086C123.932 8.35762 126.363 7.85816 127.995 10.1057C121.652 12.4698 123.899 18.9628 121.635 23.2914H119.97C118.205 20.6277 118.921 17.864 119.97 15.1003Z" fill="#B69869"/>
<path d="M33.3972 154.932C33.3972 144.26 31.7323 133.522 34.6459 122.967L35.8446 123.916C38.6249 133.339 37.3263 142.879 36.7103 152.402C36.0943 153.85 35.3617 155.199 33.3972 154.932Z" fill="#9B7C49"/>
<path d="M38.192 106.202L40.0234 108.283L40.8059 109.032C41.2923 110.023 41.483 111.132 41.3553 112.228C41.2607 112.948 41.1161 113.66 40.9224 114.359C39.8902 117.423 40.5395 121.119 37.5926 123.45C37.2715 123.632 36.914 123.742 36.5457 123.771C36.1774 123.799 35.8072 123.747 35.4616 123.616L34.7125 122.967C35.0178 117.235 36.191 111.582 38.192 106.202Z" fill="#9B7C49"/>
<path d="M94.9971 11.8871L93.3322 13.552C91.351 15.8661 87.8881 14.8506 85.807 16.8817C85.2508 18.1693 84.3668 19.2887 83.2431 20.1282C81.212 17.7474 80.2297 15.1336 81.5783 12.1035L94.9971 11.8871Z" fill="#C5B085"/>
<path d="M129.959 16.7652C129.959 16.1159 130.059 15.4666 130.126 14.8173L138.25 14.9338C139.482 18.2635 137.168 19.9284 134.921 21.5933L133.256 21.7431C128.96 22.2925 132.074 17.814 129.959 16.7652Z" fill="#BAA27A"/>
<path d="M134.954 21.6599C134.737 18.763 137.501 17.3312 138.284 15.0004C140.331 14.2346 142.529 13.0525 144.51 14.6841C145.459 15.4499 144.727 16.6819 143.644 17.3146C139.715 16.9316 139.183 22.8585 134.97 21.9595L134.954 21.6599Z" fill="#A68F70"/>
<path d="M55.0403 15.2668C56.7052 17.7641 58.9861 19.9617 58.3701 23.3747C55.4232 22.742 54.2245 20.0449 52.7595 18.0304C50.7783 15.2668 52.8926 15.0337 55.0403 15.2668Z" fill="#B19A7C"/>
<path d="M119.754 58.3867H118.388C117.689 59.2192 117.04 59.1859 116.474 58.2369C117.007 56.6719 117.523 55.107 118.139 53.5586C118.555 52.3266 118.688 50.3787 120.469 51.0447C121.202 51.3111 121.269 53.3922 121.652 54.6575C120.969 55.9061 120.353 57.1381 119.754 58.3867Z" fill="#6C421B"/>
<path d="M134.954 21.893C138.367 21.2936 138.783 15.1503 143.628 17.248L136.535 25.0728C135.999 24.7461 135.565 24.2741 135.285 23.7114C135.005 23.1486 134.89 22.5182 134.954 21.893Z" fill="#93774E"/>
<path d="M33.3971 154.932L35.062 153.267C35.3456 153.009 35.6998 152.841 36.0793 152.784C36.4588 152.728 36.8466 152.786 37.193 152.951C38.0212 153.472 38.6827 154.219 39.0988 155.104C39.5149 155.99 39.6682 156.976 39.5405 157.946C39.3563 158.706 38.9438 159.391 38.3584 159.91L35.0287 158.245L32.7978 157.879C32.9976 156.93 33.214 155.931 33.3971 154.932Z" fill="#907341"/>
<path d="M77.1997 58.5033C77.6112 58.3892 78.0408 58.3553 78.465 58.4034C78.853 58.8068 79.1549 59.285 79.3524 59.8087C79.5499 60.3325 79.6388 60.8909 79.6138 61.4501C79.5095 62.1932 79.2299 62.9008 78.798 63.5145C78.5212 63.7491 78.1702 63.878 77.8074 63.878C77.4445 63.878 77.0935 63.7491 76.8168 63.5145L73.3539 63.2148C74.8356 61.8163 77.6659 61.5 77.1997 58.5033Z" fill="#B9913C"/>
<path d="M72.7878 188.429C75.8178 188.429 79.0643 187.147 81.6781 189.828C78.6414 190.306 75.5311 189.817 72.7878 188.429Z" fill="#906C38"/>
<path d="M83.343 20.1115L83.4762 15.1169C83.6434 14.9758 83.8368 14.869 84.0453 14.8026C84.2538 14.7363 84.4733 14.7117 84.6913 14.7302C84.9094 14.7488 85.1216 14.8101 85.3159 14.9108C85.5102 15.0114 85.6827 15.1494 85.8236 15.3167C88.3209 18.9295 89.1533 22.6921 86.8059 26.7377C85.9568 30.3005 88.8703 35.9777 85.141 37.1098C81.4117 38.2419 80.313 32.2151 78.1486 29.3182C76.4005 26.9874 73.4371 25.3059 73.4704 21.843C72.7545 20.0283 73.6369 19.7786 75.1352 20.1781C77.7657 22.8086 80.5127 28.6023 83.343 20.1115Z" fill="#C9AB59"/>
<path d="M90.0025 36.7269C90.4853 33.3971 88.6207 29.6679 91.6674 26.7377C94.9971 24.7232 98.0438 21.7431 102.439 23.9074C104.37 27.1373 103.721 30.7167 103.887 34.1796C103.971 34.9988 103.971 35.8244 103.887 36.6436C102.689 42.8203 104.304 47.4985 110.647 49.7628C109.498 54.7573 105.336 54.0248 102.123 53.6419C98.9095 53.2589 98.3767 50.0291 98.0937 47.1989C97.7274 43.6527 98.0937 40.0566 97.8107 36.5105C97.4944 33.4638 95.8129 35.0287 94.481 35.8445C93.1491 36.6603 91.6674 37.5759 90.0025 36.7269Z" fill="#A37B35"/>
<path d="M90.0026 36.7269L93.3323 35.062C94.5476 42.7537 95.6964 50.4287 93.8317 58.187C93.5875 58.4449 93.2932 58.6504 92.9669 58.7908C92.6406 58.9312 92.2891 59.0036 91.9338 59.0036C91.5786 59.0036 91.2271 58.9312 90.9007 58.7908C90.5744 58.6504 90.2801 58.4449 90.0358 58.187C87.4085 54.8524 85.688 50.8952 85.0413 46.6994C87.3221 47.5985 89.8527 49.0302 90.0358 44.7182C90.0026 42.1044 90.0026 39.4073 90.0026 36.7269Z" fill="#A57439"/>
<path d="M86.6728 26.721L85.0079 15.067C87.7383 13.4021 89.7361 14.8506 91.6674 16.7319V18.3967C92.9993 21.8263 89.1035 22.6421 88.3377 25.0562L86.6728 26.721Z" fill="#B19456"/>
<path d="M101.523 23.4413C98.6599 25.7721 95.5632 27.4203 91.6841 26.771C91.6841 25.6722 91.6841 24.5567 91.6841 23.4413C92.0418 22.8201 92.5445 22.2946 93.1492 21.9096C95.4633 21.3935 97.1448 18.5799 100.008 20.0949L101.573 21.7598C101.973 22.1427 102.106 22.509 101.956 22.8586C101.806 23.2082 101.657 23.4413 101.523 23.4413Z" fill="#9C7C3D"/>
<path d="M75.0188 20.1115L73.3539 21.7764L71.689 20.1115L70.0242 13.4521C74.3528 13.6019 73.1708 17.9639 75.0188 20.1115Z" fill="#C5B085"/>
<path d="M93.3322 23.408H91.6674L88.3376 25.0728C88.0546 22.176 90.7018 20.7276 91.6674 18.4134L93.3322 20.0783C93.5669 20.2875 93.7546 20.544 93.8831 20.8309C94.0117 21.1179 94.0781 21.4287 94.0781 21.7431C94.0781 22.0575 94.0117 22.3684 93.8831 22.6553C93.7546 22.9422 93.5669 23.1987 93.3322 23.408Z" fill="#AA8C49"/>
<path d="M154.932 96.6619C155.598 111.762 161.192 126.297 159.927 141.613C156.497 147.324 159.394 154.116 156.68 160.01C155.448 162.69 155.581 165.97 153.234 168.234C152.262 167.283 151.671 166.011 151.569 164.655C151.569 161.508 152.801 158.545 152.918 155.398C155.864 133.256 155.248 111.562 144.76 91.118C143.511 88.7206 141.93 86.2898 143.211 83.343C145.492 84.1255 141.064 76.0176 146.541 80.8457C151.602 85.1078 153.65 90.6351 154.932 96.6619Z" fill="#96722E"/>
<path d="M153.267 164.921C153.267 166.02 153.267 167.136 153.267 168.251C142.978 182.352 128.411 187.58 111.646 188.229C105.552 188.446 99.459 188.229 93.3323 188.229C90.8183 186.248 87.4886 188.529 85.008 186.565H81.6782C75.4683 182.935 67.1773 185.632 61.6999 179.905L62.7154 178.939C67.4769 176.642 71.9555 178.939 76.384 179.988C92.4166 183.701 108.516 183.318 124.665 181.437C125.381 180.949 126.145 180.536 126.946 180.205C128.877 179.472 130.858 178.923 132.79 178.224C138.621 176.592 143.782 173.146 147.524 168.384C148.922 166.586 150.054 163.956 153.267 164.921Z" fill="#A37C35"/>
<path d="M163.257 169.916C159.827 169.566 158.029 171.398 155.964 174.045C150.97 180.355 145.243 185.799 136.602 186.565C144.926 181.17 153.634 176.026 158.245 166.586C160.643 166.603 163.107 166.553 163.257 169.916Z" fill="#765627"/>
<path d="M85.0079 186.598C87.8216 186.947 90.9848 185.532 93.3322 188.263C90.5353 187.78 87.372 189.345 85.0079 186.598Z" fill="#8F6C31"/>
<path d="M143.278 83.343C156.997 106.202 159.078 130.908 154.932 156.597C154.582 156.859 154.143 156.972 153.71 156.913C153.277 156.854 152.885 156.627 152.618 156.281C151.708 154.785 151.366 153.013 151.652 151.286C154.523 133.776 152.601 115.816 146.092 99.3091C144.976 96.4122 144.427 88.9037 137.651 94.8972C136.519 95.8961 134.621 94.0481 133.739 92.5997C132.512 90.1242 131.433 87.578 130.509 84.9746C129.695 83.5948 129.089 82.1026 128.711 80.5461C128.515 79.413 128.684 78.2471 129.193 77.2163C131.674 74.8689 133.123 77.6658 134.971 78.3984C138.833 78.1986 140.215 82.161 143.278 83.343Z" fill="#AF8936"/>
<path d="M134.954 78.3485C132.456 80.4129 131.774 76.5837 129.859 76.7835C126.53 77.0332 126.197 74.4527 125.614 72.1385C125.684 71.342 126.039 70.5974 126.613 70.0408C128.744 70.9398 130.392 73.8367 133.272 71.7057C137.301 73.0542 134.954 75.9844 134.954 78.3485Z" fill="#936D32"/>
<path d="M161.592 129.959C164.805 134.687 162.607 139.948 163.123 144.943C160.06 140.215 162.257 134.937 161.592 129.959Z" fill="#967439"/>
<path d="M38.3918 159.943V158.279C40.4895 155.765 37.1432 152.485 39.5572 149.954C39.8882 149.711 40.2733 149.552 40.6794 149.492C41.0855 149.431 41.5003 149.469 41.888 149.605C43.736 151.419 43.8525 153.95 44.635 156.264C45.7172 160.842 45.2843 166.253 50.8283 168.517C54.4244 172.33 60.4679 173.828 61.7498 179.872C50.9282 176.742 42.2376 171.131 38.3918 159.943Z" fill="#9B7633"/>
<path d="M93.3323 58.2702C93.1991 50.5286 90.3855 42.8036 93.3323 35.0787C94.7641 32.7811 96.1459 30.417 99.9917 29.568C99.9917 34.729 99.9917 39.5571 99.9917 44.5517C100.092 54.0581 101.041 54.5409 109.981 50.129C112.145 47.1489 113.91 43.686 118.305 43.4696C118.105 51.7939 113.51 55.2901 105.586 55.1236C101.69 55.1236 97.8274 55.1236 95.0138 58.4533C94.7631 58.6432 94.4493 58.73 94.1367 58.696C93.824 58.6619 93.5362 58.5096 93.3323 58.2702Z" fill="#9B6A2E"/>
<path d="M118.305 43.3697C116.024 46.2 113.66 48.9303 109.981 50.0291C96.6619 50.8449 103.188 40.7226 101.656 35.0454C102.955 34.6125 103.654 35.3617 104.32 36.3106C105.636 38.1586 104.786 41.9379 108.383 41.6882C111.979 41.4384 113.061 38.3584 114.509 35.6114C115.958 32.8644 115.392 28.7355 119.92 28.3859V35.0454L118.305 43.3697Z" fill="#AD843B"/>
<path d="M93.3323 58.2702H94.9972L116.474 58.1703L118.388 58.3202C117.123 61.55 114.476 61.8497 111.546 61.5334C105.568 60.3346 99.4106 60.3346 93.4322 61.5334L91.5176 63.1982C90.9371 63.8334 90.1969 64.3013 89.374 64.5531C88.5512 64.8049 87.6759 64.8315 86.8393 64.63C84.0424 63.8142 80.8791 63.9807 78.6815 61.5833C78.5983 60.5012 78.5317 59.419 78.4651 58.3368L86.7894 58.187H93.3323V58.2702Z" fill="#4C351F"/>
<path d="M119.97 28.3859C117.423 31.1163 117.29 34.8456 115.974 38.0921C114.309 42.3541 111.146 45.0345 106.668 44.7515C101.407 44.4685 104.237 39.6237 103.088 36.9932C102.689 36.2866 102.227 35.6179 101.706 34.9954L101.557 23.3414C101.616 22.788 101.616 22.2299 101.557 21.6765C101.657 19.4789 101.74 17.2646 101.823 15.0171C103.987 16.8651 103.072 19.4123 103.371 21.6765C105.036 25.6222 105.852 29.8843 107.667 33.7801C111.196 32.8145 112.062 29.901 113.877 27.9364C115.625 26.5046 116.907 24.0906 119.82 24.973L119.97 28.3859Z" fill="#CD9E4A"/>
<path d="M119.82 25.1228L114.992 28.4525C114.553 28.0097 114.306 27.4113 114.306 26.7876C114.306 26.164 114.553 25.5656 114.992 25.1228C116.657 21.7931 118.322 18.4633 119.987 15.1336C119.987 17.8973 119.987 20.6443 119.987 23.4579L119.82 25.1228Z" fill="#C5A361"/>
<path d="M41.7215 96.6786C42.6538 90.4353 45.0512 85.3076 51.7106 83.3597C52.227 83.8214 52.6416 84.3854 52.9282 85.016C53.2148 85.6465 53.3671 86.3298 53.3755 87.0224C52.5098 92.7828 49.3465 97.6609 46.9824 102.822C45.9003 105.186 44.1522 107.034 41.2553 104.77C40.9889 102.023 40.273 99.2758 41.7215 96.6786Z" fill="#A07D36"/>
<path d="M51.7107 86.6894C51.7107 85.574 51.7107 84.4419 51.7107 83.3597C51.7107 82.8103 51.7107 82.2609 51.7107 81.6948C53.8084 80.5294 55.3568 78.5982 57.4045 77.4161C60.5844 75.5848 62.9485 76.3506 64.2638 79.8801C64.732 81.4795 64.5834 83.1963 63.8476 84.6916C62.3325 87.8715 61.6499 92.2833 57.8873 93.0159C54.3911 93.7651 56.2225 88.1045 53.2257 87.3054C52.6977 87.162 52.189 86.9552 51.7107 86.6894Z" fill="#A78135"/>
<path d="M63.3647 80.0133C58.5866 74.1863 55.8229 82.4773 51.7107 81.6781C53.2669 78.8814 55.5734 76.5749 58.3701 75.0187C60.6011 75.0187 62.8486 73.3538 65.0296 75.0187C65.2998 75.2533 65.518 75.5419 65.6699 75.866C65.8219 76.19 65.9043 76.5422 65.912 76.9C65.885 77.6257 65.6215 78.3227 65.1616 78.8848C64.7017 79.4469 64.0707 79.8431 63.3647 80.0133Z" fill="#A07D36"/>
<path d="M41.7215 96.6786V105.003C42.8036 106.934 42.737 108.333 40.0566 108.333C40.7225 104.437 38.5416 100.175 41.7215 96.6786Z" fill="#9D7D42"/>
<path d="M126.63 70.0408V71.8056C125.992 72.3471 125.2 72.674 124.366 72.7397C123.532 72.8055 122.699 72.6067 121.985 72.1718C115.791 69.4581 110.514 68.7089 107.001 76.3507C105.119 80.3796 102.006 78.465 99.5089 76.3507C97.6508 74.8421 96.3499 72.7561 95.8129 70.4237C95.8376 69.6482 96.0736 68.8941 96.4955 68.2428C101.257 68.5591 104.82 65.7455 108.449 63.4313C111.766 63.2806 115.079 63.787 118.199 64.9213C121.319 66.0556 124.184 67.7954 126.63 70.0408Z" fill="#A2742F"/>
<path d="M108.316 63.398C104.986 66.5446 103.538 73.8201 96.662 68.3926C94.248 67.6268 92.4333 66.4447 93.2491 63.398H108.316Z" fill="#986A28"/>
<path d="M93.3323 63.4146L96.7452 68.4092C96.7452 68.9753 96.7452 69.5413 96.7452 70.0741C91.7506 68.6589 86.756 70.9731 81.7614 70.3738C80.4462 67.0441 82.1444 64.9796 84.5917 63.1483C84.9316 62.9339 85.3307 62.8329 85.7316 62.8598C86.1325 62.8867 86.5145 63.0402 86.8226 63.2981H91.6175L93.3323 63.4146Z" fill="#A97A31"/>
<path d="M93.4322 61.5999C96.2949 60.3762 99.3758 59.7454 102.489 59.7454C105.602 59.7454 108.683 60.3762 111.546 61.5999H93.4322Z" fill="#3E291A"/>
<path d="M129.959 16.7652L133.289 21.7598C132.939 23.5578 132.939 26.0385 130.275 25.4891C128.328 25.0895 128.611 23.1749 129.143 21.4601C129.516 19.9142 129.788 18.346 129.959 16.7652Z" fill="#B3996C"/>
<path d="M114.975 25.0562C114.975 26.1883 114.975 27.3037 114.975 28.3859C114.293 32.8477 110.963 37.0099 107.567 36.8267C103.371 36.627 105.02 30.6501 103.554 27.4036C102.839 25.7388 103.371 23.6577 103.338 21.7764C106.018 27.2538 110.597 25.822 114.975 25.0562Z" fill="#D7B554"/>
<path d="M65.0296 76.7002C65.0296 76.1508 65.0296 75.6014 65.0296 75.0354L72.3384 68.5424C74.6026 66.5279 76.1842 66.6777 76.8168 69.9242C78.5816 71.3893 77.283 74.9189 80.5794 75.3684C81.5783 77.7991 80.4796 79.8801 79.5639 82.0278C79.2178 82.7756 78.8114 83.4938 78.3485 84.1755C76.9167 86.2066 75.435 88.7871 72.688 88.3543C69.4914 87.8382 70.0408 84.6749 69.8577 82.3108C69.7245 80.646 69.6912 78.9811 67.71 78.3318C66.6645 78.09 65.7246 77.5179 65.0296 76.7002Z" fill="#B9913C"/>
<path d="M80.0134 74.9355C73.5537 76.6004 78.0322 71.6058 76.9334 69.9409C79.6804 67.7766 77.5993 65.6456 76.9334 63.4979C77.4451 63.4123 77.9628 63.3677 78.4817 63.3647C79.4895 62.7668 80.6396 62.4514 81.8114 62.4514C82.9832 62.4514 84.1333 62.7668 85.1411 63.3647L81.8114 70.0241C83.3431 72.5048 82.2443 73.9532 80.0134 74.9355Z" fill="#956728"/>
<path d="M93.3323 23.408V20.0783C95.5465 22.1427 97.7608 10.3388 99.9917 20.0783L93.3323 23.408Z" fill="#9B7E48"/>
<path d="M91.6674 16.7651L85.0079 15.1003H83.3431C86.2732 12.1868 90.0025 13.9515 93.3323 13.4354C93.3986 14.0911 93.2773 14.7522 92.9826 15.3417C92.6878 15.9311 92.2318 16.4248 91.6674 16.7651Z" fill="#A68E61"/>
<path d="M36.7269 153.267H35.0621C35.162 143.4 35.2674 133.528 35.3784 123.649C35.7969 123.433 36.2566 123.308 36.7269 123.283C41.4385 125.631 40.4229 130.109 40.606 134.055C40.7725 137.584 40.7059 141.13 40.606 144.677C39.6737 147.673 41.0889 151.786 36.7269 153.267Z" fill="#886630"/>
<path d="M65.0296 76.7003H68.3593C70.2573 84.8581 63.3647 90.0192 61.4501 96.8618C58.7864 101.44 57.6542 106.635 55.6564 111.479C54.8406 113.477 53.9916 115.941 51.1613 115.458C48.7972 115.075 48.6473 112.894 48.2311 110.98C48.2311 110.647 49.3799 108.815 47.4653 109.764C46.8993 110.047 46.7661 111.213 46.4164 111.962C45.2344 113.927 44.918 116.657 41.9046 116.957C39.6071 115.775 41.4718 113.127 40.04 111.646C40.04 110.53 40.04 109.415 40.04 108.316C40.6176 107.99 41.0846 107.499 41.3812 106.906C41.6779 106.312 41.7905 105.644 41.7048 104.986C48.048 100.508 47.9814 92.5331 51.694 86.6728C53.6752 86.0901 54.774 83.5262 57.3046 84.0423C58.7031 86.7394 55.2569 89.2866 57.7042 92.2834C60.0683 88.2544 62.5323 84.5584 63.3148 79.9967C63.9308 78.9145 64.5135 77.7991 65.0296 76.7003Z" fill="#B9933B"/>
<path d="M40.0567 111.679C41.9713 112.894 41.605 114.859 41.7215 116.674C42.5715 117.587 43.208 118.677 43.5852 119.866C43.9624 121.055 44.0707 122.313 43.9025 123.549C43.2422 136.262 45.658 148.946 50.9449 160.526C51.6057 162.05 51.8692 163.717 51.7107 165.371C51.591 166.286 51.2666 167.162 50.7617 167.935C46.3498 169.716 46.3332 165.554 44.8681 163.473C43.4031 161.392 45.1179 158.645 43.3531 156.63C40.9391 154.866 41.9546 152.252 41.6882 149.971C37.5094 137.934 38.8913 125.631 40.0234 113.344C40.0456 112.778 40.0567 112.223 40.0567 111.679Z" fill="#B48E3D"/>
<path d="M40.0567 113.327C40.1399 125.564 39.4074 137.834 41.7215 149.954H40.0567C38.4917 148.639 40.0567 146.275 38.3918 144.96C37.7591 137.734 39.8902 130.309 36.7269 123.316C39.2908 120.42 37.0433 116.008 40.0567 113.327Z" fill="#A68137"/>
<path d="M38.3918 144.943C40.323 146.158 40.0567 148.123 40.0567 149.938C39.6404 152.751 41.1721 155.948 38.3918 158.262C37.8424 156.597 37.293 154.932 36.7269 153.267C39.5072 150.936 37.9756 147.823 38.3918 144.943Z" fill="#8F6C31"/>
<path d="M85.008 63.4146H78.3485C78.4484 62.8486 78.5483 62.2659 78.6648 61.7498C81.3619 62.2492 84.4586 60.7841 86.7228 63.4146H85.008Z" fill="#875923"/>
<path d="M153.267 156.614H154.932C154.366 159.377 153.817 162.158 153.267 164.938C147.557 171.198 142.629 178.507 133.289 179.922C132.992 179.457 132.863 178.905 132.923 178.356C132.984 177.808 133.23 177.297 133.622 176.908C141.297 171.215 146.208 162.807 153.267 156.614Z" fill="#AB8536"/>
<path d="M50.0458 166.52C49.6296 158.928 44.5684 152.884 43.2199 145.476C41.4718 135.886 41.8214 126.297 41.7048 116.674L45.0346 111.679C47.998 114.676 47.0158 118.338 46.533 121.785C44.9344 133.812 47.1408 146.037 52.8428 156.747C62.166 173.828 79.1976 175.144 95.6464 177.641H103.588C110.996 178.224 118.289 176.842 125.647 176.475C126.584 176.675 127.465 177.079 128.228 177.658C128.481 177.91 128.682 178.209 128.819 178.539C128.956 178.869 129.027 179.223 129.027 179.58C129.027 179.938 128.956 180.292 128.819 180.622C128.682 180.952 128.481 181.251 128.228 181.503L126.563 181.637C125.38 182.588 123.918 183.126 122.401 183.168C111.03 183.301 99.6587 183.168 88.3044 183.168C74.3362 180.621 59.7353 179.272 50.0458 166.52Z" fill="#CEAA4A"/>
<path d="M123.3 181.603H126.63C125.731 186.165 122.051 184.833 119.271 184.833C102.156 184.833 84.9414 186.065 68.3261 180.255C66.1356 179.813 63.8942 179.678 61.6666 179.855L50.0126 169.866C49.4299 169.5 49.2467 169.133 49.4299 168.767C49.613 168.401 49.8128 168.218 49.9959 168.218V166.453C58.9529 172.18 67.5436 178.557 78.515 180.255C81.158 180.943 83.8628 181.367 86.5896 181.52C98.7839 182.935 111.099 182.962 123.3 181.603Z" fill="#B38E3E"/>
<path d="M128.294 181.503V178.174C132.649 173.669 136.746 168.922 140.564 163.956C143.894 160.476 147.873 157.629 149.854 153.051C150.213 152.38 150.68 151.772 151.236 151.253C151.558 151.067 151.932 150.993 152.301 151.044C152.669 151.096 153.009 151.269 153.267 151.536C153.267 153.201 153.267 154.866 153.267 156.53C149.322 166.636 140.648 172.663 133.289 179.839L128.294 181.503Z" fill="#BF983D"/>
<path d="M153.267 151.619H151.602C148.389 146.624 151.785 141.53 151.07 136.469C150.504 132.457 151.403 128.278 150.254 124.265C149.438 121.369 149.588 118.305 148.589 115.442C147.789 111.475 146.675 107.578 145.259 103.788C144.81 116.374 143.161 118.239 135.57 114.909C132.007 109.298 133.339 102.239 130.092 96.5954C129.489 94.389 129.214 92.1058 129.277 89.8194C129.41 87.4719 129.493 85.0912 131.474 83.3764C134.504 86.0901 133.672 90.6851 136.469 93.6819C140.248 93.1824 136.086 86.7727 140.681 87.5885C143.911 88.1545 145.026 91.684 146.225 94.431C154.316 112.861 157.446 131.757 153.267 151.619Z" fill="#C4A044"/>
<path d="M99.9917 75.0187C101.89 75.102 103.954 80.0133 105.586 75.2352C109.365 64.1472 116.324 67.5102 123.466 70.8899C124.479 71.2749 125.52 71.581 126.58 71.8055L129.909 76.8001V80.1299C126.763 81.2953 124.915 78.465 122.551 77.5493C118.105 75.8845 114.143 75.6347 110.98 79.8801C107.95 82.2442 104.82 84.0589 100.991 81.545C99.9338 80.8404 99.1793 79.7652 98.8763 78.5316C98.7469 77.8995 98.7815 77.2449 98.9768 76.63C99.172 76.0151 99.5214 75.4604 99.9917 75.0187Z" fill="#C8A142"/>
<path d="M109.981 78.3651C115.825 71.7889 119.72 72.1219 129.959 80.03L131.624 83.3597C131.624 85.5573 131.624 87.7716 131.624 90.0191C130.192 90.5519 129.426 89.7028 128.727 88.6873C124.232 79.7803 118.405 79.0643 113.144 86.8892C111.914 89.0156 109.91 90.5844 107.55 91.2678C104.77 91.5009 102.556 90.9515 102.422 87.5385C103.538 83.3098 108.949 82.6438 109.981 78.3651Z" fill="#DDBD54"/>
<path d="M50.0458 168.284C50.0458 168.834 50.0458 169.383 50.0458 169.949C42.5373 168.168 43.5362 162.108 43.3864 156.63C46.2166 160.16 45.0512 165.987 50.0458 168.284Z" fill="#A68137"/>
<path d="M95.7797 54.2079C94.5144 50.0624 94.4977 46.6495 97.0949 43.2199C98.5767 49.1634 98.5766 49.1634 95.7797 54.2079Z" fill="#8D5C27"/>
<path d="M99.9917 75.0187V78.3484C99.742 78.465 99.3923 78.7647 99.2591 78.6814C92.017 74.5692 85.9402 76.4005 80.4295 82.1443C80.0595 82.2319 79.6745 82.2354 79.3028 82.1548C78.9312 82.0741 78.5823 81.9112 78.2819 81.6782L79.9467 75.0187C80.5461 73.3538 81.1288 71.7889 81.7281 70.1906C86.7227 67.9597 91.7173 64.58 96.7119 70.1906L99.9917 75.0187Z" fill="#CDA444"/>
<path d="M78.3484 81.6449H80.0133C81.4784 85.9069 77.5493 88.4042 76.6836 91.9004C76.3605 92.5947 75.94 93.2394 75.4349 93.815C74.8669 94.3131 74.227 94.7228 73.537 95.0304C72.6994 95.5029 71.7204 95.6603 70.7769 95.474C69.8335 95.2878 68.9877 94.7702 68.3925 94.0148C65.5623 90.0358 65.5623 94.1646 64.4968 95.2801C63.3647 96.945 62.4656 98.793 60.0183 98.6098C59.8139 98.458 59.6602 98.2481 59.577 98.0076C59.4939 97.767 59.4852 97.5069 59.5521 97.2613C59.702 96.8118 59.8518 96.5954 60.0183 96.5954L68.4259 76.617C70.0907 76.284 72.9876 73.5037 72.4881 77.8989C71.8974 80.8066 71.7403 83.7857 72.022 86.7394C76.001 87.2888 75.9011 82.8935 78.3484 81.6449Z" fill="#D6B851"/>
<path d="M60.0349 96.6453V98.3102C63.3647 102.206 60.6676 106.035 59.9184 109.964C57.2046 116.024 56.8717 122.734 54.9238 128.994C53.2589 136.885 54.1413 144.943 53.1424 152.868C52.9093 154.799 53.2756 156.747 51.7439 158.279C44.6516 147.524 42.8036 135.47 43.9856 123.033C44.3519 119.254 45.0179 115.475 45.0678 111.646C45.7654 107.851 47.5396 104.337 50.1789 101.523C52.9093 106.302 47.7482 110.364 51.6107 114.359C56.3389 109.332 55.0403 101.374 60.0349 96.6453Z" fill="#D3AF4C"/>
<path d="M51.7106 158.279C50.3819 148.273 50.9466 138.107 53.3754 128.311C56.3098 132.724 57.6058 138.026 57.0382 143.295C55.9061 157.28 66.5445 167.652 78.4649 171.348C83.9423 173.013 90.119 173.246 94.5975 177.458C94.8714 177.796 95.0524 178.199 95.1225 178.628C95.1925 179.058 95.1493 179.498 94.997 179.905C78.5981 176.642 60.6176 176.525 51.7106 158.279Z" fill="#DFBE56"/>
<path d="M126.629 178.24C118.944 179.645 111.128 180.203 103.321 179.905C103.165 179.504 103.134 179.065 103.232 178.646C103.33 178.227 103.553 177.848 103.871 177.558C107.467 175.01 111.696 174.078 115.874 172.996C123.499 172.896 127.712 169.034 130.126 161.791C133.251 152.692 134.723 143.107 134.471 133.489C134.338 128.96 133.256 124.099 136.369 119.937C138.983 119.354 139.432 121.369 140.115 123.083C143.096 139.054 141.361 155.548 135.12 170.549C134.366 172.382 133.213 174.023 131.744 175.354C130.275 176.685 128.528 177.671 126.629 178.24Z" fill="#DEBD55"/>
<path d="M126.63 178.24L133.289 171.581C136.252 163.922 138.999 156.231 145.276 150.32C148.872 146.991 149.272 141.996 149.455 137.251C149.621 132.889 148.706 128.394 150.687 124.199L151.619 123.3C155.165 132.74 153.001 142.179 151.619 151.602C150.121 157.413 144.36 160.027 141.63 164.921C137.801 169.916 135.52 176.575 128.311 178.24H126.63Z" fill="#CFAC47"/>
<path d="M123.3 181.603C111.243 184.331 98.7295 184.331 86.6729 181.603H123.3Z" fill="#C39C43"/>
<path d="M103.321 178.257C103.321 178.79 103.321 179.339 103.321 179.922H94.9971C94.9971 179.389 94.9971 178.84 94.9971 178.257L95.7963 177.408C96.8393 176.862 97.9989 176.577 99.176 176.577C100.353 176.577 101.513 176.862 102.556 177.408L103.321 178.257Z" fill="#E3C05F"/>
<path d="M141.613 164.921C142.845 158.911 148.789 156.447 151.602 151.602C151.602 158.578 145.842 161.142 141.613 164.921Z" fill="#C4A044"/>
<path d="M136.619 119.987C136.402 134.471 137.651 148.939 132.14 163.09C128.81 171.631 123.966 175.693 114.975 174.91C114.376 172.114 116.773 171.914 118.305 171.264C120.758 170.385 122.937 168.876 124.623 166.889C126.309 164.902 127.443 162.507 127.911 159.943C128.311 157.629 129.06 155.398 129.676 153.117C129.876 152.318 130.142 151.552 130.409 150.77C131.175 148.755 131.524 146.624 132.19 144.593C133.235 131.924 132.512 119.171 130.042 106.701C129.393 103.172 128.611 99.5755 131.607 96.5787C136.602 101.79 134.421 108.982 136.602 114.892C136.942 115.223 137.213 115.618 137.399 116.055C137.584 116.492 137.681 116.961 137.682 117.436C137.684 117.91 137.59 118.381 137.408 118.819C137.225 119.257 136.957 119.654 136.619 119.987Z" fill="#E1C861"/>
<path d="M136.619 119.987C136.619 118.322 136.619 116.657 136.619 114.992C140.831 116.424 142.945 114.609 143.145 110.48C143.15 106.335 143.4 102.193 143.894 98.0771C147.761 102.865 149.891 108.821 149.938 114.975C149.655 115.209 149.372 115.425 149.105 115.675C145.492 119.004 147.44 123.383 147.274 127.329C147.157 130.875 146.891 134.321 142.363 134.238C138.084 134.155 139.399 130.525 139.149 128.011C138.983 126.43 139.582 124.682 138.284 123.333C138.359 122.674 138.243 122.007 137.947 121.413C137.652 120.819 137.19 120.324 136.619 119.987Z" fill="#CFAC4D"/>
<path d="M131.624 96.5787C131.841 110.48 136.336 124.066 134.954 138.084C134.654 140.981 135.986 144.194 133.289 146.624C132.555 145.978 131.984 145.168 131.622 144.26C131.261 143.351 131.119 142.371 131.208 141.397C131.557 129.743 128.81 118.288 128.178 106.751C127.595 96.4788 123.916 90.0025 114.509 86.5229C116.357 81.3951 121.468 79.8635 126.08 83.1932C127.911 84.4918 128.727 86.5229 129.959 88.3376L131.624 90.0025C131.624 92.2001 131.624 94.3811 131.624 96.5787Z" fill="#E6CE6E"/>
<path d="M149.938 114.975C152.701 117.323 151.203 120.503 151.602 123.3C146.358 121.452 147.89 118.305 149.938 114.975Z" fill="#CFAC4D"/>
<path d="M75.0188 91.684C75.3018 87.6717 79.0145 85.3575 80.0134 81.6948C88.3377 71.3227 89.2867 71.1396 99.9917 78.3651L101.657 80.03C102.123 82.4773 100.341 82.5273 98.7431 82.777C93.0826 81.2453 88.9038 84.059 84.7583 87.3387C81.9446 89.553 79.5639 93.1657 75.0188 91.684Z" fill="#E0C35D"/>
<path d="M98.1604 81.4951C98.8255 81.6391 99.5188 81.5759 100.147 81.3139C100.775 81.052 101.308 80.6039 101.673 80.03C105.103 82.8103 107.4 79.8635 109.998 78.3651C110.763 83.4762 107.001 85.0246 103.421 86.6894C100.591 85.0246 96.6787 87.2388 94.2813 84.0756C94.298 81.2287 95.5632 80.3796 98.1604 81.4951Z" fill="#C79F49"/>
<path d="M95.2802 85.2577C98.51 82.7104 101.59 81.0455 103.405 86.6728C102.922 90.6018 105.769 90.1524 108.166 90.2855C110.19 89.9055 112.279 90.0839 114.21 90.8016C121.219 93.865 126.696 98.2769 128.195 106.302C126.713 114.21 123.966 115.342 114.16 112.095C111.08 109.781 109.781 105.719 106.152 103.971C101.374 105.636 105.219 111.363 101.707 113.61C100.824 113.76 99.5922 113.394 99.6421 112.761C100.075 106.851 97.2447 113.843 96.7286 111.995C93.0826 110.331 97.0616 103.904 91.4177 103.505C89.1702 104.282 87.3055 105.891 86.2067 108C84.6417 115.408 81.9946 122.234 76.2175 127.429C69.3083 124.482 69.558 118.105 68.8088 112.129C69.608 106.152 70.9232 100.358 75.0687 95.6297C80.1965 89.1368 89.1202 89.9026 95.2802 85.2577Z" fill="#443A3B"/>
<path d="M113.161 92.0836L108.166 90.2855C109.198 88.4209 111.163 87.3887 111.962 85.1245C113.044 82.0944 113.477 77.9489 118.971 79.3307C124.465 80.7125 130.342 80.3629 129.959 88.3543C125.164 85.8903 120.969 78.2486 114.975 86.6894C115.258 87.6664 115.236 88.7063 114.912 89.6703C114.587 90.6342 113.976 91.4761 113.161 92.0836Z" fill="#E1C861"/>
<path d="M95.2801 85.2577C95.8961 88.7373 94.0981 89.6862 90.9348 90.4687C85.8403 91.734 80.3463 92.4166 76.4172 96.5787C74.0032 96.3457 73.8533 95.1137 75.0187 93.249C75.0187 92.6996 75.0187 92.1502 75.0187 91.5842C80.4795 89.9193 83.5928 84.8082 88.3376 82.0611C91.6674 80.1465 94.6142 78.7314 98.0771 81.3952C96.0793 81.8947 94.7141 82.8936 95.2801 85.2577Z" fill="#E9CF72"/>
<path d="M58.3701 109.964C58.9528 106.102 59.5188 102.239 60.0349 98.3102L63.3646 94.9805C70.0241 90.6019 68.1927 98.3102 70.5735 100.092C70.5735 103.005 68.5257 104.17 66.2449 105.086C62.0161 105.502 62.7653 111.746 58.2202 111.895C58.0984 111.761 58.0052 111.603 57.9465 111.432C57.8878 111.26 57.8647 111.078 57.8787 110.898C57.8928 110.717 57.9436 110.541 58.0281 110.38C58.1125 110.22 58.2289 110.078 58.3701 109.964Z" fill="#E4C967"/>
<path d="M65.0296 103.338C66.1105 103.399 67.1821 103.108 68.0829 102.507C68.9837 101.907 69.665 101.03 70.0242 100.008C68.7089 96.5787 72.5381 95.7296 73.3539 93.3489H75.0188L76.4172 96.6786C72.4216 100.891 71.8722 106.568 69.9909 111.662C69.4938 111.211 69.1165 110.643 68.8927 110.009C68.669 109.376 68.6058 108.697 68.7089 108.033C69.0419 104.82 67.3937 108.616 67.044 107.583C64.63 106.984 63.3647 105.852 65.0296 103.338Z" fill="#E5CA6E"/>
<path d="M73.3539 93.3656C73.5371 96.2458 70.9399 97.6942 70.0242 100.025C67.71 100.025 66.6945 98.6432 66.6945 96.4289C66.5946 93.6486 64.8465 94.5976 63.3647 95.0304C63.4593 93.6374 63.8391 92.2787 64.4806 91.0386C65.1222 89.7985 66.0117 88.7035 67.094 87.8215C69.5913 89.2367 67.2272 96.329 73.3539 93.3656Z" fill="#DFC05F"/>
<path d="M58.3702 109.964V111.629C61.3003 117.423 58.1871 123.283 58.7531 129.227C59.3192 135.17 58.7531 140.664 60.5179 146.258C62.0495 151.253 64.397 155.265 69.5581 157.08C75.1021 167.302 86.9892 168.95 95.0138 175.859C95.1825 176.225 95.2699 176.622 95.2699 177.025C95.2699 177.427 95.1825 177.825 95.0138 178.19C85.0247 174.544 74.0699 173.978 65.2627 166.819C60.1546 163.004 56.6476 157.426 55.4234 151.17C54.1248 143.644 54.0249 135.886 53.4089 128.228C54.7741 122.118 54.4578 115.475 58.3702 109.964Z" fill="#E4C85F"/>
<path d="M149.938 114.992C150.337 117.789 148.822 120.986 151.602 123.316C151.602 128.511 151.602 133.722 151.602 138.916C151.602 144.61 150.187 149.854 145.509 153.5C139.416 158.229 137.568 165.704 133.306 171.581C134.404 167.086 134.971 162.324 136.719 158.129C141.713 146.624 138.084 134.92 138.3 123.316C140.698 125.114 139.732 127.795 139.965 130.126C140.198 132.024 141.081 133.272 143.095 132.939C145.11 132.606 145.609 131.424 145.459 129.41C145.063 125.082 144.907 120.736 144.993 116.391C145.226 111.729 147.407 112.362 149.938 114.992Z" fill="#D3B24F"/>
<path d="M129.959 159.927C129.293 169.25 122.101 172.047 114.975 174.911C111.23 176.475 107.55 178.24 103.321 178.24C102.769 177.626 102.324 176.922 102.006 176.159C101.257 171.731 103.671 169.25 107.484 168.151C114.071 165.993 120.15 162.515 125.348 157.929C126.705 158.951 128.285 159.636 129.959 159.927Z" fill="#E3CA63"/>
<path d="M103.155 176.292C103.155 176.942 103.271 177.574 103.321 178.224H94.9971L94.8472 176.559L95.7795 175.643C96.9352 175.009 98.2529 174.733 99.5658 174.848C100.879 174.964 102.128 175.466 103.155 176.292Z" fill="#DEBD55"/>
<path d="M113.161 92.0836C113.411 90.169 112.928 88.0047 114.959 86.6728C121.985 85.4574 129.41 90.5519 129.76 98.0272C130.509 114.26 135.17 130.209 133.289 146.625C133.289 148.456 133.572 150.42 131.624 151.619C128.494 148.756 130.359 144.543 128.827 141.264C128.328 140.767 127.8 140.3 127.246 139.865C125.488 138.617 123.819 137.249 122.251 135.77C120.526 133.895 118.494 132.33 116.241 131.141C114.859 130.459 113.444 129.826 112.012 129.26C109.121 128.326 106.429 126.864 104.071 124.948C98.1271 117.606 103.871 109.731 103.172 102.123C103.055 100.924 105.253 100.807 106.601 101.59C109.432 103.754 113.078 105.219 113.444 109.515C116.524 115.042 121.768 112.728 125.714 111.979C128.827 111.413 127.628 107.617 126.713 105.053C123.561 99.4972 118.85 94.9879 113.161 92.0836Z" fill="#E9D172"/>
<path d="M129.959 138.3C133.289 142.379 130.908 147.191 131.624 151.619C131.624 152.185 131.624 152.735 131.624 153.284C131.415 153.414 131.181 153.5 130.938 153.537C130.694 153.574 130.446 153.561 130.208 153.498C129.969 153.436 129.746 153.326 129.552 153.174C129.357 153.023 129.196 152.834 129.077 152.618C127.246 147.707 126.63 142.829 129.959 138.3Z" fill="#EFD673"/>
<path d="M129.959 153.251H131.624C131.075 155.465 130.525 157.696 129.959 159.91C128.095 160.842 126.629 161.076 126.629 158.245C125.198 156.83 125.864 155.581 126.913 154.333C127.755 153.601 128.844 153.215 129.959 153.251Z" fill="#E9D172"/>
<path d="M68.3594 106.651C71.5559 107.417 69.1752 109.981 70.0243 111.646C71.3395 117.073 70.9899 123.2 76.4839 126.846C83.2932 129.66 91.0015 130.609 96.4623 136.319C97.944 141.713 97.2614 147.207 97.1615 152.651C97.1615 156.114 96.2625 159.311 91.9172 159.677C86.29 159.228 83.3931 155.298 80.8459 150.936C77.8491 147.823 74.5194 148.156 71.3395 150.404C69.4083 151.752 69.6746 156.447 65.6956 154.616C64.0718 153.864 62.7202 152.629 61.826 151.079C60.9319 149.529 60.5389 147.741 60.701 145.959C60.7302 145.686 60.7917 145.418 60.8842 145.159C70.7568 135.47 63.5147 126.546 59.6355 117.473C57.6377 109.848 66.6945 111.196 68.3594 106.651Z" fill="#ECD176"/>
<path d="M94.5808 135.037C87.6843 134.728 81.1802 131.741 76.4504 126.713C77.9821 119.487 83.9423 114.11 84.7748 106.585C88.3875 110.014 86.3231 117.256 92.8827 118.655C96.2124 117.34 93.8483 112.894 96.8783 111.496C101.307 104.121 99.4422 114.243 101.59 113.161C104.42 116.49 99.1758 123.766 107.101 124.732L113.494 127.645C117.955 132.44 115.708 135.853 111.196 138.8C109.215 139.915 106.884 139.366 104.853 140.181C102.889 142.213 103.788 145.093 102.705 147.374C101.79 149.205 101.24 151.985 98.6431 151.336C96.3622 150.77 96.7618 147.84 95.9626 145.959C95.1302 142.429 97.2612 138.433 94.5808 135.037Z" fill="#4C4242"/>
<path d="M93.3323 121.702C86.3565 119.021 83.3431 114.126 84.7249 106.718C85.1245 103.588 88.7206 104.021 90.0358 101.906C91.8006 100.658 93.6653 100.325 95.1137 102.173C97.0283 104.537 95.6132 118.738 93.3323 121.702Z" fill="#E9CF75"/>
<path d="M107.067 124.831C97.3612 124.715 103.471 117.073 101.557 113.261C101.557 110.247 101.557 107.234 101.673 104.22C101.856 100.758 102.955 98.6598 106.668 101.573C105.702 101.973 104.17 102.139 103.871 102.839C101.523 108.316 103.604 121.701 107.067 124.831Z" fill="#504645"/>
<path d="M93.3323 121.702C97.2614 116.124 94.8307 109.848 94.9972 103.921C95.0971 100.591 91.9172 102.023 90.0026 101.84C93.4488 98.9428 96.0127 98.9095 96.662 104.104C96.9451 106.568 96.8119 109.098 96.8618 111.562C96.7786 114.559 96.8618 117.556 96.5621 120.536C96.3457 122.65 95.1803 123.4 93.3323 121.702Z" fill="#504645"/>
<path d="M126.746 105.036C128.744 108.016 129.942 112.129 125.697 112.745C121.851 113.294 115.708 116.907 113.477 109.515C122.068 114.526 126.713 112.861 126.746 105.036Z" fill="#E6CE6E"/>
<path d="M68.3592 106.651C68.2594 110.114 68.2261 113.394 63.065 112.678C60.5344 112.328 60.2347 114.692 60.0349 116.657C61.0671 126.063 63.3647 135.387 61.6998 144.96C61.838 146.723 62.3817 148.431 63.2885 149.95C64.1953 151.469 65.4407 152.758 66.9275 153.717C69.8243 145.742 75.002 144.227 83.0267 148.905C79.697 151.686 72.7878 148.289 71.8887 155.332C71.6206 156.493 70.9624 157.527 70.0241 158.262C61.833 159.244 60.1848 152.618 58.6198 147.324C55.1569 135.587 56.1891 123.583 58.3867 111.662C61.3002 109.448 59.8352 103.721 65.0462 103.338C65.0022 103.784 65.0576 104.234 65.2085 104.656C65.3594 105.078 65.6021 105.461 65.919 105.778C66.2359 106.095 66.6191 106.338 67.0411 106.489C67.4631 106.64 67.9133 106.695 68.3592 106.651Z" fill="#EACF6E"/>
<path d="M70.0242 158.262V154.932C72.4382 154.399 73.4372 156.247 74.4694 157.746C78.2486 163.19 83.7759 165.887 89.8027 167.901C93.8983 169.267 97.7941 170.815 95.2302 176.442L94.8306 176.625C91.6174 175.044 88.5541 172.863 85.1411 171.98C77.566 169.999 72.5048 165.654 70.0242 158.262Z" fill="#E0C76E"/>
<path d="M95.2468 176.409C95.5631 173.079 94.6641 170.182 90.8848 169.833C80.8957 168.917 74.8522 162.857 70.0408 154.849C69.8909 146.774 71.2062 146.158 83.0267 148.855C83.0267 153.7 86.989 155.515 90.0357 158.095C93.3655 160.027 95.5132 159.61 95.8961 155.199C96.1458 152.368 94.8139 149.322 96.8617 146.691C98.5266 150.221 100.008 149.588 101.557 146.691C104.004 148.572 103.455 151.436 103.854 153.967C104.254 156.497 105.519 157.796 108.166 156.63C110.361 155.516 112.235 153.86 113.61 151.819C115.125 149.255 114.21 145.992 115.991 143.495C120.686 142.246 119.487 136.153 123.483 134.305L128.178 138.3C129.476 143.811 130.109 149.288 127.861 154.732C126.43 155.515 126.596 156.88 126.613 158.195C124.584 161.123 121.989 163.615 118.981 165.522C115.972 167.429 112.612 168.714 109.098 169.3C104.886 170.116 102.589 171.731 103.155 176.242C100.576 176.971 97.8539 177.029 95.2468 176.409Z" fill="#413838"/>
<path d="M123.483 134.354C121.652 137.684 123.483 143.794 116.674 143.295C116.373 143.569 116.016 143.773 115.628 143.894C115.239 144.015 114.829 144.049 114.426 143.994C113.662 143.712 113.018 143.176 112.603 142.476C112.188 141.776 112.026 140.954 112.145 140.148C114.093 136.685 116.424 133.389 116.79 129.243C118.223 129.526 119.571 130.134 120.731 131.02C121.891 131.907 122.833 133.047 123.483 134.354Z" fill="#483F3D"/>
<path d="M116.79 129.243C118.355 133.772 116.424 137.185 113.227 140.165C111.562 141.164 110.364 140.814 109.781 138.866C112.411 135.62 116.274 132.789 113.46 127.745C114.642 128.061 116.157 127.662 116.79 129.243Z" fill="#4B4140"/>
<path d="M127.862 154.782C129.277 149.338 128.661 143.844 128.178 138.35H129.926C129.926 143.345 129.926 148.339 129.926 153.334L127.862 154.782Z" fill="#E3CA63"/>
<path d="M61.6999 144.96C59.6687 135.603 57.0715 126.297 60.035 116.657C64.3803 120.27 69.7079 136.252 68.2261 140.731C67.144 143.994 63.7143 143.311 61.6999 144.96Z" fill="#EFD677"/>
<path d="M96.8618 146.741C96.8618 149.505 96.8618 152.268 96.6953 155.065C96.4289 160.16 94.4311 161.725 90.0358 158.195C93.1158 158.578 95.5465 158.312 95.2968 154.15C94.8972 147.807 96.0626 141.397 94.5809 135.087C98.6265 138.3 95.7463 142.912 96.8618 146.741Z" fill="#504645"/>
<path d="M109.781 138.866L113.227 140.165C113.377 141.397 113.144 142.812 114.726 143.378C116.574 146.591 115.974 149.904 115.125 153.234L109.981 158.129C104.986 160.293 101.906 159.311 102.589 153.134C103.205 147.657 100.774 141.913 104.121 136.719C105.452 138.933 107.9 138.134 109.781 138.866Z" fill="#E8D073"/>
<path d="M104.087 136.768C102.422 141.896 103.788 147.207 103.221 152.385C102.605 157.912 105.086 159.277 109.881 158.129C104.886 161.458 101.557 161.225 101.557 154.166C101.557 151.669 101.557 149.172 101.557 146.691C102.506 143.411 99.6586 139.166 104.087 136.768Z" fill="#504645"/>
<path d="M115.125 153.234C115.425 149.904 115.908 146.575 114.726 143.378L116.674 143.295C116.191 146.624 117.989 150.287 115.125 153.234Z" fill="#4B4140"/>
</svg>
