<svg width="12" height="14" viewBox="0 0 12 14" fill="none" xmlns="http://www.w3.org/2000/svg">
<path d="M7.74806 2.24519C8.23185 1.64216 8.55892 0.8313 8.47374 0C7.7685 0.0340697 6.90313 0.466755 6.40572 1.06979C5.956 1.58765 5.56079 2.43257 5.663 3.2264C6.45682 3.29454 7.24724 2.83119 7.74806 2.24519Z" fill="white"/>
<path d="M8.46348 3.383C7.31193 3.31486 6.33072 4.03713 5.7822 4.03713C5.23027 4.03713 4.38875 3.41707 3.47909 3.4341C2.29346 3.45114 1.19301 4.12231 0.589978 5.18869C-0.646752 7.32145 0.262909 10.4865 1.46557 12.2275C2.05157 13.086 2.7534 14.0332 3.6835 13.9991C4.5591 13.965 4.9032 13.4301 5.96958 13.4301C7.03596 13.4301 7.346 13.9991 8.27269 13.9821C9.23686 13.965 9.83649 13.1201 10.4225 12.2616C11.0937 11.2803 11.3662 10.3366 11.3867 10.2821C11.3696 10.2651 9.52986 9.55983 9.51283 7.4441C9.49579 5.67248 10.9574 4.83096 11.0255 4.77645C10.201 3.55335 8.90979 3.41707 8.46348 3.383Z" fill="white"/>
</svg>
