<svg width="14" height="14" viewBox="0 0 14 14" fill="none" xmlns="http://www.w3.org/2000/svg">
<g clip-path="url(#clip0)">
<path d="M13.8635 7.16119C13.8635 6.68535 13.8249 6.20694 13.7426 5.73882H7.14001V8.43439H10.921C10.7641 9.30376 10.26 10.0728 9.5218 10.5615V12.3106H11.7775C13.1022 11.0914 13.8635 9.2909 13.8635 7.16119Z" fill="#4285F4"/>
<path d="M7.1399 14.0002C9.02783 14.0002 10.62 13.3803 11.78 12.3103L9.52424 10.5613C8.89665 10.9882 8.08644 11.23 7.14247 11.23C5.31627 11.23 3.76786 9.99798 3.21228 8.34154H0.884521V10.1446C2.07284 12.5084 4.49319 14.0002 7.1399 14.0002Z" fill="#34A853"/>
<path d="M3.20983 8.34185C2.91661 7.47247 2.91661 6.53108 3.20983 5.66171V3.85866H0.884641C-0.108194 5.83661 -0.108194 8.16694 0.884641 10.1449L3.20983 8.34185Z" fill="#FBBC04"/>
<path d="M7.1399 2.77063C8.13787 2.7552 9.10242 3.13073 9.82518 3.82006L11.8237 1.82153C10.5582 0.633211 8.87864 -0.0201052 7.1399 0.000471722C4.49319 0.000471722 2.07284 1.4923 0.884521 3.85864L3.20971 5.66169C3.76271 4.00268 5.3137 2.77063 7.1399 2.77063Z" fill="#EA4335"/>
</g>
<defs>
<clipPath id="clip0">
<rect width="14" height="14" fill="white"/>
</clipPath>
</defs>
</svg>
