<svg width="20" height="24" viewBox="0 0 20 24" fill="none" xmlns="http://www.w3.org/2000/svg">
<path d="M18.35 3V22C18.35 22.7456 17.7456 23.35 17 23.35H2C1.25442 23.35 0.65 22.7456 0.65 22V11.9203V3C0.65 2.25442 1.25442 1.65 2 1.65H14.4312H17C17.7456 1.65 18.35 2.25442 18.35 3Z" stroke="#767676" stroke-width="1.3"/>
<path d="M13.4329 2.35H8.83416H5.47865C5.28535 2.35 5.12865 2.1933 5.12865 1.99999L5.12867 0.999994C5.12867 0.806697 5.28537 0.65 5.47867 0.65H13.432C13.6252 0.65 13.7819 0.806517 13.782 0.9997L13.7829 1.9997C13.783 2.19311 13.6263 2.35 13.4329 2.35Z" fill="white" stroke="#767676" stroke-width="1.3" stroke-linejoin="round"/>
<path d="M8 8.35C7.64101 8.35 7.35 8.64101 7.35 9C7.35 9.35899 7.64101 9.65 8 9.65V8.35ZM15 9.65C15.359 9.65 15.65 9.35899 15.65 9C15.65 8.64101 15.359 8.35 15 8.35V9.65ZM8 12.35C7.64101 12.35 7.35 12.641 7.35 13C7.35 13.359 7.64101 13.65 8 13.65V12.35ZM15 13.65C15.359 13.65 15.65 13.359 15.65 13C15.65 12.641 15.359 12.35 15 12.35V13.65ZM8 16.35C7.64101 16.35 7.35 16.641 7.35 17C7.35 17.359 7.64101 17.65 8 17.65V16.35ZM15 17.65C15.359 17.65 15.65 17.359 15.65 17C15.65 16.641 15.359 16.35 15 16.35V17.65ZM4.5 9.5L4.04038 9.95962C4.17808 10.0973 4.37026 10.166 4.56405 10.1468C4.75784 10.1276 4.93281 10.0226 5.04083 9.86056L4.5 9.5ZM4.45962 8.54038C4.20578 8.28654 3.79422 8.28654 3.54038 8.54038C3.28654 8.79422 3.28654 9.20578 3.54038 9.45962L4.45962 8.54038ZM6.04083 8.36056C6.23996 8.06186 6.15925 7.6583 5.86056 7.45917C5.56186 7.26004 5.1583 7.34075 4.95917 7.63944L6.04083 8.36056ZM4.5 13.5L4.04038 13.9596C4.17808 14.0973 4.37026 14.166 4.56405 14.1468C4.75784 14.1276 4.93281 14.0226 5.04083 13.8606L4.5 13.5ZM4.45962 12.5404C4.20578 12.2865 3.79422 12.2865 3.54038 12.5404C3.28654 12.7942 3.28654 13.2058 3.54038 13.4596L4.45962 12.5404ZM6.04083 12.3606C6.23996 12.0619 6.15925 11.6583 5.86056 11.4592C5.56186 11.26 5.1583 11.3408 4.95917 11.6394L6.04083 12.3606ZM3.54038 17.0404C3.28654 17.2942 3.28654 17.7058 3.54038 17.9596C3.79422 18.2135 4.20578 18.2135 4.45962 17.9596L3.54038 17.0404ZM5.95962 16.4596C6.21346 16.2058 6.21346 15.7942 5.95962 15.5404C5.70578 15.2865 5.29422 15.2865 5.04038 15.5404L5.95962 16.4596ZM4.45962 15.5404C4.20578 15.2865 3.79422 15.2865 3.54038 15.5404C3.28654 15.7942 3.28654 16.2058 3.54038 16.4596L4.45962 15.5404ZM5.04038 17.9596C5.29422 18.2135 5.70578 18.2135 5.95962 17.9596C6.21346 17.7058 6.21346 17.2942 5.95962 17.0404L5.04038 17.9596ZM8 9.65H15V8.35H8V9.65ZM8 13.65H15V12.35H8V13.65ZM8 17.65H15V16.35H8V17.65ZM4.95962 9.04038L4.45962 8.54038L3.54038 9.45962L4.04038 9.95962L4.95962 9.04038ZM5.04083 9.86056L6.04083 8.36056L4.95917 7.63944L3.95917 9.13944L5.04083 9.86056ZM4.95962 13.0404L4.45962 12.5404L3.54038 13.4596L4.04038 13.9596L4.95962 13.0404ZM5.04083 13.8606L6.04083 12.3606L4.95917 11.6394L3.95917 13.1394L5.04083 13.8606ZM4.45962 17.9596L5.95962 16.4596L5.04038 15.5404L3.54038 17.0404L4.45962 17.9596ZM3.54038 16.4596L5.04038 17.9596L5.95962 17.0404L4.45962 15.5404L3.54038 16.4596Z" fill="#767676"/>
</svg>
