<svg width="24" height="24" viewBox="0 0 24 24" fill="none" xmlns="http://www.w3.org/2000/svg">
<path d="M23.8596 8.71923L21.4077 5.45003L21.5034 4.78051C21.5347 4.56142 21.461 4.34035 21.3045 4.18388L19.8129 2.69232L21.3045 1.20076C21.5791 0.926211 21.5791 0.480992 21.3045 0.206399C21.0299 -0.0681485 20.5847 -0.0681485 20.3101 0.206399L18.8186 1.69796L17.327 0.206399C17.1706 0.0498828 16.9495 -0.0235235 16.7304 0.00750781L9.76978 1.00187C9.61917 1.02338 9.47963 1.09318 9.37205 1.20076L0.75417 9.81864C-0.251065 10.8238 -0.251065 12.4595 0.75417 13.4647L8.04619 20.7567C8.19535 20.9059 8.35866 21.0324 8.53149 21.1373V21.4224C8.53149 22.8439 9.68803 24.0005 11.1096 24.0005H21.4221C22.8437 24.0005 24.0002 22.8439 24.0002 21.4224V9.14111C24.0002 8.989 23.9509 8.84092 23.8596 8.71923ZM1.74853 12.4703C1.29159 12.0134 1.29159 11.2699 1.74853 10.813L10.2007 2.36087L16.5812 1.44938L17.8242 2.69237L16.8298 3.68673L16.3326 3.18952C16.0581 2.91498 15.6128 2.91498 15.3383 3.18952C15.0637 3.46407 15.0637 3.90929 15.3383 4.18388L17.327 6.17265C17.4643 6.30995 17.6443 6.37862 17.8242 6.37862C18.0041 6.37862 18.1841 6.30995 18.3213 6.17265C18.5959 5.8981 18.5959 5.45289 18.3213 5.17829L17.8241 4.68109L18.8185 3.68673L20.0615 4.92971L19.1499 11.3102L10.6979 19.7624C10.4765 19.9837 10.1822 20.1056 9.86921 20.1056C9.55617 20.1056 9.26189 19.9837 9.04055 19.7624L1.74853 12.4703ZM22.594 21.4224C22.594 22.0685 22.0683 22.5942 21.4221 22.5942H11.1096C10.4925 22.5942 9.98574 22.1148 9.94125 21.5089C10.5772 21.4913 11.2079 21.241 11.6922 20.7567L20.3101 12.1389C20.4176 12.0313 20.4874 11.8917 20.5089 11.7411L21.1264 7.41878L22.594 9.37548V21.4224Z" fill="#7B46AC"/>
</svg>
