<svg width="200" height="200" viewBox="0 0 200 200" fill="none" xmlns="http://www.w3.org/2000/svg">
<path opacity="0.93" d="M58.8833 0H141C147.2 1.03333 152.1 5.85 154.15 11.6667C153.333 11.45 151.717 11.0167 150.917 10.8C148.45 7.83333 145.917 3.81667 141.5 4.06667C115.433 3.78333 89.35 4.1 63.2667 3.91667C59.35 3.9 54.8 3.71667 52.0333 7.08333C48.1667 10.2167 49.1 15.5667 48.9333 19.95C49.2167 76.2833 48.4667 132.633 49.1667 188.967C50.9667 193.233 55.1 196.55 59.9 196.067C87.55 196.083 115.217 196.15 142.867 196.033C142.7 197.017 142.383 199 142.217 200H55.6333C51.6 196.467 46.0667 192.867 46.2333 186.8C46.1167 129.517 46.25 72.2167 46.15 14.9333C45.4667 7.46667 51.9667 1.35 58.8833 0Z" fill="#A4A4A5"/>
<path d="M52.0333 7.08332C54.8 3.71665 59.35 3.89999 63.2666 3.91665C89.35 4.09999 115.433 3.78332 141.5 4.06665C145.917 3.81665 148.45 7.83332 150.917 10.8C150.967 44.6833 151.1 78.5667 150.917 112.45C145.6 105.4 150.167 96.0167 147.533 88.0667C147 91.3667 146.733 94.7167 146.017 97.9833C143.983 100.617 141.433 102.8 139.467 105.483C139.433 102.25 139.5 99.0167 139 95.8333C136.067 93.2 131.667 94.4 128.083 94.5C123.783 96.15 126.333 102.117 125.6 105.65C123.4 102 121.517 98.1667 119.667 94.3333C119.033 94.35 117.75 94.3667 117.117 94.3833C112.833 94.4333 108.55 94.4167 104.267 94.4667C101.433 94.5 98.5833 94.5 95.75 94.4667C91.4333 94.4167 87.1166 94.4 82.8 94.4667C82.2 94.5 81 94.55 80.3833 94.5667C78.35 98.2167 76.6 102.017 74.4666 105.617C74.45 102.317 74.5333 99 74 95.7333C70.9333 93.25 66.5833 94.3667 62.9666 94.5C58.85 96.2667 61.25 101.967 60.5333 105.467C58.6333 102.667 56.25 100.25 53.6833 98.0333C53.3166 94.7167 52.9833 91.4167 52.5333 88.1167C51 96.5333 52.0833 105.15 50.8166 113.617C49.75 127.933 50.6833 142.3 50.3 156.65C49.9833 167.417 51.0833 178.283 49.1666 188.967C48.4666 132.633 49.2166 76.2833 48.9333 19.95C49.1 15.5667 48.1666 10.2167 52.0333 7.08332ZM93.9166 12.4667C91.45 12.65 90.8333 15.8333 92.7166 17.2667C98.1666 18.2167 103.717 17.7333 109.2 17.4667C109.417 15.6333 110.4 13.0667 107.883 12.3833C103.25 11.9333 98.5333 11.9167 93.9166 12.4667ZM60.8 25.8667C61.4666 29.9667 58.4333 36.5 63.0666 38.7167C66.6833 38.6667 71.0666 40 74.05 37.3333C74.6333 33.5167 74.2833 29.6333 74.15 25.7833C69.7333 25.0167 65.2 24.95 60.8 25.8667ZM82.6 26.05C83.2833 30.1333 80.2833 36.5 84.9333 38.6833C88.6666 38.9333 92.75 39.5 96.1166 37.5C96.1833 33.6 96.1666 29.7167 95.95 25.8333C91.55 24.6667 86.9 24.2667 82.6 26.05ZM104.017 25.8667C103.883 29.6833 103.55 33.55 104.083 37.35C107.85 39.9667 113.717 39.4833 117.567 37.1667C117.483 33.5 117.467 29.8333 117.467 26.1667C113.2 24.1833 108.417 24.4833 104.017 25.8667ZM125.8 25.95C126.433 30.0333 123.433 36.6 128.15 38.7167C131.733 38.7 136.083 39.9667 139.033 37.3333C139.617 33.5667 139.283 29.7333 139.2 25.95C134.817 24.4833 130.183 24.4333 125.8 25.95ZM60.7 49.3167C60.6833 53.0833 60.7 56.8667 60.7333 60.65C64.9333 62.7167 70.05 62.65 74.2666 60.7C74.3166 56.8833 74.3166 53.0667 74.25 49.25C69.9833 47.3167 64.95 47.35 60.7 49.3167ZM82.4666 49.6333C82.5333 53.2 82.5 56.7667 82.4166 60.35C86.55 62.9 91.6166 62.4 96.0333 60.8833C96.1666 56.95 96.1666 53 96.0166 49.0667C91.65 47.6667 86.5 46.95 82.4666 49.6333ZM103.933 49.2C103.833 53.0833 103.833 56.9667 103.95 60.8667C108.25 62.5 113.483 62.95 117.533 60.4C117.467 56.7833 117.467 53.1667 117.533 49.5667C113.433 47.1167 108.217 47.4333 103.933 49.2ZM125.683 49.3833C125.667 53.15 125.667 56.9167 125.717 60.6833C129.917 62.7167 135.05 62.6667 139.283 60.7C139.333 56.9167 139.333 53.1333 139.283 49.35C135.083 47.3 129.867 47.25 125.683 49.3833ZM60.6666 72.6C60.6833 76.4167 60.6833 80.2333 60.8 84.05C65.2 85.4333 69.8 85.5833 74.1833 84.0667C74.3 80.2333 74.3166 76.4167 74.3166 72.5833C70.1666 70.45 64.8166 70.45 60.6666 72.6ZM82.65 73.05C82.3666 76.6833 82.5333 80.3167 82.5666 83.95C86.9333 85.2 91.5 84.9 95.9166 84.2667C96.1666 80.35 96.1833 76.4333 96.1166 72.5C92.0666 70.8 86.0833 69.7333 82.65 73.05ZM104.167 72.5667C103.5 76.4167 103.917 80.35 104.05 84.2333C108.483 84.9333 113.083 85.25 117.45 83.9333C117.45 80.25 117.467 76.5667 117.567 72.8833C113.733 70.5333 108 70.1 104.167 72.5667ZM125.733 72.5167C125.767 76.2667 125.3 80.1 126.1 83.8C128.767 85.35 132.083 85.35 135.083 85C141.933 85.0667 138.6 76.5667 139.233 72.3C134.917 70.75 129.95 70.4167 125.733 72.5167Z" fill="#0A0A0A"/>
<path d="M93.9167 12.4667C98.5333 11.9167 103.25 11.9333 107.883 12.3833C110.4 13.0667 109.417 15.6333 109.2 17.4667C103.717 17.7333 98.1667 18.2167 92.7167 17.2667C90.8333 15.8333 91.45 12.65 93.9167 12.4667Z" fill="#222222"/>
<path d="M150.917 10.8C151.717 11.0167 153.333 11.45 154.15 11.6667C154.7 14.4 154.65 17.2 154.683 19.9833C154.517 75.05 154.817 130.133 154.533 185.2C154.6 191.833 148.933 196.067 144.45 200H142.217C142.383 199 142.7 197.017 142.867 196.033C147.417 194.35 151.617 190.283 151 185.033C151 160.833 151.033 136.65 150.917 112.45C151.1 78.5667 150.967 44.6833 150.917 10.8Z" fill="#969696"/>
<path d="M60.8 25.8667C65.2 24.95 69.7333 25.0167 74.15 25.7833C74.2833 29.6333 74.6333 33.5167 74.05 37.3333C71.0666 40 66.6833 38.6667 63.0666 38.7167C58.4333 36.5 61.4666 29.9667 60.8 25.8667Z" fill="#4DDC65"/>
<path d="M82.6 26.05C86.9 24.2667 91.55 24.6667 95.95 25.8333C96.1667 29.7167 96.1833 33.6 96.1167 37.5C92.75 39.5 88.6667 38.9333 84.9334 38.6833C80.2834 36.5 83.2834 30.1333 82.6 26.05Z" fill="white"/>
<path d="M82.65 73.05C86.0834 69.7333 92.0667 70.8 96.1167 72.5C96.1834 76.4333 96.1667 80.35 95.9167 84.2667C91.5 84.9 86.9334 85.2 82.5667 83.95C82.5334 80.3167 82.3667 76.6833 82.65 73.05Z" fill="white"/>
<path d="M61 130.7C60.9834 126.583 59.6667 121.967 61.5667 118.133C65.35 117.017 69.6834 117.15 73.4833 118.1C75.2333 122 74.0333 126.517 74.05 130.65C69.7167 131.367 65.3333 131.3 61 130.7Z" fill="white"/>
<path d="M104.333 140.983C108.45 140.967 113 139.733 116.867 141.533C117.867 145.3 118 149.717 116.817 153.45C113 155.283 108.45 154 104.35 154.033C103.633 149.717 103.65 145.317 104.333 140.983Z" fill="white"/>
<path d="M126.05 185.683C126.033 181.617 124.567 176.85 126.65 173.183C130.333 171.95 134.617 172.2 138.35 173.083C140.367 176.85 138.983 181.55 138.983 185.667C134.7 186.333 130.333 186.317 126.05 185.683Z" fill="white"/>
<path d="M104.017 25.8667C108.417 24.4833 113.2 24.1833 117.467 26.1666C117.467 29.8333 117.483 33.5 117.567 37.1666C113.717 39.4833 107.85 39.9667 104.083 37.35C103.55 33.55 103.883 29.6833 104.017 25.8667Z" fill="#DEA5E7"/>
<path d="M125.8 25.95C130.183 24.4333 134.817 24.4833 139.2 25.95C139.283 29.7333 139.617 33.5667 139.033 37.3333C136.083 39.9667 131.733 38.7 128.15 38.7167C123.433 36.6 126.433 30.0333 125.8 25.95Z" fill="#989898"/>
<path d="M60.7 49.3167C64.95 47.35 69.9833 47.3167 74.25 49.25C74.3166 53.0667 74.3166 56.8833 74.2666 60.7C70.05 62.65 64.9333 62.7167 60.7333 60.65C60.7 56.8667 60.6833 53.0833 60.7 49.3167Z" fill="#1CB0FA"/>
<path d="M104.267 94.4667C108.55 94.4167 112.833 94.4333 117.117 94.3833C117.433 98.6833 117.533 103 117.533 107.333C113.083 108.083 108.55 108.067 104.067 107.633C103.767 103.25 103.833 98.85 104.267 94.4667Z" fill="#1CB0FA"/>
<path d="M61.1167 141.067C65.35 140.55 69.6333 140.517 73.8833 141.067C74.5 145.317 74.45 149.633 73.9333 153.917C69.6667 154.45 65.3667 154.5 61.1 153.917C60.5 149.65 60.5 145.333 61.1167 141.067Z" fill="#1CB0FA"/>
<path d="M82.4666 49.6333C86.5 46.95 91.65 47.6667 96.0166 49.0667C96.1666 53 96.1666 56.95 96.0333 60.8833C91.6166 62.4 86.55 62.9 82.4166 60.35C82.5 56.7667 82.5333 53.2 82.4666 49.6333Z" fill="#676767"/>
<path d="M104.2 118.75C107.817 116.067 112.95 117.917 117.15 117.85C117.433 121.9 118 126.05 117.1 130.067C113.467 131.933 108.483 131.567 104.617 130.45C103.067 126.85 103.817 122.567 104.2 118.75Z" fill="#676767"/>
<path d="M103.933 49.2C108.217 47.4333 113.433 47.1167 117.533 49.5667C117.467 53.1667 117.467 56.7833 117.533 60.4C113.483 62.95 108.25 62.5 103.95 60.8667C103.833 56.9667 103.833 53.0833 103.933 49.2Z" fill="#D3BEA1"/>
<path d="M125.683 49.3833C129.867 47.25 135.083 47.3 139.283 49.35C139.333 53.1333 139.333 56.9167 139.283 60.7C135.05 62.6667 129.917 62.7167 125.717 60.6833C125.667 56.9167 125.667 53.15 125.683 49.3833Z" fill="#57D3EB"/>
<path d="M60.6667 72.6C64.8167 70.45 70.1667 70.45 74.3167 72.5833C74.3167 76.4167 74.3 80.2333 74.1833 84.0667C69.8 85.5833 65.2 85.4333 60.8 84.05C60.6834 80.2333 60.6834 76.4167 60.6667 72.6Z" fill="#FFDF5D"/>
<path d="M104.167 72.5667C108 70.1 113.733 70.5333 117.567 72.8833C117.467 76.5667 117.45 80.25 117.45 83.9333C113.083 85.25 108.483 84.9333 104.05 84.2333C103.917 80.35 103.5 76.4167 104.167 72.5667Z" fill="#EE665E"/>
<path d="M84.05 140.95C87.9 140.25 91.8167 140.717 95.6834 141C96.3334 145.3 96.35 149.683 95.6834 153.983C91.6167 153.983 86.8333 155.5 83.2 153.333C82.3 149.567 81.2167 144.083 84.05 140.95Z" fill="#EE665E"/>
<path d="M125.733 72.5166C129.95 70.4166 134.917 70.75 139.233 72.3C138.6 76.5667 141.933 85.0667 135.083 85C132.083 85.35 128.767 85.35 126.1 83.8C125.3 80.1 125.767 76.2667 125.733 72.5166Z" fill="#666666"/>
<path d="M50.8167 113.617C52.0833 105.15 51 96.5333 52.5333 88.1166C52.9833 91.4166 53.3167 94.7166 53.6833 98.0333C56.25 100.25 58.6333 102.667 60.5333 105.467C62.1667 109.2 66.85 107.833 70.0833 108.017C72.0167 108.233 73.7 107.433 74.4667 105.617C76.6 102.017 78.35 98.2167 80.3833 94.5667C81 94.55 82.2 94.5 82.8 94.4667C82.5333 98.7833 82.4667 103.117 82.5667 107.433C87 108.067 91.5 108.067 95.9667 107.633C96.2333 103.25 96.15 98.85 95.75 94.4667C98.5833 94.5 101.433 94.5 104.267 94.4667C103.833 98.85 103.767 103.25 104.067 107.633C108.55 108.067 113.083 108.083 117.533 107.333C117.533 103 117.433 98.6833 117.117 94.3833C117.75 94.3667 119.033 94.35 119.667 94.3333C121.517 98.1666 123.4 102 125.6 105.65C127.283 109.283 131.983 107.7 135.133 107.95C137.133 108.25 138.517 107.067 139.467 105.483C141.433 102.8 143.983 100.617 146.017 97.9833C146.733 94.7167 147 91.3667 147.533 88.0667C150.167 96.0167 145.6 105.4 150.917 112.45C151.033 136.65 151 160.833 151 185.033C151.617 190.283 147.417 194.35 142.867 196.033C115.217 196.15 87.55 196.083 59.9 196.067C55.1 196.55 50.9667 193.233 49.1667 188.967C51.0833 178.283 49.9833 167.417 50.3 156.65C50.6833 142.3 49.75 127.933 50.8167 113.617ZM61 130.7C65.3333 131.3 69.7167 131.367 74.05 130.65C74.0333 126.517 75.2333 122 73.4833 118.1C69.6833 117.15 65.35 117.017 61.5667 118.133C59.6667 121.967 60.9833 126.583 61 130.7ZM82.9 117.833C82.4 122.017 82.4167 126.25 82.6333 130.45C86.95 131.517 91.4 131.233 95.7833 130.8C96.2667 126.433 96.5 121.967 95.4833 117.65C91.2833 117.433 87.0833 117.433 82.9 117.833ZM104.2 118.75C103.817 122.567 103.067 126.85 104.617 130.45C108.483 131.567 113.467 131.933 117.1 130.067C118 126.05 117.433 121.9 117.15 117.85C112.95 117.917 107.817 116.067 104.2 118.75ZM126.017 130.7C130.233 131.017 134.717 131.967 138.8 130.383C139.433 126.5 140.333 121.667 138.317 118.2C134.7 117 130.25 116.95 126.667 118.217C124.45 121.817 126.033 126.65 126.017 130.7ZM61.1167 141.067C60.5 145.333 60.5 149.65 61.1 153.917C65.3667 154.5 69.6667 154.45 73.9333 153.917C74.45 149.633 74.5 145.317 73.8833 141.067C69.6333 140.517 65.35 140.55 61.1167 141.067ZM84.05 140.95C81.2167 144.083 82.3 149.567 83.2 153.333C86.8333 155.5 91.6167 153.983 95.6833 153.983C96.35 149.683 96.3333 145.3 95.6833 141C91.8167 140.717 87.9 140.25 84.05 140.95ZM104.333 140.983C103.65 145.317 103.633 149.717 104.35 154.033C108.45 154 113 155.283 116.817 153.45C118 149.717 117.867 145.3 116.867 141.533C113 139.733 108.45 140.967 104.333 140.983ZM58.6 168.65C52.9 171.183 54.1833 178.3 54.2667 183.35C54.1667 188.017 58.9333 191.283 63.3167 190.667C88.9 190.533 114.5 190.917 140.083 190.483C147.3 188.983 146.3 180.517 145.967 174.95C146.217 170.967 142.1 167.75 138.367 167.867C114.467 167.783 90.5667 167.933 66.65 167.817C63.9833 168 61.0833 167.383 58.6 168.65Z" fill="#030303"/>
<path d="M60.5334 105.467C61.25 101.967 58.85 96.2667 62.9667 94.5C66.5834 94.3667 70.9334 93.25 74 95.7333C74.5334 99 74.45 102.317 74.4667 105.617C73.7 107.433 72.0167 108.233 70.0834 108.017C66.85 107.833 62.1667 109.2 60.5334 105.467Z" fill="#4CD1D9"/>
<path d="M82.8 94.4667C87.1167 94.4 91.4333 94.4167 95.75 94.4667C96.15 98.85 96.2333 103.25 95.9667 107.633C91.5 108.067 87 108.067 82.5667 107.433C82.4667 103.117 82.5333 98.7833 82.8 94.4667Z" fill="#D64CCF"/>
<path d="M125.6 105.65C126.333 102.117 123.783 96.15 128.083 94.5C131.667 94.4 136.067 93.2 139 95.8333C139.5 99.0167 139.433 102.25 139.467 105.483C138.517 107.067 137.133 108.25 135.133 107.95C131.983 107.7 127.283 109.283 125.6 105.65Z" fill="#FF8C00"/>
<path d="M82.9 117.833C87.0833 117.433 91.2833 117.433 95.4833 117.65C96.5 121.967 96.2666 126.433 95.7833 130.8C91.4 131.233 86.95 131.517 82.6333 130.45C82.4166 126.25 82.4 122.017 82.9 117.833Z" fill="#FFE05E"/>
<path d="M126.017 130.7C126.033 126.65 124.45 121.817 126.667 118.217C130.25 116.95 134.7 117 138.317 118.2C140.333 121.667 139.433 126.5 138.8 130.383C134.717 131.967 130.233 131.017 126.017 130.7Z" fill="#979797"/>
<path d="M58.6 168.65C61.0833 167.383 63.9833 168 66.65 167.817C90.5667 167.933 114.467 167.783 138.367 167.867C142.1 167.75 146.217 170.967 145.967 174.95C146.3 180.517 147.3 188.983 140.083 190.483C114.5 190.917 88.9 190.533 63.3167 190.667C58.9333 191.283 54.1667 188.017 54.2667 183.35C54.1833 178.3 52.9 171.183 58.6 168.65ZM60.7167 173.617C60.9333 177.45 59.95 181.583 61.3333 185.233C64.75 187 69.1333 186.15 72.8833 185.85C75.85 182.783 73.7167 177.583 74.3 173.7C70.0333 171.833 65.05 171.967 60.7167 173.617ZM83.3 173.133C81.9167 176.85 82.15 181.217 83.05 185.033C86.5833 187.083 91.7167 186.483 95.5667 185.4C96.6333 181.7 96.35 177.7 95.8 173.95C92.5333 171.217 87.2167 172.4 83.3 173.133ZM103.917 173.617C104.117 177.483 103.083 181.667 104.55 185.333C108.333 186.7 113.417 186.883 117.083 185.1C117.667 181.25 118.1 177.117 116.833 173.367C112.8 171.683 107.983 172.167 103.917 173.617ZM126.05 185.683C130.333 186.317 134.7 186.333 138.983 185.667C138.983 181.55 140.367 176.85 138.35 173.083C134.617 172.2 130.333 171.95 126.65 173.183C124.567 176.85 126.033 181.617 126.05 185.683Z" fill="#4F4F4F"/>
<path d="M60.7167 173.617C65.05 171.967 70.0333 171.833 74.3 173.7C73.7167 177.583 75.85 182.783 72.8833 185.85C69.1333 186.15 64.75 187 61.3333 185.233C59.95 181.583 60.9333 177.45 60.7167 173.617Z" fill="#4CDA64"/>
<path d="M103.917 173.617C107.983 172.167 112.8 171.683 116.833 173.367C118.1 177.117 117.667 181.25 117.083 185.1C113.417 186.883 108.333 186.7 104.55 185.333C103.083 181.667 104.117 177.483 103.917 173.617Z" fill="#4CDA64"/>
<path d="M83.3 173.133C87.2167 172.4 92.5333 171.217 95.8 173.95C96.35 177.7 96.6333 181.7 95.5666 185.4C91.7167 186.483 86.5833 187.083 83.05 185.033C82.15 181.217 81.9167 176.85 83.3 173.133Z" fill="#19C6F6"/>
</svg>
