<svg width="44" height="44" viewBox="0 0 44 44" fill="none" xmlns="http://www.w3.org/2000/svg">
<path d="M22.4583 24.2917C21.2428 24.2917 20.077 23.8088 19.2174 22.9492C18.3579 22.0897 17.875 20.9239 17.875 19.7083C17.875 18.4928 18.3579 17.327 19.2174 16.4674C20.077 15.6079 21.2428 15.125 22.4583 15.125C23.6739 15.125 24.8397 15.6079 25.6992 16.4674C26.5588 17.327 27.0417 18.4928 27.0417 19.7083C27.0417 20.3102 26.9231 20.9062 26.6928 21.4623C26.4624 22.0184 26.1248 22.5236 25.6992 22.9492C25.2736 23.3748 24.7684 23.7124 24.2123 23.9428C23.6562 24.1731 23.0602 24.2917 22.4583 24.2917ZM22.4583 6.875C19.0547 6.875 15.7905 8.22708 13.3838 10.6338C10.9771 13.0405 9.625 16.3047 9.625 19.7083C9.625 29.3333 22.4583 43.5417 22.4583 43.5417C22.4583 43.5417 35.2917 29.3333 35.2917 19.7083C35.2917 16.3047 33.9396 13.0405 31.5329 10.6338C29.1262 8.22708 25.8619 6.875 22.4583 6.875Z" fill="black"/>
</svg>
