<svg width="24" height="24" viewBox="0 0 24 24" fill="none" xmlns="http://www.w3.org/2000/svg">
<rect width="24" height="24" rx="12" fill="#212121"/>
<g opacity="0.05">
<path d="M15.2067 9.15504C15.2067 11.0119 13.7014 12.5171 11.8446 12.5171C9.98781 12.5171 8.48256 11.0119 8.48256 9.15504C8.48256 7.29822 9.98781 5.79297 11.8446 5.79297C13.7014 5.79297 15.2067 7.29822 15.2067 9.15504Z" fill="white"/>
<path d="M12.2192 11.774C11.9115 11.921 11.567 12.0033 11.2033 12.0033C10.8448 12.0033 10.505 11.9234 10.2007 11.7803V15.4388C10.2007 15.9962 10.6526 16.4481 11.21 16.4481C11.7674 16.4481 12.2192 15.9962 12.2192 15.4388V11.774Z" fill="white"/>
<path d="M13.0463 10.7365C13.2173 10.4098 13.3141 10.038 13.3141 9.64369C13.3141 9.34618 13.259 9.06152 13.1585 8.79937C13.2301 8.78328 13.3045 8.77478 13.3809 8.77478C14.171 8.77478 14.8932 9.07428 15.4383 9.56658C15.9817 9.07451 16.7026 8.77478 17.4935 8.77478C19.1853 8.77478 20.5567 10.1462 20.5567 11.838V11.8386L20.5527 15.4189C20.5521 15.9763 20.0997 16.4277 19.5423 16.427C18.9849 16.4264 18.5336 15.974 18.5342 15.4166L18.5382 11.838V11.8377C18.538 11.2609 18.0704 10.7933 17.4935 10.7933C16.9166 10.7933 16.4488 11.261 16.4488 11.838V15.4178C16.4488 15.9752 15.997 16.427 15.4396 16.427C14.8822 16.427 14.4303 15.9752 14.4303 15.4178L14.4303 11.838C14.4303 11.264 13.9609 10.7933 13.3809 10.7933C13.2636 10.7933 13.151 10.7733 13.0463 10.7365Z" fill="white"/>
<path fill-rule="evenodd" clip-rule="evenodd" d="M5.60968 10.7534C4.86722 10.7534 4.26622 11.3548 4.26622 12.0957C4.26622 12.8365 4.86722 13.4379 5.60968 13.4379C6.35214 13.4379 6.95314 12.8365 6.95314 12.0957C6.95314 11.3548 6.35214 10.7534 5.60968 10.7534ZM4.26622 15.1774C4.67772 15.3569 5.1321 15.4565 5.60968 15.4565C7.46598 15.4565 8.97168 13.9523 8.97168 12.0957C8.97168 10.2391 7.46598 8.73485 5.60968 8.73485C3.75338 8.73485 2.24768 10.2391 2.24768 12.0957V15.4254C2.24768 15.9828 2.69955 16.4347 3.25695 16.4347C3.81435 16.4347 4.26622 15.9828 4.26622 15.4254V15.1774Z" fill="white"/>
</g>
<ellipse cx="11.8655" cy="9.1097" rx="1.38385" ry="1.38387" fill="#7B46AC"/>
<path d="M12.8813 11.4302C12.5703 11.5665 12.2266 11.6422 11.8653 11.6422C11.5092 11.6422 11.1702 11.5687 10.8627 11.436V14.9039C10.8627 15.4613 11.3146 15.9132 11.872 15.9132C12.4294 15.9132 12.8813 15.4613 12.8813 14.9039V11.4302Z" fill="white"/>
<path d="M14.1285 10.2622C14.3044 9.91566 14.4036 9.52355 14.4036 9.10827C14.4036 8.8062 14.3511 8.51639 14.2548 8.24745C14.9618 8.29577 15.6044 8.58409 16.1003 9.03203C16.6438 8.53997 17.3647 8.24024 18.1556 8.24024C19.8474 8.24024 21.2188 9.61169 21.2188 11.3035V11.304L21.2148 14.8844C21.2142 15.4418 20.7618 15.8931 20.2044 15.8925C19.647 15.8919 19.1956 15.4395 19.1963 14.8821L19.2003 11.3035V11.3031C19.2001 10.7263 18.7324 10.2588 18.1556 10.2588C17.5786 10.2588 17.1109 10.7265 17.1109 11.3035V14.8832C17.1109 15.4406 16.659 15.8925 16.1016 15.8925C15.5442 15.8925 15.0924 15.4406 15.0924 14.8832V11.3035C15.0924 10.758 14.6684 10.3058 14.1285 10.2622Z" fill="white"/>
<path fill-rule="evenodd" clip-rule="evenodd" d="M6.27179 10.2184C5.52933 10.2184 4.92833 10.8198 4.92833 11.5606C4.92833 12.3015 5.52933 12.9029 6.27179 12.9029C7.01425 12.9029 7.61525 12.3015 7.61525 11.5606C7.61525 10.8198 7.01425 10.2184 6.27179 10.2184ZM4.92833 14.6424C5.33983 14.8219 5.79421 14.9214 6.27179 14.9214C8.12809 14.9214 9.63379 13.4172 9.63379 11.5606C9.63379 9.70403 8.12809 8.19983 6.27179 8.19983C4.41549 8.19983 2.90979 9.70403 2.90979 11.5606V14.8904C2.90979 15.4478 3.36166 15.8997 3.91906 15.8997C4.47646 15.8997 4.92833 15.4478 4.92833 14.8904V14.6424Z" fill="white"/>
</svg>
