<svg width="241" height="67" fill="none" xmlns="http://www.w3.org/2000/svg"><g opacity=".15" fill="#fff"><path d="M67.017 19.018c0 9.925-8.09 17.972-18.07 17.972s-18.07-8.047-18.07-17.972 8.09-17.971 18.07-17.971 18.07 8.046 18.07 17.971z"/><path fill-rule="evenodd" clip-rule="evenodd" d="M127.791 27.93c-3.16 0-5.722 2.547-5.722 5.69v19.503c0 3.037-2.475 5.498-5.529 5.498-3.053 0-5.528-2.461-5.528-5.498V33.62c0-9.217 7.512-16.688 16.779-16.688 4.327 0 8.294 1.633 11.289 4.32a16.768 16.768 0 0111.265-4.32c9.268 0 16.78 7.471 16.78 16.688v.003l-.022 19.505c-.003 3.037-2.481 5.496-5.535 5.492-3.053-.003-5.525-2.468-5.522-5.504l.022-19.496v-.002c-.001-3.142-2.563-5.69-5.723-5.69-3.16 0-5.722 2.549-5.722 5.692v19.502c0 3.037-2.476 5.498-5.529 5.498s-5.529-2.461-5.529-5.498V33.62c0-3.111-2.58-5.692-5.774-5.692zM234.629 27.93c-3.16 0-5.722 2.547-5.722 5.69v19.503c0 3.037-2.476 5.498-5.529 5.498s-5.529-2.461-5.529-5.498V33.62c0-9.217 7.513-16.688 16.78-16.688 3.054 0 5.529 2.461 5.529 5.498 0 3.037-2.475 5.498-5.529 5.498z"/><path d="M57.483 33.271c-1.685.8-3.573 1.25-5.565 1.25-1.964 0-3.825-.436-5.492-1.215v19.93c0 3.037 2.475 5.5 5.529 5.5 3.053 0 5.528-2.463 5.528-5.5V33.272zM63.375 27.62a12.742 12.742 0 001.467-5.954c0-1.62-.302-3.171-.852-4.6.392-.087.8-.133 1.218-.133 4.328 0 8.284 1.631 11.27 4.313a16.77 16.77 0 0111.258-4.313c9.267 0 16.78 7.471 16.78 16.688v.003l-.022 19.505c-.003 3.037-2.481 5.496-5.535 5.492-3.053-.003-5.526-2.468-5.522-5.504l.022-19.496v-.002c-.001-3.142-2.563-5.69-5.723-5.69-3.16 0-5.723 2.549-5.723 5.692v19.502c0 3.037-2.475 5.498-5.528 5.498-3.053 0-5.529-2.461-5.529-5.498V33.62c0-3.127-2.571-5.692-5.748-5.692-.643 0-1.26-.109-1.833-.309z"/><path fill-rule="evenodd" clip-rule="evenodd" d="M21.345 27.71c-4.067 0-7.359 3.276-7.359 7.313 0 4.035 3.292 7.312 7.36 7.312 4.066 0 7.358-3.277 7.358-7.313 0-4.035-3.292-7.312-7.359-7.312zm-7.359 24.101a18.448 18.448 0 007.36 1.52c10.168 0 18.416-8.194 18.416-18.309 0-10.114-8.248-18.309-18.417-18.309-10.168 0-18.416 8.195-18.416 18.31v18.14c0 3.036 2.475 5.498 5.528 5.498 3.054 0 5.529-2.462 5.529-5.498V51.81zM189.218 47.311l18.403-10.68c3.733-2.168 6.057-7.892 2.14-12.25-4.023-4.474-9.992-7.23-16.37-7.23-12.157 0-20.576 9.65-20.576 21.12 0 11.784 9.606 21.337 21.455 21.337 5.186 0 9.956-1.837 13.665-4.887a5.478 5.478 0 00.738-7.74 5.55 5.55 0 00-7.784-.735 10.367 10.367 0 01-6.619 2.365c-1.833 0-3.556-.471-5.052-1.3zm4.173-19.164c-5.253 0-9.245 3.828-9.506 9.527l14.428-8.374a11.136 11.136 0 00-4.922-1.153z"/></g><ellipse cx="48.989" cy="18.789" rx="7.396" ry="7.355" fill="#fff"/><path fill-rule="evenodd" clip-rule="evenodd" d="M124.863 25.016c-3.161 0-5.723 2.549-5.723 5.692V50.21c0 3.037-2.475 5.498-5.529 5.498-3.053 0-5.528-2.461-5.528-5.498V30.708c0-9.217 7.512-16.688 16.78-16.688 4.326 0 8.293 1.633 11.288 4.32a16.77 16.77 0 0111.266-4.32c9.267 0 16.779 7.471 16.779 16.688v.003l-.022 19.505c-.003 3.037-2.481 5.496-5.534 5.492-3.054-.003-5.526-2.468-5.523-5.504l.022-19.496v-.002c-.001-3.142-2.563-5.69-5.722-5.69-3.161 0-5.723 2.549-5.723 5.692V50.21c0 3.037-2.475 5.498-5.529 5.498-3.053 0-5.528-2.461-5.528-5.498V30.708c0-3.111-2.581-5.692-5.774-5.692zM231.7 25.016c-3.16 0-5.722 2.549-5.722 5.692V50.21c0 3.037-2.475 5.498-5.529 5.498-3.053 0-5.528-2.461-5.528-5.498V30.708c0-9.217 7.512-16.688 16.779-16.688 3.054 0 5.529 2.461 5.529 5.498 0 3.037-2.475 5.498-5.529 5.498z" fill="#fff"/><path d="M54.554 31.4a13.894 13.894 0 01-5.566 1.154c-1.95 0-3.807-.4-5.492-1.123v18.893c0 3.036 2.476 5.498 5.53 5.498 3.052 0 5.528-2.462 5.528-5.498V31.399zM61.393 24.946a13.682 13.682 0 001.472-6.193c0-1.66-.295-3.253-.836-4.728.083-.004.166-.005.25-.005 4.328 0 8.285 1.631 11.27 4.313a16.77 16.77 0 0111.258-4.313c9.268 0 16.78 7.471 16.78 16.688v.003l-.022 19.505c-.003 3.037-2.481 5.496-5.534 5.492-3.054-.003-5.526-2.468-5.523-5.504l.022-19.496v-.002c-.001-3.142-2.563-5.69-5.723-5.69-3.16 0-5.722 2.549-5.722 5.692V50.21c0 3.037-2.475 5.498-5.529 5.498-3.053 0-5.528-2.461-5.528-5.498V30.708c0-3.127-2.572-5.692-5.749-5.692-.302 0-.598-.024-.886-.07z" fill="#fff"/><path fill-rule="evenodd" clip-rule="evenodd" d="M18.416 24.797c-4.066 0-7.359 3.276-7.359 7.312 0 4.036 3.292 7.313 7.36 7.313 4.067 0 7.359-3.277 7.359-7.313s-3.292-7.312-7.36-7.312zm-7.359 24.101a18.447 18.447 0 007.36 1.52c10.168 0 18.416-8.194 18.416-18.309 0-10.114-8.248-18.309-18.416-18.309C8.247 13.8 0 21.995 0 32.11v18.14c0 3.036 2.475 5.498 5.529 5.498 3.053 0 5.528-2.462 5.528-5.498v-1.352zM186.289 44.398l18.403-10.68c3.734-2.168 6.057-7.892 2.14-12.25-4.023-4.474-9.991-7.23-16.369-7.23-12.158 0-20.577 9.65-20.577 21.12 0 11.784 9.606 21.338 21.455 21.338a21.46 21.46 0 0013.665-4.887 5.478 5.478 0 00.738-7.741c-1.945-2.34-5.43-2.67-7.784-.735a10.366 10.366 0 01-6.619 2.366c-1.833 0-3.556-.472-5.052-1.3zm4.174-19.164c-5.254 0-9.246 3.828-9.506 9.527l14.427-8.374a11.13 11.13 0 00-4.921-1.152z" fill="#fff"/></svg>