<svg width="25" height="24" viewBox="0 0 25 24" fill="none" xmlns="http://www.w3.org/2000/svg">
<path d="M7.15609 5.92857H9.05V9.57143H4.99984L6.09234 6.69129C6.26484 6.23214 6.68531 5.92857 7.15609 5.92857ZM10.775 9.57143V5.92857H13.6931C14.0417 5.92857 14.3723 6.09554 14.5916 6.38393L17.0066 9.57143H10.775ZM19.9822 9.60938L16.3884 4.86607C15.7344 4.00089 14.7425 3.5 13.6931 3.5H7.15609C5.74375 3.5 4.47516 4.40692 3.95406 5.78817L2.45906 9.73839C1.60375 10.0951 1 10.9717 1 12V16.25C1 16.9217 1.51391 17.4643 2.15 17.4643H3.34672C3.61984 19.1871 5.03938 20.5 6.75 20.5C8.46063 20.5 9.88016 19.1871 10.1533 17.4643H14.8467C15.1198 19.1871 16.5394 20.5 18.25 20.5C19.9606 20.5 21.3802 19.1871 21.6533 17.4643H22.85C23.4861 17.4643 24 16.9217 24 16.25V14.4286C24 11.9545 22.2463 9.91295 19.9822 9.60938ZM16.622 16.25C16.6952 16.0214 16.8107 15.8105 16.9618 15.6294C17.1129 15.4483 17.2965 15.3008 17.5021 15.1953C17.7076 15.0898 17.9309 15.0285 18.1591 15.0149C18.3873 15.0014 18.6157 15.0358 18.8312 15.1162C19.0466 15.1967 19.2448 15.3215 19.4142 15.4835C19.5836 15.6455 19.7208 15.8414 19.8178 16.0599C19.9149 16.2784 19.9699 16.515 19.9796 16.7561C19.9893 16.9972 19.9535 17.2379 19.8744 17.4643C19.8012 17.6929 19.6857 17.9038 19.5346 18.0849C19.3835 18.2659 19.1999 18.4135 18.9943 18.519C18.7888 18.6245 18.5655 18.6858 18.3373 18.6994C18.1091 18.7129 17.8807 18.6785 17.6652 18.598C17.4498 18.5176 17.2516 18.3928 17.0822 18.2308C16.9128 18.0688 16.7756 17.8728 16.6786 17.6544C16.5815 17.4359 16.5265 17.1993 16.5168 16.9582C16.5071 16.7171 16.5429 16.4764 16.622 16.25ZM6.75 15.0357C7.2075 15.0357 7.64626 15.2276 7.96976 15.5692C8.29326 15.9108 8.475 16.3741 8.475 16.8571C8.475 17.3402 8.29326 17.8035 7.96976 18.1451C7.64626 18.4867 7.2075 18.6786 6.75 18.6786C6.2925 18.6786 5.85374 18.4867 5.53024 18.1451C5.20674 17.8035 5.025 17.3402 5.025 16.8571C5.025 16.3741 5.20674 15.9108 5.53024 15.5692C5.85374 15.2276 6.2925 15.0357 6.75 15.0357Z" fill="black"/>
</svg>
