<svg width="32" height="32" viewBox="0 0 32 32" fill="none" xmlns="http://www.w3.org/2000/svg">
<rect width="32" height="32" rx="16" fill="#F7F7F7"/>
<path d="M20.6673 16C21.1978 16 21.7065 16.2108 22.0815 16.5858C22.4566 16.9609 22.6673 17.4696 22.6673 18V18.6667C22.6673 21.2947 20.1873 24 16.0007 24C11.814 24 9.33398 21.2947 9.33398 18.6667V18C9.33398 17.4696 9.5447 16.9609 9.91977 16.5858C10.2948 16.2108 10.8036 16 11.334 16H20.6673ZM16.0007 7.33337C16.9731 7.33337 17.9057 7.71968 18.5934 8.40732C19.281 9.09495 19.6673 10.0276 19.6673 11C19.6673 11.9725 19.281 12.9051 18.5934 13.5928C17.9057 14.2804 16.9731 14.6667 16.0007 14.6667C15.0282 14.6667 14.0956 14.2804 13.4079 13.5928C12.7203 12.9051 12.334 11.9725 12.334 11C12.334 10.0276 12.7203 9.09495 13.4079 8.40732C14.0956 7.71968 15.0282 7.33337 16.0007 7.33337Z" fill="#434343"/>
</svg>
