<svg width="24" height="24" viewBox="0 0 24 24" fill="none" xmlns="http://www.w3.org/2000/svg">
<path d="M18.2727 18.5C17.8568 18.5 17.4579 18.342 17.1639 18.0607C16.8698 17.7794 16.7045 17.3978 16.7045 17C16.7045 16.6022 16.8698 16.2206 17.1639 15.9393C17.4579 15.658 17.8568 15.5 18.2727 15.5C18.6886 15.5 19.0875 15.658 19.3816 15.9393C19.6757 16.2206 19.8409 16.6022 19.8409 17C19.8409 17.3978 19.6757 17.7794 19.3816 18.0607C19.0875 18.342 18.6886 18.5 18.2727 18.5ZM19.8409 9.5L21.89 12H17.2273V9.5M5.72727 18.5C5.31136 18.5 4.91249 18.342 4.6184 18.0607C4.32431 17.7794 4.15909 17.3978 4.15909 17C4.15909 16.6022 4.32431 16.2206 4.6184 15.9393C4.91249 15.658 5.31136 15.5 5.72727 15.5C6.14318 15.5 6.54205 15.658 6.83614 15.9393C7.13024 16.2206 7.29545 16.6022 7.29545 17C7.29545 17.3978 7.13024 17.7794 6.83614 18.0607C6.54205 18.342 6.14318 18.5 5.72727 18.5ZM20.3636 8H17.2273V4H2.59091C1.43045 4 0.5 4.89 0.5 6V17H2.59091C2.59091 17.7956 2.92135 18.5587 3.50953 19.1213C4.09771 19.6839 4.89546 20 5.72727 20C6.55909 20 7.35683 19.6839 7.94502 19.1213C8.5332 18.5587 8.86364 17.7956 8.86364 17H15.1364C15.1364 17.7956 15.4668 18.5587 16.055 19.1213C16.6432 19.6839 17.4409 20 18.2727 20C19.1045 20 19.9023 19.6839 20.4905 19.1213C21.0787 18.5587 21.4091 17.7956 21.4091 17H23.5V12L20.3636 8Z" fill="black"/>
</svg>
