<svg width="200" height="200" viewBox="0 0 200 200" fill="none" xmlns="http://www.w3.org/2000/svg">
<path opacity="0.33" d="M87.8833 2.68335C95.75 0.500013 104.133 1.66668 112.067 2.86668C110.617 3.00001 107.7 3.26668 106.25 3.40001C105.533 3.40001 104.1 3.41668 103.383 3.43335C100.05 3.38335 96.7166 3.31668 93.3833 3.18335C92.0166 3.05001 89.2666 2.81668 87.8833 2.68335Z" fill="#262B3A"/>
<path opacity="0.92" d="M73.2 6.33332C78.0667 4.99999 82.95 3.76665 87.8833 2.68332C89.2667 2.81665 92.0167 3.04999 93.3833 3.18332L93.6833 4.48332C90.5833 5.06665 86.5667 4.39999 84.9 7.74999C83.4333 10.0333 84.5667 13.35 81.7833 14.9833L80.3 15C80.9333 10.1833 76.5167 9.39999 73.0333 7.89999L73.2 6.33332Z" fill="#3B5CA9"/>
<path d="M93.3833 3.18332C96.7166 3.31665 100.05 3.38332 103.383 3.43332C101.2 5.93332 98.8166 8.78332 103.617 9.64999C99.8 9.34999 95.9833 9.34999 92.2 9.88332C91.2833 7.68332 94.9833 6.66665 93.6833 4.48332L93.3833 3.18332Z" fill="#6E81AA"/>
<path d="M103.383 3.43333C104.1 3.41666 105.533 3.39999 106.25 3.39999C107.15 8.28333 113.117 6.44999 116.633 8.39999C126.233 10.45 128.817 22.1 138.433 24.0333C140.883 24.4833 144 23.5 145.083 26.6C160.75 46.9 158.533 73.8833 157.917 97.95C158.45 103.817 156.85 109.567 155 115.1C148.517 115.717 149.15 106.767 143.1 105.1C145.467 99.6 142.333 94.65 140.767 89.5C141.433 83.1833 140.917 76.8333 140.667 70.5167C141.167 61.55 146.533 48.3333 138.45 41.6333L138.85 40.55C141.183 37.4167 137.333 34.9667 135.7 32.65C130.15 26.95 124.183 21.65 118.433 16.1833C116.483 14.5667 113.917 13.9833 111.617 13.0667C108.95 11.9167 106.3 10.7333 103.617 9.64999C98.8166 8.78333 101.2 5.93333 103.383 3.43333Z" fill="#294CB4"/>
<path opacity="0.96" d="M106.25 3.39997C107.7 3.26664 110.617 2.99997 112.067 2.86664C119.983 4.41664 127.9 6.29997 135.35 9.46664C137.017 11.4666 138.767 13.45 140.133 15.7C139.233 18.4 139.083 21.2666 138.433 24.0333C128.817 22.1 126.233 10.45 116.633 8.39997C113.117 6.44997 107.15 8.2833 106.25 3.39997Z" fill="#77808A"/>
<path d="M84.9 7.75C86.5666 4.4 90.5833 5.06667 93.6833 4.48334C94.9833 6.66667 91.2833 7.68334 92.2 9.88334C92.0666 11.6167 93.4666 13.7667 92.1 15.2167C90.85 13.9833 89.6 12.75 88.3666 11.5C87.2333 10.2333 86.0833 8.98334 84.9 7.75Z" fill="#516FB3"/>
<path opacity="0.85" d="M52.8 14.4333C59.3 11.0666 65.9667 7.73331 73.2 6.33331L73.0334 7.89998C72.0667 8.38331 70.15 9.33331 69.2001 9.81665C67.2834 10.1666 67.2501 12.2 66.5834 13.6333C62.4667 13.15 58.4 14 54.4334 15.0166L52.8 14.4333Z" fill="#31539D"/>
<path d="M69.2 9.81666C70.15 9.33333 72.0667 8.38333 73.0333 7.89999C76.5167 9.39999 80.9333 10.1833 80.3 15C77.9 15.0167 75.5167 14.9667 73.1333 14.8833C71.7333 13.2667 70.3667 11.6167 69.2 9.81666Z" fill="#8BA5B4"/>
<path d="M81.7833 14.9834C84.5667 13.35 83.4333 10.0334 84.9 7.75003C86.0833 8.98336 87.2333 10.2334 88.3667 11.5C86.9667 13.9667 84.6833 15.35 81.7833 14.9834Z" fill="#7A93B4"/>
<path d="M92.2 9.88331C95.9833 9.34998 99.8 9.34998 103.617 9.64998C106.3 10.7333 108.95 11.9166 111.617 13.0666L112.217 14.45C110.9 14.6 108.267 14.8833 106.95 15.0333C105 13.0666 100.667 9.53331 98.5333 12.9166C96.8667 15.0666 97.4667 17.7 97.65 20.1666C94.9167 20.1 92.3 19.3333 89.7833 18.3166C90.3667 17.55 91.5333 16 92.1 15.2166C93.4667 13.7666 92.0667 11.6166 92.2 9.88331Z" fill="#8CA0AA"/>
<path d="M66.5833 13.6333C67.25 12.2 67.2833 10.1667 69.2 9.81668C70.3666 11.6167 71.7333 13.2667 73.1333 14.8833C71.9833 14.9667 69.7 15.1 68.55 15.1667C68.05 14.7833 67.0833 14.0167 66.5833 13.6333Z" fill="#6787B0"/>
<path d="M135.35 9.46667C140.467 11.3167 145.517 13.3833 150.233 16.1167C150.067 18.55 151.283 20.3833 153.167 21.7667C176.75 48.8667 180.567 89.15 168.283 122.033C166.7 120.767 165.117 119.5 163.5 118.3C170.117 99.2334 169.633 78.4333 167.9 58.6167C161.617 43.5167 157.083 22.2333 140.133 15.7C138.767 13.45 137.017 11.4667 135.35 9.46667Z" fill="#263B8F"/>
<path d="M81.7834 14.9833C84.6834 15.35 86.9667 13.9667 88.3667 11.5C89.6 12.75 90.85 13.9833 92.1 15.2167C91.5334 16 90.3667 17.55 89.7834 18.3167L88.4334 18.5C84.5667 18.9167 80.75 19.7333 76.8834 20.2C73.8834 20.1333 67.8834 19.9833 64.8834 19.9167C66.0334 18.2833 67.3 16.7333 68.55 15.1667C69.7 15.1 71.9834 14.9667 73.1334 14.8833C75.5167 14.9667 77.9 15.0167 80.3 15L81.7834 14.9833Z" fill="#AABFA2"/>
<path d="M98.5333 12.9167C100.667 9.53332 105 13.0667 106.95 15.0333C106.533 15.4 105.7 16.1667 105.283 16.5333C103.133 15.15 100.85 13.9833 98.5333 12.9167Z" fill="#5E7BAA"/>
<path d="M54.4333 15.0167C58.4 14 62.4667 13.15 66.5834 13.6333C67.0834 14.0167 68.05 14.7833 68.55 15.1667C67.3 16.7333 66.0334 18.2833 64.8834 19.9167C67.8834 19.9833 73.8834 20.1333 76.8834 20.2C73.8 21.7833 72.4834 24.9667 71.3834 28.0333C70.7667 27.7333 69.5167 27.1167 68.9 26.8C62.35 24.8667 57.6834 20.9667 54.4333 15.0167Z" fill="#829D6B"/>
<path d="M98.5333 12.9167C100.85 13.9833 103.133 15.15 105.283 16.5333C106.333 17.6667 107.417 18.7833 108.517 19.8833C106.483 20.65 101.783 18.6167 101.717 21.7667C101.3 23.55 101.683 25.1833 102.85 26.6833C102 29.3833 100.65 31.8833 99.65 34.5333C99.1 34.7333 98 35.15 97.45 35.35C95.8667 27.0333 85.3 30.75 81.0333 25.0833C83.25 22.6167 85.7333 20.4167 88.4333 18.5L89.7833 18.3167C92.3 19.3333 94.9167 20.1 97.65 20.1667C97.4667 17.7 96.8667 15.0667 98.5333 12.9167Z" fill="#3564C0"/>
<path d="M111.617 13.0667C113.917 13.9833 116.483 14.5667 118.433 16.1833C117.117 19.7667 114.6 22.1667 110.95 23.3L109.783 22.7833C107.367 21.2833 104.417 21.0833 101.717 21.7667C101.783 18.6167 106.483 20.65 108.517 19.8833C110.65 19.95 112.783 19.9833 114.933 19.95C114.083 18.0833 113.15 16.2667 112.217 14.45L111.617 13.0667Z" fill="#5E7DA2"/>
<path opacity="0.97" d="M37.6 24.5C42.4834 20.8833 47.35 17.15 52.8 14.4333L54.4334 15.0167C57.6834 20.9667 62.35 24.8667 68.9 26.8C66.6167 27.85 64.3 28.8 62 29.7833C60.4667 21.35 51.1667 27.25 45.3 26.6C43.2334 24.1167 42.8 29.4667 39.8334 27.0333C39.2834 26.4 38.1667 25.1333 37.6 24.5Z" fill="#A6BC5C"/>
<path d="M106.95 15.0333C108.267 14.8833 110.9 14.6 112.217 14.45C113.15 16.2666 114.083 18.0833 114.933 19.95C112.783 19.9833 110.65 19.95 108.517 19.8833C107.417 18.7833 106.333 17.6666 105.283 16.5333C105.7 16.1666 106.533 15.4 106.95 15.0333Z" fill="#8FA18D"/>
<path d="M110.95 23.3C114.6 22.1667 117.117 19.7667 118.433 16.1833C124.183 21.65 130.15 26.95 135.7 32.65C137.333 34.9667 141.183 37.4167 138.85 40.55C132.683 38.6 132.85 29.5167 125.283 30.55C123.367 28.85 121.9 26.6667 119.833 25.1333C117.15 23.25 113.6 25.4667 110.95 23.3Z" fill="#2D55B8"/>
<path d="M138.433 24.0333C139.083 21.2666 139.233 18.4 140.133 15.7C157.083 22.2333 161.617 43.5166 167.9 58.6166C169.633 78.4333 170.117 99.2333 163.5 118.3C162.233 118.267 159.717 118.233 158.45 118.2C157.5 117.7 155.617 116.683 154.667 116.183L155 115.1C156.85 109.567 158.45 103.817 157.917 97.95C158.533 73.8833 160.75 46.9 145.083 26.6C144 23.5 140.883 24.4833 138.433 24.0333Z" fill="#2641A3"/>
<path opacity="0.83" d="M150.233 16.1167C159.95 21.65 169.8 28.2333 175.417 38.15C170.567 36.85 167.233 32.7167 163.367 29.7667C160.433 26.4833 157.667 22.8833 153.167 21.7667C151.283 20.3833 150.067 18.55 150.233 16.1167Z" fill="#1E2430"/>
<path d="M76.8833 20.2C80.75 19.7333 84.5666 18.9167 88.4333 18.5C85.7333 20.4167 83.25 22.6167 81.0333 25.0833C77.1333 21 78.55 27.4167 78.25 30.1333C75.8666 29.7833 73.4666 29.3167 71.3833 28.0333C72.4833 24.9667 73.8 21.7833 76.8833 20.2Z" fill="#90AA73"/>
<path d="M101.717 21.7667C104.417 21.0833 107.367 21.2833 109.783 22.7833C107.133 23.35 103.667 23.5167 102.85 26.6833C101.683 25.1833 101.3 23.55 101.717 21.7667Z" fill="#9BAF7B"/>
<path d="M153.167 21.7667C157.667 22.8833 160.433 26.4833 163.367 29.7667C168.317 41.2167 174.6 52.2333 177.15 64.6C177.483 84.4333 180.35 105.667 170.483 124C169.933 123.517 168.833 122.533 168.283 122.033C180.567 89.15 176.75 48.8667 153.167 21.7667Z" fill="#263680"/>
<path d="M78.25 30.1333C78.55 27.4167 77.1333 21 81.0333 25.0833C85.3 30.75 95.8667 27.0333 97.45 35.35C94.9334 36.5333 91.35 37.85 89.7 34.7C87.4833 30.5833 82.1167 31.4167 78.25 30.1333Z" fill="#A8C569"/>
<path d="M102.85 26.6833C103.667 23.5167 107.133 23.35 109.783 22.7833L110.95 23.3C113.6 25.4667 117.15 23.25 119.833 25.1333C121.9 26.6667 123.367 28.85 125.283 30.55C122.45 31.0833 117.967 29.1 117.75 33.4C113.267 29.8667 107.317 29.8833 102.85 26.6833Z" fill="#90A458"/>
<path d="M3 87.9333C7.28333 64.1333 17.8833 39.5 37.6 24.5C38.1667 25.1333 39.2833 26.4 39.8333 27.0333C39.9333 30.1333 39.9167 33.2333 39.8333 36.3333C39.4167 36.75 38.5833 37.5667 38.1667 37.9667C19.5167 53.1 11.75 79.8667 19.0667 102.7C23.4833 119.5 33.35 136.733 50.5667 142.783C65.5167 143.5 81.5833 144.183 95.3333 137.133C98.5167 136.333 100.067 133.267 102.133 131.033C105.033 136.183 109.067 140.533 115.1 141.733C115.117 145.117 114.733 148.5 113.683 151.733C94.9833 160.483 74.5 168.9 53.5 164.967C43.65 163.55 34.2333 159.867 26.6833 153.333C16.4667 146.683 13.1167 134.517 6.45 125.033C5.16666 120.733 3.91666 116.45 2.76666 112.133C3.11666 104.067 3.33333 96 3 87.9333Z" fill="#2C5EC5"/>
<path d="M39.8334 27.0334C42.8 29.4667 43.2334 24.1167 45.3 26.6C43.6334 30.9334 49.45 27.4834 48.5334 31.75C44.9667 32.8167 40.4667 33.3 41.5334 38.2C41.1167 37.7334 40.2667 36.8 39.8334 36.3334C39.9167 33.2334 39.9334 30.1334 39.8334 27.0334Z" fill="#90BE76"/>
<path d="M45.3 26.6C51.1667 27.25 60.4667 21.35 62 29.7833C63.1 32.1667 66.6334 31.6667 68.4167 33.4667C63.7834 33.6667 58.85 30.9333 54.5 33.1333C52.4667 32.9167 50.4667 32.4167 48.5333 31.75C49.45 27.4833 43.6333 30.9333 45.3 26.6Z" fill="#B6D35C"/>
<path d="M68.8999 26.8C69.5166 27.1167 70.7666 27.7334 71.3833 28.0334C73.4666 29.3167 75.8666 29.7834 78.2499 30.1334C82.1166 31.4167 87.4833 30.5834 89.6999 34.7C89.3333 35.5334 88.5833 37.2334 88.2166 38.0834C85.7499 36.3834 83.1166 34.6334 79.9499 34.85C79.0999 38.5 82.7666 38.5334 85.2333 39.4334C84.6666 40.25 83.5499 41.8667 82.9833 42.6834C80.2166 41.5834 77.7999 39.75 75.2333 38.2667C72.9166 36.7334 70.6499 35.1167 68.4166 33.4667C66.6333 31.6667 63.0999 32.1667 61.9999 29.7834C64.2999 28.8 66.6166 27.85 68.8999 26.8Z" fill="#88BA86"/>
<path d="M102.85 26.6833C107.317 29.8834 113.267 29.8667 117.75 33.4C117.5 35.75 114.467 38.9334 116.85 40.7667C111.833 41.2667 104.1 39.3667 102.75 33.9C101.967 34.0667 100.433 34.3667 99.65 34.5334C100.65 31.8834 102 29.3834 102.85 26.6833Z" fill="#86AD6C"/>
<path d="M117.75 33.4C117.967 29.1 122.45 31.0833 125.283 30.55C132.85 29.5166 132.683 38.6 138.85 40.55L138.45 41.6333C134.25 41.7166 128.767 42.7666 129.483 36.7666C126.55 37.8 121.283 37.3333 121.633 41.65C120.05 41.2833 118.45 40.9833 116.85 40.7666C114.467 38.9333 117.5 35.75 117.75 33.4Z" fill="#668C71"/>
<path d="M163.367 29.7667C167.233 32.7167 170.567 36.85 175.417 38.15C178.05 40.4667 180.217 43.2667 181.917 46.3167C180.917 51.9 183.3 57.6833 188.717 59.9167C190.133 72.1333 186.75 84.45 190.283 96.5C191.567 100.3 191.95 105.783 196.433 107.1C196.7 109.3 196.967 111.517 197.233 113.733C191.783 146.067 171.45 176.533 140.333 189C136.217 189.267 133.517 185.967 129.95 185.05C119.233 187.35 109.133 193.233 97.9834 193.117C101.433 191.133 106.433 191.05 108.617 187.417C109.317 187.267 110.717 186.967 111.417 186.817C114.6 186.667 117.383 185.3 119.833 183.333C125.75 183.883 130.317 179.583 135.067 176.75C150.767 167.017 161.2 151.35 170.8 136C173.067 128.567 174.85 120.867 179.1 114.233C180.867 97.65 182.817 80.7333 177.15 64.6C174.6 52.2333 168.317 41.2167 163.367 29.7667Z" fill="#253068"/>
<path d="M41.5333 38.2C40.4667 33.3 44.9667 32.8167 48.5333 31.75C50.4667 32.4167 52.4667 32.9167 54.5 33.1333C52.55 36.9 51.7 41.1167 49.8167 44.9C44.9 47.0333 48.3167 37.4167 43.7667 41.5333C43.2167 40.7 42.1 39.0333 41.5333 38.2Z" fill="#B6DC74"/>
<path d="M54.5 33.1333C58.85 30.9333 63.7833 33.6667 68.4167 33.4667C70.65 35.1167 72.9167 36.7333 75.2333 38.2667C75.0833 39.0833 74.7667 40.7333 74.6167 41.5667C72.9833 42.8833 71.35 44.2167 69.7 45.5167C67.75 44.5833 65.8333 43.6167 63.8667 42.7333C59.9833 40.1667 56.7333 45.05 53.9167 47.1333C49.95 47.9833 45.8 48.5333 42.1167 50.3667C40.2333 53.1833 39.0167 56.4 36.7 58.9167C35.2 56.1333 34.7167 52.9333 36.5833 50.1833C39.3333 47.6167 41.5167 44.5333 43.7667 41.5333C48.3167 37.4167 44.9 47.0333 49.8167 44.9C51.7 41.1167 52.55 36.9 54.5 33.1333Z" fill="#E6F480"/>
<path d="M99.65 34.5334C100.433 34.3667 101.967 34.0667 102.75 33.9C104.1 39.3667 111.833 41.2667 116.85 40.7667C118.45 40.9834 120.05 41.2834 121.633 41.65C120.45 42.6834 119.233 43.7167 118.017 44.75C114.85 47.0667 111.833 49.5834 108.55 51.7667C107.55 50.4167 106.55 49.0834 105.517 47.7667C104.533 42.2667 99.3667 47.4667 96.0667 47.2667C101.633 41.7667 91.7667 44.4167 90.0333 39.9834C89.5833 39.5 88.6667 38.55 88.2167 38.0834C88.5833 37.2334 89.3333 35.5334 89.7 34.7C91.35 37.85 94.9333 36.5334 97.45 35.35C98 35.15 99.1 34.7334 99.65 34.5334Z" fill="#97C474"/>
<path d="M79.95 34.85C83.1167 34.6333 85.75 36.3833 88.2167 38.0833C88.6667 38.55 89.5834 39.5 90.0334 39.9833C88.8334 39.85 86.4334 39.5667 85.2334 39.4333C82.7667 38.5333 79.1 38.5 79.95 34.85Z" fill="#74A998"/>
<path d="M38.1666 37.9666C38.5833 37.5666 39.4166 36.75 39.8333 36.3333C40.2666 36.8 41.1166 37.7333 41.5333 38.2C42.1 39.0333 43.2166 40.7 43.7666 41.5333C41.5166 44.5333 39.3333 47.6166 36.5833 50.1833C37.6166 46.15 41.1333 41.9833 38.1666 37.9666Z" fill="#83BA95"/>
<path d="M121.633 41.65C121.283 37.3333 126.55 37.8 129.483 36.7667C128.767 42.7667 134.25 41.7167 138.45 41.6333C146.533 48.3333 141.167 61.55 140.667 70.5167C140.917 76.8333 141.433 83.1833 140.767 89.5C142.333 94.65 145.467 99.6 143.1 105.1L141.583 105.35C137.817 103.583 134.317 101.283 130.5 99.6167C129.967 99.3667 128.917 98.8667 128.4 98.6167C127.3 95.95 124.467 93.1 126.95 90.3667C132.1 84.05 118 81 123.533 73.3333C123.467 64.55 121.817 55.8167 123.417 47.0833C125.067 46.0167 126.733 44.9833 128.333 43.85C126.083 43.15 123.85 42.45 121.633 41.65Z" fill="#2E59C0"/>
<path d="M19.0666 102.7C11.75 79.8667 19.5166 53.1 38.1666 37.9667C41.1333 41.9833 37.6166 46.15 36.5833 50.1833C34.7166 52.9333 35.2 56.1333 36.7 58.9167C37.15 60.2167 37.6166 61.5 38.1166 62.7667C31.2333 69.3833 32.0166 79.6333 30.2666 88.35C32.05 106.1 45.1833 125.533 64.5 125.65C73.2166 126.717 82.4 124.6 89.7333 119.717C94.7666 114.767 97.5666 108.217 101.65 102.567C107.4 109.667 95.35 113.867 97.1 121.383C96.5666 125.4 100.533 127.767 102.133 131.033C100.067 133.267 98.5166 136.333 95.3333 137.133C81.5833 144.183 65.5166 143.5 50.5666 142.783C33.35 136.733 23.4833 119.5 19.0666 102.7Z" fill="#3675CF"/>
<path d="M75.2334 38.2667C77.8 39.75 80.2167 41.5834 82.9834 42.6834C88.2834 40.3 86.4334 46.6334 86.95 49.9C82.7834 47.0834 77.2167 46.4 74.6167 41.5667C74.7667 40.7334 75.0834 39.0834 75.2334 38.2667Z" fill="#ADE192"/>
<path d="M82.9833 42.6833C83.55 41.8667 84.6667 40.25 85.2333 39.4333C86.4333 39.5667 88.8333 39.85 90.0333 39.9833C91.7667 44.4167 101.633 41.7667 96.0667 47.2667L94.5 47.4L93.3833 46.45C90.9333 42.9167 89.25 48.8 86.95 49.9C86.4333 46.6333 88.2833 40.3 82.9833 42.6833Z" fill="#5C95B7"/>
<path d="M53.9167 47.1333C56.7333 45.05 59.9833 40.1666 63.8667 42.7333C65.8333 43.6166 67.75 44.5833 69.7 45.5166C70.8333 48.1166 72.1 50.6833 73.4167 53.2C70.0167 56.3833 66.0667 58.7667 61.45 59.6833C55.1667 60.8167 51.3833 66.4166 46.4333 69.9C45.7167 66.45 43.1 65.2166 39.8333 65.05C39.4 64.4666 38.55 63.3333 38.1167 62.7666C37.6167 61.5 37.15 60.2166 36.7 58.9166C39.0167 56.4 40.2333 53.1833 42.1167 50.3666C45.8 48.5333 49.95 47.9833 53.9167 47.1333Z" fill="#F3FAA1"/>
<path d="M69.7 45.5166C71.35 44.2166 72.9833 42.8833 74.6166 41.5667C77.2166 46.4 82.7833 47.0833 86.9499 49.9C89.25 48.8 90.9333 42.9167 93.3833 46.45C93.7166 48.7167 94.1166 50.9833 94.6833 53.2C91.7 53.3167 88.7833 53.95 86.1166 55.3167C81.8499 54.35 77.7833 50.05 73.4166 53.2C72.1 50.6833 70.8333 48.1167 69.7 45.5166Z" fill="#CCF396"/>
<path d="M121.633 41.65C123.85 42.45 126.083 43.15 128.333 43.85C126.733 44.9833 125.067 46.0167 123.417 47.0833C121.6 46.3333 119.8 45.55 118.017 44.75C119.233 43.7167 120.45 42.6833 121.633 41.65Z" fill="#699683"/>
<path d="M96.0667 47.2667C99.3667 47.4667 104.533 42.2667 105.517 47.7667C102.083 47.7667 95.8667 52.5 94.5 47.4L96.0667 47.2667Z" fill="#7FB599"/>
<path d="M108.55 51.7667C111.833 49.5833 114.85 47.0667 118.017 44.75C119.8 45.55 121.6 46.3333 123.417 47.0833C121.817 55.8167 123.467 64.55 123.533 73.3333C118 81 132.1 84.05 126.95 90.3667C124.467 93.1 127.3 95.95 128.4 98.6167C125.6 99.2 122.883 98.3 120.15 97.8167C117.633 97.65 112.583 97.3333 110.067 97.1667C106.25 93.6167 111.583 88.6667 115.217 87.3667C120.483 86.6667 116.45 82.5 113.183 82.8167C108.95 75.9667 106.7 68.1833 105.35 60.3C106.417 57.45 107.3 54.5333 108.55 51.7667Z" fill="#366CC9"/>
<path d="M93.3834 46.45L94.5 47.4C95.8667 52.5 102.083 47.7667 105.517 47.7667C106.55 49.0833 107.55 50.4167 108.55 51.7667C107.3 54.5333 106.417 57.45 105.35 60.3C103.683 60.8 102.017 61.2833 100.333 61.75C98.5834 58.8167 96.6834 55.9667 94.6834 53.2C94.1167 50.9833 93.7167 48.7167 93.3834 46.45Z" fill="#9FD48F"/>
<path opacity="0.86" d="M181.917 46.3167C184.6 50.6333 186.583 55.3166 188.717 59.9166C183.3 57.6833 180.917 51.9 181.917 46.3167Z" fill="#2C2D25"/>
<path d="M73.4167 53.2C77.7833 50.05 81.85 54.35 86.1167 55.3167C84.6333 62.4667 97.7 62.6667 93.4833 68.9167C92.25 68.5833 89.8167 67.9 88.5833 67.55C82.3167 65.7833 75.85 68.3833 69.65 69.55C69.1167 63.6667 70.7833 58.3 73.4167 53.2Z" fill="#BBF0AD"/>
<path d="M61.45 59.6833C66.0667 58.7666 70.0167 56.3833 73.4167 53.2C70.7833 58.3 69.1167 63.6666 69.65 69.55C68.5334 71.9 67.4667 74.25 66.25 76.55C65.1167 78.5833 64.05 80.6666 62.8834 82.6833C60.1167 81.9 57.4333 80.8666 54.6333 80.1666C51.2833 77.2833 48.9 73.5166 46.4333 69.9C51.3834 66.4166 55.1667 60.8166 61.45 59.6833Z" fill="#E8FCBB"/>
<path d="M86.1166 55.3166C88.7833 53.95 91.7 53.3166 94.6833 53.2C96.6833 55.9666 98.5833 58.8166 100.333 61.75C97.2833 64.3833 95.4 68.1666 98.5333 71.6166C98.6 78.5333 93.1 72.9333 93.4833 68.9166C97.7 62.6666 84.6333 62.4666 86.1166 55.3166Z" fill="#A6E0A2"/>
<path d="M100.333 61.75C102.017 61.2833 103.683 60.8 105.35 60.3C106.7 68.1833 108.95 75.9667 113.183 82.8167C110.367 84.4667 112.517 87.65 115.217 87.3666C111.583 88.6666 106.25 93.6166 110.067 97.1666C107.967 98.4833 105.917 99.9 103.65 100.9C100.75 100.367 97.8167 100.067 94.8834 99.8666C91.5167 93.25 97.95 87.8 96.5 80.9333C98.8334 81.7 101.15 82.5 103.45 83.3667C102.017 84.5833 101.683 88.3167 104.35 87.6333C105.433 86.2333 110.117 83.6166 106.95 82.1333C105.25 81.3833 103.55 80.6167 101.85 79.8333C104.817 76.3833 100.583 74.1 98.5334 71.6167C95.4 68.1667 97.2834 64.3833 100.333 61.75Z" fill="#4184D0"/>
<path opacity="0.95" d="M188.717 59.9167C193.683 67.85 194.95 77.3334 197.2 86.2334C196.9 93.1834 196.65 100.133 196.433 107.1C191.95 105.783 191.567 100.3 190.283 96.5C186.75 84.45 190.133 72.1334 188.717 59.9167Z" fill="#434315"/>
<path d="M30.2667 88.35C32.0167 79.6333 31.2333 69.3833 38.1167 62.7667C38.55 63.3333 39.4 64.4667 39.8333 65.05C41.0167 70.2667 43.35 75.0667 46.9833 79.0333C45.5 90.6833 51.3667 109.767 66.6667 106.683C76.35 110.9 80.2667 96.6833 88.9333 99.2167C90.3167 100.133 91.7 101.05 93.0833 101.967C95.7 104.65 99.3 101.883 102.317 101.517L101.65 102.567C97.5667 108.217 94.7667 114.767 89.7333 119.717C82.4 124.6 73.2167 126.717 64.5 125.65C45.1833 125.533 32.05 106.1 30.2667 88.35Z" fill="#438DD4"/>
<path d="M39.8334 65.05C43.1 65.2167 45.7167 66.45 46.4334 69.9C44.75 72.85 47.55 75.9 46.9834 79.0333C43.35 75.0667 41.0167 70.2667 39.8334 65.05Z" fill="#9EC5BB"/>
<path d="M177.15 64.6C182.817 80.7333 180.867 97.65 179.1 114.233C174.85 120.867 173.067 128.567 170.8 136C161.2 151.35 150.767 167.017 135.067 176.75C130.317 179.583 125.75 183.883 119.833 183.333C134.3 174.7 149.633 164.233 156.633 148.3C161.017 140.05 165.4 131.85 170.483 124C180.35 105.667 177.483 84.4333 177.15 64.6Z" fill="#263476"/>
<path d="M69.65 69.55C75.85 68.3834 82.3167 65.7834 88.5833 67.55C84.7667 69.5167 81.4167 72.1167 78.55 75.3667C75.7333 82.15 89.7833 77.4334 85.7833 83.3333C80.2667 77.5167 76.8333 90.1833 71.0667 85.7C67.2333 84.55 67.0167 79.8334 66.25 76.55C67.4667 74.25 68.5333 71.9 69.65 69.55Z" fill="#5FACD6"/>
<path d="M78.55 75.3667C81.4166 72.1167 84.7666 69.5167 88.5833 67.55C89.8166 67.9 92.25 68.5834 93.4833 68.9167C93.1 72.9334 98.6 78.5334 98.5333 71.6167C100.583 74.1 104.817 76.3834 101.85 79.8334C99.1833 79.5334 93.8666 78.9167 91.2 78.6167C92.9333 79.45 94.7333 80.1667 96.5 80.9334C97.95 87.8 91.5166 93.25 94.8833 99.8667L93.1166 100.3C92.6333 98.5167 92.1833 96.7167 91.7666 94.9167C91.6333 94.1334 91.35 92.55 91.2166 91.7667C89.1 90.9 84.8833 89.1667 82.7666 88.3C83.8833 86.7167 84.9 85.0667 85.7833 83.3334C89.7833 77.4334 75.7333 82.15 78.55 75.3667Z" fill="#4C97D4"/>
<path d="M46.9833 79.0334C47.55 75.9 44.75 72.85 46.4333 69.9C48.9 73.5167 51.2833 77.2834 54.6333 80.1667C54.3667 89.7167 68.05 89.25 74.3167 91C77.7333 92.55 81.2 94.05 84.75 95.25C86.1833 96.5334 87.6 97.85 88.9333 99.2167C80.2667 96.6833 76.35 110.9 66.6667 106.683C51.3667 109.767 45.5 90.6833 46.9833 79.0334Z" fill="#54A3D7"/>
<path d="M62.8834 82.6833C64.05 80.6667 65.1167 78.5833 66.25 76.55C67.0167 79.8333 67.2334 84.55 71.0667 85.7C76.8334 90.1833 80.2667 77.5167 85.7834 83.3333C84.9 85.0667 83.8834 86.7167 82.7667 88.3C79.1334 93.2833 87.45 92.0667 91.2167 91.7667C91.35 92.55 91.6334 94.1333 91.7667 94.9167C89.4334 95.0333 87.0834 95.15 84.75 95.25C81.2 94.05 77.7334 92.55 74.3167 91C68.05 89.25 54.3667 89.7167 54.6334 80.1667C57.4334 80.8667 60.1167 81.9 62.8834 82.6833Z" fill="#BBF6C5"/>
<path d="M91.2 78.6166C93.8666 78.9166 99.1833 79.5333 101.85 79.8333C103.55 80.6166 105.25 81.3833 106.95 82.1333C106.083 82.45 104.317 83.0666 103.45 83.3666C101.15 82.5 98.8333 81.7 96.5 80.9333C94.7333 80.1666 92.9333 79.45 91.2 78.6166Z" fill="#7CBEB9"/>
<path d="M106.95 82.1334C110.117 83.6167 105.433 86.2334 104.35 87.6334C101.683 88.3167 102.017 84.5834 103.45 83.3667C104.317 83.0667 106.083 82.45 106.95 82.1334Z" fill="#5799C3"/>
<path d="M115.217 87.3666C112.517 87.65 110.367 84.4666 113.183 82.8166C116.45 82.5 120.483 86.6666 115.217 87.3666Z" fill="#7EB59B"/>
<path opacity="0.54" d="M197.2 86.2333C197.667 87.9667 198.083 89.7167 198.483 91.4667C198.433 97.15 198.367 102.85 198.467 108.533C198.083 110.283 197.683 112.017 197.233 113.733C196.967 111.517 196.7 109.3 196.433 107.1C196.65 100.133 196.9 93.1833 197.2 86.2333Z" fill="#383C2D"/>
<path opacity="0.3" d="M2.76661 112.133C0.333273 104.3 1.73327 95.85 2.99994 87.9333C3.33327 96 3.11661 104.067 2.76661 112.133Z" fill="#1D273E"/>
<path d="M91.2167 91.7667C87.45 92.0667 79.1333 93.2833 82.7667 88.3C84.8833 89.1667 89.1 90.9 91.2167 91.7667Z" fill="#9CDEC1"/>
<path opacity="0.09" d="M198.483 91.4667L200 91.9333V108.067L198.467 108.533C198.367 102.85 198.433 97.15 198.483 91.4667Z" fill="#0F100F"/>
<path d="M84.75 95.25C87.0833 95.15 89.4333 95.0334 91.7667 94.9167C92.1833 96.7167 92.6333 98.5167 93.1167 100.3L93.0833 101.967C91.7 101.05 90.3167 100.133 88.9333 99.2167C87.6 97.85 86.1833 96.5334 84.75 95.25Z" fill="#9EE1BA"/>
<path d="M110.067 97.1667C112.583 97.3333 117.633 97.65 120.15 97.8167C116.2 100.4 116.1 105.433 114.217 109.367C110.55 114.833 106.817 120.267 102.733 125.433C100.85 124.1 99.0166 122.683 97.1 121.383C95.35 113.867 107.4 109.667 101.65 102.567L102.317 101.517L103.65 100.9C105.917 99.9 107.967 98.4833 110.067 97.1667Z" fill="#99CC87"/>
<path d="M114.217 109.367C116.1 105.433 116.2 100.4 120.15 97.8167C122.883 98.3 125.6 99.2 128.4 98.6166C128.917 98.8666 129.967 99.3667 130.5 99.6167C120.75 109.617 117.95 123.6 109.717 134.517C106.15 133 104.933 128.433 102.733 125.433C106.817 120.267 110.55 114.833 114.217 109.367Z" fill="#95C16C"/>
<path d="M93.1166 100.3L94.8833 99.8666C97.8167 100.067 100.75 100.367 103.65 100.9L102.317 101.517C99.3 101.883 95.7 104.65 93.0833 101.967L93.1166 100.3Z" fill="#73B5BA"/>
<path d="M130.5 99.6167C134.317 101.283 137.817 103.583 141.583 105.35V106.867C139.567 106.45 137.55 105.983 135.517 105.633C134.217 111.933 129.2 116.5 127.467 122.683C124.133 127.95 124.333 134.883 119.9 139.45C117.883 139.333 116.467 138.1 115.2 136.65C113.633 135.467 111.8 134.75 109.717 134.517C117.95 123.6 120.75 109.617 130.5 99.6167Z" fill="#8DB158"/>
<path d="M135.517 105.633C137.55 105.983 139.567 106.45 141.583 106.867C142.75 112.333 138.983 116.45 135.967 120.467C135.95 123.783 135.8 127.167 136.833 130.35C131.517 132.817 129.483 139 123.567 140.317C122.65 140.1 120.817 139.667 119.9 139.45C124.333 134.883 124.133 127.95 127.467 122.683C129.2 116.5 134.217 111.933 135.517 105.633Z" fill="#8CA844"/>
<path d="M141.583 105.35L143.1 105.1C149.15 106.767 148.517 115.717 155 115.1L154.667 116.183C153.483 117.767 152.417 119.433 151.633 121.25C147.35 123.333 145.933 128.467 141.7 130.383C140.483 130.367 138.05 130.367 136.833 130.35C135.8 127.167 135.95 123.783 135.967 120.467C138.983 116.45 142.75 112.333 141.583 106.867V105.35Z" fill="#7F9738"/>
<path d="M151.633 121.25C152.417 119.433 153.483 117.767 154.667 116.183C155.617 116.683 157.5 117.7 158.45 118.2C159.85 119 161.283 119.783 162.717 120.55C158.217 129.167 153.717 138.267 153.133 148.117C146.917 150.617 144.383 157.4 138.533 160.433C137.633 155.533 141.967 152.8 143.7 148.8C146.983 139.85 153.8 132.717 156.433 123.45C154.867 122.617 153.267 121.883 151.633 121.25Z" fill="#817A20"/>
<path d="M158.45 118.2C159.717 118.233 162.233 118.267 163.5 118.3C165.117 119.5 166.7 120.767 168.283 122.033C168.833 122.533 169.933 123.517 170.483 124C165.4 131.85 161.017 140.05 156.633 148.3C155.767 148.267 154 148.167 153.133 148.117C153.717 138.267 158.217 129.167 162.717 120.55C161.283 119.783 159.85 119 158.45 118.2Z" fill="#6E661F"/>
<path d="M97.1 121.383C99.0166 122.683 100.85 124.1 102.733 125.433C104.933 128.433 106.15 133 109.717 134.517C111.8 134.75 113.633 135.467 115.2 136.65C115.167 137.933 115.133 140.467 115.1 141.733C109.067 140.533 105.033 136.183 102.133 131.033C100.533 127.767 96.5666 125.4 97.1 121.383Z" fill="#C4C869"/>
<path d="M151.633 121.25C153.267 121.883 154.867 122.617 156.433 123.45C153.8 132.717 146.983 139.85 143.7 148.8C141.967 152.8 137.633 155.533 138.533 160.433C130.2 169.95 113.067 172.683 111.417 186.817C110.717 186.967 109.317 187.267 108.617 187.417C108.083 186.883 106.983 185.8 106.433 185.267C106.983 179.583 107.717 173.917 108.267 168.25C108.517 167.783 109 166.833 109.25 166.367C111.967 172.067 118.617 167.717 122.867 166.183C130.517 158.1 136.283 148.25 141.983 138.683C143.783 136.167 141.767 133.117 141.7 130.383C145.933 128.467 147.35 123.333 151.633 121.25Z" fill="#8A8726"/>
<path d="M6.45001 125.033C13.1167 134.517 16.4667 146.683 26.6833 153.333C34.2333 159.867 43.65 163.55 53.5 164.967C74.5 168.9 94.9833 160.483 113.683 151.733C113.15 154.117 112.6 156.5 112.017 158.883C111.333 161.467 110.35 163.95 109.25 166.367C109 166.833 108.517 167.783 108.267 168.25C107.5 169.8 106.883 171.417 106.433 173.083C103.967 175.117 101.917 178.15 98.5 178.55C87 181.05 75.35 184.15 63.45 183.267C55.35 181.717 47.6833 178.633 39.65 176.9C22.25 165.233 10.95 145.25 6.45001 125.033Z" fill="#274CB5"/>
<path d="M136.833 130.35C138.05 130.367 140.483 130.367 141.7 130.383C141.767 133.117 143.783 136.167 141.983 138.683C136.283 148.25 130.517 158.1 122.867 166.183C118.617 167.717 111.967 172.067 109.25 166.367C110.35 163.95 111.333 161.467 112.017 158.883C117.4 159.983 120.833 153.917 123.367 150.033C125.7 147.167 125.183 143.383 123.567 140.317C129.483 139 131.517 132.817 136.833 130.35Z" fill="#A09D2F"/>
<path d="M115.2 136.65C116.467 138.1 117.883 139.333 119.9 139.45C120.817 139.667 122.65 140.1 123.567 140.317C125.183 143.383 125.7 147.167 123.367 150.033C120.833 153.917 117.4 159.983 112.017 158.883C112.6 156.5 113.15 154.117 113.683 151.733C114.733 148.5 115.117 145.117 115.1 141.733C115.133 140.467 115.167 137.933 115.2 136.65Z" fill="#B3AA47"/>
<path d="M138.533 160.433C144.383 157.4 146.917 150.617 153.133 148.117C154 148.167 155.767 148.267 156.633 148.3C149.633 164.233 134.3 174.7 119.833 183.333C117.383 185.3 114.6 186.667 111.417 186.817C113.067 172.683 130.2 169.95 138.533 160.433Z" fill="#2A408D"/>
<path d="M106.433 173.083C106.883 171.417 107.5 169.8 108.267 168.25C107.717 173.917 106.983 179.583 106.433 185.267C105.233 183.7 104.6 181.867 104.533 179.75C105.183 177.533 105.867 175.333 106.433 173.083Z" fill="#496461"/>
<path d="M98.5 178.55C101.917 178.15 103.967 175.117 106.433 173.083C105.867 175.333 105.183 177.533 104.533 179.75C103.3 182.333 104.017 186.533 100.533 187.283C88.4 191.033 75.45 189.65 62.9334 190.417C54.7667 186.717 46.3667 182.95 39.65 176.9C47.6834 178.633 55.35 181.717 63.45 183.267C75.35 184.15 87 181.05 98.5 178.55Z" fill="#25409E"/>
<path opacity="0.98" d="M100.533 187.283C104.017 186.533 103.3 182.333 104.533 179.75C104.6 181.867 105.233 183.7 106.433 185.267C106.983 185.8 108.083 186.883 108.617 187.417C106.433 191.05 101.433 191.133 97.9834 193.117C89.6167 193.4 81.2167 193.133 72.8834 193.85C69.4834 192.967 66.15 191.8 62.9333 190.417C75.45 189.65 88.4 191.033 100.533 187.283Z" fill="#263983"/>
<path opacity="0.95" d="M97.9833 193.117C109.133 193.233 119.233 187.35 129.95 185.05C133.517 185.967 136.217 189.267 140.333 189C134.05 192.083 127.317 194.267 120.433 195.583C106.817 194.967 93.15 194.483 79.5333 195.55C77.3 195.05 75.0666 194.517 72.8833 193.85C81.2166 193.133 89.6166 193.4 97.9833 193.117Z" fill="#232A50"/>
<path opacity="0.83" d="M79.5333 195.55C93.15 194.483 106.817 194.967 120.433 195.583C117.683 196.267 114.9 196.767 112.117 197.3C104.067 196.85 96 196.583 87.9333 197.1C85.1167 196.75 82.2833 196.3 79.5333 195.55Z" fill="#1B1E2D"/>
<path opacity="0.49" d="M87.9333 197.1C96 196.583 104.067 196.85 112.117 197.3C104.25 199.533 95.8834 198.167 87.9333 197.1Z" fill="#2A2B2D"/>
</svg>
