<svg width="14" height="14" viewBox="0 0 14 14" fill="none" xmlns="http://www.w3.org/2000/svg">
<path d="M12.3333 0.333252H5.66665C4.93131 0.333252 4.33331 0.931252 4.33331 1.66659V4.33325H1.66665C0.931313 4.33325 0.333313 4.93125 0.333313 5.66659V12.3333C0.333313 13.0686 0.931313 13.6666 1.66665 13.6666H8.33331C9.06865 13.6666 9.66665 13.0686 9.66665 12.3333V9.66659H12.3333C13.0686 9.66659 13.6666 9.06859 13.6666 8.33325V1.66659C13.6666 0.931252 13.0686 0.333252 12.3333 0.333252ZM1.66665 12.3333V5.66659H8.33331L8.33465 12.3333H1.66665ZM12.3333 8.33325H9.66665V5.66659C9.66665 4.93125 9.06865 4.33325 8.33331 4.33325H5.66665V1.66659H12.3333V8.33325Z" fill="white"/>
</svg>
