<svg xmlns="http://www.w3.org/2000/svg" width="20" height="20" fill="none" viewBox="0 0 20 20">
  <path fill="#7B46AC" d="M10 0C4.486 0 0 4.486 0 10s4.486 10 10 10 10-4.486 10-10S15.514 0 10 0z"/>
  <path fill="#fff" d="M8.886 11.944c0-.638.077-1.146.232-1.524.155-.378.438-.75.848-1.114.415-.37.69-.668.827-.896.137-.232.205-.476.205-.731 0-.77-.355-1.156-1.066-1.156-.338 0-.609.105-.814.315-.2.205-.305.49-.314.854H6.82c.01-.87.29-1.551.841-2.044.556-.492 1.313-.738 2.27-.738.966 0 1.716.235 2.249.704.533.465.8 1.124.8 1.976 0 .387-.087.754-.26 1.1-.174.342-.476.723-.91 1.142l-.553.526a1.875 1.875 0 00-.595 1.17l-.027.416h-1.75zm-.198 2.099c0-.305.102-.556.307-.752.21-.2.476-.3.8-.3.323 0 .588.1.793.3.21.196.314.447.314.752 0 .3-.102.55-.307.745-.2.196-.467.294-.8.294s-.602-.098-.807-.294a.998.998 0 01-.3-.745z"/>
</svg>
