<svg width="24" height="24" viewBox="0 0 24 24" fill="none" xmlns="http://www.w3.org/2000/svg">
    <path
        d="M11.2127 16.8531H12.9048V12.9518H16.8296V11.2597H12.9048V7.17039H11.2127V11.2597H7.14689V12.9518H11.2127V16.8531ZM11.9882 22C10.6095 22 9.31297 21.7415 8.09871 21.2244C6.88445 20.7074 5.82295 19.9945 4.91422 19.0858C4.00548 18.177 3.2926 17.1195 2.77556 15.913C2.25852 14.7066 2 13.4062 2 12.0118C2 10.6173 2.25852 9.31297 2.77556 8.09871C3.2926 6.88445 4.00548 5.82687 4.91422 4.92597C5.82295 4.02507 6.88053 3.31218 8.08696 2.78731C9.29338 2.26244 10.5938 2 11.9882 2C13.3827 2 14.687 2.26244 15.9013 2.78731C17.1156 3.31218 18.1731 4.02507 19.074 4.92597C19.9749 5.82687 20.6878 6.88445 21.2127 8.09871C21.7376 9.31297 22 10.6173 22 12.0118C22 13.4062 21.7376 14.7066 21.2127 15.913C20.6878 17.1195 19.9749 18.1731 19.074 19.074C18.1731 19.9749 17.1156 20.6878 15.9013 21.2127C14.687 21.7376 13.3827 22 11.9882 22Z"
        fill="black" />
</svg>
