<svg width="24" height="24" viewBox="0 0 24 24" fill="none" xmlns="http://www.w3.org/2000/svg">
    <path
        d="M7.36576 16.5875H13.786V15.1868H7.36576V16.5875ZM7.36576 12.7121H16.6342V11.3113H7.36576V12.7121ZM7.36576 8.81323H16.6342V7.41245H7.36576V8.81323ZM5.19455 21C4.58755 21 4.07004 20.786 3.64202 20.358C3.21401 19.93 3 19.4125 3 18.8054V5.2179C3 4.61089 3.21401 4.08949 3.64202 3.6537C4.07004 3.2179 4.58755 3 5.19455 3H18.7821C19.3891 3 19.9105 3.2179 20.3463 3.6537C20.7821 4.08949 21 4.61089 21 5.2179V18.8054C21 19.4125 20.7821 19.93 20.3463 20.358C19.9105 20.786 19.3891 21 18.7821 21H5.19455Z"
        fill="black" />
</svg>
