<svg width="24" height="24" viewBox="0 0 24 24" fill="none" xmlns="http://www.w3.org/2000/svg">
    <path
        d="M15.77 17.3679L12.065 21L10.7 19.65L11.935 18.4286C11.1117 18.4071 10.31 18.2411 9.53 17.9304C8.75 17.6196 8.04583 17.1536 7.4175 16.5321C6.78917 15.9107 6.3125 15.2036 5.9875 14.4107C5.6625 13.6179 5.5 12.8143 5.5 12C5.5 11.3786 5.58667 10.7679 5.76 10.1679C5.93333 9.56786 6.20417 9 6.5725 8.46429L8.0025 9.87857C7.82917 10.2214 7.69375 10.575 7.59625 10.9393C7.49875 11.3036 7.45 11.6679 7.45 12.0321C7.45 12.5893 7.56375 13.1464 7.79125 13.7036C8.01875 14.2607 8.34917 14.7536 8.7825 15.1821C9.2375 15.6321 9.75208 15.9643 10.3262 16.1786C10.9004 16.3929 11.4908 16.4893 12.0975 16.4679L10.7 15.0857L12.065 13.7357L15.77 17.3679Z"
        fill="black" />
    <path
        d="M18.24 13.8321C18.0667 14.4321 17.7958 15 17.4275 15.5357L15.9975 14.1214C16.1708 13.7786 16.3062 13.425 16.4037 13.0607C16.5012 12.6964 16.55 12.3321 16.55 11.9679C16.55 11.4107 16.4362 10.8536 16.2087 10.2964C15.9812 9.73929 15.6508 9.24643 15.2175 8.81786C14.7842 8.38929 14.2642 8.0625 13.6575 7.8375C13.0508 7.6125 12.455 7.5 11.87 7.5L13.3 8.91429L11.935 10.2643L8.23 6.63214L11.935 3L13.3 4.35L12.065 5.60357C12.8883 5.60357 13.6954 5.75357 14.4862 6.05357C15.2771 6.35357 15.9867 6.81429 16.615 7.43571C17.2433 8.05714 17.7146 8.76964 18.0288 9.57321C18.3429 10.3768 18.5 11.1857 18.5 12C18.5 12.6214 18.4133 13.2321 18.24 13.8321Z"
        fill="black" />
</svg>
