<svg width="24" height="24" viewBox="0 0 24 24" fill="none" xmlns="http://www.w3.org/2000/svg">
    <path
        d="M15.1845 16.6416L16.6416 15.2315L13.0223 11.5887V7.09988H11.0952V12.3878L15.1845 16.6416ZM11.9882 22C10.6095 22 9.31297 21.7376 8.09871 21.2127C6.88445 20.6878 5.82687 19.9749 4.92597 19.074C4.02507 18.1731 3.31218 17.1156 2.78731 15.9013C2.26244 14.687 2 13.3905 2 12.0118C2 10.633 2.26244 9.33647 2.78731 8.12221C3.31218 6.90795 4.02507 5.85037 4.92597 4.94947C5.82687 4.04857 6.88445 3.33177 8.09871 2.79906C9.31297 2.26635 10.6095 2 11.9882 2C13.367 2 14.6635 2.26635 15.8778 2.79906C17.092 3.33177 18.1496 4.04857 19.0505 4.94947C19.9514 5.85037 20.6682 6.90795 21.2009 8.12221C21.7336 9.33647 22 10.633 22 12.0118C22 13.3905 21.7336 14.687 21.2009 15.9013C20.6682 17.1156 19.9514 18.1731 19.0505 19.074C18.1496 19.9749 17.092 20.6878 15.8778 21.2127C14.6635 21.7376 13.367 22 11.9882 22Z"
        fill="black" />
</svg>
