<svg width="24" height="24" viewBox="0 0 24 24" fill="none" xmlns="http://www.w3.org/2000/svg">
    <path
        d="M15.6 16.85L16.825 15.625L12.9 11.675V6.69998H11.25V12.325L15.6 16.85ZM12 22.15C10.6167 22.15 9.30417 21.8833 8.0625 21.35C6.82083 20.8166 5.74167 20.0916 4.825 19.175C3.90833 18.2583 3.18333 17.1791 2.65 15.9375C2.11667 14.6958 1.85 13.3833 1.85 12C1.85 10.6166 2.11667 9.30414 2.65 8.06248C3.18333 6.82081 3.90833 5.74164 4.825 4.82498C5.74167 3.90831 6.82083 3.18331 8.0625 2.64998C9.30417 2.11664 10.6167 1.84998 12 1.84998C13.3833 1.84998 14.6958 2.11664 15.9375 2.64998C17.1792 3.18331 18.2583 3.90831 19.175 4.82498C20.0917 5.74164 20.8167 6.82081 21.35 8.06248C21.8833 9.30414 22.15 10.6166 22.15 12C22.15 13.3833 21.8833 14.6958 21.35 15.9375C20.8167 17.1791 20.0917 18.2583 19.175 19.175C18.2583 20.0916 17.1833 20.8166 15.95 21.35C14.7167 21.8833 13.4 22.15 12 22.15ZM12 20.45C14.3167 20.45 16.3042 19.625 17.9625 17.975C19.6208 16.325 20.45 14.3333 20.45 12C20.45 9.68331 19.6208 7.69581 17.9625 6.03748C16.3042 4.37914 14.3167 3.54998 12 3.54998C9.68333 3.54998 7.69583 4.37914 6.0375 6.03748C4.37917 7.69581 3.55 9.68331 3.55 12C3.55 14.3333 4.37917 16.325 6.0375 17.975C7.69583 19.625 9.68333 20.45 12 20.45Z"
        fill="black" />
</svg>
