<svg width="24" height="24" viewBox="0 0 24 24" fill="none" xmlns="http://www.w3.org/2000/svg">
    <path
        d="M6.275 19C4.80833 19 3.5625 18.4875 2.5375 17.4625C1.5125 16.4375 1 15.1916 1 13.725C1 12.4083 1.42083 11.2625 2.2625 10.2875C3.10417 9.31245 4.15833 8.72495 5.425 8.52495C5.675 7.12495 6.35833 5.88745 7.475 4.81245C8.59167 3.73745 9.85833 3.19995 11.275 3.19995C11.675 3.19995 12.025 3.31245 12.325 3.53745C12.625 3.76245 12.775 4.06662 12.775 4.44995V11.8L14.85 9.72495L15.925 10.8L12.025 14.7L8.125 10.8L9.2 9.72495L11.275 11.8V4.57495C9.84167 4.75828 8.71667 5.38745 7.9 6.46245C7.08333 7.53745 6.675 8.69995 6.675 9.94995H6.2C5.18333 9.94995 4.3125 10.3083 3.5875 11.025C2.8625 11.7416 2.5 12.6416 2.5 13.725C2.5 14.8083 2.875 15.7083 3.625 16.425C4.375 17.1416 5.25833 17.5 6.275 17.5H18.775C19.525 17.5 20.1667 17.2333 20.7 16.7C21.2333 16.1666 21.5 15.525 21.5 14.775C21.5 14.025 21.2333 13.3833 20.7 12.85C20.1667 12.3166 19.525 12.05 18.775 12.05H17.2V9.94995C17.2 8.81662 16.925 7.83745 16.375 7.01245C15.825 6.18745 15.1167 5.53328 14.25 5.04995V3.42495C15.6 3.90828 16.6792 4.74995 17.4875 5.94995C18.2958 7.14995 18.7 8.48328 18.7 9.94995V10.55C19.9 10.5166 20.9167 10.9 21.75 11.7C22.5833 12.5 23 13.525 23 14.775C23 15.925 22.5833 16.9166 21.75 17.75C20.9167 18.5833 19.925 19 18.775 19H6.275Z"
        fill="black" />
</svg>
