<svg width="24" height="24" viewBox="0 0 24 24" fill="none" xmlns="http://www.w3.org/2000/svg">
    <path
        d="M9.3672 22L8.88222 18.8508C8.68206 18.7881 8.45496 18.6823 8.20092 18.5335C7.94688 18.3846 7.73518 18.2397 7.56582 18.0987L4.67898 19.4618L2 14.6439L4.63279 12.6933C4.6174 12.5993 4.60585 12.4857 4.59815 12.3525C4.59045 12.2193 4.5866 12.1058 4.5866 12.0118C4.5866 11.9177 4.59045 11.8042 4.59815 11.671C4.60585 11.5378 4.6174 11.4242 4.63279 11.3302L2 9.35605L4.67898 4.58519L7.61201 5.92479C7.76597 5.79945 7.96613 5.66628 8.21247 5.52526C8.45881 5.38425 8.68206 5.28241 8.88222 5.21974L9.3672 2H14.6328L15.1178 5.19624C15.3179 5.27458 15.545 5.38034 15.7991 5.51351C16.0531 5.64669 16.2648 5.78378 16.4342 5.92479L19.3441 4.58519L22 9.35605L19.3441 11.2832C19.3595 11.3929 19.3749 11.5143 19.3903 11.6475C19.4057 11.7807 19.4134 11.9021 19.4134 12.0118C19.4134 12.1214 19.4057 12.2389 19.3903 12.3643C19.3749 12.4896 19.3595 12.6071 19.3441 12.7168L22 14.6439L19.321 19.4618L16.4111 18.0987C16.2417 18.2397 16.0377 18.3846 15.7991 18.5335C15.5604 18.6823 15.3333 18.7881 15.1178 18.8508L14.6328 22H9.3672ZM12 16.0306C12.2771 16.0306 12.5158 15.9326 12.7159 15.7368C12.9161 15.5409 13.0162 15.2942 13.0162 14.9965C13.0162 14.7145 12.9161 14.4755 12.7159 14.2797C12.5158 14.0838 12.2771 13.9859 12 13.9859C11.7229 13.9859 11.4881 14.0838 11.2956 14.2797C11.1032 14.4755 11.0069 14.7145 11.0069 14.9965C11.0069 15.2942 11.1032 15.5409 11.2956 15.7368C11.4881 15.9326 11.7229 16.0306 12 16.0306ZM11.0069 12.9753H13.0162V8.01645H11.0069V12.9753Z"
        fill="black" />
</svg>
