<svg width="16" height="20" viewBox="0 0 16 20" fill="none" xmlns="http://www.w3.org/2000/svg">
    <path
        d="M4.26049 15.4642H11.7164V13.7955H4.26049V15.4642ZM4.26049 11.4689H11.7164V9.80023H4.26049V11.4689ZM2.17656 20C1.57453 20 1.06126 19.7846 0.636758 19.3537C0.212253 18.9228 0 18.4019 0 17.7908V2.23267C0 1.62162 0.212253 1.09675 0.636758 0.658049C1.06126 0.21935 1.57453 0 2.17656 0H10.5818L16 5.49941V17.7908C16 18.4019 15.7839 18.9228 15.3517 19.3537C14.9194 19.7846 14.4023 20 13.8003 20H2.17656ZM9.42402 6.604H13.8003L9.42402 2.23267V6.604Z"
        fill="#B5B8C0" />
</svg>
