<svg width="24" height="24" viewBox="0 0 24 24" fill="none" xmlns="http://www.w3.org/2000/svg">
    <path
        d="M4.20917 20C3.59812 20 3.07716 19.7877 2.6463 19.3632C2.21543 18.9387 2 18.4255 2 17.8234V6.19971C2 5.59768 2.21543 5.08056 2.6463 4.64834C3.07716 4.21611 3.59812 4 4.20917 4H19.7673C20.3784 4 20.9033 4.21611 21.342 4.64834C21.7807 5.08056 22 5.59768 22 6.19971V17.8234C22 18.4255 21.7807 18.9387 21.342 19.3632C20.9033 19.7877 20.3784 20 19.7673 20H4.20917ZM11.9882 13.1693L19.7673 8.00579V6.19971L11.9882 11.2475L4.20917 6.19971V8.00579L11.9882 13.1693Z"
        fill="black" />
</svg>
