<svg width="24" height="24" viewBox="0 0 24 24" fill="none" xmlns="http://www.w3.org/2000/svg">
    <path
        d="M4.07048 19.75C3.51248 19.75 3.0279 19.5439 2.61674 19.1318C2.20558 18.7196 2 18.2339 2 17.6745V6.34758C2 5.7735 2.20558 5.28039 2.61674 4.86823C3.0279 4.45608 3.51248 4.25 4.07048 4.25H9.81938L11.3833 5.81766H18.652C19.2247 5.81766 19.7166 6.02742 20.1278 6.44694C20.5389 6.86645 20.7445 7.35589 20.7445 7.91524H4.07048V17.7628L6.31718 9.24003H22L19.7533 17.7407C19.533 18.4767 19.2063 18.9956 18.7731 19.2974C18.3399 19.5991 17.7416 19.75 16.978 19.75H4.07048Z"
        fill="black" />
</svg>
