<svg width="20" height="20" viewBox="0 0 20 20" fill="none" xmlns="http://www.w3.org/2000/svg">
    <path fill-rule="evenodd" clip-rule="evenodd"
        d="M8.97776 5.02938H10.9049V10.9283H8.97776V5.02938ZM9.20103 12.6322C9.41255 12.4207 9.68282 12.3149 10.0118 12.3149C10.3252 12.3149 10.5916 12.4207 10.8109 12.6322C11.0303 12.8437 11.1399 13.114 11.1399 13.443C11.1399 13.772 11.0342 14.0423 10.8227 14.2538C10.6111 14.4653 10.3409 14.5711 10.0118 14.5711C9.69849 14.5711 9.43213 14.4653 9.21278 14.2538C8.99343 14.0423 8.88376 13.7642 8.88376 13.4195C8.88376 13.1061 8.98952 12.8437 9.20103 12.6322ZM13.9014 0.775559C12.6871 0.25852 11.3906 0 10.0118 0C8.6174 0 7.31306 0.262436 6.0988 0.787309C4.88454 1.31218 3.82696 2.02507 2.92606 2.92597C2.02516 3.82687 1.31227 4.88053 0.7874 6.08696C0.262528 7.29338 9.15527e-05 8.59381 9.15527e-05 9.98825C9.15527e-05 11.3827 0.262528 12.687 0.7874 13.9013C1.31227 15.1156 2.02516 16.1731 2.92606 17.074C3.82696 17.9749 4.88454 18.6878 6.0988 19.2127C7.31306 19.7376 8.6174 20 10.0118 20C11.4063 20 12.7067 19.7376 13.9131 19.2127C15.1196 18.6878 16.1771 17.9749 17.0859 17.074C17.9946 16.1731 18.7075 15.1156 19.2245 13.9013C19.7416 12.687 20.0001 11.3827 20.0001 9.98825C20.0001 8.59381 19.7416 7.29338 19.2245 6.08696C18.7075 4.88053 17.9946 3.82295 17.0859 2.91422C16.1771 2.00548 15.1156 1.2926 13.9014 0.775559Z"
        fill="#D87F13" />
</svg>
