<svg width="24" height="24" viewBox="0 0 24 24" fill="none" xmlns="http://www.w3.org/2000/svg">
    <path
        d="M6.0188 15.2069C7.00588 15.0835 7.99687 14.9831 8.99177 14.9059C9.98668 14.8288 10.9855 14.7902 11.9882 14.7902C12.991 14.7902 13.9898 14.8288 14.9847 14.9059C15.9796 14.9831 16.9706 15.0835 17.9577 15.2069L14.0564 10.275L11.1422 13.9566L9.09753 11.3632L6.0188 15.2069ZM3.52761 20C3.10458 20 2.74422 19.8534 2.44653 19.5601C2.14884 19.2668 2 18.9117 2 18.4949V5.52822C2 5.11143 2.14884 4.75253 2.44653 4.45152C2.74422 4.15051 3.10458 4 3.52761 4C3.76263 4 4.09166 4.07332 4.51469 4.21997C4.93772 4.36662 5.49393 4.52484 6.18331 4.69465C6.8727 4.87988 7.69134 5.04197 8.63925 5.1809C9.58715 5.31983 10.7035 5.38929 11.9882 5.38929C13.273 5.38929 14.3893 5.31983 15.3373 5.1809C16.2852 5.04197 17.1038 4.87988 17.7932 4.69465C18.4826 4.52484 19.0388 4.36662 19.4618 4.21997C19.8848 4.07332 20.2139 4 20.4489 4C20.8719 4 21.2362 4.15051 21.5417 4.45152C21.8472 4.75253 22 5.11143 22 5.52822V18.4949C22 18.9117 21.8472 19.2668 21.5417 19.5601C21.2362 19.8534 20.8719 20 20.4489 20C20.2139 20 19.8848 19.9305 19.4618 19.7916C19.0388 19.6527 18.4826 19.4906 17.7932 19.3054C17.1038 19.1356 16.2852 18.9773 15.3373 18.8307C14.3893 18.684 13.273 18.6107 11.9882 18.6107C10.7035 18.6107 9.58715 18.684 8.63925 18.8307C7.69134 18.9773 6.8727 19.1356 6.18331 19.3054C5.49393 19.4906 4.93772 19.6527 4.51469 19.7916C4.09166 19.9305 3.76263 20 3.52761 20Z"
        fill="black" />
</svg>
