<svg width="24" height="24" viewBox="0 0 24 24" fill="none" xmlns="http://www.w3.org/2000/svg">
    <path
        d="M11.9888 16.7826C13.0605 16.7826 13.961 16.4275 14.6904 15.7174C15.4197 15.0072 15.7844 14.1304 15.7844 13.087C15.7844 12.029 15.4197 11.1486 14.6904 10.4457C13.961 9.74275 13.0605 9.3913 11.9888 9.3913C10.9023 9.3913 9.99804 9.74275 9.27615 10.4457C8.55425 11.1486 8.1933 12.029 8.1933 13.087C8.1933 14.1304 8.55425 15.0072 9.27615 15.7174C9.99804 16.4275 10.9023 16.7826 11.9888 16.7826ZM4.59871 20.5C4.01821 20.5 3.52331 20.3007 3.11398 19.9022C2.70466 19.5036 2.5 19.0217 2.5 18.4565V7.69565C2.5 7.14493 2.70466 6.66304 3.11398 6.25C3.52331 5.83696 4.01821 5.63043 4.59871 5.63043H7.54583L9.42127 3.5H14.5787L16.4318 5.63043H19.379C19.9446 5.63043 20.4395 5.83696 20.8637 6.25C21.2879 6.66304 21.5 7.14493 21.5 7.69565V18.4565C21.5 19.0217 21.2879 19.5036 20.8637 19.9022C20.4395 20.3007 19.9446 20.5 19.379 20.5H4.59871Z"
        fill="black" />
</svg>
