<svg width="24" height="24" viewBox="0 0 24 24" fill="none" xmlns="http://www.w3.org/2000/svg">
    <g clip-path="url(#clip0_7_3)">
        <path
            d="M19.4021 21L13.0809 14.6941C12.6266 15.0549 12.0901 15.3373 11.4713 15.5412C10.8525 15.7451 10.1828 15.8471 9.46214 15.8471C7.66057 15.8471 6.13316 15.2196 4.8799 13.9647C3.62663 12.7098 3 11.1961 3 9.42353C3 7.65098 3.62663 6.13726 4.8799 4.88235C6.13316 3.62745 7.65274 3 9.43864 3C11.2089 3 12.7167 3.62745 13.9621 4.88235C15.2076 6.13726 15.8303 7.65098 15.8303 9.42353C15.8303 10.1294 15.7324 10.7843 15.5366 11.3882C15.3407 11.9922 15.047 12.5608 14.6554 13.0941L21 19.4L19.4021 21ZM9.43864 13.6353C10.6136 13.6353 11.6044 13.2235 12.4112 12.4C13.218 11.5765 13.6214 10.5843 13.6214 9.42353C13.6214 8.24706 13.218 7.25098 12.4112 6.43529C11.6044 5.61961 10.6136 5.21176 9.43864 5.21176C8.26371 5.21176 7.26501 5.61961 6.44256 6.43529C5.6201 7.25098 5.20888 8.24706 5.20888 9.42353C5.20888 10.5843 5.6201 11.5765 6.44256 12.4C7.26501 13.2235 8.26371 13.6353 9.43864 13.6353Z"
            fill="black" />
    </g>
    <defs>
        <clipPath id="clip0_7_3">
            <rect width="24" height="24" fill="white" />
        </clipPath>
    </defs>
</svg>
