<svg width="24" height="24" viewBox="0 0 24 24" fill="none" xmlns="http://www.w3.org/2000/svg">
    <path fill-rule="evenodd" clip-rule="evenodd"
        d="M8.09871 21.2244C9.31297 21.7415 10.6095 22 11.9882 22C13.3827 22 14.687 21.7376 15.9013 21.2127C17.1156 20.6878 18.1731 19.9749 19.074 19.074C19.9749 18.1731 20.6878 17.1195 21.2127 15.913C21.7376 14.7066 22 13.4062 22 12.0118C22 10.6173 21.7376 9.31297 21.2127 8.09871C20.6878 6.88445 19.9749 5.82687 19.074 4.92597C18.1731 4.02507 17.1156 3.31218 15.9013 2.78731C14.687 2.26244 13.3827 2 11.9882 2C10.5938 2 9.29338 2.26244 8.08696 2.78731C6.88053 3.31218 5.82295 4.02507 4.91422 4.92597C4.00548 5.82687 3.2926 6.88445 2.77556 8.09871C2.25852 9.31297 2 10.6173 2 12.0118C2 13.4062 2.25852 14.7066 2.77556 15.913C3.2926 17.1195 4.00548 18.177 4.91422 19.0858C5.82295 19.9945 6.88445 20.7074 8.09871 21.2244ZM10.5736 14.5953L10.0758 17H8.12184L8.61961 14.5953H7L7.35661 12.842H8.98365L9.36256 11.0194H7.69837L8.05498 9.27997H9.7266L10.2021 7H12.156L11.6805 9.27997H13.3522L13.8276 7H15.789L15.3135 9.27997H17L16.6508 11.0194H14.9569L14.578 12.842H16.3016L15.945 14.5953H14.214L13.7088 17H11.7474L12.2452 14.5953H10.5736ZM11.2199 10.9085L10.789 12.9529H12.7058L13.1367 10.9085H11.2199Z"
        fill="black" />
</svg>
