<svg width="24" height="24" viewBox="0 0 24 24" fill="none" xmlns="http://www.w3.org/2000/svg">
    <path
        d="M12.075 21.15C10.8083 21.15 9.61667 20.9083 8.5 20.425C7.38333 19.9416 6.40417 19.2833 5.5625 18.45C4.72083 17.6166 4.05833 16.6416 3.575 15.525C3.09167 14.4083 2.85 13.2166 2.85 11.95C2.85 10.6833 3.09167 9.49998 3.575 8.39998C4.05833 7.29998 4.72083 6.33748 5.5625 5.51248C6.40417 4.68748 7.38333 4.03748 8.5 3.56248C9.61667 3.08748 10.8083 2.84998 12.075 2.84998C13.4083 2.84998 14.675 3.13748 15.875 3.71248C17.075 4.28748 18.1167 5.08331 19 6.09998V3.49998H20.575V8.82498H15.225V7.24998H17.725C16.9917 6.43331 16.1417 5.77914 15.175 5.28748C14.2083 4.79581 13.175 4.54998 12.075 4.54998C10.0083 4.54998 8.2375 5.25831 6.7625 6.67498C5.2875 8.09164 4.55 9.82498 4.55 11.875C4.55 13.975 5.27917 15.7625 6.7375 17.2375C8.19583 18.7125 9.975 19.45 12.075 19.45C14.1417 19.45 15.8875 18.7208 17.3125 17.2625C18.7375 15.8041 19.45 14.0416 19.45 11.975H21.15C21.15 14.525 20.2708 16.6916 18.5125 18.475C16.7542 20.2583 14.6083 21.15 12.075 21.15ZM15.1 16.1L11.25 12.3V6.92498H12.8V11.65L16.225 14.975L15.1 16.1Z"
        fill="black" />
</svg>
