<svg xmlns="http://www.w3.org/2000/svg" width="32" height="32">
  <g fill="none" fill-rule="evenodd">    
    <path d="M0 0h32v32H0z"/>
    <circle cx="16" cy="16" r="16" fill="#445669"/>
    <path fill="#ffffff" fill-rule="nonzero" d="M11.35 22.482l.697-4.32 8.84-2.16-8.84-2.16-.697-4.32 13.355 6.48-13.355 6.48zm.301.65c-.513.25-1.087-.194-.995-.768l.697-4.32a.713.713 0 0 1 .53-.583l8.841-2.16v1.4l-8.84-2.16a.713.713 0 0 1-.531-.582l-.697-4.32c-.092-.574.482-1.017.995-.768l13.355 6.48c.537.26.537 1.041 0 1.301l-13.355 6.48z"/>
  </g>
</svg>