<svg width="22" height="18" fill="none" xmlns="http://www.w3.org/2000/svg"><path fill-rule="evenodd" clip-rule="evenodd" d="M10.436 14.093H2.07c-.284 0-.556-.115-.757-.32a1.102 1.102 0 010-1.543c.2-.205.473-.32.757-.32h8.365a4.005 4.005 0 011.41-2.098 3.882 3.882 0 012.368-.808c.855 0 1.686.284 2.368.808a4.005 4.005 0 011.41 2.099h1.937c.284 0 .556.114.757.32a1.102 1.102 0 010 1.543c-.2.204-.473.32-.757.32h-1.936a4.005 4.005 0 01-1.411 2.098 3.882 3.882 0 01-2.368.808 3.882 3.882 0 01-2.367-.808 4.005 4.005 0 01-1.411-2.099zM16 13.002c0-.36-.105-.712-.301-1.01a1.794 1.794 0 00-.801-.67 1.756 1.756 0 00-1.946.394 1.85 1.85 0 00-.387 1.982c.135.332.364.617.657.816a1.762 1.762 0 002.255-.226c.335-.34.523-.804.523-1.286zM4.007 6.09H2.071c-.284 0-.556-.115-.757-.32a1.102 1.102 0 010-1.544c.2-.204.473-.32.757-.32h1.936a4.004 4.004 0 011.411-2.098A3.882 3.882 0 017.786 1c.854 0 1.685.284 2.367.808a4.005 4.005 0 011.411 2.099h8.365c.284 0 .556.115.757.32a1.102 1.102 0 010 1.543c-.2.205-.473.32-.757.32h-8.365a4.005 4.005 0 01-1.41 2.098 3.882 3.882 0 01-2.368.808 3.882 3.882 0 01-2.368-.808 4.004 4.004 0 01-1.41-2.098zm5.564-1.092c0-.36-.104-.711-.3-1.01a1.793 1.793 0 00-.802-.67 1.755 1.755 0 00-1.946.394 1.85 1.85 0 00-.387 1.982c.135.333.364.617.658.817a1.762 1.762 0 002.254-.227c.335-.34.523-.803.523-1.286z" fill="#111" stroke="#fff" stroke-width=".2"/></svg>