<?xml version="1.0" encoding="utf-8"?>
<svg viewBox="9.429 4.607 481.492 166.733" xmlns="http://www.w3.org/2000/svg">
  <g transform="matrix(0.497734010219574, 0, 0, 0.497734010219574, 249.55828857421875, 87.57815551757812)" id="54a0c0d2-5a35-40fe-9a00-0af2636b483e" style="">
    <rect style="stroke: none; stroke-width: 1; stroke-dasharray: none; stroke-linecap: butt; stroke-dashoffset: 0; stroke-linejoin: miter; stroke-miterlimit: 4; fill: rgb(255,255,255); fill-rule: nonzero; opacity: 1; visibility: hidden;" vector-effect="non-scaling-stroke" x="-490" y="-175" rx="0" ry="0" width="980" height="350"/>
  </g>
  <g transform="matrix(7.0479230880737305, 0, 0, 7.0479230880737305, 249.5233917236328, 87.56819915771484)" style="">
    <path style="stroke: rgb(0,0,0); stroke-width: 0; stroke-dasharray: none; stroke-linecap: butt; stroke-dashoffset: 0; stroke-linejoin: miter; stroke-miterlimit: 4; fill: rgb(0,0,0); fill-rule: nonzero; opacity: 1;" vector-effect="non-scaling-stroke" transform=" translate(-238.36, -166.12)" d="M 224.611 159.946 C 224.628 159.695 224.568 159.444 224.441 159.226 C 224.397 159.102 224.337 158.984 224.261 158.876 C 224.09 158.635 223.855 158.448 223.581 158.336 C 223.581 158.336 223.581 158.336 223.581 158.286 C 223.581 158.236 223.491 158.286 223.441 158.286 C 223.27 158.21 223.087 158.163 222.901 158.146 C 222.769 158.125 222.634 158.125 222.501 158.146 C 222.177 157.752 221.815 157.39 221.421 157.066 C 222.057 156.65 222.435 155.936 222.421 155.176 C 221.773 155.216 221.177 155.547 220.801 156.076 C 220.85 155.494 220.674 154.914 220.311 154.456 C 219.902 154.86 219.675 155.412 219.681 155.986 C 219.407 155.826 219.098 155.734 218.781 155.716 L 218.421 155.716 C 218.398 156.334 218.732 156.911 219.281 157.196 C 219.196 157.475 219.148 157.765 219.141 158.056 C 217.893 158.011 216.856 159.008 216.851 160.256 C 216.844 160.853 217.066 161.429 217.471 161.866 C 217.581 161.984 217.701 162.091 217.831 162.186 C 217.324 162.748 216.712 163.206 216.031 163.536 C 215.232 163.032 214.353 162.667 213.431 162.456 C 212.661 162.24 211.842 162.271 211.091 162.546 C 210.623 162.819 210.416 163.387 210.601 163.896 C 209.069 163.552 207.598 162.976 206.241 162.186 C 205.841 161.966 205.301 161.116 205.161 161.186 C 205.021 161.256 205.521 162.976 205.521 162.976 C 205.446 162.873 205.354 162.782 205.251 162.706 C 205.071 162.616 205.251 163.336 205.161 163.156 C 205.107 163.008 204.958 162.917 204.801 162.936 C 204.801 162.936 204.441 162.846 205.801 166.216 C 207.161 169.586 208.801 172.726 210.961 173.986 C 218.511 178.336 224.081 173.626 225.151 169.396 C 225.749 166.57 225.485 163.63 224.391 160.956 C 224.54 160.641 224.615 160.295 224.611 159.946 Z" stroke-linecap="round"/>
    <path style="stroke: rgb(0,0,0); stroke-width: 0; stroke-dasharray: none; stroke-linecap: butt; stroke-dashoffset: 0; stroke-linejoin: miter; stroke-miterlimit: 4; fill: rgb(0,0,0); fill-rule: nonzero; opacity: 1;" vector-effect="non-scaling-stroke" transform=" translate(-238.36, -166.12)" d="M 266.431 157.656 C 266.431 157.026 266.841 156.656 267.691 156.656 L 268.411 156.656 L 268.411 158.606 L 267.651 158.606 C 266.831 158.646 266.471 158.286 266.471 157.656 L 266.431 157.656 Z" stroke-linecap="round"/>
    <path style="stroke: rgb(0,0,0); stroke-width: 0; stroke-dasharray: none; stroke-linecap: butt; stroke-dashoffset: 0; stroke-linejoin: miter; stroke-miterlimit: 4; fill: rgb(0,0,0); fill-rule: nonzero; opacity: 1;" vector-effect="non-scaling-stroke" transform=" translate(-238.36, -166.12)" d="M 266.161 162.286 C 266.53 161.927 266.849 161.52 267.111 161.076 L 267.331 160.716 C 267.399 160.615 267.46 160.508 267.511 160.396 C 267.561 160.306 267.651 160.216 267.691 160.126 C 267.726 160.046 267.773 159.972 267.831 159.906 L 267.961 159.766 C 268.011 159.676 268.011 159.636 268.101 159.636 C 268.191 159.636 268.231 159.636 268.281 159.636 L 268.411 159.636 L 268.411 162.506 L 269.891 162.506 L 269.891 155.506 L 267.561 155.506 C 266.881 155.465 266.205 155.64 265.631 156.006 C 265.208 156.379 264.976 156.923 265.001 157.486 C 264.998 157.958 265.157 158.417 265.451 158.786 C 265.747 159.118 266.167 159.313 266.611 159.326 C 266.349 159.492 266.136 159.723 265.991 159.996 C 265.721 160.446 265.491 160.766 265.361 160.996 C 265.246 161.159 265.061 161.259 264.861 161.266 L 264.831 161.266 L 264.831 162.526 L 265.421 162.526 C 265.709 162.521 265.989 162.426 266.221 162.256 L 266.161 162.286 Z" stroke-linecap="round"/>
    <path style="stroke: rgb(0,0,0); stroke-width: 0; stroke-dasharray: none; stroke-linecap: butt; stroke-dashoffset: 0; stroke-linejoin: miter; stroke-miterlimit: 4; fill: rgb(0,0,0); fill-rule: nonzero; opacity: 1;" vector-effect="non-scaling-stroke" transform=" translate(-238.36, -166.12)" d="M 245.951 166.686 C 246.851 166.686 247.261 167.046 247.261 167.806 C 247.293 168.139 247.175 168.468 246.941 168.706 C 246.721 168.936 246.451 168.976 245.941 168.976 L 245.311 168.976 L 245.311 166.776 L 246.021 166.776 L 245.951 166.686 Z" stroke-linecap="round"/>
    <path style="stroke: rgb(0,0,0); stroke-width: 0; stroke-dasharray: none; stroke-linecap: butt; stroke-dashoffset: 0; stroke-linejoin: miter; stroke-miterlimit: 4; fill: rgb(0,0,0); fill-rule: nonzero; opacity: 1;" vector-effect="non-scaling-stroke" transform=" translate(-238.36, -166.12)" d="M 245.281 170.006 L 245.911 170.006 C 246.653 170.05 247.391 169.861 248.021 169.466 C 248.499 169.033 248.762 168.411 248.741 167.766 C 248.77 167.132 248.504 166.519 248.021 166.106 C 247.453 165.723 246.776 165.534 246.091 165.566 L 243.841 165.566 L 243.841 172.566 L 245.281 172.566 L 245.281 170.006 Z" stroke-linecap="round"/>
    <path style="stroke: rgb(0,0,0); stroke-width: 0; stroke-dasharray: none; stroke-linecap: butt; stroke-dashoffset: 0; stroke-linejoin: miter; stroke-miterlimit: 4; fill: rgb(0,0,0); fill-rule: nonzero; opacity: 1;" vector-effect="non-scaling-stroke" transform=" translate(-238.36, -166.12)" d="M 249.281 176.656 C 249.149 176.6 249.012 176.556 248.871 176.526 C 248.741 176.476 248.651 176.476 248.561 176.436 C 248.491 176.434 248.425 176.401 248.381 176.346 C 248.325 176.303 248.292 176.237 248.291 176.166 C 248.291 176.026 248.291 175.936 248.421 175.896 C 248.548 175.833 248.689 175.802 248.831 175.806 C 248.933 175.787 249.039 175.787 249.141 175.806 C 249.252 175.844 249.359 175.89 249.461 175.946 L 249.551 175.676 C 249.449 175.62 249.342 175.574 249.231 175.536 C 249.098 175.517 248.964 175.517 248.831 175.536 C 248.677 175.537 248.524 175.568 248.381 175.626 C 248.263 175.656 248.164 175.736 248.111 175.846 C 248.052 175.943 248.021 176.053 248.021 176.166 C 248.002 176.278 248.035 176.392 248.111 176.476 C 248.189 176.553 248.28 176.614 248.381 176.656 C 248.509 176.717 248.643 176.764 248.781 176.796 C 248.891 176.815 248.998 176.845 249.101 176.886 C 249.172 176.887 249.238 176.92 249.281 176.976 C 249.333 177.018 249.366 177.08 249.371 177.146 C 249.369 177.242 249.315 177.33 249.231 177.376 C 249.106 177.435 248.969 177.466 248.831 177.466 C 248.691 177.456 248.553 177.425 248.421 177.376 C 248.305 177.341 248.199 177.279 248.111 177.196 L 247.971 177.416 C 248.085 177.488 248.205 177.549 248.331 177.596 C 248.502 177.645 248.669 177.705 248.831 177.776 C 248.985 177.775 249.138 177.744 249.281 177.686 C 249.39 177.639 249.483 177.563 249.551 177.466 C 249.606 177.368 249.637 177.259 249.641 177.146 C 249.66 177.035 249.627 176.92 249.551 176.836 C 249.483 176.766 249.406 176.705 249.321 176.656 L 249.281 176.656 Z" stroke-linecap="round"/>
    <path style="stroke: rgb(0,0,0); stroke-width: 0; stroke-dasharray: none; stroke-linecap: butt; stroke-dashoffset: 0; stroke-linejoin: miter; stroke-miterlimit: 4; fill: rgb(0,0,0); fill-rule: nonzero; opacity: 1;" vector-effect="non-scaling-stroke" transform=" translate(-238.36, -166.12)" d="M 263.691 165.476 L 262.211 165.476 L 262.211 171.226 L 259.341 171.226 L 259.341 165.476 L 257.861 165.476 L 257.861 172.476 L 263.111 172.476 L 263.691 174.006 L 264.641 174.006 L 264.411 171.226 L 263.831 171.226 L 263.831 165.476 L 263.691 165.476 Z" stroke-linecap="round"/>
    <path style="stroke: rgb(0,0,0); stroke-width: 0; stroke-dasharray: none; stroke-linecap: butt; stroke-dashoffset: 0; stroke-linejoin: miter; stroke-miterlimit: 4; fill: rgb(0,0,0); fill-rule: nonzero; opacity: 1;" vector-effect="non-scaling-stroke" transform=" translate(-238.36, -166.12)" d="M 251.571 175.716 C 251.714 175.658 251.867 175.627 252.021 175.626 C 252.26 175.62 252.491 175.719 252.651 175.896 L 252.871 175.716 C 252.788 175.585 252.66 175.489 252.511 175.446 C 252.353 175.392 252.188 175.362 252.021 175.356 C 251.817 175.351 251.614 175.395 251.431 175.486 C 251.256 175.575 251.115 175.719 251.031 175.896 C 250.844 176.264 250.844 176.699 251.031 177.066 C 251.119 177.239 251.259 177.379 251.431 177.466 C 251.599 177.594 251.815 177.642 252.021 177.596 C 252.188 177.595 252.354 177.565 252.511 177.506 C 252.651 177.416 252.781 177.376 252.871 177.236 L 252.651 177.066 C 252.482 177.23 252.256 177.322 252.021 177.326 C 251.865 177.345 251.707 177.314 251.571 177.236 C 251.442 177.158 251.333 177.052 251.251 176.926 C 251.197 176.782 251.167 176.63 251.161 176.476 C 251.143 176.321 251.175 176.163 251.251 176.026 C 251.302 175.863 251.442 175.743 251.611 175.716 L 251.571 175.716 Z" stroke-linecap="round"/>
    <path style="stroke: rgb(0,0,0); stroke-width: 0; stroke-dasharray: none; stroke-linecap: butt; stroke-dashoffset: 0; stroke-linejoin: miter; stroke-miterlimit: 4; fill: rgb(0,0,0); fill-rule: nonzero; opacity: 1;" vector-effect="non-scaling-stroke" transform=" translate(-238.36, -166.12)" d="M 256.011 176.976 C 255.929 177.099 255.823 177.204 255.701 177.286 C 255.565 177.364 255.407 177.395 255.251 177.376 C 255.095 177.394 254.938 177.363 254.801 177.286 C 254.679 177.204 254.573 177.099 254.491 176.976 C 254.433 176.833 254.403 176.681 254.401 176.526 C 254.382 176.371 254.413 176.213 254.491 176.076 C 254.57 175.949 254.676 175.84 254.801 175.756 C 254.946 175.703 255.097 175.673 255.251 175.666 C 255.407 175.647 255.565 175.679 255.701 175.756 C 255.826 175.84 255.932 175.949 256.011 176.076 C 256.07 176.219 256.1 176.372 256.101 176.526 C 256.131 176.678 256.114 176.835 256.051 176.976 L 256.011 176.976 Z" stroke-linecap="round"/>
    <path style="stroke: rgb(0,0,0); stroke-width: 0; stroke-dasharray: none; stroke-linecap: butt; stroke-dashoffset: 0; stroke-linejoin: miter; stroke-miterlimit: 4; fill: rgb(0,0,0); fill-rule: nonzero; opacity: 1;" vector-effect="non-scaling-stroke" transform=" translate(-238.36, -166.12)" d="M 255.831 175.486 C 255.652 175.395 255.452 175.351 255.251 175.356 C 255.05 175.352 254.851 175.397 254.671 175.486 C 254.493 175.574 254.349 175.718 254.261 175.896 C 254.171 176.076 254.127 176.275 254.131 176.476 C 254.125 176.681 254.17 176.883 254.261 177.066 C 254.352 177.239 254.496 177.379 254.671 177.466 C 254.834 177.598 255.048 177.646 255.251 177.596 C 255.452 177.602 255.652 177.557 255.831 177.466 C 256.006 177.379 256.15 177.239 256.241 177.066 C 256.332 176.883 256.377 176.681 256.371 176.476 C 256.375 176.275 256.331 176.076 256.241 175.896 C 256.153 175.718 256.009 175.574 255.831 175.486 Z" stroke-linecap="round"/>
    <path style="stroke: rgb(0,0,0); stroke-width: 0; stroke-dasharray: none; stroke-linecap: butt; stroke-dashoffset: 0; stroke-linejoin: miter; stroke-miterlimit: 4; fill: rgb(0,0,0); fill-rule: nonzero; opacity: 1;" vector-effect="non-scaling-stroke" transform=" translate(-238.36, -166.12)" d="M 260.251 177.246 L 259.621 175.406 L 259.351 175.406 L 258.721 177.246 L 258.141 175.406 L 257.831 175.406 L 258.541 177.656 L 258.831 177.656 L 259.411 175.856 L 260.001 177.656 L 260.311 177.656 L 261.031 175.406 L 260.831 175.406 L 260.251 177.246 Z" stroke-linecap="round"/>
    <path style="stroke: rgb(0,0,0); stroke-width: 0; stroke-dasharray: none; stroke-linecap: butt; stroke-dashoffset: 0; stroke-linejoin: miter; stroke-miterlimit: 4; fill: rgb(0,0,0); fill-rule: nonzero; opacity: 1;" vector-effect="non-scaling-stroke" transform=" translate(-238.36, -166.12)" d="M 250.331 162.566 L 251.831 162.566 L 251.831 156.806 L 254.751 156.806 L 254.751 162.556 L 256.231 162.556 L 256.231 155.556 L 250.351 155.556 L 250.331 162.566 Z" stroke-linecap="round"/>
    <path style="stroke: rgb(0,0,0); stroke-width: 0; stroke-dasharray: none; stroke-linecap: butt; stroke-dashoffset: 0; stroke-linejoin: miter; stroke-miterlimit: 4; fill: rgb(0,0,0); fill-rule: nonzero; opacity: 1;" vector-effect="non-scaling-stroke" transform=" translate(-238.36, -166.12)" d="M 252.171 169.126 L 251.451 170.336 L 251.451 169.216 L 251.451 165.486 L 250.131 165.486 L 250.131 172.486 L 251.471 172.486 L 254.171 168.536 C 254.441 168.191 254.663 167.811 254.831 167.406 L 254.831 172.406 L 256.171 172.406 L 256.171 165.406 L 254.691 165.406 C 254.691 165.406 252.151 169.116 252.151 169.116 L 252.171 169.126 Z" stroke-linecap="round"/>
    <path style="stroke: rgb(0,0,0); stroke-width: 0; stroke-dasharray: none; stroke-linecap: butt; stroke-dashoffset: 0; stroke-linejoin: miter; stroke-miterlimit: 4; fill: rgb(0,0,0); fill-rule: nonzero; opacity: 1;" vector-effect="non-scaling-stroke" transform=" translate(-238.36, -166.12)" d="M 246.421 176.986 C 246.338 177.111 246.229 177.217 246.101 177.296 C 245.965 177.374 245.807 177.405 245.651 177.386 C 245.498 177.405 245.344 177.374 245.211 177.296 C 245.083 177.217 244.974 177.111 244.891 176.986 C 244.838 176.842 244.808 176.69 244.801 176.536 C 244.782 176.381 244.813 176.223 244.891 176.086 C 244.972 175.957 245.081 175.847 245.211 175.766 C 245.352 175.712 245.5 175.682 245.651 175.676 C 245.807 175.657 245.965 175.689 246.101 175.766 C 246.231 175.847 246.34 175.957 246.421 176.086 C 246.475 176.23 246.505 176.382 246.511 176.536 C 246.521 176.691 246.482 176.845 246.401 176.976 L 246.421 176.986 Z" stroke-linecap="round"/>
    <path style="stroke: rgb(0,0,0); stroke-width: 0; stroke-dasharray: none; stroke-linecap: butt; stroke-dashoffset: 0; stroke-linejoin: miter; stroke-miterlimit: 4; fill: rgb(0,0,0); fill-rule: nonzero; opacity: 1;" vector-effect="non-scaling-stroke" transform=" translate(-238.36, -166.12)" d="M 246.191 175.496 C 246.011 175.407 245.812 175.362 245.611 175.366 C 245.41 175.361 245.211 175.405 245.031 175.496 C 244.853 175.584 244.709 175.728 244.621 175.906 C 244.531 176.086 244.487 176.285 244.491 176.486 C 244.485 176.691 244.53 176.893 244.621 177.076 C 244.712 177.249 244.856 177.389 245.031 177.476 C 245.195 177.604 245.408 177.651 245.611 177.606 C 245.812 177.611 246.011 177.566 246.191 177.476 C 246.366 177.389 246.51 177.249 246.601 177.076 C 246.692 176.893 246.737 176.691 246.731 176.486 C 246.735 176.285 246.691 176.086 246.601 175.906 C 246.51 175.721 246.358 175.573 246.171 175.486 L 246.191 175.496 Z" stroke-linecap="round"/>
    <path style="stroke: rgb(0,0,0); stroke-width: 0; stroke-dasharray: none; stroke-linecap: butt; stroke-dashoffset: 0; stroke-linejoin: miter; stroke-miterlimit: 4; fill: rgb(0,0,0); fill-rule: nonzero; opacity: 1;" vector-effect="non-scaling-stroke" transform=" translate(-238.36, -166.12)" d="M 267.571 170.016 L 268.111 168.406 C 268.187 168.246 268.247 168.078 268.291 167.906 L 268.431 167.456 C 268.431 167.276 268.521 167.236 268.521 167.186 L 268.651 167.636 L 268.921 168.356 L 269.501 170.016 L 267.571 170.016 Z" stroke-linecap="round"/>
    <path style="stroke: rgb(0,0,0); stroke-width: 0; stroke-dasharray: none; stroke-linecap: butt; stroke-dashoffset: 0; stroke-linejoin: miter; stroke-miterlimit: 4; fill: rgb(0,0,0); fill-rule: nonzero; opacity: 1;" vector-effect="non-scaling-stroke" transform=" translate(-238.36, -166.12)" d="M 269.321 165.486 L 267.831 165.486 L 265.131 172.486 L 266.611 172.486 L 267.061 171.146 L 269.891 171.146 L 270.341 172.486 L 271.961 172.486 L 269.261 165.486 L 269.321 165.486 Z" stroke-linecap="round"/>
    <path style="stroke: rgb(0,0,0); stroke-width: 0; stroke-dasharray: none; stroke-linecap: butt; stroke-dashoffset: 0; stroke-linejoin: miter; stroke-miterlimit: 4; fill: rgb(0,0,0); fill-rule: nonzero; opacity: 1;" vector-effect="non-scaling-stroke" transform=" translate(-238.36, -166.12)" d="M 260.161 158.486 C 260.251 158.306 260.301 158.086 260.341 157.996 L 260.481 157.546 C 260.481 157.366 260.571 157.316 260.571 157.276 L 260.701 157.676 L 260.971 158.396 L 261.551 160.056 L 259.551 160.056 L 260.161 158.486 Z" stroke-linecap="round"/>
    <path style="stroke: rgb(0,0,0); stroke-width: 0; stroke-dasharray: none; stroke-linecap: butt; stroke-dashoffset: 0; stroke-linejoin: miter; stroke-miterlimit: 4; fill: rgb(0,0,0); fill-rule: nonzero; opacity: 1;" vector-effect="non-scaling-stroke" transform=" translate(-238.36, -166.12)" d="M 259.161 161.316 L 261.991 161.316 L 262.441 162.666 L 264.061 162.666 L 261.271 155.666 L 259.831 155.666 L 257.131 162.666 L 258.611 162.666 L 259.161 161.316 Z" stroke-linecap="round"/>
    <path style="stroke: rgb(0,0,0); stroke-width: 0; stroke-dasharray: none; stroke-linecap: butt; stroke-dashoffset: 0; stroke-linejoin: miter; stroke-miterlimit: 4; fill: rgb(0,0,0); fill-rule: nonzero; opacity: 1;" vector-effect="non-scaling-stroke" transform=" translate(-238.36, -166.12)" d="M 248.831 161.406 L 246.181 161.406 L 246.181 159.546 L 248.431 159.546 L 248.431 158.406 L 246.181 158.406 L 246.181 156.806 L 248.831 156.806 L 248.831 155.546 L 244.831 155.546 L 244.831 162.546 L 248.831 162.546 L 248.831 161.406 Z" stroke-linecap="round"/>
    <path style="stroke: rgb(0,0,0); stroke-width: 0; stroke-dasharray: none; stroke-linecap: butt; stroke-dashoffset: 0; stroke-linejoin: miter; stroke-miterlimit: 4; fill: rgb(0,0,0); fill-rule: nonzero; opacity: 1;" vector-effect="non-scaling-stroke" transform=" translate(-238.36, -166.12)" d="M 234.991 165.476 L 232.921 168.406 L 232.471 168.406 L 232.471 165.486 L 230.991 165.486 L 230.991 172.486 L 232.431 172.486 L 232.431 169.486 L 232.651 169.486 C 232.701 169.486 232.791 169.486 232.831 169.486 C 232.901 169.488 232.967 169.521 233.011 169.576 L 233.151 169.716 C 233.22 169.782 233.281 169.856 233.331 169.936 C 233.405 170.017 233.465 170.108 233.511 170.206 C 233.559 170.332 233.619 170.453 233.691 170.566 L 233.911 170.926 C 234.159 171.379 234.48 171.788 234.861 172.136 C 235.132 172.383 235.497 172.5 235.861 172.456 L 236.451 172.456 L 236.451 171.196 L 236.361 171.196 C 236.147 171.204 235.943 171.102 235.821 170.926 L 234.971 169.666 C 234.751 169.269 234.493 168.894 234.201 168.546 L 236.581 165.316 C 236.057 165.415 235.525 165.468 234.991 165.476 Z" stroke-linecap="round"/>
    <path style="stroke: rgb(0,0,0); stroke-width: 0; stroke-dasharray: none; stroke-linecap: butt; stroke-dashoffset: 0; stroke-linejoin: miter; stroke-miterlimit: 4; fill: rgb(0,0,0); fill-rule: nonzero; opacity: 1;" vector-effect="non-scaling-stroke" transform=" translate(-238.36, -166.12)" d="M 234.091 162.686 C 234.53 162.677 234.966 162.616 235.391 162.506 C 235.801 162.326 236.071 162.146 236.341 162.016 L 235.751 160.936 C 235.299 161.275 234.746 161.451 234.181 161.436 C 233.611 161.442 233.068 161.192 232.701 160.756 C 232.346 160.244 232.174 159.628 232.211 159.006 C 232.191 158.415 232.363 157.832 232.701 157.346 C 233.074 156.924 233.618 156.693 234.181 156.716 C 234.689 156.71 235.189 156.849 235.621 157.116 L 236.251 155.996 C 235.621 155.601 234.883 155.412 234.141 155.456 C 233.126 155.404 232.14 155.798 231.441 156.536 C 230.784 157.241 230.426 158.173 230.441 159.136 C 230.434 160.101 230.791 161.033 231.441 161.746 C 232.152 162.42 233.115 162.761 234.091 162.686 Z" stroke-linecap="round"/>
    <path style="stroke: rgb(0,0,0); stroke-width: 0; stroke-dasharray: none; stroke-linecap: butt; stroke-dashoffset: 0; stroke-linejoin: miter; stroke-miterlimit: 4; fill: rgb(0,0,0); fill-rule: nonzero; opacity: 1;" vector-effect="non-scaling-stroke" transform=" translate(-238.36, -166.12)" d="M 238.581 161.926 C 239.044 161.169 239.28 160.294 239.261 159.406 L 239.441 156.756 L 241.371 156.756 L 241.371 162.506 L 242.831 162.506 L 242.831 155.506 L 238.131 155.506 L 237.831 159.006 C 237.802 159.633 237.684 160.253 237.481 160.846 C 237.387 161.2 237.077 161.454 236.711 161.476 L 236.891 162.646 C 237.538 162.695 238.168 162.426 238.581 161.926 Z" stroke-linecap="round"/>
    <path style="stroke: rgb(0,0,0); stroke-width: 0; stroke-dasharray: none; stroke-linecap: butt; stroke-dashoffset: 0; stroke-linejoin: miter; stroke-miterlimit: 4; fill: rgb(0,0,0); fill-rule: nonzero; opacity: 1;" vector-effect="non-scaling-stroke" transform=" translate(-238.36, -166.12)" d="M 241.861 176.926 L 240.921 175.356 L 240.601 175.356 L 240.601 177.596 L 240.921 177.596 L 240.921 175.986 L 241.771 177.376 L 241.911 177.376 L 242.761 175.986 L 242.761 177.646 L 243.071 177.646 L 243.071 175.406 L 242.831 175.406 L 241.861 176.926 Z" stroke-linecap="round"/>
    <path style="stroke: rgb(0,0,0); stroke-width: 0; stroke-dasharray: none; stroke-linecap: butt; stroke-dashoffset: 0; stroke-linejoin: miter; stroke-miterlimit: 4; fill: rgb(0,0,0); fill-rule: nonzero; opacity: 1;" vector-effect="non-scaling-stroke" transform=" translate(-238.36, -166.12)" d="M 241.371 165.516 L 239.981 168.756 L 238.581 165.516 L 237.151 165.516 L 239.261 170.276 L 239.171 170.546 C 239.068 170.776 238.929 170.989 238.761 171.176 C 238.481 171.404 238.103 171.472 237.761 171.356 L 237.541 172.476 C 237.759 172.537 237.985 172.567 238.211 172.566 C 238.694 172.593 239.171 172.452 239.561 172.166 C 239.956 171.779 240.275 171.321 240.501 170.816 L 242.841 165.566 C 242.352 165.525 241.862 165.508 241.371 165.516 Z" stroke-linecap="round"/>
  </g>
</svg>