<?xml version="1.0" encoding="utf-8"?>
<!-- Generator: Adobe Illustrator 28.0.0, SVG Export Plug-In . SVG Version: 6.00 Build 0)  -->
<svg version="1.1" id="Layer_1" xmlns="http://www.w3.org/2000/svg" xmlns:xlink="http://www.w3.org/1999/xlink" x="0px" y="0px"
	 viewBox="0 0 33.3 33.6" style="enable-background:new 0 0 33.3 33.6;" xml:space="preserve">
<style type="text/css">
	.st0{fill:#353F47;}
</style>
<path class="st0" d="M15.4,7.7c0,4.2-3.4,7.7-7.7,7.7C3.4,15.4,0,11.9,0,7.7C0,3.4,3.4,0,7.7,0C11.9,0,15.4,3.4,15.4,7.7z"/>
<path class="st0" d="M15.4,25.9c0,4.2-3.4,7.7-7.7,7.7c-4.2,0-7.7-3.4-7.7-7.7c0-4.2,3.4-7.7,7.7-7.7C11.9,18.2,15.4,21.6,15.4,25.9
	z"/>
<path class="st0" d="M25.7,33.6c4.2,0,7.7-3.4,7.7-7.7c0-4.2-3.4-7.7-7.7-7.7c-4.2,0-7.7,3.4-7.7,7.7C18,30.1,21.4,33.6,25.7,33.6z"
	/>
<path class="st0" d="M33.3,7.7c0,4.2-3.4,7.7-7.7,7.7c-4.2,0-7.7-3.4-7.7-7.7C18,3.4,21.4,0,25.7,0C29.9,0,33.3,3.4,33.3,7.7z
	 M20.9,7.7c0,2.6,2.1,4.7,4.7,4.7c2.6,0,4.7-2.1,4.7-4.7c0-2.6-2.1-4.7-4.7-4.7C23,3,20.9,5.1,20.9,7.7z"/>
</svg>
