<svg width="200" height="200" viewBox="0 0 200 200" fill="none" xmlns="http://www.w3.org/2000/svg">
<path d="M85.45 10.8C90.4667 -0.616646 109.317 -0.699979 114.8 10.35C117.783 16.1334 116.133 23.0167 113.283 28.5167C104.5 28.7167 95.5833 30.0834 86.9333 28.0167C84.4333 22.7167 82.5667 16.3667 85.45 10.8ZM91.9667 8.30002L91.1 8.10002C90.7167 8.66669 89.95 9.78335 89.5667 10.3334C88.4 12.3834 87.3 14.4667 86.1833 16.5334C87.2833 18.8334 88.4 21.6334 91.25 22.15C98.35 23.6334 105.817 23.1834 112.817 21.3667C112.9 20.2334 113.083 18 113.183 16.8834C113.167 15.7834 113.117 13.6167 113.083 12.5334L112.633 12.6C110.917 11.6 109.433 6.86669 107.383 7.70002C102.683 4.50002 96.5667 5.38335 91.9667 8.30002Z" fill="#FB7D00"/>
<path d="M91.9667 8.3C96.5667 5.38334 102.683 4.5 107.383 7.7C106.85 8.13334 105.8 9.01667 105.267 9.45C100.8 9.93334 96.3 9.36667 91.9667 8.3Z" fill="#FFFFE3"/>
<path d="M107.383 7.69999C109.433 6.86666 110.917 11.6 112.633 12.6C105.067 14.0833 97.3333 14.1167 89.6666 13.6C89.65 12.7833 89.5833 11.15 89.5667 10.3333C89.95 9.78333 90.7166 8.66666 91.1 8.09999L91.9666 8.29999C96.3 9.36666 100.8 9.93333 105.267 9.44999C105.8 9.01666 106.85 8.13333 107.383 7.69999Z" fill="#FFF286"/>
<path d="M86.1833 16.5333C87.3 14.4667 88.4 12.3833 89.5666 10.3333C89.5833 11.15 89.65 12.7833 89.6666 13.6C97.3333 14.1167 105.067 14.0833 112.633 12.6L113.083 12.5333C113.117 13.6167 113.167 15.7833 113.183 16.8833C104.183 16.7833 95.1833 16.45 86.1833 16.5333Z" fill="#FFDE39"/>
<path d="M86.1833 16.5333C95.1833 16.45 104.183 16.7833 113.183 16.8833C113.083 18 112.9 20.2333 112.817 21.3667C105.817 23.1833 98.35 23.6333 91.25 22.15C88.4 21.6333 87.2833 18.8333 86.1833 16.5333Z" fill="#FEB400"/>
<path d="M81.1666 31.4667C87.4666 28.0167 94.8166 29.9 101.667 29.5667C107.9 29.8834 114.833 27.85 120.15 32.1834C107.733 36 92.6166 39.7 81.1666 31.4667Z" fill="#9376B2"/>
<path d="M76.4834 33.7667C77.4167 33.05 79.2667 31.6333 80.2 30.9167C79.5 37.8667 86.6167 41.1167 92 43.2667C103.25 47.3 116.733 42.2167 122.3 31.5833C122.55 32.65 122.8 33.7167 123.033 34.7833C120.633 37.95 117.7 40.6667 114.517 43.0167C105.717 48.6833 94.2667 48.6667 85.5834 42.7833C82.7334 40.6 80.1 38.1333 77.8 35.3667L76.4834 33.7667Z" fill="#0B0508"/>
<path d="M65.8833 140.95C73.4833 134.15 83.9833 135.967 93.3333 135.85C105.283 136.033 117.25 135.35 129.167 136.467C131.4 139.05 133.467 141.75 135.583 144.433C133.633 147.917 132.217 152.9 127.633 153.617C117.367 154.767 106.983 153.767 96.6833 154.083C87.3333 153.817 77.6833 155.25 68.65 152.267C66.6833 148.8 65.8167 144.917 65.8833 140.95ZM72.1833 139.317C70.1333 141.717 65.95 144.633 68.6333 148.117C70.4333 152.25 75.05 152.633 78.9833 152.883C78.7 148.217 78.0667 143.6 77.4833 138.983C75.7167 139.1 73.95 139.217 72.1833 139.317ZM103.2 138.817C102.983 140.95 102.8 143.067 102.617 145.2C102.667 147.667 102.717 150.117 102.75 152.583C107.483 152.583 112.217 152.583 116.95 152.533C117.017 150.9 117.133 147.667 117.183 146.033C116.85 143.633 116.5 141.233 116.15 138.833C111.833 138.883 107.517 138.883 103.2 138.817ZM122.383 138.5C121.9 143.317 121.6 148.167 121.617 153.017C123.317 152.883 125.017 152.75 126.733 152.633C129.667 151.267 131.417 148.483 133.233 145.967C132.133 140.717 127.433 138.367 122.383 138.5ZM83.7667 140.467C83.8 141.717 83.8667 144.217 83.9 145.467C83.85 147.833 83.8 150.2 83.75 152.567C88.3667 152.55 92.9833 152.533 97.6 152.567C97.55 148.617 97.4 144.667 97.8333 140.733C93.15 140.55 88.45 140.517 83.7667 140.467Z" fill="#0B0508"/>
<path d="M80.2 30.9167L81.1667 31.4667C92.6167 39.7 107.733 36 120.15 32.1833L122.3 31.5833C116.733 42.2167 103.25 47.3 92 43.2667C86.6167 41.1167 79.5 37.8667 80.2 30.9167Z" fill="#6C5482"/>
<path d="M45.0167 36.6833C55.4833 33.9167 66.4333 34.9667 77.1333 34.6L77.8 35.3667C80.1 38.1333 82.7333 40.6 85.5833 42.7833C84.0667 42.9 81.05 43.1333 79.55 43.25C68.9667 43.5333 58.2333 42.0333 47.8 44.4C39.8 46.15 35.3167 54.05 32.9 61.2333C30.8833 68.7167 31.5333 76.55 31.85 84.2C29.7333 82.7833 26.8167 82.15 25.3833 79.9167C24.0667 73.3 24.3833 66.5 24.5167 59.7833C26.6167 49.1333 34.4833 39.7667 45.0167 36.6833Z" fill="#B1C8C1"/>
<path d="M123.033 34.7833C135.55 35.05 149.05 33.1167 160.667 38.8833C169.8 43.6833 176.017 53.4833 176.333 63.8333C175.9 69.1 175.767 74.4667 174.467 79.6333C173.067 82.2167 170.25 83.6667 168.117 85.5833C168.117 84.4833 168.117 82.3 168.117 81.2C168.067 74.0667 168.717 66.7667 166.933 59.7833C164.85 52.8333 159.833 45.8833 152.333 44.3667C141.883 42.2667 131.167 43.3833 120.583 43.2833C119.067 43.2167 116.033 43.0833 114.517 43.0167C117.7 40.6667 120.633 37.95 123.033 34.7833Z" fill="#B1C8C1"/>
<path d="M47.8 44.4C58.2333 42.0333 68.9667 43.5333 79.55 43.25C90.15 54.6167 110.083 54.95 120.583 43.2833C131.167 43.3833 141.883 42.2667 152.333 44.3667C159.833 45.8833 164.85 52.8333 166.933 59.7833C168.717 66.7667 168.067 74.0667 168.117 81.2C167.483 83.3667 166.783 85.5 166.1 87.6333C163.8 88.4333 161.517 89.2333 159.217 90.0333C158.95 89.0667 158.417 87.15 158.15 86.1833L157.983 85.7333C154.383 75.5 142.333 68.7833 131.85 72.2333C124.467 74.25 118.617 80.5833 117.2 88.1C116.517 88.7667 115.15 90.1 114.467 90.75C104.967 87.5667 94.8167 88.2333 85.2833 90.8C84.9833 90.1167 84.4 88.7333 84.1 88.05C81.5 80.75 76.2 73.85 68.35 71.9333C56.8167 68.4667 44.4167 76.75 41.1667 87.9C41.0333 88.4833 40.7667 89.6167 40.6167 90.2C38.3167 89.3167 36.0333 88.4333 33.7333 87.55C32.8 78.8167 32.4167 70.0167 32.9 61.2333C35.3167 54.05 39.8 46.15 47.8 44.4Z" fill="#DCF5F6"/>
<path d="M79.55 43.25C81.05 43.1333 84.0667 42.9 85.5833 42.7833C94.2667 48.6667 105.717 48.6833 114.517 43.0167C116.033 43.0833 119.067 43.2167 120.583 43.2833C110.083 54.95 90.15 54.6167 79.55 43.25Z" fill="#BCDAD6"/>
<path d="M22.85 84.5333C22.75 76.25 23.1833 67.9667 24.5167 59.7833C24.3833 66.5 24.0667 73.3 25.3833 79.9167C26.8167 82.15 29.7333 82.7833 31.85 84.2C32 86.1167 32.15 88.0166 32.3333 89.9333C29.5167 90.2333 26.7 90.5 23.8833 90.7167L22.7333 90.3C22.7667 88.8667 22.8167 85.9833 22.85 84.5333Z" fill="#9AB4B1"/>
<path d="M31.85 84.2C31.5333 76.55 30.8833 68.7167 32.9 61.2333C32.4167 70.0167 32.8 78.8167 33.7333 87.55C36.0333 88.4333 38.3167 89.3167 40.6167 90.2C40.3 92.7167 40.0667 95.2333 39.8333 97.7667C37.5333 97.4 35.25 97.0333 32.95 96.6833C32.75 94.4333 32.5333 92.1833 32.3333 89.9333C32.15 88.0167 32 86.1167 31.85 84.2Z" fill="#BBDEDC"/>
<path d="M166.1 87.6333C166.783 85.5 167.483 83.3666 168.117 81.2C168.117 82.3 168.117 84.4833 168.117 85.5833C167.983 89.1166 167.75 92.7833 166.2 96.05C163.767 96.8333 161.217 97.1667 158.683 97.5333C158.967 95.0333 159.133 92.5333 159.217 90.0333C161.517 89.2333 163.8 88.4333 166.1 87.6333Z" fill="#BBDEDC"/>
<path d="M176.333 63.8333C176.55 65.0333 177 67.4333 177.217 68.6333C176.933 75.7667 177.35 82.9 177.067 90.0333C174.683 90.2333 172.3 90.4166 169.917 90.6166C169.217 93.5666 168.517 96.5333 167.9 99.5167C167.383 101.733 166.817 103.95 166.267 106.15C162.75 105.383 159.233 104.617 155.717 103.833C156.767 101.767 157.783 99.6833 158.683 97.5333C161.217 97.1667 163.767 96.8333 166.2 96.05C167.75 92.7833 167.983 89.1166 168.117 85.5833C170.25 83.6666 173.067 82.2166 174.467 79.6333C175.767 74.4666 175.9 69.1 176.333 63.8333Z" fill="#9BBEC0"/>
<path opacity="0.82" d="M177.217 68.6333C179.233 73.2333 175.533 79.4167 178.35 83.2C181.5 84.15 185.683 83 187.983 85.8833C184.383 84.0667 177.317 83.2667 177.2 88.9667C177.267 95.2667 178.067 101.517 179 107.75C181.117 107.633 183.233 107.533 185.367 107.433C185.15 108.383 184.733 110.3 184.533 111.267C182.383 111.15 180.25 111.033 178.117 110.933C177.733 118.833 177.683 126.75 177.233 134.65C177.317 130.783 177.35 126.9 177.317 123.05C177.3 120.117 177.25 117.183 177.183 114.267C177.1 111.067 177 107.867 176.933 104.667C176.85 99.7833 176.933 94.9167 177.067 90.0333C177.35 82.9 176.933 75.7667 177.217 68.6333Z" fill="#6E3B3B"/>
<path d="M41.1666 87.9C44.4166 76.75 56.8166 68.4667 68.35 71.9333C76.2 73.85 81.5 80.75 84.1 88.05C84 89.2333 83.8166 91.6333 83.7166 92.8333L82.2333 94.4333L81.0666 93.85C82.9 83.45 73.6 73.9 63.3666 73.9833C52.6166 73.25 42.4 82.9667 43.9333 93.9167L42.7 94.45L41.6666 92.65C41.55 91.4667 41.3 89.1 41.1666 87.9Z" fill="#1B84B3"/>
<path d="M117.2 88.1C118.617 80.5833 124.467 74.25 131.85 72.2333C142.333 68.7833 154.383 75.5 157.983 85.7333C154.7 81.3167 150.883 77.25 146.133 74.4167C141.1 71.8334 135.183 71.5834 130.15 74.3C123.633 78.0167 117.867 84.05 118.283 92.1333C120.233 91.9667 122.183 91.8 124.133 91.6167C124.8 82.6833 135.067 76.5 143.233 80.3333C148.983 82.1167 150.65 88.2833 153.133 93.05C152.267 94.2667 151.417 95.5167 150.617 96.7667C152.167 89.1167 146.633 80.0667 138.267 80.3667C130.867 79.5167 125.783 86.4667 124.717 93.0333C122.517 93.2167 120.317 93.4167 118.117 93.6C120.15 100.683 123.95 108.15 131.367 110.767C138.533 114.2 147.067 111.1 152.167 105.533C154.917 102.067 156.183 97.7333 157.35 93.55C157.717 91.1167 157.933 88.65 158.15 86.1833C158.417 87.15 158.95 89.0667 159.217 90.0333C159.133 92.5333 158.967 95.0333 158.683 97.5333C157.783 99.6833 156.767 101.767 155.717 103.833C153.283 106.933 150.4 109.667 147.35 112.167C139.483 114.433 131 113.9 124.133 109.15C121.3 105.85 118.95 102.15 117.133 98.2C117.133 94.8333 117.117 91.4667 117.2 88.1Z" fill="#1D535C"/>
<path d="M41.6667 92.65L42.7 94.45C44.9833 98.6334 45.9667 103.75 49.8833 106.833C55.2 111.7 63.35 114.017 69.95 110.3C76.8 107.65 79.05 100.3 82.2333 94.4334L83.7167 92.8334C83.3833 95.4667 82.9833 98.1 82.4167 100.7C80.5667 103.8 78.4667 106.75 76.0167 109.4C73.15 111.117 70.1667 112.633 67.15 114.05C61.6 113.683 55.9833 112.85 50.9167 110.467C48.7333 108.367 46.6167 106.217 44.65 103.933C42.95 100.383 42.0667 96.55 41.6667 92.65Z" fill="#1D535C"/>
<path d="M168.1 130.9C172.683 132.583 177.733 134.817 177.05 140.7C174 140.55 170.933 140.35 167.883 140.15C168.117 137.067 168.15 133.983 168.1 130.9Z" fill="#1D535C"/>
<path d="M130.15 74.3C135.183 71.5833 141.1 71.8333 146.133 74.4167C140.8 74.7667 135.467 74.7167 130.15 74.3Z" fill="#00AEE2"/>
<path d="M43.9333 93.9167C42.4 82.9667 52.6166 73.25 63.3666 73.9833C73.6 73.9 82.9 83.45 81.0666 93.85C80.3 93.4333 78.7666 92.6 78.0166 92.1833C75.3 85.95 71.1166 78.7667 63.2833 79C54.9 78 49.7833 85.5667 47.15 92.4C46.35 92.7833 44.75 93.5333 43.9333 93.9167Z" fill="#00F2FF"/>
<path d="M118.283 92.1333C117.867 84.05 123.633 78.0167 130.15 74.3C135.467 74.7167 140.8 74.7667 146.133 74.4167C150.883 77.25 154.7 81.3167 157.983 85.7333L158.15 86.1833C157.933 88.65 157.717 91.1167 157.35 93.55C156.3 93.4334 154.183 93.1667 153.133 93.05C150.65 88.2834 148.983 82.1167 143.233 80.3334C135.067 76.5 124.8 82.6834 124.133 91.6167C122.183 91.8 120.233 91.9667 118.283 92.1333Z" fill="#00F0FF"/>
<path d="M47.15 92.4C49.7833 85.5667 54.9 78 63.2833 79C71.1167 78.7667 75.3 85.95 78.0167 92.1834C78.7667 92.6 80.3 93.4334 81.0667 93.85L82.2333 94.4333C79.05 100.3 76.8 107.65 69.95 110.3C63.35 114.017 55.2 111.7 49.8833 106.833C45.9667 103.75 44.9833 98.6333 42.7 94.45L43.9333 93.9167C44.75 93.5333 46.35 92.7833 47.15 92.4ZM50.4167 90.8167L49.7 90.35C50.2667 94.2833 50.0667 98.8 53.1667 101.783C58 107.783 68.3667 107.383 72.6833 101C75.9167 97.25 75.4833 92.1 74.3667 87.6167C72.3833 85.5167 70.5833 83.1167 68.1 81.5833C60.95 78.0167 51.4333 82.8333 50.4167 90.8167Z" fill="#287F98"/>
<path d="M50.4167 90.8167C51.4333 82.8333 60.95 78.0167 68.1 81.5833C70.5833 83.1167 72.3833 85.5167 74.3667 87.6167C73.9333 89 73.1 91.75 72.6667 93.1333C65.3333 92.7167 56.8167 95.45 50.4167 90.8167Z" fill="#E8FFFF"/>
<path d="M124.717 93.0334C125.783 86.4667 130.867 79.5167 138.267 80.3667C146.633 80.0667 152.167 89.1167 150.617 96.7667C147.833 101.867 143.133 107.033 136.683 105.967C129.767 105.717 125.733 99.2 124.717 93.0334Z" fill="#EAF6F8"/>
<path d="M13.65 84.0667C16.7333 84 19.8 84.05 22.85 84.5333C22.8167 85.9833 22.7667 88.8667 22.7333 90.3C22.6833 92.8833 22.6167 95.45 22.5333 98.0333C22.5167 98.6333 22.4833 99.8333 22.4667 100.433L22 102.517C21.75 99 21.4167 95.5 21.0833 92C19.3333 92.1667 17.5833 92.35 15.8167 92.5167C15.5667 96.15 15.3 99.7833 15.05 103.4C15 104.2 14.9333 105.8 14.8833 106.6C14.8667 107.517 14.8167 109.35 14.8 110.267C13.4333 101.8 13.2667 93.2 13.6333 84.6667L13.65 84.0667Z" fill="#FF0802"/>
<path d="M98.8501 94.5C104.583 98.1833 106.217 105.217 109.283 110.883C110.25 112.833 111.233 114.783 112.083 116.783C111.833 118.633 111.517 120.467 111.133 122.283C109.433 118.367 107.917 114.383 106.517 110.35C104.85 105.317 102.6 100.483 100.083 95.8333C97.8501 100.667 95.6501 105.533 93.8501 110.55C92.4501 114.367 91.1334 118.2 89.8334 122.033L88.8667 121.317C88.7667 120.1 88.5501 117.667 88.4501 116.45L88.8834 115.567C89.7501 113.8 90.6334 112.05 91.5167 110.283C93.2501 106.8 94.9001 103.267 96.4834 99.7333C97.2834 97.9833 98.0501 96.2333 98.8501 94.5Z" fill="#FF0802"/>
<path d="M12.3834 93.25C12.3 90.3333 12.5667 87.4 13.6334 84.6667C13.2667 93.2 13.4334 101.8 14.8 110.267C14.9667 113.933 19.4167 114.317 21.8334 115.967C22.4 122.067 22.5167 128.183 22.4 134.3C20.1 134.75 17.7667 135.1 15.4167 135.333C14.7 135 13.25 134.317 12.5334 133.983C12.4834 120.4 12.5334 106.833 12.3834 93.25Z" fill="#5A0000"/>
<path d="M186.417 102.05L187.717 103.717C189.783 108.083 188.267 113.517 188.717 118.3C188.333 123.883 189.817 130.683 186.05 135.317L184.617 135.7C182.167 135.25 179.683 135.017 177.233 134.65C177.683 126.75 177.733 118.833 178.117 110.933C180.25 111.033 182.383 111.15 184.533 111.267C184.733 110.3 185.15 108.383 185.367 107.433C185.633 106.083 186.15 103.4 186.417 102.05Z" fill="#5A0000"/>
<path d="M87.5334 118.383C87.7667 117.9 88.2334 116.933 88.45 116.45C88.55 117.667 88.7667 120.1 88.8667 121.317L89.8334 122.033C96.9167 122.733 104.05 122.567 111.133 122.283C111.517 120.467 111.833 118.633 112.083 116.783C112.35 117.567 112.917 119.15 113.2 119.933C113.233 120.833 113.3 122.65 113.333 123.55C104.55 124.167 95.7167 123.9 86.9167 123.717C87.0667 122.383 87.3834 119.717 87.5334 118.383Z" fill="#5A0000"/>
<path d="M177.2 88.9666C177.317 83.2666 184.383 84.0666 187.983 85.8833C187.783 91.8333 187.933 97.7833 187.717 103.717L186.417 102.05C186.217 98.5833 186.217 95 185.05 91.6833C183.267 89.3666 179.667 89.9833 177.2 88.9666Z" fill="#FF0902"/>
<path d="M40.6167 90.2C40.7667 89.6167 41.0333 88.4833 41.1667 87.9C41.3 89.1 41.55 91.4667 41.6667 92.65C42.0667 96.55 42.95 100.383 44.65 103.933C41.0833 105.117 37.45 106.133 33.7833 107.033C33.5167 103.583 33.25 100.133 32.95 96.6833C35.25 97.0333 37.5333 97.4 39.8333 97.7667C40.0667 95.2333 40.3 92.7167 40.6167 90.2Z" fill="#98BFC1"/>
<path d="M74.3666 87.6167C75.4833 92.1 75.9166 97.25 72.6833 101C68.3666 107.383 58 107.783 53.1666 101.783C50.0666 98.8 50.2666 94.2833 49.7 90.35L50.4166 90.8167C56.8166 95.45 65.3333 92.7167 72.6666 93.1333C73.0999 91.75 73.9333 89 74.3666 87.6167Z" fill="#EBF0F3"/>
<path d="M84.1 88.05C84.4 88.7334 84.9833 90.1167 85.2833 90.8C94.8166 88.2333 104.967 87.5667 114.467 90.75C115.15 90.1 116.517 88.7667 117.2 88.1C117.117 91.4667 117.133 94.8334 117.133 98.2C116.967 98.9334 116.65 100.383 116.5 101.117C109.65 101.3 104.867 96.5167 99.5333 93.05L98.85 94.5C98.05 96.2334 97.2833 97.9834 96.4833 99.7334C91.7833 99.9834 87.1 100.3 82.4166 100.7C82.9833 98.1 83.3833 95.4667 83.7166 92.8334C83.8166 91.6334 84 89.2334 84.1 88.05Z" fill="#B6D9D7"/>
<path d="M22.7333 90.3L23.8833 90.7167C26.4167 91.8333 28.9 93.05 31.3833 94.2333C31.55 96.7833 31.7167 99.3167 31.8833 101.867C29.7667 102.133 27.6667 102.4 25.5667 102.667C24.5667 101.117 23.55 99.5667 22.5333 98.0333C22.6167 95.45 22.6833 92.8833 22.7333 90.3Z" fill="#7A9593"/>
<path d="M23.8833 90.7167C26.7 90.5 29.5166 90.2333 32.3333 89.9333C32.5333 92.1833 32.75 94.4333 32.95 96.6833C33.25 100.133 33.5166 103.583 33.7833 107.033C37.45 106.133 41.0833 105.117 44.65 103.933C46.6166 106.217 48.7333 108.367 50.9166 110.467C44.8666 112.55 38.8166 114.667 32.7833 116.783C32.5666 111.8 32.2 106.833 31.8833 101.867C31.7166 99.3167 31.55 96.7834 31.3833 94.2334C28.9 93.05 26.4166 91.8334 23.8833 90.7167Z" fill="#83ADB1"/>
<path d="M169.917 90.6167C172.3 90.4167 174.683 90.2333 177.067 90.0333C176.933 94.9167 176.85 99.7833 176.933 104.667C173.95 104.7 170.95 104.733 167.967 104.783C167.95 103.467 167.917 100.833 167.9 99.5167C168.517 96.5333 169.217 93.5667 169.917 90.6167Z" fill="#799493"/>
<path d="M177.2 88.9667C179.667 89.9833 183.267 89.3667 185.05 91.6833C186.217 95 186.217 98.5833 186.417 102.05C186.15 103.4 185.633 106.083 185.367 107.433C183.233 107.533 181.117 107.633 179 107.75C178.067 101.517 177.267 95.2667 177.2 88.9667ZM180.167 92.75C179.033 97.3667 178.933 102.183 181.417 106.4C186.2 102.8 185.917 95.1833 180.167 92.75Z" fill="#E55552"/>
<path d="M15.8167 92.5167C17.5834 92.35 19.3334 92.1667 21.0834 92C21.4167 95.5 21.75 99 22 102.517C21.8334 103.233 21.5 104.65 21.3334 105.367C19.2334 104.717 17.15 104.05 15.05 103.4C15.3 99.7833 15.5667 96.15 15.8167 92.5167Z" fill="#FF9D9C"/>
<path d="M99.5334 93.05C104.867 96.5167 109.65 101.3 116.5 101.117C116.65 100.383 116.967 98.9333 117.133 98.2C118.95 102.15 121.3 105.85 124.133 109.15C119.667 112.2 114.367 112.583 109.283 110.883C106.217 105.217 104.583 98.1834 98.85 94.5L99.5334 93.05Z" fill="#92BABD"/>
<path d="M118.117 93.6C120.317 93.4167 122.517 93.2167 124.717 93.0333C125.733 99.2 129.767 105.717 136.683 105.967C143.133 107.033 147.833 101.867 150.617 96.7667C151.417 95.5167 152.267 94.2667 153.133 93.05C154.183 93.1667 156.3 93.4333 157.35 93.55C156.183 97.7333 154.917 102.067 152.167 105.533C147.067 111.1 138.533 114.2 131.367 110.767C123.95 108.15 120.15 100.683 118.117 93.6Z" fill="#2C829C"/>
<path d="M180.167 92.75C185.917 95.1834 186.2 102.8 181.417 106.4C178.933 102.183 179.033 97.3667 180.167 92.75Z" fill="#FA9695"/>
<path d="M22.5333 98.0333C23.55 99.5667 24.5667 101.117 25.5667 102.667C27.6667 102.4 29.7667 102.133 31.8833 101.867C32.2 106.833 32.5667 111.8 32.7833 116.783C32.9333 120.983 32.85 125.167 32.7333 129.367C32.7167 130.483 32.6667 132.717 32.65 133.85C32.5667 132.733 32.3833 130.483 32.3 129.367C32.05 126.55 31.7667 123.733 31.5167 120.917C28.7 120.733 25.9 120.533 23.1 120.35C23.3667 113.7 23.15 107.05 22.4667 100.433C22.4833 99.8333 22.5167 98.6333 22.5333 98.0333Z" fill="#59777A"/>
<path d="M93.85 110.55C95.65 105.533 97.85 100.667 100.083 95.8333C102.6 100.483 104.85 105.317 106.517 110.35C103.167 113.95 97.3167 114.017 93.85 110.55Z" fill="#E67775"/>
<path d="M82.4167 100.7C87.1 100.3 91.7833 99.9833 96.4833 99.7333C94.9 103.267 93.25 106.8 91.5167 110.283C86.35 110.017 81.1833 109.717 76.0167 109.4C78.4667 106.75 80.5667 103.8 82.4167 100.7Z" fill="#94BBBE"/>
<path d="M166.267 106.15C166.817 103.95 167.383 101.733 167.9 99.5167C167.917 100.833 167.95 103.467 167.967 104.783C168 106.95 168 109.133 167.95 111.333C167.45 113.017 166.917 114.7 166.367 116.383C160.333 113.933 154 111.567 147.35 112.167C150.4 109.667 153.283 106.933 155.717 103.833C159.233 104.617 162.75 105.383 166.267 106.15Z" fill="#84AEB2"/>
<path d="M22 102.517L22.4667 100.433C23.15 107.05 23.3667 113.7 23.1 120.35C23.0167 124.617 23.2 128.883 23.2167 133.15L22.4 134.3C22.5167 128.183 22.4 122.067 21.8333 115.967C19.4167 114.317 14.9667 113.933 14.8 110.267C14.8167 109.35 14.8667 107.517 14.8833 106.6C16.6333 107.7 18.4 108.767 20.1833 109.8C20.4833 108.7 21.05 106.483 21.3333 105.367C21.5 104.65 21.8333 103.233 22 102.517Z" fill="#782A29"/>
<path d="M15.05 103.4C17.15 104.05 19.2334 104.717 21.3334 105.367C21.05 106.483 20.4834 108.7 20.1834 109.8C18.4 108.767 16.6334 107.7 14.8834 106.6C14.9334 105.8 15 104.2 15.05 103.4Z" fill="#B95D5C"/>
<path d="M167.967 104.783C170.95 104.733 173.95 104.7 176.933 104.667C177 107.867 177.1 111.067 177.183 114.267C174.1 114.25 171.017 114.233 167.933 114.25C167.933 113.517 167.95 112.05 167.95 111.333C168 109.133 168 106.95 167.967 104.783Z" fill="#5F7D7F"/>
<path d="M124.133 109.15C131 113.9 139.483 114.433 147.35 112.167C154 111.567 160.333 113.933 166.367 116.383C166.917 114.7 167.45 113.017 167.95 111.333C167.95 112.05 167.933 113.517 167.933 114.25C167.917 117.067 167.917 119.883 167.9 122.7L167.883 124.517C167.683 126.15 167.467 127.783 167.217 129.417C153.583 125.533 139.733 131.933 126.05 129.033C122.117 128.3 118.433 126.667 114.817 125.017C114.283 123.317 113.75 121.617 113.2 119.933C112.917 119.15 112.35 117.567 112.083 116.783C111.233 114.783 110.25 112.833 109.283 110.883C114.367 112.583 119.667 112.2 124.133 109.15Z" fill="#689AA1"/>
<path d="M50.9167 110.467C55.9833 112.85 61.6 113.683 67.15 114.05C74.3833 114.617 81.6333 115.083 88.8833 115.567L88.45 116.45C88.2333 116.933 87.7667 117.9 87.5333 118.383C87.2333 118.967 86.65 120.133 86.35 120.7C84.6667 123.483 83.5833 127.5 79.7833 127.917C64.3167 133.15 48.3167 125.55 32.7333 129.367C32.85 125.167 32.9333 120.983 32.7833 116.783C38.8167 114.667 44.8667 112.55 50.9167 110.467Z" fill="#6799A1"/>
<path d="M67.15 114.05C70.1667 112.633 73.15 111.117 76.0167 109.4C81.1834 109.717 86.35 110.017 91.5167 110.283C90.6334 112.05 89.75 113.8 88.8834 115.567C81.6334 115.083 74.3834 114.617 67.15 114.05Z" fill="#82ADB1"/>
<path d="M89.8333 122.033C91.1333 118.2 92.45 114.367 93.85 110.55C97.3167 114.017 103.167 113.95 106.517 110.35C107.917 114.383 109.433 118.367 111.133 122.283C104.05 122.567 96.9167 122.733 89.8333 122.033Z" fill="#C55E5D"/>
<path d="M167.933 114.25C171.017 114.233 174.1 114.25 177.183 114.267C177.25 117.183 177.3 120.117 177.317 123.05C174.183 122.917 171.033 122.8 167.9 122.7C167.917 119.883 167.917 117.067 167.933 114.25Z" fill="#4D6F73"/>
<path d="M86.35 120.7C86.65 120.133 87.2333 118.967 87.5333 118.383C87.3833 119.717 87.0666 122.383 86.9166 123.717L86.8666 124.65C96.1666 125.1 105.5 124.617 114.817 125.017C118.433 126.667 122.117 128.3 126.05 129.033C139.733 131.933 153.583 125.533 167.217 129.417C166.883 131.483 166.55 133.567 166.217 135.633C158.65 136.317 151.05 137.283 143.45 136.483C138.7 135.967 133.9 135.767 129.167 136.467C117.25 135.35 105.283 136.033 93.3333 135.85C83.9833 135.967 73.4833 134.15 65.8833 140.95C54.9166 139.6 43.8333 139.9 32.8 139.767C32.7666 137.783 32.7166 135.817 32.65 133.85C32.6666 132.717 32.7166 130.483 32.7333 129.367C48.3166 125.55 64.3166 133.15 79.7833 127.917C83.5833 127.5 84.6666 123.483 86.35 120.7Z" fill="#568F99"/>
<path d="M23.1 120.35C25.9 120.533 28.7 120.733 31.5167 120.917C31.7667 123.733 32.05 126.55 32.3 129.367C29.2667 130.617 26.25 131.883 23.2167 133.15C23.2 128.883 23.0167 124.617 23.1 120.35Z" fill="#3B6168"/>
<path d="M113.2 119.933C113.75 121.617 114.283 123.317 114.817 125.017C105.5 124.617 96.1667 125.1 86.8667 124.65L86.9167 123.717C95.7167 123.9 104.55 124.167 113.333 123.55C113.3 122.65 113.233 120.833 113.2 119.933Z" fill="#613A3D"/>
<path d="M167.9 122.7C171.033 122.8 174.183 122.917 177.317 123.05C177.35 126.9 177.317 130.783 177.233 134.65C179.683 135.017 182.167 135.25 184.617 135.7H184.817C182.467 136.133 180.083 136.267 177.683 136.1C176.45 149.017 179.383 164.467 170.083 175C175.983 164.533 176.433 152.383 177.05 140.7C177.733 134.817 172.683 132.583 168.1 130.9C168.017 128.783 167.95 126.65 167.883 124.517L167.9 122.7Z" fill="#375F66"/>
<path d="M167.217 129.417C167.467 127.783 167.683 126.15 167.883 124.517C167.95 126.65 168.017 128.783 168.1 130.9C168.15 133.983 168.117 137.067 167.883 140.15C167.483 142.117 167 144.05 166.55 146.017C156.217 145.6 145.933 144.317 135.583 144.433C133.467 141.75 131.4 139.05 129.167 136.467C133.9 135.767 138.7 135.967 143.45 136.483C151.05 137.283 158.65 136.317 166.217 135.633C166.55 133.567 166.883 131.483 167.217 129.417Z" fill="#458793"/>
<path d="M23.2167 133.15C26.25 131.883 29.2667 130.617 32.3 129.367C32.3834 130.483 32.5667 132.733 32.65 133.85C32.7167 135.817 32.7667 137.783 32.8 139.767C32.9334 145.133 32.85 150.5 32.9667 155.883L33.0334 157.083C32.0334 151.05 31.5167 144.933 31.0334 138.833C28.6167 139.383 26.2167 139.917 23.8 140.483C23.6667 138.017 23.4667 135.583 23.2167 133.15Z" fill="#21545D"/>
<path opacity="0.5" d="M22.4 134.3L23.2167 133.15C23.4667 135.583 23.6667 138.017 23.8 140.483C23.85 150.017 24.5167 159.533 26.15 168.95C21.3167 158.833 23.05 147.083 22.2167 136.233C19.95 135.95 17.6833 135.667 15.4167 135.333C17.7667 135.1 20.1 134.75 22.4 134.3Z" fill="#162C31"/>
<path d="M23.8 140.483C26.2167 139.917 28.6167 139.383 31.0334 138.833C31.5167 144.933 32.0334 151.05 33.0334 157.083C33.8834 162.817 36.0334 168.9 41.1667 172.133C51.0667 178.733 63.5834 177.95 74.9333 178.517C94.4 178.5 113.85 178.75 133.3 178.267C143.483 177.85 155.167 177.133 162.633 169.25C169.033 161.067 168 149.917 167.883 140.15C170.933 140.35 174 140.55 177.05 140.7C176.433 152.383 175.983 164.533 170.083 175C161.75 185.417 147.583 187.9 134.983 187.95C111.1 188 87.2333 188.1 63.35 187.9C51.3834 187.567 37.6 184.833 30.2334 174.467C29.3 172.85 28.4334 170.733 26.3667 170.35L26.15 168.95C24.5167 159.533 23.85 150.017 23.8 140.483Z" fill="#003744"/>
<path d="M72.1833 139.317C73.95 139.217 75.7167 139.1 77.4833 138.983C78.0667 143.6 78.7 148.217 78.9833 152.883C75.05 152.633 70.4333 152.25 68.6333 148.117C65.95 144.633 70.1333 141.717 72.1833 139.317Z" fill="#BAC0B7"/>
<path d="M103.2 138.817C107.517 138.883 111.833 138.883 116.15 138.833C116.5 141.233 116.85 143.633 117.183 146.033C112.333 145.75 107.467 145.5 102.617 145.2C102.8 143.067 102.983 140.95 103.2 138.817Z" fill="#888780"/>
<path d="M122.383 138.5C127.433 138.367 132.133 140.717 133.233 145.967C129.767 145.317 126.3 144.7 122.833 144.117C123.133 147.55 121.467 152.8 126.733 152.633C125.017 152.75 123.317 152.883 121.617 153.017C121.6 148.167 121.9 143.317 122.383 138.5Z" fill="#87867F"/>
<path d="M32.8 139.767C43.8334 139.9 54.9167 139.6 65.8834 140.95C65.8167 144.917 66.6834 148.8 68.65 152.267C64.6834 151 60.4834 149.633 56.3334 150.917C48.6167 152.883 40.9334 155.2 32.9667 155.883C32.85 150.5 32.9334 145.133 32.8 139.767Z" fill="#37828F"/>
<path d="M166.55 146.017C167 144.05 167.483 142.117 167.883 140.15C168 149.917 169.033 161.067 162.633 169.25C155.167 177.133 143.483 177.85 133.3 178.267C113.85 178.75 94.4 178.5 74.9333 178.517C63.5833 177.95 51.0667 178.733 41.1667 172.133C36.0333 168.9 33.8833 162.817 33.0333 157.083L32.9667 155.883C40.9333 155.2 48.6167 152.883 56.3333 150.917C60.4833 149.633 64.6833 151 68.65 152.267C77.6833 155.25 87.3333 153.817 96.6833 154.083C106.983 153.767 117.367 154.767 127.633 153.617C132.217 152.9 133.633 147.917 135.583 144.433C145.933 144.317 156.217 145.6 166.55 146.017Z" fill="#247E8D"/>
<path d="M83.7667 140.467C88.45 140.517 93.15 140.55 97.8333 140.733C97.1 142.933 96.25 145.067 95.2833 147.183C91.4167 148.317 87.3333 147.417 83.9 145.467C83.8667 144.217 83.8 141.717 83.7667 140.467Z" fill="#A3A79F"/>
<path d="M97.8333 140.733C97.4 144.667 97.55 148.617 97.6 152.567C92.9833 152.533 88.3667 152.55 83.75 152.567C83.8 150.2 83.85 147.833 83.9 145.467C87.3333 147.417 91.4167 148.317 95.2833 147.183C96.25 145.067 97.1 142.933 97.8333 140.733Z" fill="#E3EDE3"/>
<path d="M102.617 145.2C107.467 145.5 112.333 145.75 117.183 146.033C117.133 147.667 117.017 150.9 116.95 152.533C112.217 152.583 107.483 152.583 102.75 152.583C102.717 150.117 102.667 147.667 102.617 145.2Z" fill="#D9E2D8"/>
<path d="M122.833 144.117C126.3 144.7 129.767 145.317 133.233 145.967C131.417 148.483 129.667 151.267 126.733 152.633C121.467 152.8 123.133 147.55 122.833 144.117Z" fill="#C9D2C8"/>
<path opacity="0.27" d="M26.3667 170.35C28.4333 170.733 29.3 172.85 30.2333 174.467C27.9833 176.117 24.55 172.5 26.3667 170.35Z" fill="#1C2729"/>
</svg>
