<svg width="27" height="28" viewBox="0 0 27 28" fill="none" xmlns="http://www.w3.org/2000/svg">
<g clip-path="url(#clip0)">
<path d="M24.4029 16.3959C24.1873 15.8626 23.5801 15.6048 23.0468 15.8206C22.5134 16.0362 22.2558 16.6433 22.4714 17.1767L23.6982 20.2114L20.0546 18.6052C19.7908 18.489 19.4907 18.4871 19.2256 18.6003C17.9804 19.1316 16.6464 19.4009 15.2608 19.4009C9.68406 19.4009 5.93786 15.0345 5.93786 10.9564C5.93786 6.30002 10.1201 2.5118 15.2608 2.5118C20.4015 2.5118 24.5837 6.30002 24.5837 10.9564C24.5837 11.3196 24.5498 11.7546 24.4909 12.1497C24.406 12.7188 24.7985 13.2488 25.3675 13.3337C25.9366 13.4188 26.4666 13.0262 26.5514 12.4571C26.626 11.9577 26.667 11.4246 26.667 10.9564C26.667 8.12668 25.4688 5.47158 23.2929 3.48018C21.1428 1.51227 18.2903 0.428467 15.2608 0.428467C12.2313 0.428467 9.3788 1.51227 7.22864 3.48013C5.28427 5.25971 4.12135 7.5695 3.89578 10.0601C1.45011 11.6796 0.000366608 14.2749 0.000366608 17.0704C0.000366608 18.8166 0.550523 20.4735 1.59776 21.8994L0.0763041 25.663C-0.0826021 26.056 0.0125541 26.5062 0.316981 26.8013C0.515366 26.9937 0.776772 27.0951 1.04224 27.0951C1.18406 27.0951 1.32708 27.0662 1.46219 27.0066L5.84911 25.0727C6.95265 25.4835 8.11916 25.6915 9.32323 25.6915C9.34927 25.6915 9.37484 25.6895 9.40041 25.6876C11.1419 25.6744 12.835 25.2163 14.3013 24.3591C15.6148 23.5912 16.6952 22.5363 17.4527 21.2905C18.1922 21.1577 18.915 20.9571 19.6166 20.6889L25.2051 23.1524C25.3403 23.212 25.4833 23.241 25.6251 23.241C25.8906 23.2409 26.152 23.1395 26.3504 22.9471C26.6548 22.652 26.75 22.2019 26.5911 21.8088L24.4029 16.3959ZM9.32333 23.6055C9.30911 23.6055 9.29526 23.6071 9.28114 23.6076C8.2175 23.6022 7.19375 23.3932 6.23766 22.9852C5.9726 22.8721 5.67245 22.8739 5.4087 22.9902L2.96927 24.0655L3.7562 22.1189C3.90167 21.7591 3.83495 21.3481 3.58318 21.0528C2.60219 19.9019 2.0837 18.5248 2.0837 17.0704C2.0837 15.4057 2.78396 13.8285 4.00917 12.6326C4.39062 14.712 5.46693 16.7011 7.09052 18.2637C9.11088 20.2082 11.7833 21.3346 14.669 21.4702C13.3142 22.8038 11.3754 23.6055 9.32333 23.6055Z" fill="white"/>
<path d="M15.2084 12.043C15.7836 12.043 16.25 11.5767 16.25 11.0014C16.25 10.4261 15.7836 9.95972 15.2084 9.95972C14.6331 9.95972 14.1667 10.4261 14.1667 11.0014C14.1667 11.5767 14.6331 12.043 15.2084 12.043Z" fill="white"/>
<path d="M19.3751 12.043C19.9504 12.043 20.4167 11.5767 20.4167 11.0014C20.4167 10.4261 19.9504 9.95972 19.3751 9.95972C18.7998 9.95972 18.3334 10.4261 18.3334 11.0014C18.3334 11.5767 18.7998 12.043 19.3751 12.043Z" fill="white"/>
<path d="M11.0417 12.043C11.617 12.043 12.0834 11.5767 12.0834 11.0014C12.0834 10.4261 11.617 9.95972 11.0417 9.95972C10.4664 9.95972 10 10.4261 10 11.0014C10 11.5767 10.4664 12.043 11.0417 12.043Z" fill="white"/>
</g>
<defs>
<clipPath id="clip0">
<rect width="26.6667" height="26.6667" fill="white" transform="translate(0 0.428467)"/>
</clipPath>
</defs>
</svg>
