<svg width="32" height="32" viewBox="0 0 32 32" fill="none" xmlns="http://www.w3.org/2000/svg">
<rect width="32" height="32" rx="16" fill="#F7F7F7"/>
<path d="M20.6666 16C21.1971 16 21.7058 16.2107 22.0809 16.5858C22.4559 16.9609 22.6666 17.4696 22.6666 18V18.6667C22.6666 21.2947 20.1866 24 16 24C11.8133 24 9.33331 21.2947 9.33331 18.6667V18C9.33331 17.4696 9.54403 16.9609 9.9191 16.5858C10.2942 16.2107 10.8029 16 11.3333 16H20.6666ZM16 7.33334C16.9724 7.33334 17.9051 7.71964 18.5927 8.40728C19.2803 9.09491 19.6666 10.0275 19.6666 11C19.6666 11.9725 19.2803 12.9051 18.5927 13.5927C17.9051 14.2804 16.9724 14.6667 16 14.6667C15.0275 14.6667 14.0949 14.2804 13.4073 13.5927C12.7196 12.9051 12.3333 11.9725 12.3333 11C12.3333 10.0275 12.7196 9.09491 13.4073 8.40728C14.0949 7.71964 15.0275 7.33334 16 7.33334Z" fill="#7B46AC"/>
</svg>
