<svg width="16" height="16" viewBox="0 0 16 16" fill="none" xmlns="http://www.w3.org/2000/svg">
<path fill-rule="evenodd" clip-rule="evenodd" d="M12.5398 5.29467C12.9303 4.90414 12.9303 4.27098 12.5398 3.88045C12.1492 3.48993 11.5161 3.48993 11.1255 3.88045L8.00001 7.00598L4.92196 3.92793C4.53143 3.5374 3.89827 3.5374 3.50774 3.92793C3.11722 4.31845 3.11722 4.95162 3.50774 5.34214L6.5858 8.4202L3.34737 11.6586C2.95684 12.0492 2.95684 12.6823 3.34737 13.0728C3.73789 13.4634 4.37106 13.4634 4.76158 13.0728L8.00001 9.83441L11.2859 13.1203C11.6764 13.5108 12.3096 13.5108 12.7001 13.1203C13.0907 12.7298 13.0907 12.0966 12.7001 11.7061L9.41422 8.4202L12.5398 5.29467Z" fill="white"/>
</svg>
